<svg width="133" height="53" viewBox="0 0 133 53" fill="none" xmlns="http://www.w3.org/2000/svg">
<rect x="1" y="1" width="131" height="51" rx="7" stroke="#0AB69C" stroke-width="2"/>
<path d="M20.3655 27.2569L25.808 32.1815C25.9205 32.2847 26.0537 32.366 26.1998 32.4206C26.3458 32.4753 26.502 32.5022 26.6591 32.4999C26.8163 32.4975 26.9715 32.466 27.1156 32.407C27.2598 32.3481 27.3901 32.2629 27.4992 32.1564C27.6082 32.0499 27.6937 31.9241 27.7508 31.7864C27.8079 31.6487 27.8355 31.5017 27.832 31.3539C27.8284 31.2061 27.7938 31.0604 27.7301 30.9253C27.6665 30.7901 27.575 30.6681 27.461 30.5663L24.1673 27.5861L38.7974 27.6666L38.8046 27.6666C39.1208 27.6674 39.4243 27.5501 39.6485 27.3406C39.8726 27.131 39.9991 26.8462 40 26.549C40.0009 26.2517 39.8762 25.9663 39.6533 25.7555C39.4304 25.5447 39.1276 25.4258 38.8115 25.4249L24.1745 25.3441L27.4523 22.4365C27.6824 22.2326 27.8168 21.951 27.826 21.6538C27.8353 21.3566 27.7186 21.0682 27.5017 20.8519C27.2848 20.6356 26.9853 20.5092 26.6693 20.5005C26.3533 20.4918 26.0465 20.6015 25.8165 20.8055L20.3742 25.6336C20.2567 25.7378 20.163 25.8632 20.0987 26.0024C20.0344 26.1416 20.0008 26.2916 20 26.4434C19.9992 26.5951 20.0312 26.7455 20.094 26.8853C20.1568 27.025 20.2492 27.1514 20.3655 27.2566L20.3655 27.2569Z" fill="#0AB69C"/>
<path d="M64.8398 24.7188V26.6621H57.291V24.7188H64.8398ZM57.8965 18.7812V33H55.4453V18.7812H57.8965ZM66.7246 18.7812V33H64.2832V18.7812H66.7246ZM75.3672 30.8809V25.8418C75.3672 25.4642 75.2988 25.1387 75.1621 24.8652C75.0254 24.5918 74.8171 24.3802 74.5371 24.2305C74.2637 24.0807 73.9186 24.0059 73.502 24.0059C73.1178 24.0059 72.7858 24.071 72.5059 24.2012C72.2259 24.3314 72.0078 24.5072 71.8516 24.7285C71.6953 24.9499 71.6172 25.2005 71.6172 25.4805H69.2734C69.2734 25.0638 69.3743 24.6602 69.5762 24.2695C69.778 23.8789 70.071 23.5306 70.4551 23.2246C70.8392 22.9186 71.2982 22.6777 71.832 22.502C72.3659 22.3262 72.9648 22.2383 73.6289 22.2383C74.4232 22.2383 75.1263 22.3717 75.7383 22.6387C76.3568 22.9056 76.8418 23.3092 77.1934 23.8496C77.5514 24.3835 77.7305 25.054 77.7305 25.8613V30.5586C77.7305 31.0404 77.763 31.4733 77.8281 31.8574C77.8997 32.235 78.0007 32.5638 78.1309 32.8438V33H75.7188C75.6081 32.7461 75.5202 32.4238 75.4551 32.0332C75.3965 31.6361 75.3672 31.252 75.3672 30.8809ZM75.709 26.5742L75.7285 28.0293H74.0391C73.6029 28.0293 73.2188 28.0716 72.8867 28.1562C72.5547 28.2344 72.278 28.3516 72.0566 28.5078C71.8353 28.6641 71.6693 28.8529 71.5586 29.0742C71.4479 29.2956 71.3926 29.5462 71.3926 29.8262C71.3926 30.1061 71.4577 30.3633 71.5879 30.5977C71.7181 30.8255 71.9069 31.0046 72.1543 31.1348C72.4082 31.265 72.7142 31.3301 73.0723 31.3301C73.554 31.3301 73.974 31.2324 74.332 31.0371C74.6966 30.8353 74.9831 30.5911 75.1914 30.3047C75.3997 30.0117 75.5104 29.735 75.5234 29.4746L76.2852 30.5195C76.207 30.7865 76.0736 31.0729 75.8848 31.3789C75.696 31.6849 75.4486 31.9779 75.1426 32.2578C74.8431 32.5312 74.4818 32.7559 74.0586 32.9316C73.6419 33.1074 73.1602 33.1953 72.6133 33.1953C71.9232 33.1953 71.3079 33.0586 70.7676 32.7852C70.2272 32.5052 69.804 32.1309 69.498 31.6621C69.1921 31.1868 69.0391 30.6497 69.0391 30.0508C69.0391 29.4909 69.1432 28.9961 69.3516 28.5664C69.5664 28.1302 69.8789 27.7656 70.2891 27.4727C70.7057 27.1797 71.2135 26.9583 71.8125 26.8086C72.4115 26.6523 73.0951 26.5742 73.8633 26.5742H75.709ZM84.5664 27.9512H82.5352V26.7598H84.1758C84.5924 26.7598 84.9245 26.7044 85.1719 26.5938C85.4258 26.4831 85.6048 26.3301 85.709 26.1348C85.8197 25.9329 85.875 25.6986 85.875 25.4316C85.875 25.1973 85.8197 24.9759 85.709 24.7676C85.6048 24.5527 85.4258 24.377 85.1719 24.2402C84.918 24.1035 84.5729 24.0352 84.1367 24.0352C83.7786 24.0352 83.4564 24.0938 83.1699 24.2109C82.89 24.3281 82.6686 24.4909 82.5059 24.6992C82.3431 24.9076 82.2617 25.1484 82.2617 25.4219H79.9082C79.9082 24.7643 80.0938 24.1979 80.4648 23.7227C80.8424 23.2474 81.347 22.8828 81.9785 22.6289C82.61 22.375 83.3034 22.248 84.0586 22.248C84.7031 22.248 85.2826 22.3164 85.7969 22.4531C86.3112 22.5833 86.7474 22.7786 87.1055 23.0391C87.4701 23.293 87.7467 23.612 87.9355 23.9961C88.1309 24.3737 88.2285 24.8132 88.2285 25.3145C88.2285 25.6725 88.1439 26.0111 87.9746 26.3301C87.8053 26.6491 87.5612 26.9323 87.2422 27.1797C86.9232 27.4206 86.5358 27.6094 86.0801 27.7461C85.6309 27.8828 85.1263 27.9512 84.5664 27.9512ZM82.5352 27.2676H84.5664C85.1914 27.2676 85.7448 27.3294 86.2266 27.4531C86.7083 27.5703 87.112 27.7461 87.4375 27.9805C87.763 28.2148 88.0072 28.5046 88.1699 28.8496C88.3392 29.1882 88.4238 29.5788 88.4238 30.0215C88.4238 30.5163 88.3164 30.9622 88.1016 31.3594C87.8932 31.75 87.5938 32.082 87.2031 32.3555C86.819 32.6289 86.36 32.8372 85.8262 32.9805C85.2923 33.1237 84.7031 33.1953 84.0586 33.1953C83.3555 33.1953 82.6719 33.0781 82.0078 32.8438C81.3503 32.6094 80.8066 32.248 80.377 31.7598C79.9538 31.265 79.7422 30.6367 79.7422 29.875H82.0957C82.0957 30.1419 82.1771 30.3926 82.3398 30.627C82.5026 30.8613 82.737 31.0534 83.043 31.2031C83.349 31.3464 83.7168 31.418 84.1465 31.418C84.5892 31.418 84.9505 31.3496 85.2305 31.2129C85.5104 31.0697 85.7188 30.8841 85.8555 30.6562C85.9922 30.4219 86.0605 30.1745 86.0605 29.9141C86.0605 29.5625 85.9922 29.2793 85.8555 29.0645C85.7188 28.8496 85.5104 28.6934 85.2305 28.5957C84.9505 28.4915 84.599 28.4395 84.1758 28.4395H82.5352V27.2676ZM96.3828 30.8809V25.8418C96.3828 25.4642 96.3145 25.1387 96.1777 24.8652C96.041 24.5918 95.8327 24.3802 95.5527 24.2305C95.2793 24.0807 94.9342 24.0059 94.5176 24.0059C94.1335 24.0059 93.8014 24.071 93.5215 24.2012C93.2415 24.3314 93.0234 24.5072 92.8672 24.7285C92.7109 24.9499 92.6328 25.2005 92.6328 25.4805H90.2891C90.2891 25.0638 90.39 24.6602 90.5918 24.2695C90.7936 23.8789 91.0866 23.5306 91.4707 23.2246C91.8548 22.9186 92.3138 22.6777 92.8477 22.502C93.3815 22.3262 93.9805 22.2383 94.6445 22.2383C95.4388 22.2383 96.1419 22.3717 96.7539 22.6387C97.3724 22.9056 97.8574 23.3092 98.209 23.8496C98.5671 24.3835 98.7461 25.054 98.7461 25.8613V30.5586C98.7461 31.0404 98.7786 31.4733 98.8438 31.8574C98.9154 32.235 99.0163 32.5638 99.1465 32.8438V33H96.7344C96.6237 32.7461 96.5358 32.4238 96.4707 32.0332C96.4121 31.6361 96.3828 31.252 96.3828 30.8809ZM96.7246 26.5742L96.7441 28.0293H95.0547C94.6185 28.0293 94.2344 28.0716 93.9023 28.1562C93.5703 28.2344 93.2936 28.3516 93.0723 28.5078C92.8509 28.6641 92.6849 28.8529 92.5742 29.0742C92.4635 29.2956 92.4082 29.5462 92.4082 29.8262C92.4082 30.1061 92.4733 30.3633 92.6035 30.5977C92.7337 30.8255 92.9225 31.0046 93.1699 31.1348C93.4238 31.265 93.7298 31.3301 94.0879 31.3301C94.5697 31.3301 94.9896 31.2324 95.3477 31.0371C95.7122 30.8353 95.9987 30.5911 96.207 30.3047C96.4154 30.0117 96.526 29.735 96.5391 29.4746L97.3008 30.5195C97.2227 30.7865 97.0892 31.0729 96.9004 31.3789C96.7116 31.6849 96.4642 31.9779 96.1582 32.2578C95.8587 32.5312 95.4974 32.7559 95.0742 32.9316C94.6576 33.1074 94.1758 33.1953 93.6289 33.1953C92.9388 33.1953 92.3236 33.0586 91.7832 32.7852C91.2428 32.5052 90.8197 32.1309 90.5137 31.6621C90.2077 31.1868 90.0547 30.6497 90.0547 30.0508C90.0547 29.4909 90.1589 28.9961 90.3672 28.5664C90.582 28.1302 90.8945 27.7656 91.3047 27.4727C91.7214 27.1797 92.2292 26.9583 92.8281 26.8086C93.4271 26.6523 94.1107 26.5742 94.8789 26.5742H96.7246ZM103.121 22.4336H105.475L105.357 26.1543C105.325 27.235 105.201 28.1628 104.986 28.9375C104.771 29.7122 104.492 30.3665 104.146 30.9004C103.801 31.4277 103.411 31.8607 102.975 32.1992C102.545 32.5378 102.092 32.8047 101.617 33H100.924V31.1445L101.256 31.125C101.536 30.8255 101.777 30.526 101.979 30.2266C102.187 29.9206 102.363 29.5853 102.506 29.2207C102.649 28.8496 102.76 28.4167 102.838 27.9219C102.923 27.4271 102.978 26.8379 103.004 26.1543L103.121 22.4336ZM103.746 22.4336H110.445V33H108.102V24.4258H103.746V22.4336ZM100.387 31.125H111.891V36.1445H109.537V33H102.77V36.1445H100.377L100.387 31.125Z" fill="#0AB69C"/>
</svg>
