<svg width="517" height="85" viewBox="0 0 517 85" fill="none" xmlns="http://www.w3.org/2000/svg">
<path d="M8 0.5H509C513.142 0.5 516.5 3.85786 516.5 8V77C516.5 81.1421 513.142 84.5 509 84.5H8C3.85787 84.5 0.5 81.1421 0.5 77V8C0.5 3.85786 3.85786 0.5 8 0.5Z" stroke="#E2E8F0"/>
<path d="M31.9997 29.3334V23.9167H31.458M31.458 29.3334H32.5413" stroke="#020617" stroke-width="1.5" stroke-linecap="round" stroke-linejoin="round"/>
<path d="M32 21.2083V20.6666" stroke="#020617" stroke-width="1.5" stroke-linecap="round" stroke-linejoin="round"/>
<circle cx="32" cy="25" r="9.75" stroke="#020617" stroke-width="1.5" stroke-linecap="round" stroke-linejoin="round"/>
<path d="M75.2344 16.9375V34H72.3047V19.2812H64.7227V34H61.793V16.9375H75.2344ZM77.9531 27.8008V27.5312C77.9531 26.6172 78.0859 25.7695 78.3516 24.9883C78.6172 24.1992 79 23.5156 79.5 22.9375C80.0078 22.3516 80.625 21.8984 81.3516 21.5781C82.0859 21.25 82.9141 21.0859 83.8359 21.0859C84.7656 21.0859 85.5938 21.25 86.3203 21.5781C87.0547 21.8984 87.6758 22.3516 88.1836 22.9375C88.6914 23.5156 89.0781 24.1992 89.3438 24.9883C89.6094 25.7695 89.7422 26.6172 89.7422 27.5312V27.8008C89.7422 28.7148 89.6094 29.5625 89.3438 30.3438C89.0781 31.125 88.6914 31.8086 88.1836 32.3945C87.6758 32.9727 87.0586 33.4258 86.332 33.7539C85.6055 34.0742 84.7812 34.2344 83.8594 34.2344C82.9297 34.2344 82.0977 34.0742 81.3633 33.7539C80.6367 33.4258 80.0195 32.9727 79.5117 32.3945C79.0039 31.8086 78.6172 31.125 78.3516 30.3438C78.0859 29.5625 77.9531 28.7148 77.9531 27.8008ZM80.7773 27.5312V27.8008C80.7773 28.3711 80.8359 28.9102 80.9531 29.418C81.0703 29.9258 81.2539 30.3711 81.5039 30.7539C81.7539 31.1367 82.0742 31.4375 82.4648 31.6562C82.8555 31.875 83.3203 31.9844 83.8594 31.9844C84.3828 31.9844 84.8359 31.875 85.2188 31.6562C85.6094 31.4375 85.9297 31.1367 86.1797 30.7539C86.4297 30.3711 86.6133 29.9258 86.7305 29.418C86.8555 28.9102 86.918 28.3711 86.918 27.8008V27.5312C86.918 26.9688 86.8555 26.4375 86.7305 25.9375C86.6133 25.4297 86.4258 24.9805 86.168 24.5898C85.918 24.1992 85.5977 23.8945 85.207 23.6758C84.8242 23.4492 84.3672 23.3359 83.8359 23.3359C83.3047 23.3359 82.8438 23.4492 82.4531 23.6758C82.0703 23.8945 81.7539 24.1992 81.5039 24.5898C81.2539 24.9805 81.0703 25.4297 80.9531 25.9375C80.8359 26.4375 80.7773 26.9688 80.7773 27.5312ZM96.0586 28.8789L90.9961 21.3203H94.4648L97.418 26.3125H99.8906L99.5273 28.8789H96.0586ZM97.4883 28.4688L94.2422 34H90.7734L95.3672 26.8633L97.4883 28.4688ZM101.59 21.3203V34H98.7773V21.3203H101.59ZM109.406 21.3203L104.344 28.8789H100.863L100.488 26.3125H102.973L105.926 21.3203H109.406ZM106.148 34L102.891 28.4688L105.082 26.8633L109.652 34H106.148ZM118.594 31.457V25.4102C118.594 24.957 118.512 24.5664 118.348 24.2383C118.184 23.9102 117.934 23.6562 117.598 23.4766C117.27 23.2969 116.855 23.207 116.355 23.207C115.895 23.207 115.496 23.2852 115.16 23.4414C114.824 23.5977 114.562 23.8086 114.375 24.0742C114.188 24.3398 114.094 24.6406 114.094 24.9766H111.281C111.281 24.4766 111.402 23.9922 111.645 23.5234C111.887 23.0547 112.238 22.6367 112.699 22.2695C113.16 21.9023 113.711 21.6133 114.352 21.4023C114.992 21.1914 115.711 21.0859 116.508 21.0859C117.461 21.0859 118.305 21.2461 119.039 21.5664C119.781 21.8867 120.363 22.3711 120.785 23.0195C121.215 23.6602 121.43 24.4648 121.43 25.4336V31.0703C121.43 31.6484 121.469 32.168 121.547 32.6289C121.633 33.082 121.754 33.4766 121.91 33.8125V34H119.016C118.883 33.6953 118.777 33.3086 118.699 32.8398C118.629 32.3633 118.594 31.9023 118.594 31.457ZM119.004 26.2891L119.027 28.0352H117C116.477 28.0352 116.016 28.0859 115.617 28.1875C115.219 28.2812 114.887 28.4219 114.621 28.6094C114.355 28.7969 114.156 29.0234 114.023 29.2891C113.891 29.5547 113.824 29.8555 113.824 30.1914C113.824 30.5273 113.902 30.8359 114.059 31.1172C114.215 31.3906 114.441 31.6055 114.738 31.7617C115.043 31.918 115.41 31.9961 115.84 31.9961C116.418 31.9961 116.922 31.8789 117.352 31.6445C117.789 31.4023 118.133 31.1094 118.383 30.7656C118.633 30.4141 118.766 30.082 118.781 29.7695L119.695 31.0234C119.602 31.3438 119.441 31.6875 119.215 32.0547C118.988 32.4219 118.691 32.7734 118.324 33.1094C117.965 33.4375 117.531 33.707 117.023 33.918C116.523 34.1289 115.945 34.2344 115.289 34.2344C114.461 34.2344 113.723 34.0703 113.074 33.7422C112.426 33.4062 111.918 32.957 111.551 32.3945C111.184 31.8242 111 31.1797 111 30.4609C111 29.7891 111.125 29.1953 111.375 28.6797C111.633 28.1562 112.008 27.7188 112.5 27.3672C113 27.0156 113.609 26.75 114.328 26.5703C115.047 26.3828 115.867 26.2891 116.789 26.2891H119.004ZM132.902 21.3203V23.5703H126.715V21.3203H132.902ZM135.117 21.3203V34H132.293V21.3203H135.117ZM126.023 21.3203H128.812L128.473 27.5898C128.426 28.5195 128.332 29.3398 128.191 30.0508C128.059 30.7539 127.879 31.3594 127.652 31.8672C127.426 32.3672 127.148 32.7734 126.82 33.0859C126.492 33.3984 126.109 33.6289 125.672 33.7773C125.234 33.9258 124.742 34 124.195 34H123.316L123.305 31.6797L123.75 31.6445C124.039 31.6211 124.289 31.5469 124.5 31.4219C124.711 31.2891 124.891 31.1016 125.039 30.8594C125.195 30.6172 125.32 30.3047 125.414 29.9219C125.516 29.5391 125.594 29.0859 125.648 28.5625C125.711 28.0391 125.758 27.4297 125.789 26.7344L126.023 21.3203ZM141.797 32.6172L145.242 21.3203H148.266L143.18 35.9336C143.062 36.2461 142.91 36.5859 142.723 36.9531C142.535 37.3203 142.289 37.668 141.984 37.9961C141.688 38.332 141.316 38.6016 140.871 38.8047C140.426 39.0156 139.887 39.1211 139.254 39.1211C139.004 39.1211 138.762 39.0977 138.527 39.0508C138.301 39.0117 138.086 38.9688 137.883 38.9219L137.871 36.7656C137.949 36.7734 138.043 36.7812 138.152 36.7891C138.27 36.7969 138.363 36.8008 138.434 36.8008C138.902 36.8008 139.293 36.7422 139.605 36.625C139.918 36.5156 140.172 36.3359 140.367 36.0859C140.57 35.8359 140.742 35.5 140.883 35.0781L141.797 32.6172ZM139.852 21.3203L142.863 30.8125L143.367 33.7891L141.41 34.293L136.805 21.3203H139.852ZM152.801 29.875L157.781 21.3203H160.605V34H157.781V25.4336L152.801 34H149.977V21.3203H152.801V29.875ZM157.031 16.4453H159.129C159.129 17.0938 158.973 17.668 158.66 18.168C158.355 18.6602 157.918 19.0469 157.348 19.3281C156.785 19.6094 156.113 19.75 155.332 19.75C154.152 19.75 153.219 19.4453 152.531 18.8359C151.852 18.2188 151.512 17.4219 151.512 16.4453H153.609C153.609 16.8828 153.738 17.2695 153.996 17.6055C154.262 17.9336 154.707 18.0977 155.332 18.0977C155.949 18.0977 156.387 17.9336 156.645 17.6055C156.902 17.2695 157.031 16.8828 157.031 16.4453ZM168.773 31.9844C169.234 31.9844 169.648 31.8945 170.016 31.7148C170.391 31.5273 170.691 31.2695 170.918 30.9414C171.152 30.6133 171.281 30.2344 171.305 29.8047H173.965C173.949 30.625 173.707 31.3711 173.238 32.043C172.77 32.7148 172.148 33.25 171.375 33.6484C170.602 34.0391 169.746 34.2344 168.809 34.2344C167.84 34.2344 166.996 34.0703 166.277 33.7422C165.559 33.4062 164.961 32.9453 164.484 32.3594C164.008 31.7734 163.648 31.0977 163.406 30.332C163.172 29.5664 163.055 28.7461 163.055 27.8711V27.4609C163.055 26.5859 163.172 25.7656 163.406 25C163.648 24.2266 164.008 23.5469 164.484 22.9609C164.961 22.375 165.559 21.918 166.277 21.5898C166.996 21.2539 167.836 21.0859 168.797 21.0859C169.812 21.0859 170.703 21.2891 171.469 21.6953C172.234 22.0938 172.836 22.6523 173.273 23.3711C173.719 24.082 173.949 24.9102 173.965 25.8555H171.305C171.281 25.3867 171.164 24.9648 170.953 24.5898C170.75 24.207 170.461 23.9023 170.086 23.6758C169.719 23.4492 169.277 23.3359 168.762 23.3359C168.191 23.3359 167.719 23.4531 167.344 23.6875C166.969 23.9141 166.676 24.2266 166.465 24.625C166.254 25.0156 166.102 25.457 166.008 25.9492C165.922 26.4336 165.879 26.9375 165.879 27.4609V27.8711C165.879 28.3945 165.922 28.9023 166.008 29.3945C166.094 29.8867 166.242 30.3281 166.453 30.7188C166.672 31.1016 166.969 31.4102 167.344 31.6445C167.719 31.8711 168.195 31.9844 168.773 31.9844ZM182.016 21.3203V34H179.18V21.3203H182.016ZM186.176 21.3203V23.5469H175.09V21.3203H186.176ZM195.023 31.457V25.4102C195.023 24.957 194.941 24.5664 194.777 24.2383C194.613 23.9102 194.363 23.6562 194.027 23.4766C193.699 23.2969 193.285 23.207 192.785 23.207C192.324 23.207 191.926 23.2852 191.59 23.4414C191.254 23.5977 190.992 23.8086 190.805 24.0742C190.617 24.3398 190.523 24.6406 190.523 24.9766H187.711C187.711 24.4766 187.832 23.9922 188.074 23.5234C188.316 23.0547 188.668 22.6367 189.129 22.2695C189.59 21.9023 190.141 21.6133 190.781 21.4023C191.422 21.1914 192.141 21.0859 192.938 21.0859C193.891 21.0859 194.734 21.2461 195.469 21.5664C196.211 21.8867 196.793 22.3711 197.215 23.0195C197.645 23.6602 197.859 24.4648 197.859 25.4336V31.0703C197.859 31.6484 197.898 32.168 197.977 32.6289C198.062 33.082 198.184 33.4766 198.34 33.8125V34H195.445C195.312 33.6953 195.207 33.3086 195.129 32.8398C195.059 32.3633 195.023 31.9023 195.023 31.457ZM195.434 26.2891L195.457 28.0352H193.43C192.906 28.0352 192.445 28.0859 192.047 28.1875C191.648 28.2812 191.316 28.4219 191.051 28.6094C190.785 28.7969 190.586 29.0234 190.453 29.2891C190.32 29.5547 190.254 29.8555 190.254 30.1914C190.254 30.5273 190.332 30.8359 190.488 31.1172C190.645 31.3906 190.871 31.6055 191.168 31.7617C191.473 31.918 191.84 31.9961 192.27 31.9961C192.848 31.9961 193.352 31.8789 193.781 31.6445C194.219 31.4023 194.562 31.1094 194.812 30.7656C195.062 30.4141 195.195 30.082 195.211 29.7695L196.125 31.0234C196.031 31.3438 195.871 31.6875 195.645 32.0547C195.418 32.4219 195.121 32.7734 194.754 33.1094C194.395 33.4375 193.961 33.707 193.453 33.918C192.953 34.1289 192.375 34.2344 191.719 34.2344C190.891 34.2344 190.152 34.0703 189.504 33.7422C188.855 33.4062 188.348 32.957 187.98 32.3945C187.613 31.8242 187.43 31.1797 187.43 30.4609C187.43 29.7891 187.555 29.1953 187.805 28.6797C188.062 28.1562 188.438 27.7188 188.93 27.3672C189.43 27.0156 190.039 26.75 190.758 26.5703C191.477 26.3828 192.297 26.2891 193.219 26.2891H195.434ZM203.461 31.2812L203.449 33.2969C203.449 34.0938 203.25 34.9141 202.852 35.7578C202.453 36.6016 201.926 37.2969 201.27 37.8438L199.758 36.9648C199.977 36.6133 200.176 36.2578 200.355 35.8984C200.535 35.5391 200.68 35.1562 200.789 34.75C200.898 34.3438 200.953 33.8945 200.953 33.4023V31.2812H203.461Z" fill="#020617"/>
<path d="M67.5762 53.4902V54.835H62.7686V53.4902H67.5762ZM63.0059 53.4902V63H61.3799V53.4902H63.0059ZM69.0176 53.4902V63H67.3828V53.4902H69.0176ZM73.2539 55.3184V66.6562H71.6191V53.4902H73.1133L73.2539 55.3184ZM79.6611 58.166V58.3506C79.6611 59.042 79.5791 59.6836 79.415 60.2754C79.251 60.8613 79.0107 61.3711 78.6943 61.8047C78.3838 62.2383 78 62.5752 77.543 62.8154C77.0859 63.0557 76.5615 63.1758 75.9697 63.1758C75.3662 63.1758 74.833 63.0762 74.3701 62.877C73.9072 62.6777 73.5146 62.3877 73.1924 62.0068C72.8701 61.626 72.6123 61.1689 72.4189 60.6357C72.2314 60.1025 72.1025 59.502 72.0322 58.834V57.8496C72.1025 57.1465 72.2344 56.5166 72.4277 55.96C72.6211 55.4033 72.876 54.9287 73.1924 54.5361C73.5146 54.1377 73.9043 53.8359 74.3613 53.6309C74.8184 53.4199 75.3457 53.3145 75.9434 53.3145C76.541 53.3145 77.0713 53.4316 77.5342 53.666C77.9971 53.8945 78.3867 54.2227 78.7031 54.6504C79.0195 55.0781 79.2568 55.5908 79.415 56.1885C79.5791 56.7803 79.6611 57.4395 79.6611 58.166ZM78.0264 58.3506V58.166C78.0264 57.6914 77.9766 57.2461 77.877 56.8301C77.7773 56.4082 77.6221 56.0391 77.4111 55.7227C77.2061 55.4004 76.9424 55.1484 76.6201 54.9668C76.2979 54.7793 75.9141 54.6855 75.4688 54.6855C75.0586 54.6855 74.7012 54.7559 74.3965 54.8965C74.0977 55.0371 73.8428 55.2275 73.6318 55.4678C73.4209 55.7021 73.248 55.9717 73.1133 56.2764C72.9844 56.5752 72.8877 56.8857 72.8232 57.208V59.4844C72.9404 59.8945 73.1045 60.2812 73.3154 60.6445C73.5264 61.002 73.8076 61.292 74.1592 61.5146C74.5107 61.7314 74.9531 61.8398 75.4863 61.8398C75.9258 61.8398 76.3037 61.749 76.6201 61.5674C76.9424 61.3799 77.2061 61.125 77.4111 60.8027C77.6221 60.4805 77.7773 60.1113 77.877 59.6953C77.9766 59.2734 78.0264 58.8252 78.0264 58.3506ZM81.3047 58.3506V58.1484C81.3047 57.4629 81.4043 56.8271 81.6035 56.2412C81.8027 55.6494 82.0898 55.1367 82.4648 54.7031C82.8398 54.2637 83.2939 53.9238 83.8271 53.6836C84.3604 53.4375 84.958 53.3145 85.6201 53.3145C86.2881 53.3145 86.8887 53.4375 87.4219 53.6836C87.9609 53.9238 88.418 54.2637 88.793 54.7031C89.1738 55.1367 89.4639 55.6494 89.6631 56.2412C89.8623 56.8271 89.9619 57.4629 89.9619 58.1484V58.3506C89.9619 59.0361 89.8623 59.6719 89.6631 60.2578C89.4639 60.8438 89.1738 61.3564 88.793 61.7959C88.418 62.2295 87.9639 62.5693 87.4307 62.8154C86.9033 63.0557 86.3057 63.1758 85.6377 63.1758C84.9697 63.1758 84.3691 63.0557 83.8359 62.8154C83.3027 62.5693 82.8457 62.2295 82.4648 61.7959C82.0898 61.3564 81.8027 60.8438 81.6035 60.2578C81.4043 59.6719 81.3047 59.0361 81.3047 58.3506ZM82.9307 58.1484V58.3506C82.9307 58.8252 82.9863 59.2734 83.0977 59.6953C83.209 60.1113 83.376 60.4805 83.5986 60.8027C83.8271 61.125 84.1113 61.3799 84.4512 61.5674C84.791 61.749 85.1865 61.8398 85.6377 61.8398C86.083 61.8398 86.4727 61.749 86.8066 61.5674C87.1465 61.3799 87.4277 61.125 87.6504 60.8027C87.873 60.4805 88.04 60.1113 88.1514 59.6953C88.2686 59.2734 88.3271 58.8252 88.3271 58.3506V58.1484C88.3271 57.6797 88.2686 57.2373 88.1514 56.8213C88.04 56.3994 87.8701 56.0273 87.6416 55.7051C87.4189 55.377 87.1377 55.1191 86.7979 54.9316C86.4639 54.7441 86.0713 54.6504 85.6201 54.6504C85.1748 54.6504 84.7822 54.7441 84.4424 54.9316C84.1084 55.1191 83.8271 55.377 83.5986 55.7051C83.376 56.0273 83.209 56.3994 83.0977 56.8213C82.9863 57.2373 82.9307 57.6797 82.9307 58.1484ZM96.4658 58.8164H93.3457L93.3281 57.5156H95.877C96.3809 57.5156 96.7998 57.4658 97.1338 57.3662C97.4736 57.2666 97.7285 57.1172 97.8984 56.918C98.0684 56.7188 98.1533 56.4727 98.1533 56.1797C98.1533 55.9512 98.1035 55.752 98.0039 55.582C97.9102 55.4062 97.7666 55.2627 97.5732 55.1514C97.3799 55.0342 97.1396 54.9492 96.8525 54.8965C96.5713 54.8379 96.2402 54.8086 95.8594 54.8086H93.7764V63H92.1504V53.4902H95.8594C96.4629 53.4902 97.0049 53.543 97.4854 53.6484C97.9717 53.7539 98.3848 53.915 98.7246 54.1318C99.0703 54.3428 99.334 54.6123 99.5156 54.9404C99.6973 55.2686 99.7881 55.6553 99.7881 56.1006C99.7881 56.3877 99.7295 56.6602 99.6123 56.918C99.4951 57.1758 99.3223 57.4043 99.0938 57.6035C98.8652 57.8027 98.584 57.9668 98.25 58.0957C97.916 58.2188 97.5322 58.2979 97.0986 58.333L96.4658 58.8164ZM96.4658 63H92.7568L93.5654 61.6816H96.4658C96.917 61.6816 97.292 61.626 97.5908 61.5146C97.8896 61.3975 98.1123 61.2334 98.2588 61.0225C98.4111 60.8057 98.4873 60.5479 98.4873 60.249C98.4873 59.9502 98.4111 59.6953 98.2588 59.4844C98.1123 59.2676 97.8896 59.1035 97.5908 58.9922C97.292 58.875 96.917 58.8164 96.4658 58.8164H93.9961L94.0137 57.5156H97.0986L97.6875 58.0078C98.209 58.0488 98.6514 58.1777 99.0146 58.3945C99.3779 58.6113 99.6533 58.8867 99.8408 59.2207C100.028 59.5488 100.122 59.9062 100.122 60.293C100.122 60.7383 100.037 61.1309 99.8672 61.4707C99.7031 61.8105 99.4629 62.0947 99.1465 62.3232C98.8301 62.5459 98.4463 62.7158 97.9951 62.833C97.5439 62.9443 97.0342 63 96.4658 63ZM106.248 63.1758C105.586 63.1758 104.985 63.0645 104.446 62.8418C103.913 62.6133 103.453 62.2939 103.066 61.8838C102.686 61.4736 102.393 60.9873 102.188 60.4248C101.982 59.8623 101.88 59.2471 101.88 58.5791V58.21C101.88 57.4365 101.994 56.748 102.223 56.1445C102.451 55.5352 102.762 55.0195 103.154 54.5977C103.547 54.1758 103.992 53.8564 104.49 53.6396C104.988 53.4229 105.504 53.3145 106.037 53.3145C106.717 53.3145 107.303 53.4316 107.795 53.666C108.293 53.9004 108.7 54.2285 109.017 54.6504C109.333 55.0664 109.567 55.5586 109.72 56.127C109.872 56.6895 109.948 57.3047 109.948 57.9727V58.7021H102.847V57.375H108.322V57.252C108.299 56.8301 108.211 56.4199 108.059 56.0215C107.912 55.623 107.678 55.2949 107.355 55.0371C107.033 54.7793 106.594 54.6504 106.037 54.6504C105.668 54.6504 105.328 54.7295 105.018 54.8877C104.707 55.04 104.44 55.2686 104.218 55.5732C103.995 55.8779 103.822 56.25 103.699 56.6895C103.576 57.1289 103.515 57.6357 103.515 58.21V58.5791C103.515 59.0303 103.576 59.4551 103.699 59.8535C103.828 60.2461 104.013 60.5918 104.253 60.8906C104.499 61.1895 104.795 61.4238 105.141 61.5938C105.492 61.7637 105.891 61.8486 106.336 61.8486C106.91 61.8486 107.396 61.7314 107.795 61.4971C108.193 61.2627 108.542 60.9492 108.841 60.5566L109.825 61.3389C109.62 61.6494 109.359 61.9453 109.043 62.2266C108.727 62.5078 108.337 62.7363 107.874 62.9121C107.417 63.0879 106.875 63.1758 106.248 63.1758ZM113.473 55.3184V66.6562H111.838V53.4902H113.332L113.473 55.3184ZM119.88 58.166V58.3506C119.88 59.042 119.798 59.6836 119.634 60.2754C119.47 60.8613 119.229 61.3711 118.913 61.8047C118.603 62.2383 118.219 62.5752 117.762 62.8154C117.305 63.0557 116.78 63.1758 116.188 63.1758C115.585 63.1758 115.052 63.0762 114.589 62.877C114.126 62.6777 113.733 62.3877 113.411 62.0068C113.089 61.626 112.831 61.1689 112.638 60.6357C112.45 60.1025 112.321 59.502 112.251 58.834V57.8496C112.321 57.1465 112.453 56.5166 112.646 55.96C112.84 55.4033 113.095 54.9287 113.411 54.5361C113.733 54.1377 114.123 53.8359 114.58 53.6309C115.037 53.4199 115.564 53.3145 116.162 53.3145C116.76 53.3145 117.29 53.4316 117.753 53.666C118.216 53.8945 118.605 54.2227 118.922 54.6504C119.238 55.0781 119.476 55.5908 119.634 56.1885C119.798 56.7803 119.88 57.4395 119.88 58.166ZM118.245 58.3506V58.166C118.245 57.6914 118.195 57.2461 118.096 56.8301C117.996 56.4082 117.841 56.0391 117.63 55.7227C117.425 55.4004 117.161 55.1484 116.839 54.9668C116.517 54.7793 116.133 54.6855 115.688 54.6855C115.277 54.6855 114.92 54.7559 114.615 54.8965C114.316 55.0371 114.062 55.2275 113.851 55.4678C113.64 55.7021 113.467 55.9717 113.332 56.2764C113.203 56.5752 113.106 56.8857 113.042 57.208V59.4844C113.159 59.8945 113.323 60.2812 113.534 60.6445C113.745 61.002 114.026 61.292 114.378 61.5146C114.729 61.7314 115.172 61.8398 115.705 61.8398C116.145 61.8398 116.522 61.749 116.839 61.5674C117.161 61.3799 117.425 61.125 117.63 60.8027C117.841 60.4805 117.996 60.1113 118.096 59.6953C118.195 59.2734 118.245 58.8252 118.245 58.3506ZM123.29 56.7598H126.146C126.914 56.7598 127.562 56.8945 128.089 57.1641C128.616 57.4277 129.015 57.7939 129.284 58.2627C129.56 58.7256 129.697 59.2529 129.697 59.8447C129.697 60.2842 129.621 60.6973 129.469 61.084C129.316 61.4648 129.088 61.7988 128.783 62.0859C128.484 62.373 128.112 62.5986 127.667 62.7627C127.228 62.9209 126.721 63 126.146 63H122.104V53.4902H123.729V61.6641H126.146C126.615 61.6641 126.99 61.5791 127.271 61.4092C127.553 61.2393 127.755 61.0195 127.878 60.75C128.001 60.4805 128.062 60.1992 128.062 59.9062C128.062 59.6191 128.001 59.3379 127.878 59.0625C127.755 58.7871 127.553 58.5586 127.271 58.377C126.99 58.1895 126.615 58.0957 126.146 58.0957H123.29V56.7598ZM134.988 53.4902V63H133.354V53.4902H134.988ZM138.179 53.4902V54.8086H130.225V53.4902H138.179ZM143.021 63.1758C142.359 63.1758 141.759 63.0645 141.22 62.8418C140.687 62.6133 140.227 62.2939 139.84 61.8838C139.459 61.4736 139.166 60.9873 138.961 60.4248C138.756 59.8623 138.653 59.2471 138.653 58.5791V58.21C138.653 57.4365 138.768 56.748 138.996 56.1445C139.225 55.5352 139.535 55.0195 139.928 54.5977C140.32 54.1758 140.766 53.8564 141.264 53.6396C141.762 53.4229 142.277 53.3145 142.811 53.3145C143.49 53.3145 144.076 53.4316 144.568 53.666C145.066 53.9004 145.474 54.2285 145.79 54.6504C146.106 55.0664 146.341 55.5586 146.493 56.127C146.646 56.6895 146.722 57.3047 146.722 57.9727V58.7021H139.62V57.375H145.096V57.252C145.072 56.8301 144.984 56.4199 144.832 56.0215C144.686 55.623 144.451 55.2949 144.129 55.0371C143.807 54.7793 143.367 54.6504 142.811 54.6504C142.441 54.6504 142.102 54.7295 141.791 54.8877C141.48 55.04 141.214 55.2686 140.991 55.5732C140.769 55.8779 140.596 56.25 140.473 56.6895C140.35 57.1289 140.288 57.6357 140.288 58.21V58.5791C140.288 59.0303 140.35 59.4551 140.473 59.8535C140.602 60.2461 140.786 60.5918 141.026 60.8906C141.272 61.1895 141.568 61.4238 141.914 61.5938C142.266 61.7637 142.664 61.8486 143.109 61.8486C143.684 61.8486 144.17 61.7314 144.568 61.4971C144.967 61.2627 145.315 60.9492 145.614 60.5566L146.599 61.3389C146.394 61.6494 146.133 61.9453 145.816 62.2266C145.5 62.5078 145.11 62.7363 144.647 62.9121C144.19 63.0879 143.648 63.1758 143.021 63.1758ZM150.097 61.0664V62.376C150.097 62.9092 149.962 63.4717 149.692 64.0635C149.423 64.6611 149.045 65.1592 148.559 65.5576L147.636 64.916C147.823 64.6582 147.981 64.3945 148.11 64.125C148.239 63.8613 148.336 63.5859 148.4 63.2988C148.471 63.0176 148.506 62.7188 148.506 62.4023V61.0664H150.097ZM163.808 53.4902V63H162.182V53.4902H163.808ZM163.254 57.8584V59.1943C162.926 59.3174 162.592 59.4287 162.252 59.5283C161.918 59.6221 161.563 59.6982 161.188 59.7568C160.819 59.8096 160.418 59.8359 159.984 59.8359C159.234 59.8359 158.584 59.707 158.033 59.4492C157.482 59.1855 157.058 58.79 156.759 58.2627C156.46 57.7295 156.311 57.0586 156.311 56.25V53.4727H157.937V56.25C157.937 56.7773 158.016 57.2051 158.174 57.5332C158.332 57.8613 158.563 58.1045 158.868 58.2627C159.173 58.415 159.545 58.4912 159.984 58.4912C160.406 58.4912 160.802 58.4648 161.171 58.4121C161.546 58.3535 161.903 58.2773 162.243 58.1836C162.589 58.0898 162.926 57.9814 163.254 57.8584ZM170.303 53.4902V63H168.668V53.4902H170.303ZM173.493 53.4902V54.8086H165.539V53.4902H173.493ZM174.293 58.3506V58.1484C174.293 57.4629 174.393 56.8271 174.592 56.2412C174.791 55.6494 175.078 55.1367 175.453 54.7031C175.828 54.2637 176.282 53.9238 176.815 53.6836C177.349 53.4375 177.946 53.3145 178.608 53.3145C179.276 53.3145 179.877 53.4375 180.41 53.6836C180.949 53.9238 181.406 54.2637 181.781 54.7031C182.162 55.1367 182.452 55.6494 182.651 56.2412C182.851 56.8271 182.95 57.4629 182.95 58.1484V58.3506C182.95 59.0361 182.851 59.6719 182.651 60.2578C182.452 60.8438 182.162 61.3564 181.781 61.7959C181.406 62.2295 180.952 62.5693 180.419 62.8154C179.892 63.0557 179.294 63.1758 178.626 63.1758C177.958 63.1758 177.357 63.0557 176.824 62.8154C176.291 62.5693 175.834 62.2295 175.453 61.7959C175.078 61.3564 174.791 60.8438 174.592 60.2578C174.393 59.6719 174.293 59.0361 174.293 58.3506ZM175.919 58.1484V58.3506C175.919 58.8252 175.975 59.2734 176.086 59.6953C176.197 60.1113 176.364 60.4805 176.587 60.8027C176.815 61.125 177.1 61.3799 177.439 61.5674C177.779 61.749 178.175 61.8398 178.626 61.8398C179.071 61.8398 179.461 61.749 179.795 61.5674C180.135 61.3799 180.416 61.125 180.639 60.8027C180.861 60.4805 181.028 60.1113 181.14 59.6953C181.257 59.2734 181.315 58.8252 181.315 58.3506V58.1484C181.315 57.6797 181.257 57.2373 181.14 56.8213C181.028 56.3994 180.858 56.0273 180.63 55.7051C180.407 55.377 180.126 55.1191 179.786 54.9316C179.452 54.7441 179.06 54.6504 178.608 54.6504C178.163 54.6504 177.771 54.7441 177.431 54.9316C177.097 55.1191 176.815 55.377 176.587 55.7051C176.364 56.0273 176.197 56.3994 176.086 56.8213C175.975 57.2373 175.919 57.6797 175.919 58.1484ZM193.005 58.4561H191.256V57.4541H192.873C193.324 57.4541 193.682 57.3984 193.945 57.2871C194.209 57.1699 194.396 57.0088 194.508 56.8037C194.619 56.5986 194.675 56.3584 194.675 56.083C194.675 55.8369 194.61 55.6055 194.481 55.3887C194.358 55.166 194.159 54.9873 193.884 54.8525C193.608 54.7119 193.239 54.6416 192.776 54.6416C192.401 54.6416 192.062 54.709 191.757 54.8438C191.452 54.9727 191.209 55.1514 191.027 55.3799C190.852 55.6025 190.764 55.8545 190.764 56.1357H189.138C189.138 55.5557 189.302 55.0576 189.63 54.6416C189.964 54.2197 190.406 53.8945 190.957 53.666C191.514 53.4375 192.12 53.3232 192.776 53.3232C193.327 53.3232 193.819 53.3848 194.253 53.5078C194.692 53.625 195.064 53.8008 195.369 54.0352C195.674 54.2637 195.905 54.5508 196.063 54.8965C196.228 55.2363 196.31 55.6318 196.31 56.083C196.31 56.4053 196.233 56.71 196.081 56.9971C195.929 57.2842 195.709 57.5391 195.422 57.7617C195.135 57.9785 194.786 58.1484 194.376 58.2715C193.972 58.3945 193.515 58.4561 193.005 58.4561ZM191.256 57.8408H193.005C193.573 57.8408 194.074 57.8965 194.508 58.0078C194.941 58.1133 195.305 58.2715 195.598 58.4824C195.891 58.6934 196.11 58.9541 196.257 59.2646C196.409 59.5693 196.485 59.9209 196.485 60.3193C196.485 60.7646 196.395 61.166 196.213 61.5234C196.037 61.875 195.785 62.1738 195.457 62.4199C195.129 62.666 194.736 62.8535 194.279 62.9824C193.828 63.1113 193.327 63.1758 192.776 63.1758C192.161 63.1758 191.563 63.0703 190.983 62.8594C190.403 62.6484 189.926 62.3232 189.551 61.8838C189.176 61.4385 188.988 60.873 188.988 60.1875H190.614C190.614 60.4746 190.705 60.7471 190.887 61.0049C191.068 61.2627 191.32 61.4707 191.643 61.6289C191.971 61.7871 192.349 61.8662 192.776 61.8662C193.233 61.8662 193.614 61.7959 193.919 61.6553C194.224 61.5146 194.452 61.3271 194.604 61.0928C194.763 60.8584 194.842 60.6035 194.842 60.3281C194.842 59.9707 194.771 59.6836 194.631 59.4668C194.49 59.25 194.273 59.0918 193.98 58.9922C193.693 58.8867 193.324 58.834 192.873 58.834H191.256V57.8408ZM204.202 61.374V56.4785C204.202 56.1035 204.126 55.7783 203.974 55.5029C203.827 55.2217 203.604 55.0049 203.306 54.8525C203.007 54.7002 202.638 54.624 202.198 54.624C201.788 54.624 201.428 54.6943 201.117 54.835C200.812 54.9756 200.572 55.1602 200.396 55.3887C200.227 55.6172 200.142 55.8633 200.142 56.127H198.516C198.516 55.7871 198.604 55.4502 198.779 55.1162C198.955 54.7822 199.207 54.4805 199.535 54.2109C199.869 53.9355 200.268 53.7188 200.73 53.5605C201.199 53.3965 201.721 53.3145 202.295 53.3145C202.986 53.3145 203.596 53.4316 204.123 53.666C204.656 53.9004 205.072 54.2549 205.371 54.7295C205.676 55.1982 205.828 55.7871 205.828 56.4961V60.9258C205.828 61.2422 205.854 61.5791 205.907 61.9365C205.966 62.2939 206.051 62.6016 206.162 62.8594V63H204.466C204.384 62.8125 204.319 62.5635 204.272 62.2529C204.226 61.9365 204.202 61.6436 204.202 61.374ZM204.483 57.2344L204.501 58.377H202.857C202.395 58.377 201.981 58.415 201.618 58.4912C201.255 58.5615 200.95 58.6699 200.704 58.8164C200.458 58.9629 200.271 59.1475 200.142 59.3701C200.013 59.5869 199.948 59.8418 199.948 60.1348C199.948 60.4336 200.016 60.7061 200.15 60.9521C200.285 61.1982 200.487 61.3945 200.757 61.541C201.032 61.6816 201.369 61.752 201.768 61.752C202.266 61.752 202.705 61.6465 203.086 61.4355C203.467 61.2246 203.769 60.9668 203.991 60.6621C204.22 60.3574 204.343 60.0615 204.36 59.7744L205.055 60.5566C205.014 60.8027 204.902 61.0752 204.721 61.374C204.539 61.6729 204.296 61.96 203.991 62.2354C203.692 62.5049 203.335 62.7305 202.919 62.9121C202.509 63.0879 202.046 63.1758 201.53 63.1758C200.886 63.1758 200.32 63.0498 199.834 62.7979C199.354 62.5459 198.979 62.209 198.709 61.7871C198.445 61.3594 198.313 60.8818 198.313 60.3545C198.313 59.8447 198.413 59.3965 198.612 59.0098C198.812 58.6172 199.099 58.292 199.474 58.0342C199.849 57.7705 200.3 57.5713 200.827 57.4365C201.354 57.3018 201.943 57.2344 202.594 57.2344H204.483ZM210.152 53.4902V63H208.526V53.4902H210.152ZM216.393 53.4902L211.884 58.9395H209.607L209.361 57.5156H211.225L214.415 53.4902H216.393ZM214.644 63L211.146 58.6934L212.191 57.5156L216.709 63H214.644ZM219.75 55.3184V66.6562H218.115V53.4902H219.609L219.75 55.3184ZM226.157 58.166V58.3506C226.157 59.042 226.075 59.6836 225.911 60.2754C225.747 60.8613 225.507 61.3711 225.19 61.8047C224.88 62.2383 224.496 62.5752 224.039 62.8154C223.582 63.0557 223.058 63.1758 222.466 63.1758C221.862 63.1758 221.329 63.0762 220.866 62.877C220.403 62.6777 220.011 62.3877 219.688 62.0068C219.366 61.626 219.108 61.1689 218.915 60.6357C218.728 60.1025 218.599 59.502 218.528 58.834V57.8496C218.599 57.1465 218.73 56.5166 218.924 55.96C219.117 55.4033 219.372 54.9287 219.688 54.5361C220.011 54.1377 220.4 53.8359 220.857 53.6309C221.314 53.4199 221.842 53.3145 222.439 53.3145C223.037 53.3145 223.567 53.4316 224.03 53.666C224.493 53.8945 224.883 54.2227 225.199 54.6504C225.516 55.0781 225.753 55.5908 225.911 56.1885C226.075 56.7803 226.157 57.4395 226.157 58.166ZM224.522 58.3506V58.166C224.522 57.6914 224.473 57.2461 224.373 56.8301C224.273 56.4082 224.118 56.0391 223.907 55.7227C223.702 55.4004 223.438 55.1484 223.116 54.9668C222.794 54.7793 222.41 54.6855 221.965 54.6855C221.555 54.6855 221.197 54.7559 220.893 54.8965C220.594 55.0371 220.339 55.2275 220.128 55.4678C219.917 55.7021 219.744 55.9717 219.609 56.2764C219.48 56.5752 219.384 56.8857 219.319 57.208V59.4844C219.437 59.8945 219.601 60.2812 219.812 60.6445C220.022 61.002 220.304 61.292 220.655 61.5146C221.007 61.7314 221.449 61.8398 221.982 61.8398C222.422 61.8398 222.8 61.749 223.116 61.5674C223.438 61.3799 223.702 61.125 223.907 60.8027C224.118 60.4805 224.273 60.1113 224.373 59.6953C224.473 59.2734 224.522 58.8252 224.522 58.3506ZM229.567 56.7598H232.424C233.191 56.7598 233.839 56.8945 234.366 57.1641C234.894 57.4277 235.292 57.7939 235.562 58.2627C235.837 58.7256 235.975 59.2529 235.975 59.8447C235.975 60.2842 235.898 60.6973 235.746 61.084C235.594 61.4648 235.365 61.7988 235.061 62.0859C234.762 62.373 234.39 62.5986 233.944 62.7627C233.505 62.9209 232.998 63 232.424 63H228.381V53.4902H230.007V61.6641H232.424C232.893 61.6641 233.268 61.5791 233.549 61.4092C233.83 61.2393 234.032 61.0195 234.155 60.75C234.278 60.4805 234.34 60.1992 234.34 59.9062C234.34 59.6191 234.278 59.3379 234.155 59.0625C234.032 58.7871 233.83 58.5586 233.549 58.377C233.268 58.1895 232.893 58.0957 232.424 58.0957H229.567V56.7598ZM239.358 53.4902V63H237.732V53.4902H239.358ZM248.561 53.4902V54.835H243.964V53.4902H248.561ZM249.993 53.4902V63H248.367V53.4902H249.993ZM243.568 53.4902H245.203L244.957 58.0781C244.916 58.7871 244.849 59.4141 244.755 59.959C244.667 60.498 244.544 60.9609 244.386 61.3477C244.233 61.7344 244.04 62.0508 243.806 62.2969C243.577 62.5371 243.302 62.7158 242.979 62.833C242.657 62.9443 242.285 63 241.863 63H241.354V61.5674L241.705 61.541C241.957 61.5234 242.171 61.4648 242.347 61.3652C242.528 61.2656 242.681 61.1191 242.804 60.9258C242.927 60.7266 243.026 60.4717 243.103 60.1611C243.185 59.8506 243.246 59.4814 243.287 59.0537C243.334 58.626 243.369 58.1279 243.393 57.5596L243.568 53.4902ZM254.37 60.4248L258.756 53.4902H260.391V63H258.756V56.0654L254.37 63H252.753V53.4902H254.37V60.4248ZM269.391 58.4648H271.148L268.397 63H266.64L269.391 58.4648ZM270.753 53.4902H274.726V63H273.1V54.8086H270.753C270.29 54.8086 269.912 54.8877 269.619 55.0459C269.326 55.1982 269.112 55.3975 268.978 55.6436C268.843 55.8896 268.775 56.1445 268.775 56.4082C268.775 56.666 268.837 56.915 268.96 57.1553C269.083 57.3896 269.276 57.583 269.54 57.7354C269.804 57.8877 270.144 57.9639 270.56 57.9639H273.539V59.2998H270.56C270.015 59.2998 269.531 59.2266 269.109 59.0801C268.688 58.9336 268.33 58.7314 268.037 58.4736C267.744 58.21 267.521 57.9023 267.369 57.5508C267.217 57.1934 267.141 56.8066 267.141 56.3906C267.141 55.9746 267.22 55.5908 267.378 55.2393C267.542 54.8877 267.776 54.5801 268.081 54.3164C268.392 54.0527 268.77 53.8506 269.215 53.71C269.666 53.5635 270.179 53.4902 270.753 53.4902ZM284.517 53.4902V63H282.891V53.4902H284.517ZM283.963 57.8584V59.1943C283.635 59.3174 283.301 59.4287 282.961 59.5283C282.627 59.6221 282.272 59.6982 281.897 59.7568C281.528 59.8096 281.127 59.8359 280.693 59.8359C279.943 59.8359 279.293 59.707 278.742 59.4492C278.191 59.1855 277.767 58.79 277.468 58.2627C277.169 57.7295 277.02 57.0586 277.02 56.25V53.4727H278.646V56.25C278.646 56.7773 278.725 57.2051 278.883 57.5332C279.041 57.8613 279.272 58.1045 279.577 58.2627C279.882 58.415 280.254 58.4912 280.693 58.4912C281.115 58.4912 281.511 58.4648 281.88 58.4121C282.255 58.3535 282.612 58.2773 282.952 58.1836C283.298 58.0898 283.635 57.9814 283.963 57.8584ZM291.082 63.1758C290.42 63.1758 289.819 63.0645 289.28 62.8418C288.747 62.6133 288.287 62.2939 287.9 61.8838C287.52 61.4736 287.227 60.9873 287.021 60.4248C286.816 59.8623 286.714 59.2471 286.714 58.5791V58.21C286.714 57.4365 286.828 56.748 287.057 56.1445C287.285 55.5352 287.596 55.0195 287.988 54.5977C288.381 54.1758 288.826 53.8564 289.324 53.6396C289.822 53.4229 290.338 53.3145 290.871 53.3145C291.551 53.3145 292.137 53.4316 292.629 53.666C293.127 53.9004 293.534 54.2285 293.851 54.6504C294.167 55.0664 294.401 55.5586 294.554 56.127C294.706 56.6895 294.782 57.3047 294.782 57.9727V58.7021H287.681V57.375H293.156V57.252C293.133 56.8301 293.045 56.4199 292.893 56.0215C292.746 55.623 292.512 55.2949 292.189 55.0371C291.867 54.7793 291.428 54.6504 290.871 54.6504C290.502 54.6504 290.162 54.7295 289.852 54.8877C289.541 55.04 289.274 55.2686 289.052 55.5732C288.829 55.8779 288.656 56.25 288.533 56.6895C288.41 57.1289 288.349 57.6357 288.349 58.21V58.5791C288.349 59.0303 288.41 59.4551 288.533 59.8535C288.662 60.2461 288.847 60.5918 289.087 60.8906C289.333 61.1895 289.629 61.4238 289.975 61.5938C290.326 61.7637 290.725 61.8486 291.17 61.8486C291.744 61.8486 292.23 61.7314 292.629 61.4971C293.027 61.2627 293.376 60.9492 293.675 60.5566L294.659 61.3389C294.454 61.6494 294.193 61.9453 293.877 62.2266C293.561 62.5078 293.171 62.7363 292.708 62.9121C292.251 63.0879 291.709 63.1758 291.082 63.1758ZM298.438 60.4248L302.824 53.4902H304.459V63H302.824V56.0654L298.438 63H296.821V53.4902H298.438V60.4248ZM301.937 50.0449H303.255C303.255 50.502 303.149 50.9092 302.938 51.2666C302.728 51.6182 302.426 51.8936 302.033 52.0928C301.641 52.292 301.175 52.3916 300.636 52.3916C299.821 52.3916 299.177 52.1748 298.702 51.7412C298.233 51.3018 297.999 50.7363 297.999 50.0449H299.317C299.317 50.3906 299.417 50.6953 299.616 50.959C299.815 51.2227 300.155 51.3545 300.636 51.3545C301.104 51.3545 301.438 51.2227 301.638 50.959C301.837 50.6953 301.937 50.3906 301.937 50.0449ZM308.836 53.4902V63H307.21V53.4902H308.836ZM315.076 53.4902L310.567 58.9395H308.291L308.045 57.5156H309.908L313.099 53.4902H315.076ZM313.327 63L309.829 58.6934L310.875 57.5156L315.393 63H313.327ZM319.479 62.0156L322.125 53.4902H323.865L320.051 64.4678C319.963 64.7021 319.846 64.9541 319.699 65.2236C319.559 65.499 319.377 65.7598 319.154 66.0059C318.932 66.252 318.662 66.4512 318.346 66.6035C318.035 66.7617 317.663 66.8408 317.229 66.8408C317.101 66.8408 316.937 66.8232 316.737 66.7881C316.538 66.7529 316.397 66.7236 316.315 66.7002L316.307 65.3818C316.354 65.3877 316.427 65.3936 316.526 65.3994C316.632 65.4111 316.705 65.417 316.746 65.417C317.115 65.417 317.429 65.3672 317.687 65.2676C317.944 65.1738 318.161 65.0127 318.337 64.7842C318.519 64.5615 318.674 64.2539 318.803 63.8613L319.479 62.0156ZM317.537 53.4902L320.007 60.873L320.429 62.5869L319.26 63.1846L315.762 53.4902H317.537ZM331.556 60.4248L335.941 53.4902H337.576V63H335.941V56.0654L331.556 63H329.938V53.4902H331.556V60.4248ZM349.116 58.8164H345.996L345.979 57.5156H348.527C349.031 57.5156 349.45 57.4658 349.784 57.3662C350.124 57.2666 350.379 57.1172 350.549 56.918C350.719 56.7188 350.804 56.4727 350.804 56.1797C350.804 55.9512 350.754 55.752 350.654 55.582C350.561 55.4062 350.417 55.2627 350.224 55.1514C350.03 55.0342 349.79 54.9492 349.503 54.8965C349.222 54.8379 348.891 54.8086 348.51 54.8086H346.427V63H344.801V53.4902H348.51C349.113 53.4902 349.655 53.543 350.136 53.6484C350.622 53.7539 351.035 53.915 351.375 54.1318C351.721 54.3428 351.984 54.6123 352.166 54.9404C352.348 55.2686 352.438 55.6553 352.438 56.1006C352.438 56.3877 352.38 56.6602 352.263 56.918C352.146 57.1758 351.973 57.4043 351.744 57.6035C351.516 57.8027 351.234 57.9668 350.9 58.0957C350.566 58.2188 350.183 58.2979 349.749 58.333L349.116 58.8164ZM349.116 63H345.407L346.216 61.6816H349.116C349.567 61.6816 349.942 61.626 350.241 61.5146C350.54 61.3975 350.763 61.2334 350.909 61.0225C351.062 60.8057 351.138 60.5479 351.138 60.249C351.138 59.9502 351.062 59.6953 350.909 59.4844C350.763 59.2676 350.54 59.1035 350.241 58.9922C349.942 58.875 349.567 58.8164 349.116 58.8164H346.646L346.664 57.5156H349.749L350.338 58.0078C350.859 58.0488 351.302 58.1777 351.665 58.3945C352.028 58.6113 352.304 58.8867 352.491 59.2207C352.679 59.5488 352.772 59.9062 352.772 60.293C352.772 60.7383 352.688 61.1309 352.518 61.4707C352.354 61.8105 352.113 62.0947 351.797 62.3232C351.48 62.5459 351.097 62.7158 350.646 62.833C350.194 62.9443 349.685 63 349.116 63ZM358.898 63.1758C358.236 63.1758 357.636 63.0645 357.097 62.8418C356.563 62.6133 356.104 62.2939 355.717 61.8838C355.336 61.4736 355.043 60.9873 354.838 60.4248C354.633 59.8623 354.53 59.2471 354.53 58.5791V58.21C354.53 57.4365 354.645 56.748 354.873 56.1445C355.102 55.5352 355.412 55.0195 355.805 54.5977C356.197 54.1758 356.643 53.8564 357.141 53.6396C357.639 53.4229 358.154 53.3145 358.688 53.3145C359.367 53.3145 359.953 53.4316 360.445 53.666C360.943 53.9004 361.351 54.2285 361.667 54.6504C361.983 55.0664 362.218 55.5586 362.37 56.127C362.522 56.6895 362.599 57.3047 362.599 57.9727V58.7021H355.497V57.375H360.973V57.252C360.949 56.8301 360.861 56.4199 360.709 56.0215C360.562 55.623 360.328 55.2949 360.006 55.0371C359.684 54.7793 359.244 54.6504 358.688 54.6504C358.318 54.6504 357.979 54.7295 357.668 54.8877C357.357 55.04 357.091 55.2686 356.868 55.5732C356.646 55.8779 356.473 56.25 356.35 56.6895C356.227 57.1289 356.165 57.6357 356.165 58.21V58.5791C356.165 59.0303 356.227 59.4551 356.35 59.8535C356.479 60.2461 356.663 60.5918 356.903 60.8906C357.149 61.1895 357.445 61.4238 357.791 61.5938C358.143 61.7637 358.541 61.8486 358.986 61.8486C359.561 61.8486 360.047 61.7314 360.445 61.4971C360.844 61.2627 361.192 60.9492 361.491 60.5566L362.476 61.3389C362.271 61.6494 362.01 61.9453 361.693 62.2266C361.377 62.5078 360.987 62.7363 360.524 62.9121C360.067 63.0879 359.525 63.1758 358.898 63.1758ZM368.303 61.8398C368.689 61.8398 369.047 61.7607 369.375 61.6025C369.703 61.4443 369.973 61.2275 370.184 60.9521C370.395 60.6709 370.515 60.3516 370.544 59.9941H372.091C372.062 60.5566 371.871 61.0811 371.52 61.5674C371.174 62.0479 370.72 62.4375 370.157 62.7363C369.595 63.0293 368.977 63.1758 368.303 63.1758C367.588 63.1758 366.964 63.0498 366.431 62.7979C365.903 62.5459 365.464 62.2002 365.112 61.7607C364.767 61.3213 364.506 60.8174 364.33 60.249C364.16 59.6748 364.075 59.0684 364.075 58.4297V58.0605C364.075 57.4219 364.16 56.8184 364.33 56.25C364.506 55.6758 364.767 55.1689 365.112 54.7295C365.464 54.29 365.903 53.9443 366.431 53.6924C366.964 53.4404 367.588 53.3145 368.303 53.3145C369.047 53.3145 369.697 53.4668 370.254 53.7715C370.811 54.0703 371.247 54.4805 371.563 55.002C371.886 55.5176 372.062 56.1035 372.091 56.7598H370.544C370.515 56.3672 370.403 56.0127 370.21 55.6963C370.022 55.3799 369.765 55.1279 369.437 54.9404C369.114 54.7471 368.736 54.6504 368.303 54.6504C367.805 54.6504 367.386 54.75 367.046 54.9492C366.712 55.1426 366.445 55.4062 366.246 55.7402C366.053 56.0684 365.912 56.4346 365.824 56.8389C365.742 57.2373 365.701 57.6445 365.701 58.0605V58.4297C365.701 58.8457 365.742 59.2559 365.824 59.6602C365.906 60.0645 366.044 60.4307 366.237 60.7588C366.437 61.0869 366.703 61.3506 367.037 61.5498C367.377 61.7432 367.799 61.8398 368.303 61.8398ZM375.255 56.7598H378.111C378.879 56.7598 379.526 56.8945 380.054 57.1641C380.581 57.4277 380.979 57.7939 381.249 58.2627C381.524 58.7256 381.662 59.2529 381.662 59.8447C381.662 60.2842 381.586 60.6973 381.434 61.084C381.281 61.4648 381.053 61.7988 380.748 62.0859C380.449 62.373 380.077 62.5986 379.632 62.7627C379.192 62.9209 378.686 63 378.111 63H374.068V53.4902H375.694V61.6641H378.111C378.58 61.6641 378.955 61.5791 379.236 61.4092C379.518 61.2393 379.72 61.0195 379.843 60.75C379.966 60.4805 380.027 60.1992 380.027 59.9062C380.027 59.6191 379.966 59.3379 379.843 59.0625C379.72 58.7871 379.518 58.5586 379.236 58.377C378.955 58.1895 378.58 58.0957 378.111 58.0957H375.255V56.7598ZM389.256 53.4902L391.339 56.9531L393.448 53.4902H395.355L392.244 58.1836L395.452 63H393.571L391.374 59.4316L389.177 63H387.287L390.486 58.1836L387.384 53.4902H389.256ZM396.48 58.3506V58.1484C396.48 57.4629 396.58 56.8271 396.779 56.2412C396.979 55.6494 397.266 55.1367 397.641 54.7031C398.016 54.2637 398.47 53.9238 399.003 53.6836C399.536 53.4375 400.134 53.3145 400.796 53.3145C401.464 53.3145 402.064 53.4375 402.598 53.6836C403.137 53.9238 403.594 54.2637 403.969 54.7031C404.35 55.1367 404.64 55.6494 404.839 56.2412C405.038 56.8271 405.138 57.4629 405.138 58.1484V58.3506C405.138 59.0361 405.038 59.6719 404.839 60.2578C404.64 60.8438 404.35 61.3564 403.969 61.7959C403.594 62.2295 403.14 62.5693 402.606 62.8154C402.079 63.0557 401.481 63.1758 400.813 63.1758C400.146 63.1758 399.545 63.0557 399.012 62.8154C398.479 62.5693 398.021 62.2295 397.641 61.7959C397.266 61.3564 396.979 60.8438 396.779 60.2578C396.58 59.6719 396.48 59.0361 396.48 58.3506ZM398.106 58.1484V58.3506C398.106 58.8252 398.162 59.2734 398.273 59.6953C398.385 60.1113 398.552 60.4805 398.774 60.8027C399.003 61.125 399.287 61.3799 399.627 61.5674C399.967 61.749 400.362 61.8398 400.813 61.8398C401.259 61.8398 401.648 61.749 401.982 61.5674C402.322 61.3799 402.604 61.125 402.826 60.8027C403.049 60.4805 403.216 60.1113 403.327 59.6953C403.444 59.2734 403.503 58.8252 403.503 58.3506V58.1484C403.503 57.6797 403.444 57.2373 403.327 56.8213C403.216 56.3994 403.046 56.0273 402.817 55.7051C402.595 55.377 402.313 55.1191 401.974 54.9316C401.64 54.7441 401.247 54.6504 400.796 54.6504C400.351 54.6504 399.958 54.7441 399.618 54.9316C399.284 55.1191 399.003 55.377 398.774 55.7051C398.552 56.0273 398.385 56.3994 398.273 56.8213C398.162 57.2373 398.106 57.6797 398.106 58.1484ZM413.391 53.4902V54.835H408.794V53.4902H413.391ZM414.823 53.4902V63H413.197V53.4902H414.823ZM408.398 53.4902H410.033L409.787 58.0781C409.746 58.7871 409.679 59.4141 409.585 59.959C409.497 60.498 409.374 60.9609 409.216 61.3477C409.063 61.7344 408.87 62.0508 408.636 62.2969C408.407 62.5371 408.132 62.7158 407.81 62.833C407.487 62.9443 407.115 63 406.693 63H406.184V61.5674L406.535 61.541C406.787 61.5234 407.001 61.4648 407.177 61.3652C407.358 61.2656 407.511 61.1191 407.634 60.9258C407.757 60.7266 407.856 60.4717 407.933 60.1611C408.015 59.8506 408.076 59.4814 408.117 59.0537C408.164 58.626 408.199 58.1279 408.223 57.5596L408.398 53.4902ZM417.012 58.3506V58.1484C417.012 57.4629 417.111 56.8271 417.311 56.2412C417.51 55.6494 417.797 55.1367 418.172 54.7031C418.547 54.2637 419.001 53.9238 419.534 53.6836C420.067 53.4375 420.665 53.3145 421.327 53.3145C421.995 53.3145 422.596 53.4375 423.129 53.6836C423.668 53.9238 424.125 54.2637 424.5 54.7031C424.881 55.1367 425.171 55.6494 425.37 56.2412C425.569 56.8271 425.669 57.4629 425.669 58.1484V58.3506C425.669 59.0361 425.569 59.6719 425.37 60.2578C425.171 60.8438 424.881 61.3564 424.5 61.7959C424.125 62.2295 423.671 62.5693 423.138 62.8154C422.61 63.0557 422.013 63.1758 421.345 63.1758C420.677 63.1758 420.076 63.0557 419.543 62.8154C419.01 62.5693 418.553 62.2295 418.172 61.7959C417.797 61.3564 417.51 60.8438 417.311 60.2578C417.111 59.6719 417.012 59.0361 417.012 58.3506ZM418.638 58.1484V58.3506C418.638 58.8252 418.693 59.2734 418.805 59.6953C418.916 60.1113 419.083 60.4805 419.306 60.8027C419.534 61.125 419.818 61.3799 420.158 61.5674C420.498 61.749 420.894 61.8398 421.345 61.8398C421.79 61.8398 422.18 61.749 422.514 61.5674C422.854 61.3799 423.135 61.125 423.357 60.8027C423.58 60.4805 423.747 60.1113 423.858 59.6953C423.976 59.2734 424.034 58.8252 424.034 58.3506V58.1484C424.034 57.6797 423.976 57.2373 423.858 56.8213C423.747 56.3994 423.577 56.0273 423.349 55.7051C423.126 55.377 422.845 55.1191 422.505 54.9316C422.171 54.7441 421.778 54.6504 421.327 54.6504C420.882 54.6504 420.489 54.7441 420.149 54.9316C419.815 55.1191 419.534 55.377 419.306 55.7051C419.083 56.0273 418.916 56.3994 418.805 56.8213C418.693 57.2373 418.638 57.6797 418.638 58.1484ZM428.789 53.4902H430.415L430.274 57.0498C430.239 57.9521 430.137 58.7314 429.967 59.3877C429.797 60.0439 429.58 60.6035 429.316 61.0664C429.053 61.5234 428.757 61.9072 428.429 62.2178C428.106 62.5283 427.772 62.7891 427.427 63H426.618L426.662 61.6729L426.996 61.6641C427.189 61.4355 427.377 61.2012 427.559 60.9609C427.74 60.7148 427.907 60.4248 428.06 60.0908C428.212 59.751 428.338 59.3379 428.438 58.8516C428.543 58.3594 428.61 57.7588 428.64 57.0498L428.789 53.4902ZM429.193 53.4902H434.915V63H433.289V54.9932H429.193V53.4902ZM426.249 61.6641H436.137V65.8037H434.511V63H427.875V65.8037H426.24L426.249 61.6641ZM439.696 60.4248L444.082 53.4902H445.717V63H444.082V56.0654L439.696 63H438.079V53.4902H439.696V60.4248ZM454.682 53.4902V54.835H450.085V53.4902H454.682ZM456.114 53.4902V63H454.488V53.4902H456.114ZM449.689 53.4902H451.324L451.078 58.0781C451.037 58.7871 450.97 59.4141 450.876 59.959C450.788 60.498 450.665 60.9609 450.507 61.3477C450.354 61.7344 450.161 62.0508 449.927 62.2969C449.698 62.5371 449.423 62.7158 449.101 62.833C448.778 62.9443 448.406 63 447.984 63H447.475V61.5674L447.826 61.541C448.078 61.5234 448.292 61.4648 448.468 61.3652C448.649 61.2656 448.802 61.1191 448.925 60.9258C449.048 60.7266 449.147 60.4717 449.224 60.1611C449.306 59.8506 449.367 59.4814 449.408 59.0537C449.455 58.626 449.49 58.1279 449.514 57.5596L449.689 53.4902ZM460.069 56.7598H462.926C463.693 56.7598 464.341 56.8945 464.868 57.1641C465.396 57.4277 465.794 57.7939 466.063 58.2627C466.339 58.7256 466.477 59.2529 466.477 59.8447C466.477 60.2842 466.4 60.6973 466.248 61.084C466.096 61.4648 465.867 61.7988 465.562 62.0859C465.264 62.373 464.892 62.5986 464.446 62.7627C464.007 62.9209 463.5 63 462.926 63H458.883V53.4902H460.509V61.6641H462.926C463.395 61.6641 463.77 61.5791 464.051 61.4092C464.332 61.2393 464.534 61.0195 464.657 60.75C464.78 60.4805 464.842 60.1992 464.842 59.9062C464.842 59.6191 464.78 59.3379 464.657 59.0625C464.534 58.7871 464.332 58.5586 464.051 58.377C463.77 58.1895 463.395 58.0957 462.926 58.0957H460.069V56.7598ZM474.958 57.6123V58.9307H469.931V57.6123H474.958ZM470.273 53.4902V63H468.647V53.4902H470.273ZM476.276 53.4902V63H474.642V53.4902H476.276ZM480.653 60.4248L485.039 53.4902H486.674V63H485.039V56.0654L480.653 63H479.036V53.4902H480.653V60.4248ZM491.051 53.4902V63H489.425V53.4902H491.051ZM497.291 53.4902L492.782 58.9395H490.506L490.26 57.5156H492.123L495.313 53.4902H497.291ZM495.542 63L492.044 58.6934L493.09 57.5156L497.607 63H495.542Z" fill="#020617"/>
</svg>
