<svg width="785" height="85" viewBox="0 0 785 85" fill="none" xmlns="http://www.w3.org/2000/svg">
<path d="M8 0.5H777C781.142 0.5 784.5 3.85786 784.5 8V77C784.5 81.1421 781.142 84.5 777 84.5H8C3.85786 84.5 0.5 81.1421 0.5 77V8C0.5 3.85786 3.85786 0.5 8 0.5Z" stroke="#DC2626"/>
<path d="M31.9999 29.3334V23.9167H31.4583M31.4583 29.3334H32.5416" stroke="#DC2626" stroke-width="1.5" stroke-linecap="round" stroke-linejoin="round"/>
<path d="M32 21.2083V20.6666" stroke="#DC2626" stroke-width="1.5" stroke-linecap="round" stroke-linejoin="round"/>
<circle cx="32" cy="25" r="9.75" stroke="#DC2626" stroke-width="1.5" stroke-linecap="round" stroke-linejoin="round"/>
<path d="M68.1328 26.2891H63.7852L63.7617 24.1445H67.5586C68.1992 24.1445 68.7422 24.0508 69.1875 23.8633C69.6406 23.668 69.9844 23.3906 70.2188 23.0312C70.4531 22.6641 70.5703 22.2227 70.5703 21.707C70.5703 21.1367 70.4609 20.6719 70.2422 20.3125C70.0234 19.9531 69.6875 19.6914 69.2344 19.5273C68.7891 19.3633 68.2188 19.2812 67.5234 19.2812H64.6758V34H61.7344V16.9375H67.5234C68.4609 16.9375 69.2969 17.0273 70.0312 17.207C70.7734 17.3867 71.4023 17.668 71.918 18.0508C72.4414 18.4258 72.8359 18.9023 73.1016 19.4805C73.375 20.0586 73.5117 20.7461 73.5117 21.543C73.5117 22.2461 73.3438 22.8906 73.0078 23.4766C72.6719 24.0547 72.1758 24.5273 71.5195 24.8945C70.8633 25.2617 70.0469 25.4805 69.0703 25.5508L68.1328 26.2891ZM68.0039 34H62.8594L64.1836 31.668H68.0039C68.668 31.668 69.2227 31.5586 69.668 31.3398C70.1133 31.1133 70.4453 30.8047 70.6641 30.4141C70.8906 30.0156 71.0039 29.5508 71.0039 29.0195C71.0039 28.4648 70.9062 27.9844 70.7109 27.5781C70.5156 27.1641 70.207 26.8477 69.7852 26.6289C69.3633 26.4023 68.8125 26.2891 68.1328 26.2891H64.8281L64.8516 24.1445H69.1523L69.8203 24.9531C70.7578 24.9844 71.5273 25.1914 72.1289 25.5742C72.7383 25.957 73.1914 26.4531 73.4883 27.0625C73.7852 27.6719 73.9336 28.3281 73.9336 29.0312C73.9336 30.1172 73.6953 31.0273 73.2188 31.7617C72.75 32.4961 72.0742 33.0547 71.1914 33.4375C70.3086 33.8125 69.2461 34 68.0039 34ZM85.2773 26.6172V28.8438H78.7148V26.6172H85.2773ZM79.5352 21.3203V34H76.7109V21.3203H79.5352ZM87.3164 21.3203V34H84.4922V21.3203H87.3164ZM93.2461 29.875L98.2266 21.3203H101.051V34H98.2266V25.4336L93.2461 34H90.4219V21.3203H93.2461V29.875ZM111.574 30.5781L115.348 21.3203H117.797L112.535 34H110.613L105.363 21.3203H107.812L111.574 30.5781ZM107.086 21.3203V34H104.262V21.3203H107.086ZM116.062 34V21.3203H118.898V34H116.062ZM129.211 31.457V25.4102C129.211 24.957 129.129 24.5664 128.965 24.2383C128.801 23.9102 128.551 23.6562 128.215 23.4766C127.887 23.2969 127.473 23.207 126.973 23.207C126.512 23.207 126.113 23.2852 125.777 23.4414C125.441 23.5977 125.18 23.8086 124.992 24.0742C124.805 24.3398 124.711 24.6406 124.711 24.9766H121.898C121.898 24.4766 122.02 23.9922 122.262 23.5234C122.504 23.0547 122.855 22.6367 123.316 22.2695C123.777 21.9023 124.328 21.6133 124.969 21.4023C125.609 21.1914 126.328 21.0859 127.125 21.0859C128.078 21.0859 128.922 21.2461 129.656 21.5664C130.398 21.8867 130.98 22.3711 131.402 23.0195C131.832 23.6602 132.047 24.4648 132.047 25.4336V31.0703C132.047 31.6484 132.086 32.168 132.164 32.6289C132.25 33.082 132.371 33.4766 132.527 33.8125V34H129.633C129.5 33.6953 129.395 33.3086 129.316 32.8398C129.246 32.3633 129.211 31.9023 129.211 31.457ZM129.621 26.2891L129.645 28.0352H127.617C127.094 28.0352 126.633 28.0859 126.234 28.1875C125.836 28.2812 125.504 28.4219 125.238 28.6094C124.973 28.7969 124.773 29.0234 124.641 29.2891C124.508 29.5547 124.441 29.8555 124.441 30.1914C124.441 30.5273 124.52 30.8359 124.676 31.1172C124.832 31.3906 125.059 31.6055 125.355 31.7617C125.66 31.918 126.027 31.9961 126.457 31.9961C127.035 31.9961 127.539 31.8789 127.969 31.6445C128.406 31.4023 128.75 31.1094 129 30.7656C129.25 30.4141 129.383 30.082 129.398 29.7695L130.312 31.0234C130.219 31.3438 130.059 31.6875 129.832 32.0547C129.605 32.4219 129.309 32.7734 128.941 33.1094C128.582 33.4375 128.148 33.707 127.641 33.918C127.141 34.1289 126.562 34.2344 125.906 34.2344C125.078 34.2344 124.34 34.0703 123.691 33.7422C123.043 33.4062 122.535 32.957 122.168 32.3945C121.801 31.8242 121.617 31.1797 121.617 30.4609C121.617 29.7891 121.742 29.1953 121.992 28.6797C122.25 28.1562 122.625 27.7188 123.117 27.3672C123.617 27.0156 124.227 26.75 124.945 26.5703C125.664 26.3828 126.484 26.2891 127.406 26.2891H129.621ZM143.66 26.6172V28.8438H137.098V26.6172H143.66ZM137.918 21.3203V34H135.094V21.3203H137.918ZM145.699 21.3203V34H142.875V21.3203H145.699ZM151.629 29.875L156.609 21.3203H159.434V34H156.609V25.4336L151.629 34H148.805V21.3203H151.629V29.875ZM168.012 34.2344C167.074 34.2344 166.227 34.082 165.469 33.7773C164.719 33.4648 164.078 33.0312 163.547 32.4766C163.023 31.9219 162.621 31.2695 162.34 30.5195C162.059 29.7695 161.918 28.9609 161.918 28.0938V27.625C161.918 26.6328 162.062 25.7344 162.352 24.9297C162.641 24.125 163.043 23.4375 163.559 22.8672C164.074 22.2891 164.684 21.8477 165.387 21.543C166.09 21.2383 166.852 21.0859 167.672 21.0859C168.578 21.0859 169.371 21.2383 170.051 21.543C170.73 21.8477 171.293 22.2773 171.738 22.832C172.191 23.3789 172.527 24.0312 172.746 24.7891C172.973 25.5469 173.086 26.3828 173.086 27.2969V28.5039H163.289V26.4766H170.297V26.2539C170.281 25.7461 170.18 25.2695 169.992 24.8242C169.812 24.3789 169.535 24.0195 169.16 23.7461C168.785 23.4727 168.285 23.3359 167.66 23.3359C167.191 23.3359 166.773 23.4375 166.406 23.6406C166.047 23.8359 165.746 24.1211 165.504 24.4961C165.262 24.8711 165.074 25.3242 164.941 25.8555C164.816 26.3789 164.754 26.9688 164.754 27.625V28.0938C164.754 28.6484 164.828 29.1641 164.977 29.6406C165.133 30.1094 165.359 30.5195 165.656 30.8711C165.953 31.2227 166.312 31.5 166.734 31.7031C167.156 31.8984 167.637 31.9961 168.176 31.9961C168.855 31.9961 169.461 31.8594 169.992 31.5859C170.523 31.3125 170.984 30.9258 171.375 30.4258L172.863 31.8672C172.59 32.2656 172.234 32.6484 171.797 33.0156C171.359 33.375 170.824 33.668 170.191 33.8945C169.566 34.1211 168.84 34.2344 168.012 34.2344Z" fill="#DC2626"/>
<path d="M66.0469 57.0146H62.8037L62.7861 55.6523H65.7305C66.2168 55.6523 66.6416 55.5703 67.0049 55.4062C67.3682 55.2422 67.6494 55.0078 67.8486 54.7031C68.0537 54.3926 68.1562 54.0234 68.1562 53.5957C68.1562 53.127 68.0654 52.7461 67.8838 52.4531C67.708 52.1543 67.4355 51.9375 67.0664 51.8027C66.7031 51.6621 66.2402 51.5918 65.6777 51.5918H63.1816V63H61.4854V50.2031H65.6777C66.334 50.2031 66.9199 50.2705 67.4355 50.4053C67.9512 50.5342 68.3877 50.7393 68.7451 51.0205C69.1084 51.2959 69.3838 51.6475 69.5713 52.0752C69.7588 52.5029 69.8525 53.0156 69.8525 53.6133C69.8525 54.1406 69.7178 54.6182 69.4482 55.0459C69.1787 55.4678 68.8037 55.8135 68.3232 56.083C67.8486 56.3525 67.292 56.5254 66.6533 56.6016L66.0469 57.0146ZM65.9678 63H62.1357L63.0938 61.6201H65.9678C66.5068 61.6201 66.9639 61.5264 67.3389 61.3389C67.7197 61.1514 68.0098 60.8877 68.209 60.5479C68.4082 60.2021 68.5078 59.7949 68.5078 59.3262C68.5078 58.8516 68.4229 58.4414 68.2529 58.0957C68.083 57.75 67.8164 57.4834 67.4531 57.2959C67.0898 57.1084 66.6211 57.0146 66.0469 57.0146H63.6299L63.6475 55.6523H66.9521L67.3125 56.1445C67.9277 56.1973 68.4492 56.373 68.877 56.6719C69.3047 56.9648 69.6299 57.3398 69.8525 57.7969C70.0811 58.2539 70.1953 58.7578 70.1953 59.3086C70.1953 60.1055 70.0195 60.7793 69.668 61.3301C69.3223 61.875 68.833 62.291 68.2002 62.5781C67.5674 62.8594 66.8232 63 65.9678 63ZM76.2598 61.8398C76.6465 61.8398 77.0039 61.7607 77.332 61.6025C77.6602 61.4443 77.9297 61.2275 78.1406 60.9521C78.3516 60.6709 78.4717 60.3516 78.501 59.9941H80.0479C80.0186 60.5566 79.8281 61.0811 79.4766 61.5674C79.1309 62.0479 78.6768 62.4375 78.1143 62.7363C77.5518 63.0293 76.9336 63.1758 76.2598 63.1758C75.5449 63.1758 74.9209 63.0498 74.3877 62.7979C73.8604 62.5459 73.4209 62.2002 73.0693 61.7607C72.7236 61.3213 72.4629 60.8174 72.2871 60.249C72.1172 59.6748 72.0322 59.0684 72.0322 58.4297V58.0605C72.0322 57.4219 72.1172 56.8184 72.2871 56.25C72.4629 55.6758 72.7236 55.1689 73.0693 54.7295C73.4209 54.29 73.8604 53.9443 74.3877 53.6924C74.9209 53.4404 75.5449 53.3145 76.2598 53.3145C77.0039 53.3145 77.6543 53.4668 78.2109 53.7715C78.7676 54.0703 79.2041 54.4805 79.5205 55.002C79.8428 55.5176 80.0186 56.1035 80.0479 56.7598H78.501C78.4717 56.3672 78.3604 56.0127 78.167 55.6963C77.9795 55.3799 77.7217 55.1279 77.3936 54.9404C77.0713 54.7471 76.6934 54.6504 76.2598 54.6504C75.7617 54.6504 75.3428 54.75 75.0029 54.9492C74.6689 55.1426 74.4023 55.4062 74.2031 55.7402C74.0098 56.0684 73.8691 56.4346 73.7812 56.8389C73.6992 57.2373 73.6582 57.6445 73.6582 58.0605V58.4297C73.6582 58.8457 73.6992 59.2559 73.7812 59.6602C73.8633 60.0645 74.001 60.4307 74.1943 60.7588C74.3936 61.0869 74.6602 61.3506 74.9941 61.5498C75.334 61.7432 75.7559 61.8398 76.2598 61.8398ZM85.8223 63.1758C85.1602 63.1758 84.5596 63.0645 84.0205 62.8418C83.4873 62.6133 83.0273 62.2939 82.6406 61.8838C82.2598 61.4736 81.9668 60.9873 81.7617 60.4248C81.5566 59.8623 81.4541 59.2471 81.4541 58.5791V58.21C81.4541 57.4365 81.5684 56.748 81.7969 56.1445C82.0254 55.5352 82.3359 55.0195 82.7285 54.5977C83.1211 54.1758 83.5664 53.8564 84.0645 53.6396C84.5625 53.4229 85.0781 53.3145 85.6113 53.3145C86.291 53.3145 86.877 53.4316 87.3691 53.666C87.8672 53.9004 88.2744 54.2285 88.5908 54.6504C88.9072 55.0664 89.1416 55.5586 89.2939 56.127C89.4463 56.6895 89.5225 57.3047 89.5225 57.9727V58.7021H82.4209V57.375H87.8965V57.252C87.873 56.8301 87.7852 56.4199 87.6328 56.0215C87.4863 55.623 87.252 55.2949 86.9297 55.0371C86.6074 54.7793 86.168 54.6504 85.6113 54.6504C85.2422 54.6504 84.9023 54.7295 84.5918 54.8877C84.2812 55.04 84.0146 55.2686 83.792 55.5732C83.5693 55.8779 83.3965 56.25 83.2734 56.6895C83.1504 57.1289 83.0889 57.6357 83.0889 58.21V58.5791C83.0889 59.0303 83.1504 59.4551 83.2734 59.8535C83.4023 60.2461 83.5869 60.5918 83.8271 60.8906C84.0732 61.1895 84.3691 61.4238 84.7148 61.5938C85.0664 61.7637 85.4648 61.8486 85.9102 61.8486C86.4844 61.8486 86.9707 61.7314 87.3691 61.4971C87.7676 61.2627 88.1162 60.9492 88.415 60.5566L89.3994 61.3389C89.1943 61.6494 88.9336 61.9453 88.6172 62.2266C88.3008 62.5078 87.9111 62.7363 87.4482 62.9121C86.9912 63.0879 86.4492 63.1758 85.8223 63.1758ZM99.4365 58.4561H97.6875V57.4541H99.3047C99.7559 57.4541 100.113 57.3984 100.377 57.2871C100.641 57.1699 100.828 57.0088 100.939 56.8037C101.051 56.5986 101.106 56.3584 101.106 56.083C101.106 55.8369 101.042 55.6055 100.913 55.3887C100.79 55.166 100.591 54.9873 100.315 54.8525C100.04 54.7119 99.6709 54.6416 99.208 54.6416C98.833 54.6416 98.4932 54.709 98.1885 54.8438C97.8838 54.9727 97.6406 55.1514 97.459 55.3799C97.2832 55.6025 97.1953 55.8545 97.1953 56.1357H95.5693C95.5693 55.5557 95.7334 55.0576 96.0615 54.6416C96.3955 54.2197 96.8379 53.8945 97.3887 53.666C97.9453 53.4375 98.5518 53.3232 99.208 53.3232C99.7588 53.3232 100.251 53.3848 100.685 53.5078C101.124 53.625 101.496 53.8008 101.801 54.0352C102.105 54.2637 102.337 54.5508 102.495 54.8965C102.659 55.2363 102.741 55.6318 102.741 56.083C102.741 56.4053 102.665 56.71 102.513 56.9971C102.36 57.2842 102.141 57.5391 101.854 57.7617C101.566 57.9785 101.218 58.1484 100.808 58.2715C100.403 58.3945 99.9463 58.4561 99.4365 58.4561ZM97.6875 57.8408H99.4365C100.005 57.8408 100.506 57.8965 100.939 58.0078C101.373 58.1133 101.736 58.2715 102.029 58.4824C102.322 58.6934 102.542 58.9541 102.688 59.2646C102.841 59.5693 102.917 59.9209 102.917 60.3193C102.917 60.7646 102.826 61.166 102.645 61.5234C102.469 61.875 102.217 62.1738 101.889 62.4199C101.561 62.666 101.168 62.8535 100.711 62.9824C100.26 63.1113 99.7588 63.1758 99.208 63.1758C98.5928 63.1758 97.9951 63.0703 97.415 62.8594C96.835 62.6484 96.3574 62.3232 95.9824 61.8838C95.6074 61.4385 95.4199 60.873 95.4199 60.1875H97.0459C97.0459 60.4746 97.1367 60.7471 97.3184 61.0049C97.5 61.2627 97.752 61.4707 98.0742 61.6289C98.4023 61.7871 98.7803 61.8662 99.208 61.8662C99.665 61.8662 100.046 61.7959 100.351 61.6553C100.655 61.5146 100.884 61.3271 101.036 61.0928C101.194 60.8584 101.273 60.6035 101.273 60.3281C101.273 59.9707 101.203 59.6836 101.062 59.4668C100.922 59.25 100.705 59.0918 100.412 58.9922C100.125 58.8867 99.7559 58.834 99.3047 58.834H97.6875V57.8408ZM110.634 61.374V56.4785C110.634 56.1035 110.558 55.7783 110.405 55.5029C110.259 55.2217 110.036 55.0049 109.737 54.8525C109.438 54.7002 109.069 54.624 108.63 54.624C108.22 54.624 107.859 54.6943 107.549 54.835C107.244 54.9756 107.004 55.1602 106.828 55.3887C106.658 55.6172 106.573 55.8633 106.573 56.127H104.947C104.947 55.7871 105.035 55.4502 105.211 55.1162C105.387 54.7822 105.639 54.4805 105.967 54.2109C106.301 53.9355 106.699 53.7188 107.162 53.5605C107.631 53.3965 108.152 53.3145 108.727 53.3145C109.418 53.3145 110.027 53.4316 110.555 53.666C111.088 53.9004 111.504 54.2549 111.803 54.7295C112.107 55.1982 112.26 55.7871 112.26 56.4961V60.9258C112.26 61.2422 112.286 61.5791 112.339 61.9365C112.397 62.2939 112.482 62.6016 112.594 62.8594V63H110.897C110.815 62.8125 110.751 62.5635 110.704 62.2529C110.657 61.9365 110.634 61.6436 110.634 61.374ZM110.915 57.2344L110.933 58.377H109.289C108.826 58.377 108.413 58.415 108.05 58.4912C107.687 58.5615 107.382 58.6699 107.136 58.8164C106.89 58.9629 106.702 59.1475 106.573 59.3701C106.444 59.5869 106.38 59.8418 106.38 60.1348C106.38 60.4336 106.447 60.7061 106.582 60.9521C106.717 61.1982 106.919 61.3945 107.188 61.541C107.464 61.6816 107.801 61.752 108.199 61.752C108.697 61.752 109.137 61.6465 109.518 61.4355C109.898 61.2246 110.2 60.9668 110.423 60.6621C110.651 60.3574 110.774 60.0615 110.792 59.7744L111.486 60.5566C111.445 60.8027 111.334 61.0752 111.152 61.374C110.971 61.6729 110.728 61.96 110.423 62.2354C110.124 62.5049 109.767 62.7305 109.351 62.9121C108.94 63.0879 108.478 63.1758 107.962 63.1758C107.317 63.1758 106.752 63.0498 106.266 62.7979C105.785 62.5459 105.41 62.209 105.141 61.7871C104.877 61.3594 104.745 60.8818 104.745 60.3545C104.745 59.8447 104.845 59.3965 105.044 59.0098C105.243 58.6172 105.53 58.292 105.905 58.0342C106.28 57.7705 106.731 57.5713 107.259 57.4365C107.786 57.3018 108.375 57.2344 109.025 57.2344H110.915ZM121.154 53.4902V54.835H116.347V53.4902H121.154ZM116.584 53.4902V63H114.958V53.4902H116.584ZM122.596 53.4902V63H120.961V53.4902H122.596ZM126.832 55.3184V66.6562H125.197V53.4902H126.691L126.832 55.3184ZM133.239 58.166V58.3506C133.239 59.042 133.157 59.6836 132.993 60.2754C132.829 60.8613 132.589 61.3711 132.272 61.8047C131.962 62.2383 131.578 62.5752 131.121 62.8154C130.664 63.0557 130.14 63.1758 129.548 63.1758C128.944 63.1758 128.411 63.0762 127.948 62.877C127.485 62.6777 127.093 62.3877 126.771 62.0068C126.448 61.626 126.19 61.1689 125.997 60.6357C125.81 60.1025 125.681 59.502 125.61 58.834V57.8496C125.681 57.1465 125.812 56.5166 126.006 55.96C126.199 55.4033 126.454 54.9287 126.771 54.5361C127.093 54.1377 127.482 53.8359 127.939 53.6309C128.396 53.4199 128.924 53.3145 129.521 53.3145C130.119 53.3145 130.649 53.4316 131.112 53.666C131.575 53.8945 131.965 54.2227 132.281 54.6504C132.598 55.0781 132.835 55.5908 132.993 56.1885C133.157 56.7803 133.239 57.4395 133.239 58.166ZM131.604 58.3506V58.166C131.604 57.6914 131.555 57.2461 131.455 56.8301C131.355 56.4082 131.2 56.0391 130.989 55.7227C130.784 55.4004 130.521 55.1484 130.198 54.9668C129.876 54.7793 129.492 54.6855 129.047 54.6855C128.637 54.6855 128.279 54.7559 127.975 54.8965C127.676 55.0371 127.421 55.2275 127.21 55.4678C126.999 55.7021 126.826 55.9717 126.691 56.2764C126.562 56.5752 126.466 56.8857 126.401 57.208V59.4844C126.519 59.8945 126.683 60.2812 126.894 60.6445C127.104 61.002 127.386 61.292 127.737 61.5146C128.089 61.7314 128.531 61.8398 129.064 61.8398C129.504 61.8398 129.882 61.749 130.198 61.5674C130.521 61.3799 130.784 61.125 130.989 60.8027C131.2 60.4805 131.355 60.1113 131.455 59.6953C131.555 59.2734 131.604 58.8252 131.604 58.3506ZM139.26 63.1758C138.598 63.1758 137.997 63.0645 137.458 62.8418C136.925 62.6133 136.465 62.2939 136.078 61.8838C135.697 61.4736 135.404 60.9873 135.199 60.4248C134.994 59.8623 134.892 59.2471 134.892 58.5791V58.21C134.892 57.4365 135.006 56.748 135.234 56.1445C135.463 55.5352 135.773 55.0195 136.166 54.5977C136.559 54.1758 137.004 53.8564 137.502 53.6396C138 53.4229 138.516 53.3145 139.049 53.3145C139.729 53.3145 140.314 53.4316 140.807 53.666C141.305 53.9004 141.712 54.2285 142.028 54.6504C142.345 55.0664 142.579 55.5586 142.731 56.127C142.884 56.6895 142.96 57.3047 142.96 57.9727V58.7021H135.858V57.375H141.334V57.252C141.311 56.8301 141.223 56.4199 141.07 56.0215C140.924 55.623 140.689 55.2949 140.367 55.0371C140.045 54.7793 139.605 54.6504 139.049 54.6504C138.68 54.6504 138.34 54.7295 138.029 54.8877C137.719 55.04 137.452 55.2686 137.229 55.5732C137.007 55.8779 136.834 56.25 136.711 56.6895C136.588 57.1289 136.526 57.6357 136.526 58.21V58.5791C136.526 59.0303 136.588 59.4551 136.711 59.8535C136.84 60.2461 137.024 60.5918 137.265 60.8906C137.511 61.1895 137.807 61.4238 138.152 61.5938C138.504 61.7637 138.902 61.8486 139.348 61.8486C139.922 61.8486 140.408 61.7314 140.807 61.4971C141.205 61.2627 141.554 60.9492 141.853 60.5566L142.837 61.3389C142.632 61.6494 142.371 61.9453 142.055 62.2266C141.738 62.5078 141.349 62.7363 140.886 62.9121C140.429 63.0879 139.887 63.1758 139.26 63.1758ZM158.077 61.6641L157.919 65.8213H156.469V63H155.229V61.6641H158.077ZM144.902 53.4902H146.528V61.6641H150.009V53.4902H151.644V61.6641H155.115V53.4902H156.741V63H144.902V53.4902ZM163.816 63.1758C163.154 63.1758 162.554 63.0645 162.015 62.8418C161.481 62.6133 161.021 62.2939 160.635 61.8838C160.254 61.4736 159.961 60.9873 159.756 60.4248C159.551 59.8623 159.448 59.2471 159.448 58.5791V58.21C159.448 57.4365 159.562 56.748 159.791 56.1445C160.02 55.5352 160.33 55.0195 160.723 54.5977C161.115 54.1758 161.561 53.8564 162.059 53.6396C162.557 53.4229 163.072 53.3145 163.605 53.3145C164.285 53.3145 164.871 53.4316 165.363 53.666C165.861 53.9004 166.269 54.2285 166.585 54.6504C166.901 55.0664 167.136 55.5586 167.288 56.127C167.44 56.6895 167.517 57.3047 167.517 57.9727V58.7021H160.415V57.375H165.891V57.252C165.867 56.8301 165.779 56.4199 165.627 56.0215C165.48 55.623 165.246 55.2949 164.924 55.0371C164.602 54.7793 164.162 54.6504 163.605 54.6504C163.236 54.6504 162.896 54.7295 162.586 54.8877C162.275 55.04 162.009 55.2686 161.786 55.5732C161.563 55.8779 161.391 56.25 161.268 56.6895C161.145 57.1289 161.083 57.6357 161.083 58.21V58.5791C161.083 59.0303 161.145 59.4551 161.268 59.8535C161.396 60.2461 161.581 60.5918 161.821 60.8906C162.067 61.1895 162.363 61.4238 162.709 61.5938C163.061 61.7637 163.459 61.8486 163.904 61.8486C164.479 61.8486 164.965 61.7314 165.363 61.4971C165.762 61.2627 166.11 60.9492 166.409 60.5566L167.394 61.3389C167.188 61.6494 166.928 61.9453 166.611 62.2266C166.295 62.5078 165.905 62.7363 165.442 62.9121C164.985 63.0879 164.443 63.1758 163.816 63.1758ZM160.767 50.9502C160.767 50.6865 160.849 50.4639 161.013 50.2822C161.177 50.1006 161.414 50.0098 161.725 50.0098C162.041 50.0098 162.281 50.1006 162.445 50.2822C162.609 50.4639 162.691 50.6865 162.691 50.9502C162.691 51.2021 162.609 51.4189 162.445 51.6006C162.281 51.7764 162.041 51.8643 161.725 51.8643C161.414 51.8643 161.177 51.7764 161.013 51.6006C160.849 51.4189 160.767 51.2021 160.767 50.9502ZM164.555 50.9678C164.555 50.7041 164.634 50.4814 164.792 50.2998C164.956 50.1182 165.196 50.0273 165.513 50.0273C165.823 50.0273 166.061 50.1182 166.225 50.2998C166.395 50.4814 166.479 50.7041 166.479 50.9678C166.479 51.2197 166.395 51.4365 166.225 51.6182C166.061 51.7939 165.823 51.8818 165.513 51.8818C165.196 51.8818 164.956 51.7939 164.792 51.6182C164.634 51.4365 164.555 51.2197 164.555 50.9678ZM175.866 57.6123V58.9307H170.839V57.6123H175.866ZM171.182 53.4902V63H169.556V53.4902H171.182ZM177.185 53.4902V63H175.55V53.4902H177.185ZM186.255 57.6123V58.9307H181.228V57.6123H186.255ZM181.57 53.4902V63H179.944V53.4902H181.57ZM187.573 53.4902V63H185.938V53.4902H187.573ZM191.528 56.7598H194.385C195.152 56.7598 195.8 56.8945 196.327 57.1641C196.854 57.4277 197.253 57.7939 197.522 58.2627C197.798 58.7256 197.936 59.2529 197.936 59.8447C197.936 60.2842 197.859 60.6973 197.707 61.084C197.555 61.4648 197.326 61.7988 197.021 62.0859C196.723 62.373 196.351 62.5986 195.905 62.7627C195.466 62.9209 194.959 63 194.385 63H190.342V53.4902H191.968V61.6641H194.385C194.854 61.6641 195.229 61.5791 195.51 61.4092C195.791 61.2393 195.993 61.0195 196.116 60.75C196.239 60.4805 196.301 60.1992 196.301 59.9062C196.301 59.6191 196.239 59.3379 196.116 59.0625C195.993 58.7871 195.791 58.5586 195.51 58.377C195.229 58.1895 194.854 58.0957 194.385 58.0957H191.528V56.7598ZM201.319 53.4902V63H199.693V53.4902H201.319ZM208.113 63.1758C207.451 63.1758 206.851 63.0645 206.312 62.8418C205.778 62.6133 205.318 62.2939 204.932 61.8838C204.551 61.4736 204.258 60.9873 204.053 60.4248C203.848 59.8623 203.745 59.2471 203.745 58.5791V58.21C203.745 57.4365 203.859 56.748 204.088 56.1445C204.316 55.5352 204.627 55.0195 205.02 54.5977C205.412 54.1758 205.857 53.8564 206.355 53.6396C206.854 53.4229 207.369 53.3145 207.902 53.3145C208.582 53.3145 209.168 53.4316 209.66 53.666C210.158 53.9004 210.565 54.2285 210.882 54.6504C211.198 55.0664 211.433 55.5586 211.585 56.127C211.737 56.6895 211.813 57.3047 211.813 57.9727V58.7021H204.712V57.375H210.188V57.252C210.164 56.8301 210.076 56.4199 209.924 56.0215C209.777 55.623 209.543 55.2949 209.221 55.0371C208.898 54.7793 208.459 54.6504 207.902 54.6504C207.533 54.6504 207.193 54.7295 206.883 54.8877C206.572 55.04 206.306 55.2686 206.083 55.5732C205.86 55.8779 205.688 56.25 205.564 56.6895C205.441 57.1289 205.38 57.6357 205.38 58.21V58.5791C205.38 59.0303 205.441 59.4551 205.564 59.8535C205.693 60.2461 205.878 60.5918 206.118 60.8906C206.364 61.1895 206.66 61.4238 207.006 61.5938C207.357 61.7637 207.756 61.8486 208.201 61.8486C208.775 61.8486 209.262 61.7314 209.66 61.4971C210.059 61.2627 210.407 60.9492 210.706 60.5566L211.69 61.3389C211.485 61.6494 211.225 61.9453 210.908 62.2266C210.592 62.5078 210.202 62.7363 209.739 62.9121C209.282 63.0879 208.74 63.1758 208.113 63.1758ZM219.943 53.4902V63H218.317V53.4902H219.943ZM226.184 53.4902L221.675 58.9395H219.398L219.152 57.5156H221.016L224.206 53.4902H226.184ZM224.435 63L220.937 58.6934L221.982 57.5156L226.5 63H224.435ZM238.717 53.4902V54.835H233.909V53.4902H238.717ZM234.146 53.4902V63H232.521V53.4902H234.146ZM240.158 53.4902V63H238.523V53.4902H240.158ZM246.715 63.1758C246.053 63.1758 245.452 63.0645 244.913 62.8418C244.38 62.6133 243.92 62.2939 243.533 61.8838C243.152 61.4736 242.859 60.9873 242.654 60.4248C242.449 59.8623 242.347 59.2471 242.347 58.5791V58.21C242.347 57.4365 242.461 56.748 242.689 56.1445C242.918 55.5352 243.229 55.0195 243.621 54.5977C244.014 54.1758 244.459 53.8564 244.957 53.6396C245.455 53.4229 245.971 53.3145 246.504 53.3145C247.184 53.3145 247.77 53.4316 248.262 53.666C248.76 53.9004 249.167 54.2285 249.483 54.6504C249.8 55.0664 250.034 55.5586 250.187 56.127C250.339 56.6895 250.415 57.3047 250.415 57.9727V58.7021H243.313V57.375H248.789V57.252C248.766 56.8301 248.678 56.4199 248.525 56.0215C248.379 55.623 248.145 55.2949 247.822 55.0371C247.5 54.7793 247.061 54.6504 246.504 54.6504C246.135 54.6504 245.795 54.7295 245.484 54.8877C245.174 55.04 244.907 55.2686 244.685 55.5732C244.462 55.8779 244.289 56.25 244.166 56.6895C244.043 57.1289 243.981 57.6357 243.981 58.21V58.5791C243.981 59.0303 244.043 59.4551 244.166 59.8535C244.295 60.2461 244.479 60.5918 244.72 60.8906C244.966 61.1895 245.262 61.4238 245.607 61.5938C245.959 61.7637 246.357 61.8486 246.803 61.8486C247.377 61.8486 247.863 61.7314 248.262 61.4971C248.66 61.2627 249.009 60.9492 249.308 60.5566L250.292 61.3389C250.087 61.6494 249.826 61.9453 249.51 62.2266C249.193 62.5078 248.804 62.7363 248.341 62.9121C247.884 63.0879 247.342 63.1758 246.715 63.1758ZM253.939 55.3184V66.6562H252.305V53.4902H253.799L253.939 55.3184ZM260.347 58.166V58.3506C260.347 59.042 260.265 59.6836 260.101 60.2754C259.937 60.8613 259.696 61.3711 259.38 61.8047C259.069 62.2383 258.686 62.5752 258.229 62.8154C257.771 63.0557 257.247 63.1758 256.655 63.1758C256.052 63.1758 255.519 63.0762 255.056 62.877C254.593 62.6777 254.2 62.3877 253.878 62.0068C253.556 61.626 253.298 61.1689 253.104 60.6357C252.917 60.1025 252.788 59.502 252.718 58.834V57.8496C252.788 57.1465 252.92 56.5166 253.113 55.96C253.307 55.4033 253.562 54.9287 253.878 54.5361C254.2 54.1377 254.59 53.8359 255.047 53.6309C255.504 53.4199 256.031 53.3145 256.629 53.3145C257.227 53.3145 257.757 53.4316 258.22 53.666C258.683 53.8945 259.072 54.2227 259.389 54.6504C259.705 55.0781 259.942 55.5908 260.101 56.1885C260.265 56.7803 260.347 57.4395 260.347 58.166ZM258.712 58.3506V58.166C258.712 57.6914 258.662 57.2461 258.562 56.8301C258.463 56.4082 258.308 56.0391 258.097 55.7227C257.892 55.4004 257.628 55.1484 257.306 54.9668C256.983 54.7793 256.6 54.6855 256.154 54.6855C255.744 54.6855 255.387 54.7559 255.082 54.8965C254.783 55.0371 254.528 55.2275 254.317 55.4678C254.106 55.7021 253.934 55.9717 253.799 56.2764C253.67 56.5752 253.573 56.8857 253.509 57.208V59.4844C253.626 59.8945 253.79 60.2812 254.001 60.6445C254.212 61.002 254.493 61.292 254.845 61.5146C255.196 61.7314 255.639 61.8398 256.172 61.8398C256.611 61.8398 256.989 61.749 257.306 61.5674C257.628 61.3799 257.892 61.125 258.097 60.8027C258.308 60.4805 258.463 60.1113 258.562 59.6953C258.662 59.2734 258.712 58.8252 258.712 58.3506ZM266.367 63.1758C265.705 63.1758 265.104 63.0645 264.565 62.8418C264.032 62.6133 263.572 62.2939 263.186 61.8838C262.805 61.4736 262.512 60.9873 262.307 60.4248C262.102 59.8623 261.999 59.2471 261.999 58.5791V58.21C261.999 57.4365 262.113 56.748 262.342 56.1445C262.57 55.5352 262.881 55.0195 263.273 54.5977C263.666 54.1758 264.111 53.8564 264.609 53.6396C265.107 53.4229 265.623 53.3145 266.156 53.3145C266.836 53.3145 267.422 53.4316 267.914 53.666C268.412 53.9004 268.819 54.2285 269.136 54.6504C269.452 55.0664 269.687 55.5586 269.839 56.127C269.991 56.6895 270.067 57.3047 270.067 57.9727V58.7021H262.966V57.375H268.441V57.252C268.418 56.8301 268.33 56.4199 268.178 56.0215C268.031 55.623 267.797 55.2949 267.475 55.0371C267.152 54.7793 266.713 54.6504 266.156 54.6504C265.787 54.6504 265.447 54.7295 265.137 54.8877C264.826 55.04 264.56 55.2686 264.337 55.5732C264.114 55.8779 263.941 56.25 263.818 56.6895C263.695 57.1289 263.634 57.6357 263.634 58.21V58.5791C263.634 59.0303 263.695 59.4551 263.818 59.8535C263.947 60.2461 264.132 60.5918 264.372 60.8906C264.618 61.1895 264.914 61.4238 265.26 61.5938C265.611 61.7637 266.01 61.8486 266.455 61.8486C267.029 61.8486 267.516 61.7314 267.914 61.4971C268.312 61.2627 268.661 60.9492 268.96 60.5566L269.944 61.3389C269.739 61.6494 269.479 61.9453 269.162 62.2266C268.846 62.5078 268.456 62.7363 267.993 62.9121C267.536 63.0879 266.994 63.1758 266.367 63.1758ZM273.68 53.4902H275.306L275.165 57.0498C275.13 57.9521 275.027 58.7314 274.857 59.3877C274.688 60.0439 274.471 60.6035 274.207 61.0664C273.943 61.5234 273.647 61.9072 273.319 62.2178C272.997 62.5283 272.663 62.7891 272.317 63H271.509L271.553 61.6729L271.887 61.6641C272.08 61.4355 272.268 61.2012 272.449 60.9609C272.631 60.7148 272.798 60.4248 272.95 60.0908C273.103 59.751 273.229 59.3379 273.328 58.8516C273.434 58.3594 273.501 57.7588 273.53 57.0498L273.68 53.4902ZM274.084 53.4902H279.806V63H278.18V54.9932H274.084V53.4902ZM271.14 61.6641H281.027V65.8037H279.401V63H272.766V65.8037H271.131L271.14 61.6641ZM288.437 61.374V56.4785C288.437 56.1035 288.36 55.7783 288.208 55.5029C288.062 55.2217 287.839 55.0049 287.54 54.8525C287.241 54.7002 286.872 54.624 286.433 54.624C286.022 54.624 285.662 54.6943 285.352 54.835C285.047 54.9756 284.807 55.1602 284.631 55.3887C284.461 55.6172 284.376 55.8633 284.376 56.127H282.75C282.75 55.7871 282.838 55.4502 283.014 55.1162C283.189 54.7822 283.441 54.4805 283.77 54.2109C284.104 53.9355 284.502 53.7188 284.965 53.5605C285.434 53.3965 285.955 53.3145 286.529 53.3145C287.221 53.3145 287.83 53.4316 288.357 53.666C288.891 53.9004 289.307 54.2549 289.605 54.7295C289.91 55.1982 290.062 55.7871 290.062 56.4961V60.9258C290.062 61.2422 290.089 61.5791 290.142 61.9365C290.2 62.2939 290.285 62.6016 290.396 62.8594V63H288.7C288.618 62.8125 288.554 62.5635 288.507 62.2529C288.46 61.9365 288.437 61.6436 288.437 61.374ZM288.718 57.2344L288.735 58.377H287.092C286.629 58.377 286.216 58.415 285.853 58.4912C285.489 58.5615 285.185 58.6699 284.938 58.8164C284.692 58.9629 284.505 59.1475 284.376 59.3701C284.247 59.5869 284.183 59.8418 284.183 60.1348C284.183 60.4336 284.25 60.7061 284.385 60.9521C284.52 61.1982 284.722 61.3945 284.991 61.541C285.267 61.6816 285.604 61.752 286.002 61.752C286.5 61.752 286.939 61.6465 287.32 61.4355C287.701 61.2246 288.003 60.9668 288.226 60.6621C288.454 60.3574 288.577 60.0615 288.595 59.7744L289.289 60.5566C289.248 60.8027 289.137 61.0752 288.955 61.374C288.773 61.6729 288.53 61.96 288.226 62.2354C287.927 62.5049 287.569 62.7305 287.153 62.9121C286.743 63.0879 286.28 63.1758 285.765 63.1758C285.12 63.1758 284.555 63.0498 284.068 62.7979C283.588 62.5459 283.213 62.209 282.943 61.7871C282.68 61.3594 282.548 60.8818 282.548 60.3545C282.548 59.8447 282.647 59.3965 282.847 59.0098C283.046 58.6172 283.333 58.292 283.708 58.0342C284.083 57.7705 284.534 57.5713 285.062 57.4365C285.589 57.3018 286.178 57.2344 286.828 57.2344H288.718ZM299.792 53.4902V63H298.166V53.4902H299.792ZM299.238 57.8584V59.1943C298.91 59.3174 298.576 59.4287 298.236 59.5283C297.902 59.6221 297.548 59.6982 297.173 59.7568C296.804 59.8096 296.402 59.8359 295.969 59.8359C295.219 59.8359 294.568 59.707 294.018 59.4492C293.467 59.1855 293.042 58.79 292.743 58.2627C292.444 57.7295 292.295 57.0586 292.295 56.25V53.4727H293.921V56.25C293.921 56.7773 294 57.2051 294.158 57.5332C294.316 57.8613 294.548 58.1045 294.853 58.2627C295.157 58.415 295.529 58.4912 295.969 58.4912C296.391 58.4912 296.786 58.4648 297.155 58.4121C297.53 58.3535 297.888 58.2773 298.228 58.1836C298.573 58.0898 298.91 57.9814 299.238 57.8584ZM306.357 63.1758C305.695 63.1758 305.095 63.0645 304.556 62.8418C304.022 62.6133 303.562 62.2939 303.176 61.8838C302.795 61.4736 302.502 60.9873 302.297 60.4248C302.092 59.8623 301.989 59.2471 301.989 58.5791V58.21C301.989 57.4365 302.104 56.748 302.332 56.1445C302.561 55.5352 302.871 55.0195 303.264 54.5977C303.656 54.1758 304.102 53.8564 304.6 53.6396C305.098 53.4229 305.613 53.3145 306.146 53.3145C306.826 53.3145 307.412 53.4316 307.904 53.666C308.402 53.9004 308.81 54.2285 309.126 54.6504C309.442 55.0664 309.677 55.5586 309.829 56.127C309.981 56.6895 310.058 57.3047 310.058 57.9727V58.7021H302.956V57.375H308.432V57.252C308.408 56.8301 308.32 56.4199 308.168 56.0215C308.021 55.623 307.787 55.2949 307.465 55.0371C307.143 54.7793 306.703 54.6504 306.146 54.6504C305.777 54.6504 305.438 54.7295 305.127 54.8877C304.816 55.04 304.55 55.2686 304.327 55.5732C304.104 55.8779 303.932 56.25 303.809 56.6895C303.686 57.1289 303.624 57.6357 303.624 58.21V58.5791C303.624 59.0303 303.686 59.4551 303.809 59.8535C303.938 60.2461 304.122 60.5918 304.362 60.8906C304.608 61.1895 304.904 61.4238 305.25 61.5938C305.602 61.7637 306 61.8486 306.445 61.8486C307.02 61.8486 307.506 61.7314 307.904 61.4971C308.303 61.2627 308.651 60.9492 308.95 60.5566L309.935 61.3389C309.729 61.6494 309.469 61.9453 309.152 62.2266C308.836 62.5078 308.446 62.7363 307.983 62.9121C307.526 63.0879 306.984 63.1758 306.357 63.1758ZM322.758 53.4902V54.835H317.95V53.4902H322.758ZM318.188 53.4902V63H316.562V53.4902H318.188ZM324.199 53.4902V63H322.564V53.4902H324.199ZM328.436 55.3184V66.6562H326.801V53.4902H328.295L328.436 55.3184ZM334.843 58.166V58.3506C334.843 59.042 334.761 59.6836 334.597 60.2754C334.433 60.8613 334.192 61.3711 333.876 61.8047C333.565 62.2383 333.182 62.5752 332.725 62.8154C332.268 63.0557 331.743 63.1758 331.151 63.1758C330.548 63.1758 330.015 63.0762 329.552 62.877C329.089 62.6777 328.696 62.3877 328.374 62.0068C328.052 61.626 327.794 61.1689 327.601 60.6357C327.413 60.1025 327.284 59.502 327.214 58.834V57.8496C327.284 57.1465 327.416 56.5166 327.609 55.96C327.803 55.4033 328.058 54.9287 328.374 54.5361C328.696 54.1377 329.086 53.8359 329.543 53.6309C330 53.4199 330.527 53.3145 331.125 53.3145C331.723 53.3145 332.253 53.4316 332.716 53.666C333.179 53.8945 333.568 54.2227 333.885 54.6504C334.201 55.0781 334.438 55.5908 334.597 56.1885C334.761 56.7803 334.843 57.4395 334.843 58.166ZM333.208 58.3506V58.166C333.208 57.6914 333.158 57.2461 333.059 56.8301C332.959 56.4082 332.804 56.0391 332.593 55.7227C332.388 55.4004 332.124 55.1484 331.802 54.9668C331.479 54.7793 331.096 54.6855 330.65 54.6855C330.24 54.6855 329.883 54.7559 329.578 54.8965C329.279 55.0371 329.024 55.2275 328.813 55.4678C328.603 55.7021 328.43 55.9717 328.295 56.2764C328.166 56.5752 328.069 56.8857 328.005 57.208V59.4844C328.122 59.8945 328.286 60.2812 328.497 60.6445C328.708 61.002 328.989 61.292 329.341 61.5146C329.692 61.7314 330.135 61.8398 330.668 61.8398C331.107 61.8398 331.485 61.749 331.802 61.5674C332.124 61.3799 332.388 61.125 332.593 60.8027C332.804 60.4805 332.959 60.1113 333.059 59.6953C333.158 59.2734 333.208 58.8252 333.208 58.3506ZM336.486 58.3506V58.1484C336.486 57.4629 336.586 56.8271 336.785 56.2412C336.984 55.6494 337.271 55.1367 337.646 54.7031C338.021 54.2637 338.476 53.9238 339.009 53.6836C339.542 53.4375 340.14 53.3145 340.802 53.3145C341.47 53.3145 342.07 53.4375 342.604 53.6836C343.143 53.9238 343.6 54.2637 343.975 54.7031C344.355 55.1367 344.646 55.6494 344.845 56.2412C345.044 56.8271 345.144 57.4629 345.144 58.1484V58.3506C345.144 59.0361 345.044 59.6719 344.845 60.2578C344.646 60.8438 344.355 61.3564 343.975 61.7959C343.6 62.2295 343.146 62.5693 342.612 62.8154C342.085 63.0557 341.487 63.1758 340.819 63.1758C340.151 63.1758 339.551 63.0557 339.018 62.8154C338.484 62.5693 338.027 62.2295 337.646 61.7959C337.271 61.3564 336.984 60.8438 336.785 60.2578C336.586 59.6719 336.486 59.0361 336.486 58.3506ZM338.112 58.1484V58.3506C338.112 58.8252 338.168 59.2734 338.279 59.6953C338.391 60.1113 338.558 60.4805 338.78 60.8027C339.009 61.125 339.293 61.3799 339.633 61.5674C339.973 61.749 340.368 61.8398 340.819 61.8398C341.265 61.8398 341.654 61.749 341.988 61.5674C342.328 61.3799 342.609 61.125 342.832 60.8027C343.055 60.4805 343.222 60.1113 343.333 59.6953C343.45 59.2734 343.509 58.8252 343.509 58.3506V58.1484C343.509 57.6797 343.45 57.2373 343.333 56.8213C343.222 56.3994 343.052 56.0273 342.823 55.7051C342.601 55.377 342.319 55.1191 341.979 54.9316C341.646 54.7441 341.253 54.6504 340.802 54.6504C340.356 54.6504 339.964 54.7441 339.624 54.9316C339.29 55.1191 339.009 55.377 338.78 55.7051C338.558 56.0273 338.391 56.3994 338.279 56.8213C338.168 57.2373 338.112 57.6797 338.112 58.1484ZM348.264 53.4902H349.89L349.749 57.0498C349.714 57.9521 349.611 58.7314 349.441 59.3877C349.271 60.0439 349.055 60.6035 348.791 61.0664C348.527 61.5234 348.231 61.9072 347.903 62.2178C347.581 62.5283 347.247 62.7891 346.901 63H346.093L346.137 61.6729L346.471 61.6641C346.664 61.4355 346.852 61.2012 347.033 60.9609C347.215 60.7148 347.382 60.4248 347.534 60.0908C347.687 59.751 347.812 59.3379 347.912 58.8516C348.018 58.3594 348.085 57.7588 348.114 57.0498L348.264 53.4902ZM348.668 53.4902H354.39V63H352.764V54.9932H348.668V53.4902ZM345.724 61.6641H355.611V65.8037H353.985V63H347.35V65.8037H345.715L345.724 61.6641ZM360.085 62.0156L362.73 53.4902H364.471L360.656 64.4678C360.568 64.7021 360.451 64.9541 360.305 65.2236C360.164 65.499 359.982 65.7598 359.76 66.0059C359.537 66.252 359.268 66.4512 358.951 66.6035C358.641 66.7617 358.269 66.8408 357.835 66.8408C357.706 66.8408 357.542 66.8232 357.343 66.7881C357.144 66.7529 357.003 66.7236 356.921 66.7002L356.912 65.3818C356.959 65.3877 357.032 65.3936 357.132 65.3994C357.237 65.4111 357.311 65.417 357.352 65.417C357.721 65.417 358.034 65.3672 358.292 65.2676C358.55 65.1738 358.767 65.0127 358.942 64.7842C359.124 64.5615 359.279 64.2539 359.408 63.8613L360.085 62.0156ZM358.143 53.4902L360.612 60.873L361.034 62.5869L359.865 63.1846L356.367 53.4902H358.143ZM367.705 53.4902V63H366.079V53.4902H367.705ZM373.945 53.4902L369.437 58.9395H367.16L366.914 57.5156H368.777L371.968 53.4902H373.945ZM372.196 63L368.698 58.6934L369.744 57.5156L374.262 63H372.196ZM379.553 53.4902V63H377.918V53.4902H379.553ZM382.743 53.4902V54.8086H374.789V53.4902H382.743ZM385.679 56.7598H388.535C389.303 56.7598 389.95 56.8945 390.478 57.1641C391.005 57.4277 391.403 57.7939 391.673 58.2627C391.948 58.7256 392.086 59.2529 392.086 59.8447C392.086 60.2842 392.01 60.6973 391.857 61.084C391.705 61.4648 391.477 61.7988 391.172 62.0859C390.873 62.373 390.501 62.5986 390.056 62.7627C389.616 62.9209 389.109 63 388.535 63H384.492V53.4902H386.118V61.6641H388.535C389.004 61.6641 389.379 61.5791 389.66 61.4092C389.941 61.2393 390.144 61.0195 390.267 60.75C390.39 60.4805 390.451 60.1992 390.451 59.9062C390.451 59.6191 390.39 59.3379 390.267 59.0625C390.144 58.7871 389.941 58.5586 389.66 58.377C389.379 58.1895 389.004 58.0957 388.535 58.0957H385.679V56.7598ZM395.47 53.4902V63H393.844V53.4902H395.47ZM411.387 55.7051V57.085H404.461V55.7051H411.387ZM404.725 50.2031V63H403.028V50.2031H404.725ZM412.863 50.2031V63H411.176V50.2031H412.863ZM424.008 61.6201V63H417.231V61.6201H424.008ZM417.574 50.2031V63H415.878V50.2031H417.574ZM423.111 55.7051V57.085H417.231V55.7051H423.111ZM423.92 50.2031V51.5918H417.231V50.2031H423.92ZM436.427 49.3506H437.763C437.763 49.9248 437.675 50.3818 437.499 50.7217C437.323 51.0557 437.083 51.3135 436.778 51.4951C436.479 51.6768 436.14 51.8145 435.759 51.9082C435.384 52.002 434.994 52.0928 434.59 52.1807C434.086 52.2861 433.617 52.4531 433.184 52.6816C432.756 52.9043 432.387 53.2207 432.076 53.6309C431.771 54.041 431.546 54.5742 431.399 55.2305C431.259 55.8867 431.221 56.6982 431.285 57.665V58.4736H429.949V57.665C429.949 56.5811 430.052 55.6348 430.257 54.8262C430.468 54.0176 430.764 53.335 431.145 52.7783C431.525 52.2217 431.977 51.7793 432.498 51.4512C433.025 51.123 433.605 50.8975 434.238 50.7744C434.695 50.6865 435.088 50.5928 435.416 50.4932C435.744 50.3877 435.993 50.2471 436.163 50.0713C436.339 49.8955 436.427 49.6553 436.427 49.3506ZM434.502 54.0352C435.123 54.0352 435.677 54.1436 436.163 54.3604C436.649 54.5771 437.062 54.8789 437.402 55.2656C437.742 55.6523 438 56.1094 438.176 56.6367C438.357 57.1582 438.448 57.7266 438.448 58.3418V58.5352C438.448 59.1973 438.352 59.8125 438.158 60.3809C437.971 60.9434 437.692 61.4355 437.323 61.8574C436.96 62.2734 436.515 62.5986 435.987 62.833C435.466 63.0674 434.871 63.1846 434.203 63.1846C433.535 63.1846 432.938 63.0674 432.41 62.833C431.889 62.5986 431.443 62.2734 431.074 61.8574C430.705 61.4355 430.424 60.9434 430.23 60.3809C430.043 59.8125 429.949 59.1973 429.949 58.5352V58.3418C429.949 58.1953 429.976 58.0518 430.028 57.9111C430.081 57.7705 430.146 57.627 430.222 57.4805C430.304 57.334 430.377 57.1787 430.441 57.0146C430.658 56.4873 430.954 55.998 431.329 55.5469C431.71 55.0957 432.164 54.7324 432.691 54.457C433.225 54.1758 433.828 54.0352 434.502 54.0352ZM434.186 55.3623C433.588 55.3623 433.096 55.5 432.709 55.7754C432.328 56.0508 432.044 56.417 431.856 56.874C431.669 57.3252 431.575 57.8145 431.575 58.3418V58.5352C431.575 58.9805 431.628 59.4023 431.733 59.8008C431.839 60.1992 431.997 60.5537 432.208 60.8643C432.425 61.1689 432.697 61.4092 433.025 61.585C433.359 61.7607 433.752 61.8486 434.203 61.8486C434.654 61.8486 435.044 61.7607 435.372 61.585C435.7 61.4092 435.97 61.1689 436.181 60.8643C436.392 60.5537 436.55 60.1992 436.655 59.8008C436.761 59.4023 436.813 58.9805 436.813 58.5352V58.3418C436.813 57.9434 436.761 57.5654 436.655 57.208C436.55 56.8506 436.389 56.5342 436.172 56.2588C435.961 55.9834 435.688 55.7666 435.354 55.6084C435.026 55.4443 434.637 55.3623 434.186 55.3623ZM442.966 62.0156L445.611 53.4902H447.352L443.537 64.4678C443.449 64.7021 443.332 64.9541 443.186 65.2236C443.045 65.499 442.863 65.7598 442.641 66.0059C442.418 66.252 442.148 66.4512 441.832 66.6035C441.521 66.7617 441.149 66.8408 440.716 66.8408C440.587 66.8408 440.423 66.8232 440.224 66.7881C440.024 66.7529 439.884 66.7236 439.802 66.7002L439.793 65.3818C439.84 65.3877 439.913 65.3936 440.013 65.3994C440.118 65.4111 440.191 65.417 440.232 65.417C440.602 65.417 440.915 65.3672 441.173 65.2676C441.431 65.1738 441.647 65.0127 441.823 64.7842C442.005 64.5615 442.16 64.2539 442.289 63.8613L442.966 62.0156ZM441.023 53.4902L443.493 60.873L443.915 62.5869L442.746 63.1846L439.248 53.4902H441.023ZM450.041 53.4902H451.667L451.526 57.0498C451.491 57.9521 451.389 58.7314 451.219 59.3877C451.049 60.0439 450.832 60.6035 450.568 61.0664C450.305 61.5234 450.009 61.9072 449.681 62.2178C449.358 62.5283 449.024 62.7891 448.679 63H447.87L447.914 61.6729L448.248 61.6641C448.441 61.4355 448.629 61.2012 448.811 60.9609C448.992 60.7148 449.159 60.4248 449.312 60.0908C449.464 59.751 449.59 59.3379 449.689 58.8516C449.795 58.3594 449.862 57.7588 449.892 57.0498L450.041 53.4902ZM450.445 53.4902H456.167V63H454.541V54.9932H450.445V53.4902ZM447.501 61.6641H457.389V65.8037H455.763V63H449.127V65.8037H447.492L447.501 61.6641ZM461.862 62.0156L464.508 53.4902H466.248L462.434 64.4678C462.346 64.7021 462.229 64.9541 462.082 65.2236C461.941 65.499 461.76 65.7598 461.537 66.0059C461.314 66.252 461.045 66.4512 460.729 66.6035C460.418 66.7617 460.046 66.8408 459.612 66.8408C459.483 66.8408 459.319 66.8232 459.12 66.7881C458.921 66.7529 458.78 66.7236 458.698 66.7002L458.689 65.3818C458.736 65.3877 458.81 65.3936 458.909 65.3994C459.015 65.4111 459.088 65.417 459.129 65.417C459.498 65.417 459.812 65.3672 460.069 65.2676C460.327 65.1738 460.544 65.0127 460.72 64.7842C460.901 64.5615 461.057 64.2539 461.186 63.8613L461.862 62.0156ZM459.92 53.4902L462.39 60.873L462.812 62.5869L461.643 63.1846L458.145 53.4902H459.92ZM471.592 53.4902V63H469.957V53.4902H471.592ZM474.782 53.4902V54.8086H466.828V53.4902H474.782ZM487.184 53.4902V54.835H482.376V53.4902H487.184ZM482.613 53.4902V63H480.987V53.4902H482.613ZM488.625 53.4902V63H486.99V53.4902H488.625ZM495.182 63.1758C494.52 63.1758 493.919 63.0645 493.38 62.8418C492.847 62.6133 492.387 62.2939 492 61.8838C491.619 61.4736 491.326 60.9873 491.121 60.4248C490.916 59.8623 490.813 59.2471 490.813 58.5791V58.21C490.813 57.4365 490.928 56.748 491.156 56.1445C491.385 55.5352 491.695 55.0195 492.088 54.5977C492.48 54.1758 492.926 53.8564 493.424 53.6396C493.922 53.4229 494.438 53.3145 494.971 53.3145C495.65 53.3145 496.236 53.4316 496.729 53.666C497.227 53.9004 497.634 54.2285 497.95 54.6504C498.267 55.0664 498.501 55.5586 498.653 56.127C498.806 56.6895 498.882 57.3047 498.882 57.9727V58.7021H491.78V57.375H497.256V57.252C497.232 56.8301 497.145 56.4199 496.992 56.0215C496.846 55.623 496.611 55.2949 496.289 55.0371C495.967 54.7793 495.527 54.6504 494.971 54.6504C494.602 54.6504 494.262 54.7295 493.951 54.8877C493.641 55.04 493.374 55.2686 493.151 55.5732C492.929 55.8779 492.756 56.25 492.633 56.6895C492.51 57.1289 492.448 57.6357 492.448 58.21V58.5791C492.448 59.0303 492.51 59.4551 492.633 59.8535C492.762 60.2461 492.946 60.5918 493.187 60.8906C493.433 61.1895 493.729 61.4238 494.074 61.5938C494.426 61.7637 494.824 61.8486 495.27 61.8486C495.844 61.8486 496.33 61.7314 496.729 61.4971C497.127 61.2627 497.476 60.9492 497.774 60.5566L498.759 61.3389C498.554 61.6494 498.293 61.9453 497.977 62.2266C497.66 62.5078 497.271 62.7363 496.808 62.9121C496.351 63.0879 495.809 63.1758 495.182 63.1758ZM502.406 55.3184V66.6562H500.771V53.4902H502.266L502.406 55.3184ZM508.813 58.166V58.3506C508.813 59.042 508.731 59.6836 508.567 60.2754C508.403 60.8613 508.163 61.3711 507.847 61.8047C507.536 62.2383 507.152 62.5752 506.695 62.8154C506.238 63.0557 505.714 63.1758 505.122 63.1758C504.519 63.1758 503.985 63.0762 503.522 62.877C503.06 62.6777 502.667 62.3877 502.345 62.0068C502.022 61.626 501.765 61.1689 501.571 60.6357C501.384 60.1025 501.255 59.502 501.185 58.834V57.8496C501.255 57.1465 501.387 56.5166 501.58 55.96C501.773 55.4033 502.028 54.9287 502.345 54.5361C502.667 54.1377 503.057 53.8359 503.514 53.6309C503.971 53.4199 504.498 53.3145 505.096 53.3145C505.693 53.3145 506.224 53.4316 506.687 53.666C507.149 53.8945 507.539 54.2227 507.855 54.6504C508.172 55.0781 508.409 55.5908 508.567 56.1885C508.731 56.7803 508.813 57.4395 508.813 58.166ZM507.179 58.3506V58.166C507.179 57.6914 507.129 57.2461 507.029 56.8301C506.93 56.4082 506.774 56.0391 506.563 55.7227C506.358 55.4004 506.095 55.1484 505.772 54.9668C505.45 54.7793 505.066 54.6855 504.621 54.6855C504.211 54.6855 503.854 54.7559 503.549 54.8965C503.25 55.0371 502.995 55.2275 502.784 55.4678C502.573 55.7021 502.4 55.9717 502.266 56.2764C502.137 56.5752 502.04 56.8857 501.976 57.208V59.4844C502.093 59.8945 502.257 60.2812 502.468 60.6445C502.679 61.002 502.96 61.292 503.312 61.5146C503.663 61.7314 504.105 61.8398 504.639 61.8398C505.078 61.8398 505.456 61.749 505.772 61.5674C506.095 61.3799 506.358 61.125 506.563 60.8027C506.774 60.4805 506.93 60.1113 507.029 59.6953C507.129 59.2734 507.179 58.8252 507.179 58.3506ZM514.834 63.1758C514.172 63.1758 513.571 63.0645 513.032 62.8418C512.499 62.6133 512.039 62.2939 511.652 61.8838C511.271 61.4736 510.979 60.9873 510.773 60.4248C510.568 59.8623 510.466 59.2471 510.466 58.5791V58.21C510.466 57.4365 510.58 56.748 510.809 56.1445C511.037 55.5352 511.348 55.0195 511.74 54.5977C512.133 54.1758 512.578 53.8564 513.076 53.6396C513.574 53.4229 514.09 53.3145 514.623 53.3145C515.303 53.3145 515.889 53.4316 516.381 53.666C516.879 53.9004 517.286 54.2285 517.603 54.6504C517.919 55.0664 518.153 55.5586 518.306 56.127C518.458 56.6895 518.534 57.3047 518.534 57.9727V58.7021H511.433V57.375H516.908V57.252C516.885 56.8301 516.797 56.4199 516.645 56.0215C516.498 55.623 516.264 55.2949 515.941 55.0371C515.619 54.7793 515.18 54.6504 514.623 54.6504C514.254 54.6504 513.914 54.7295 513.604 54.8877C513.293 55.04 513.026 55.2686 512.804 55.5732C512.581 55.8779 512.408 56.25 512.285 56.6895C512.162 57.1289 512.101 57.6357 512.101 58.21V58.5791C512.101 59.0303 512.162 59.4551 512.285 59.8535C512.414 60.2461 512.599 60.5918 512.839 60.8906C513.085 61.1895 513.381 61.4238 513.727 61.5938C514.078 61.7637 514.477 61.8486 514.922 61.8486C515.496 61.8486 515.982 61.7314 516.381 61.4971C516.779 61.2627 517.128 60.9492 517.427 60.5566L518.411 61.3389C518.206 61.6494 517.945 61.9453 517.629 62.2266C517.312 62.5078 516.923 62.7363 516.46 62.9121C516.003 63.0879 515.461 63.1758 514.834 63.1758ZM522.146 53.4902H523.772L523.632 57.0498C523.597 57.9521 523.494 58.7314 523.324 59.3877C523.154 60.0439 522.938 60.6035 522.674 61.0664C522.41 61.5234 522.114 61.9072 521.786 62.2178C521.464 62.5283 521.13 62.7891 520.784 63H519.976L520.02 61.6729L520.354 61.6641C520.547 61.4355 520.734 61.2012 520.916 60.9609C521.098 60.7148 521.265 60.4248 521.417 60.0908C521.569 59.751 521.695 59.3379 521.795 58.8516C521.9 58.3594 521.968 57.7588 521.997 57.0498L522.146 53.4902ZM522.551 53.4902H528.272V63H526.646V54.9932H522.551V53.4902ZM519.606 61.6641H529.494V65.8037H527.868V63H521.232V65.8037H519.598L519.606 61.6641ZM536.903 61.374V56.4785C536.903 56.1035 536.827 55.7783 536.675 55.5029C536.528 55.2217 536.306 55.0049 536.007 54.8525C535.708 54.7002 535.339 54.624 534.899 54.624C534.489 54.624 534.129 54.6943 533.818 54.835C533.514 54.9756 533.273 55.1602 533.098 55.3887C532.928 55.6172 532.843 55.8633 532.843 56.127H531.217C531.217 55.7871 531.305 55.4502 531.48 55.1162C531.656 54.7822 531.908 54.4805 532.236 54.2109C532.57 53.9355 532.969 53.7188 533.432 53.5605C533.9 53.3965 534.422 53.3145 534.996 53.3145C535.688 53.3145 536.297 53.4316 536.824 53.666C537.357 53.9004 537.773 54.2549 538.072 54.7295C538.377 55.1982 538.529 55.7871 538.529 56.4961V60.9258C538.529 61.2422 538.556 61.5791 538.608 61.9365C538.667 62.2939 538.752 62.6016 538.863 62.8594V63H537.167C537.085 62.8125 537.021 62.5635 536.974 62.2529C536.927 61.9365 536.903 61.6436 536.903 61.374ZM537.185 57.2344L537.202 58.377H535.559C535.096 58.377 534.683 58.415 534.319 58.4912C533.956 58.5615 533.651 58.6699 533.405 58.8164C533.159 58.9629 532.972 59.1475 532.843 59.3701C532.714 59.5869 532.649 59.8418 532.649 60.1348C532.649 60.4336 532.717 60.7061 532.852 60.9521C532.986 61.1982 533.188 61.3945 533.458 61.541C533.733 61.6816 534.07 61.752 534.469 61.752C534.967 61.752 535.406 61.6465 535.787 61.4355C536.168 61.2246 536.47 60.9668 536.692 60.6621C536.921 60.3574 537.044 60.0615 537.062 59.7744L537.756 60.5566C537.715 60.8027 537.604 61.0752 537.422 61.374C537.24 61.6729 536.997 61.96 536.692 62.2354C536.394 62.5049 536.036 62.7305 535.62 62.9121C535.21 63.0879 534.747 63.1758 534.231 63.1758C533.587 63.1758 533.021 63.0498 532.535 62.7979C532.055 62.5459 531.68 62.209 531.41 61.7871C531.146 61.3594 531.015 60.8818 531.015 60.3545C531.015 59.8447 531.114 59.3965 531.313 59.0098C531.513 58.6172 531.8 58.292 532.175 58.0342C532.55 57.7705 533.001 57.5713 533.528 57.4365C534.056 57.3018 534.645 57.2344 535.295 57.2344H537.185ZM547.538 57.6123V58.9307H542.511V57.6123H547.538ZM542.854 53.4902V63H541.228V53.4902H542.854ZM548.856 53.4902V63H547.222V53.4902H548.856ZM552.812 56.7598H555.668C556.436 56.7598 557.083 56.8945 557.61 57.1641C558.138 57.4277 558.536 57.7939 558.806 58.2627C559.081 58.7256 559.219 59.2529 559.219 59.8447C559.219 60.2842 559.143 60.6973 558.99 61.084C558.838 61.4648 558.609 61.7988 558.305 62.0859C558.006 62.373 557.634 62.5986 557.188 62.7627C556.749 62.9209 556.242 63 555.668 63H551.625V53.4902H553.251V61.6641H555.668C556.137 61.6641 556.512 61.5791 556.793 61.4092C557.074 61.2393 557.276 61.0195 557.399 60.75C557.522 60.4805 557.584 60.1992 557.584 59.9062C557.584 59.6191 557.522 59.3379 557.399 59.0625C557.276 58.7871 557.074 58.5586 556.793 58.377C556.512 58.1895 556.137 58.0957 555.668 58.0957H552.812V56.7598ZM562.603 53.4902V63H560.977V53.4902H562.603ZM571.673 60.4248L576.059 53.4902H577.693V63H576.059V56.0654L571.673 63H570.056V53.4902H571.673V60.4248ZM590.868 49.3506H592.204C592.204 49.9248 592.116 50.3818 591.94 50.7217C591.765 51.0557 591.524 51.3135 591.22 51.4951C590.921 51.6768 590.581 51.8145 590.2 51.9082C589.825 52.002 589.436 52.0928 589.031 52.1807C588.527 52.2861 588.059 52.4531 587.625 52.6816C587.197 52.9043 586.828 53.2207 586.518 53.6309C586.213 54.041 585.987 54.5742 585.841 55.2305C585.7 55.8867 585.662 56.6982 585.727 57.665V58.4736H584.391V57.665C584.391 56.5811 584.493 55.6348 584.698 54.8262C584.909 54.0176 585.205 53.335 585.586 52.7783C585.967 52.2217 586.418 51.7793 586.939 51.4512C587.467 51.123 588.047 50.8975 588.68 50.7744C589.137 50.6865 589.529 50.5928 589.857 50.4932C590.186 50.3877 590.435 50.2471 590.604 50.0713C590.78 49.8955 590.868 49.6553 590.868 49.3506ZM588.943 54.0352C589.564 54.0352 590.118 54.1436 590.604 54.3604C591.091 54.5771 591.504 54.8789 591.844 55.2656C592.184 55.6523 592.441 56.1094 592.617 56.6367C592.799 57.1582 592.89 57.7266 592.89 58.3418V58.5352C592.89 59.1973 592.793 59.8125 592.6 60.3809C592.412 60.9434 592.134 61.4355 591.765 61.8574C591.401 62.2734 590.956 62.5986 590.429 62.833C589.907 63.0674 589.312 63.1846 588.645 63.1846C587.977 63.1846 587.379 63.0674 586.852 62.833C586.33 62.5986 585.885 62.2734 585.516 61.8574C585.146 61.4355 584.865 60.9434 584.672 60.3809C584.484 59.8125 584.391 59.1973 584.391 58.5352V58.3418C584.391 58.1953 584.417 58.0518 584.47 57.9111C584.522 57.7705 584.587 57.627 584.663 57.4805C584.745 57.334 584.818 57.1787 584.883 57.0146C585.1 56.4873 585.396 55.998 585.771 55.5469C586.151 55.0957 586.605 54.7324 587.133 54.457C587.666 54.1758 588.27 54.0352 588.943 54.0352ZM588.627 55.3623C588.029 55.3623 587.537 55.5 587.15 55.7754C586.77 56.0508 586.485 56.417 586.298 56.874C586.11 57.3252 586.017 57.8145 586.017 58.3418V58.5352C586.017 58.9805 586.069 59.4023 586.175 59.8008C586.28 60.1992 586.438 60.5537 586.649 60.8643C586.866 61.1689 587.139 61.4092 587.467 61.585C587.801 61.7607 588.193 61.8486 588.645 61.8486C589.096 61.8486 589.485 61.7607 589.813 61.585C590.142 61.4092 590.411 61.1689 590.622 60.8643C590.833 60.5537 590.991 60.1992 591.097 59.8008C591.202 59.4023 591.255 58.9805 591.255 58.5352V58.3418C591.255 57.9434 591.202 57.5654 591.097 57.208C590.991 56.8506 590.83 56.5342 590.613 56.2588C590.402 55.9834 590.13 55.7666 589.796 55.6084C589.468 55.4443 589.078 55.3623 588.627 55.3623ZM597.407 62.0156L600.053 53.4902H601.793L597.979 64.4678C597.891 64.7021 597.773 64.9541 597.627 65.2236C597.486 65.499 597.305 65.7598 597.082 66.0059C596.859 66.252 596.59 66.4512 596.273 66.6035C595.963 66.7617 595.591 66.8408 595.157 66.8408C595.028 66.8408 594.864 66.8232 594.665 66.7881C594.466 66.7529 594.325 66.7236 594.243 66.7002L594.234 65.3818C594.281 65.3877 594.354 65.3936 594.454 65.3994C594.56 65.4111 594.633 65.417 594.674 65.417C595.043 65.417 595.356 65.3672 595.614 65.2676C595.872 65.1738 596.089 65.0127 596.265 64.7842C596.446 64.5615 596.602 64.2539 596.73 63.8613L597.407 62.0156ZM595.465 53.4902L597.935 60.873L598.356 62.5869L597.188 63.1846L593.689 53.4902H595.465ZM604.482 53.4902H606.108L605.968 57.0498C605.933 57.9521 605.83 58.7314 605.66 59.3877C605.49 60.0439 605.273 60.6035 605.01 61.0664C604.746 61.5234 604.45 61.9072 604.122 62.2178C603.8 62.5283 603.466 62.7891 603.12 63H602.312L602.355 61.6729L602.689 61.6641C602.883 61.4355 603.07 61.2012 603.252 60.9609C603.434 60.7148 603.601 60.4248 603.753 60.0908C603.905 59.751 604.031 59.3379 604.131 58.8516C604.236 58.3594 604.304 57.7588 604.333 57.0498L604.482 53.4902ZM604.887 53.4902H610.608V63H608.982V54.9932H604.887V53.4902ZM601.942 61.6641H611.83V65.8037H610.204V63H603.568V65.8037H601.934L601.942 61.6641ZM616.304 62.0156L618.949 53.4902H620.689L616.875 64.4678C616.787 64.7021 616.67 64.9541 616.523 65.2236C616.383 65.499 616.201 65.7598 615.979 66.0059C615.756 66.252 615.486 66.4512 615.17 66.6035C614.859 66.7617 614.487 66.8408 614.054 66.8408C613.925 66.8408 613.761 66.8232 613.562 66.7881C613.362 66.7529 613.222 66.7236 613.14 66.7002L613.131 65.3818C613.178 65.3877 613.251 65.3936 613.351 65.3994C613.456 65.4111 613.529 65.417 613.57 65.417C613.939 65.417 614.253 65.3672 614.511 65.2676C614.769 65.1738 614.985 65.0127 615.161 64.7842C615.343 64.5615 615.498 64.2539 615.627 63.8613L616.304 62.0156ZM614.361 53.4902L616.831 60.873L617.253 62.5869L616.084 63.1846L612.586 53.4902H614.361ZM626.033 53.4902V63H624.398V53.4902H626.033ZM629.224 53.4902V54.8086H621.27V53.4902H629.224ZM637.96 62.0156L640.605 53.4902H642.346L638.531 64.4678C638.443 64.7021 638.326 64.9541 638.18 65.2236C638.039 65.499 637.857 65.7598 637.635 66.0059C637.412 66.252 637.143 66.4512 636.826 66.6035C636.516 66.7617 636.144 66.8408 635.71 66.8408C635.581 66.8408 635.417 66.8232 635.218 66.7881C635.019 66.7529 634.878 66.7236 634.796 66.7002L634.787 65.3818C634.834 65.3877 634.907 65.3936 635.007 65.3994C635.112 65.4111 635.186 65.417 635.227 65.417C635.596 65.417 635.909 65.3672 636.167 65.2676C636.425 65.1738 636.642 65.0127 636.817 64.7842C636.999 64.5615 637.154 64.2539 637.283 63.8613L637.96 62.0156ZM636.018 53.4902L638.487 60.873L638.909 62.5869L637.74 63.1846L634.242 53.4902H636.018ZM647.689 53.4902V63H646.055V53.4902H647.689ZM650.88 53.4902V54.8086H642.926V53.4902H650.88ZM654.237 60.4248L658.623 53.4902H660.258V63H658.623V56.0654L654.237 63H652.62V53.4902H654.237V60.4248ZM669.223 53.4902V54.835H664.626V53.4902H669.223ZM670.655 53.4902V63H669.029V53.4902H670.655ZM664.23 53.4902H665.865L665.619 58.0781C665.578 58.7871 665.511 59.4141 665.417 59.959C665.329 60.498 665.206 60.9609 665.048 61.3477C664.896 61.7344 664.702 62.0508 664.468 62.2969C664.239 62.5371 663.964 62.7158 663.642 62.833C663.319 62.9443 662.947 63 662.525 63H662.016V61.5674L662.367 61.541C662.619 61.5234 662.833 61.4648 663.009 61.3652C663.19 61.2656 663.343 61.1191 663.466 60.9258C663.589 60.7266 663.688 60.4717 663.765 60.1611C663.847 59.8506 663.908 59.4814 663.949 59.0537C663.996 58.626 664.031 58.1279 664.055 57.5596L664.23 53.4902ZM675.032 60.4248L679.418 53.4902H681.053V63H679.418V56.0654L675.032 63H673.415V53.4902H675.032V60.4248ZM687.214 58.4561H685.465V57.4541H687.082C687.533 57.4541 687.891 57.3984 688.154 57.2871C688.418 57.1699 688.605 57.0088 688.717 56.8037C688.828 56.5986 688.884 56.3584 688.884 56.083C688.884 55.8369 688.819 55.6055 688.69 55.3887C688.567 55.166 688.368 54.9873 688.093 54.8525C687.817 54.7119 687.448 54.6416 686.985 54.6416C686.61 54.6416 686.271 54.709 685.966 54.8438C685.661 54.9727 685.418 55.1514 685.236 55.3799C685.061 55.6025 684.973 55.8545 684.973 56.1357H683.347C683.347 55.5557 683.511 55.0576 683.839 54.6416C684.173 54.2197 684.615 53.8945 685.166 53.666C685.723 53.4375 686.329 53.3232 686.985 53.3232C687.536 53.3232 688.028 53.3848 688.462 53.5078C688.901 53.625 689.273 53.8008 689.578 54.0352C689.883 54.2637 690.114 54.5508 690.272 54.8965C690.437 55.2363 690.519 55.6318 690.519 56.083C690.519 56.4053 690.442 56.71 690.29 56.9971C690.138 57.2842 689.918 57.5391 689.631 57.7617C689.344 57.9785 688.995 58.1484 688.585 58.2715C688.181 58.3945 687.724 58.4561 687.214 58.4561ZM685.465 57.8408H687.214C687.782 57.8408 688.283 57.8965 688.717 58.0078C689.15 58.1133 689.514 58.2715 689.807 58.4824C690.1 58.6934 690.319 58.9541 690.466 59.2646C690.618 59.5693 690.694 59.9209 690.694 60.3193C690.694 60.7646 690.604 61.166 690.422 61.5234C690.246 61.875 689.994 62.1738 689.666 62.4199C689.338 62.666 688.945 62.8535 688.488 62.9824C688.037 63.1113 687.536 63.1758 686.985 63.1758C686.37 63.1758 685.772 63.0703 685.192 62.8594C684.612 62.6484 684.135 62.3232 683.76 61.8838C683.385 61.4385 683.197 60.873 683.197 60.1875H684.823C684.823 60.4746 684.914 60.7471 685.096 61.0049C685.277 61.2627 685.529 61.4707 685.852 61.6289C686.18 61.7871 686.558 61.8662 686.985 61.8662C687.442 61.8662 687.823 61.7959 688.128 61.6553C688.433 61.5146 688.661 61.3271 688.813 61.0928C688.972 60.8584 689.051 60.6035 689.051 60.3281C689.051 59.9707 688.98 59.6836 688.84 59.4668C688.699 59.25 688.482 59.0918 688.189 58.9922C687.902 58.8867 687.533 58.834 687.082 58.834H685.465V57.8408ZM694.562 60.4248L698.947 53.4902H700.582V63H698.947V56.0654L694.562 63H692.944V53.4902H694.562V60.4248ZM704.818 55.3184V66.6562H703.184V53.4902H704.678L704.818 55.3184ZM711.226 58.166V58.3506C711.226 59.042 711.144 59.6836 710.979 60.2754C710.815 60.8613 710.575 61.3711 710.259 61.8047C709.948 62.2383 709.564 62.5752 709.107 62.8154C708.65 63.0557 708.126 63.1758 707.534 63.1758C706.931 63.1758 706.397 63.0762 705.935 62.877C705.472 62.6777 705.079 62.3877 704.757 62.0068C704.435 61.626 704.177 61.1689 703.983 60.6357C703.796 60.1025 703.667 59.502 703.597 58.834V57.8496C703.667 57.1465 703.799 56.5166 703.992 55.96C704.186 55.4033 704.44 54.9287 704.757 54.5361C705.079 54.1377 705.469 53.8359 705.926 53.6309C706.383 53.4199 706.91 53.3145 707.508 53.3145C708.105 53.3145 708.636 53.4316 709.099 53.666C709.562 53.8945 709.951 54.2227 710.268 54.6504C710.584 55.0781 710.821 55.5908 710.979 56.1885C711.144 56.7803 711.226 57.4395 711.226 58.166ZM709.591 58.3506V58.166C709.591 57.6914 709.541 57.2461 709.441 56.8301C709.342 56.4082 709.187 56.0391 708.976 55.7227C708.771 55.4004 708.507 55.1484 708.185 54.9668C707.862 54.7793 707.479 54.6855 707.033 54.6855C706.623 54.6855 706.266 54.7559 705.961 54.8965C705.662 55.0371 705.407 55.2275 705.196 55.4678C704.985 55.7021 704.812 55.9717 704.678 56.2764C704.549 56.5752 704.452 56.8857 704.388 57.208V59.4844C704.505 59.8945 704.669 60.2812 704.88 60.6445C705.091 61.002 705.372 61.292 705.724 61.5146C706.075 61.7314 706.518 61.8398 707.051 61.8398C707.49 61.8398 707.868 61.749 708.185 61.5674C708.507 61.3799 708.771 61.125 708.976 60.8027C709.187 60.4805 709.342 60.1113 709.441 59.6953C709.541 59.2734 709.591 58.8252 709.591 58.3506ZM712.869 58.3506V58.1484C712.869 57.4629 712.969 56.8271 713.168 56.2412C713.367 55.6494 713.654 55.1367 714.029 54.7031C714.404 54.2637 714.858 53.9238 715.392 53.6836C715.925 53.4375 716.522 53.3145 717.185 53.3145C717.853 53.3145 718.453 53.4375 718.986 53.6836C719.525 53.9238 719.982 54.2637 720.357 54.7031C720.738 55.1367 721.028 55.6494 721.228 56.2412C721.427 56.8271 721.526 57.4629 721.526 58.1484V58.3506C721.526 59.0361 721.427 59.6719 721.228 60.2578C721.028 60.8438 720.738 61.3564 720.357 61.7959C719.982 62.2295 719.528 62.5693 718.995 62.8154C718.468 63.0557 717.87 63.1758 717.202 63.1758C716.534 63.1758 715.934 63.0557 715.4 62.8154C714.867 62.5693 714.41 62.2295 714.029 61.7959C713.654 61.3564 713.367 60.8438 713.168 60.2578C712.969 59.6719 712.869 59.0361 712.869 58.3506ZM714.495 58.1484V58.3506C714.495 58.8252 714.551 59.2734 714.662 59.6953C714.773 60.1113 714.94 60.4805 715.163 60.8027C715.392 61.125 715.676 61.3799 716.016 61.5674C716.355 61.749 716.751 61.8398 717.202 61.8398C717.647 61.8398 718.037 61.749 718.371 61.5674C718.711 61.3799 718.992 61.125 719.215 60.8027C719.438 60.4805 719.604 60.1113 719.716 59.6953C719.833 59.2734 719.892 58.8252 719.892 58.3506V58.1484C719.892 57.6797 719.833 57.2373 719.716 56.8213C719.604 56.3994 719.435 56.0273 719.206 55.7051C718.983 55.377 718.702 55.1191 718.362 54.9316C718.028 54.7441 717.636 54.6504 717.185 54.6504C716.739 54.6504 716.347 54.7441 716.007 54.9316C715.673 55.1191 715.392 55.377 715.163 55.7051C714.94 56.0273 714.773 56.3994 714.662 56.8213C714.551 57.2373 714.495 57.6797 714.495 58.1484ZM728.03 58.8164H724.91L724.893 57.5156H727.441C727.945 57.5156 728.364 57.4658 728.698 57.3662C729.038 57.2666 729.293 57.1172 729.463 56.918C729.633 56.7188 729.718 56.4727 729.718 56.1797C729.718 55.9512 729.668 55.752 729.568 55.582C729.475 55.4062 729.331 55.2627 729.138 55.1514C728.944 55.0342 728.704 54.9492 728.417 54.8965C728.136 54.8379 727.805 54.8086 727.424 54.8086H725.341V63H723.715V53.4902H727.424C728.027 53.4902 728.569 53.543 729.05 53.6484C729.536 53.7539 729.949 53.915 730.289 54.1318C730.635 54.3428 730.898 54.6123 731.08 54.9404C731.262 55.2686 731.353 55.6553 731.353 56.1006C731.353 56.3877 731.294 56.6602 731.177 56.918C731.06 57.1758 730.887 57.4043 730.658 57.6035C730.43 57.8027 730.148 57.9668 729.814 58.0957C729.48 58.2188 729.097 58.2979 728.663 58.333L728.03 58.8164ZM728.03 63H724.321L725.13 61.6816H728.03C728.481 61.6816 728.856 61.626 729.155 61.5146C729.454 61.3975 729.677 61.2334 729.823 61.0225C729.976 60.8057 730.052 60.5479 730.052 60.249C730.052 59.9502 729.976 59.6953 729.823 59.4844C729.677 59.2676 729.454 59.1035 729.155 58.9922C728.856 58.875 728.481 58.8164 728.03 58.8164H725.561L725.578 57.5156H728.663L729.252 58.0078C729.773 58.0488 730.216 58.1777 730.579 58.3945C730.942 58.6113 731.218 58.8867 731.405 59.2207C731.593 59.5488 731.687 59.9062 731.687 60.293C731.687 60.7383 731.602 61.1309 731.432 61.4707C731.268 61.8105 731.027 62.0947 730.711 62.3232C730.395 62.5459 730.011 62.7158 729.56 62.833C729.108 62.9443 728.599 63 728.03 63ZM739.474 61.374V56.4785C739.474 56.1035 739.397 55.7783 739.245 55.5029C739.099 55.2217 738.876 55.0049 738.577 54.8525C738.278 54.7002 737.909 54.624 737.47 54.624C737.06 54.624 736.699 54.6943 736.389 54.835C736.084 54.9756 735.844 55.1602 735.668 55.3887C735.498 55.6172 735.413 55.8633 735.413 56.127H733.787C733.787 55.7871 733.875 55.4502 734.051 55.1162C734.227 54.7822 734.479 54.4805 734.807 54.2109C735.141 53.9355 735.539 53.7188 736.002 53.5605C736.471 53.3965 736.992 53.3145 737.566 53.3145C738.258 53.3145 738.867 53.4316 739.395 53.666C739.928 53.9004 740.344 54.2549 740.643 54.7295C740.947 55.1982 741.1 55.7871 741.1 56.4961V60.9258C741.1 61.2422 741.126 61.5791 741.179 61.9365C741.237 62.2939 741.322 62.6016 741.434 62.8594V63H739.737C739.655 62.8125 739.591 62.5635 739.544 62.2529C739.497 61.9365 739.474 61.6436 739.474 61.374ZM739.755 57.2344L739.772 58.377H738.129C737.666 58.377 737.253 58.415 736.89 58.4912C736.526 58.5615 736.222 58.6699 735.976 58.8164C735.729 58.9629 735.542 59.1475 735.413 59.3701C735.284 59.5869 735.22 59.8418 735.22 60.1348C735.22 60.4336 735.287 60.7061 735.422 60.9521C735.557 61.1982 735.759 61.3945 736.028 61.541C736.304 61.6816 736.641 61.752 737.039 61.752C737.537 61.752 737.977 61.6465 738.357 61.4355C738.738 61.2246 739.04 60.9668 739.263 60.6621C739.491 60.3574 739.614 60.0615 739.632 59.7744L740.326 60.5566C740.285 60.8027 740.174 61.0752 739.992 61.374C739.811 61.6729 739.567 61.96 739.263 62.2354C738.964 62.5049 738.606 62.7305 738.19 62.9121C737.78 63.0879 737.317 63.1758 736.802 63.1758C736.157 63.1758 735.592 63.0498 735.105 62.7979C734.625 62.5459 734.25 62.209 733.98 61.7871C733.717 61.3594 733.585 60.8818 733.585 60.3545C733.585 59.8447 733.685 59.3965 733.884 59.0098C734.083 58.6172 734.37 58.292 734.745 58.0342C735.12 57.7705 735.571 57.5713 736.099 57.4365C736.626 57.3018 737.215 57.2344 737.865 57.2344H739.755ZM750.108 57.6123V58.9307H745.081V57.6123H750.108ZM745.424 53.4902V63H743.798V53.4902H745.424ZM751.427 53.4902V63H749.792V53.4902H751.427ZM755.382 56.7598H758.238C759.006 56.7598 759.653 56.8945 760.181 57.1641C760.708 57.4277 761.106 57.7939 761.376 58.2627C761.651 58.7256 761.789 59.2529 761.789 59.8447C761.789 60.2842 761.713 60.6973 761.561 61.084C761.408 61.4648 761.18 61.7988 760.875 62.0859C760.576 62.373 760.204 62.5986 759.759 62.7627C759.319 62.9209 758.812 63 758.238 63H754.195V53.4902H755.821V61.6641H758.238C758.707 61.6641 759.082 61.5791 759.363 61.4092C759.645 61.2393 759.847 61.0195 759.97 60.75C760.093 60.4805 760.154 60.1992 760.154 59.9062C760.154 59.6191 760.093 59.3379 759.97 59.0625C759.847 58.7871 759.645 58.5586 759.363 58.377C759.082 58.1895 758.707 58.0957 758.238 58.0957H755.382V56.7598ZM765.173 53.4902V63H763.547V53.4902H765.173Z" fill="#DC2626"/>
</svg>
