<svg width="348" height="230" viewBox="0 0 348 230" fill="none" xmlns="http://www.w3.org/2000/svg">
<g clip-path="url(#clip0_385_481)">
<path d="M17.9998 0H339.724C339.865 0.221093 339.95 0.430473 339.971 0.694782C340.262 4.3079 340 8.5284 340 12.1947L340.002 35.5662V180.501V216.254L340 225.622C340 226.779 340.177 228.324 339.957 229.447C339.914 229.654 339.836 229.823 339.724 230H17.9998V0ZM167.002 17.3151C144.332 17.664 121.632 17.3966 98.9596 17.4174L80.4132 17.4117C77.4557 17.4034 74.1625 17.1096 71.24 17.4663C70.1278 17.6021 69.1683 18.1566 68.388 18.947C67.4878 19.859 67.2916 20.7074 67.1544 21.9489C66.9287 23.9928 67.0664 26.1724 67.0655 28.2327L67.0681 39.9713L67.0677 77.2092C65.7997 78.1279 64.7104 79.4735 63.6988 80.6601C59.205 85.9315 55.8044 91.6301 52.8566 97.8684C52.2503 99.1516 51.3045 100.741 51.0955 102.143C51.0573 102.399 51.0789 102.646 51.1083 102.9C50.7986 103.174 50.5213 103.317 50.4515 103.752C50.4324 103.871 50.4766 104.068 50.4935 104.181C50.4977 104.241 50.5038 104.301 50.5065 104.361C50.5316 104.928 50.1003 105.848 49.9164 106.408C48.6726 110.195 47.5748 114.042 46.9182 117.981C43.5401 138.248 48.4245 159.49 63.2594 174.232C64.4877 175.452 65.7132 176.779 67.0596 177.866L67.0659 200.032C67.0733 202.928 66.7232 206.361 67.151 209.185C67.3006 210.171 67.7016 211.09 68.4121 211.803C69.0197 212.413 69.8804 212.927 70.7512 212.979C73.463 213.141 76.2499 213.014 78.9702 213.014L94.7905 213.007L142.82 213.004L217.271 212.853C237.608 212.858 257.968 213.058 278.301 212.825C279.336 212.813 280.443 212.513 281.195 211.758C281.779 211.174 282.237 210.368 282.383 209.553C282.77 207.401 282.484 203.1 282.48 200.719C282.475 195.663 282.664 190.519 282.453 185.472C282.439 185.168 282.392 184.84 282.269 184.56C282.698 183.726 288.909 178.048 290.191 176.756C301.117 165.748 310.032 154.554 315.362 139.767C319.092 129.328 320.992 118.324 320.983 107.238C320.951 103.721 320.693 100.144 320.278 96.6505C320.073 94.9392 319.73 93.2293 319.584 91.5137C319.555 91.1631 319.588 90.9446 319.723 90.6236C320.707 91.0173 322.389 92.8892 323.156 92.9211C323.165 92.6808 323.159 92.6305 323.062 92.4189C322.6 91.4079 321.445 90.319 320.381 89.9675C319.943 89.8224 319.878 89.9132 319.487 90.1173C318.946 89.97 318.313 86.0265 318.163 85.29C316.229 75.9876 312.72 67.0843 307.791 58.9642C302.328 49.7968 295.593 42.1264 287.559 35.148C286.201 33.9666 284.166 31.893 282.406 31.4491C282.482 31.2218 282.509 31.0341 282.52 30.7944C282.585 29.2053 282.502 27.6117 282.511 26.0219C282.525 23.6069 283.055 20.7375 281.234 18.8141C280.569 18.1122 279.74 17.6195 278.793 17.4182C276.983 17.0336 274.704 17.3012 272.845 17.308C268.392 17.3243 263.919 17.4312 259.468 17.3022L259.43 17.114C258.584 16.3933 257.182 15.9219 256.154 15.4455C249.121 12.1607 241.727 9.7182 234.123 8.16864C215.498 4.27798 196.158 5.68156 178.289 12.2205C174.526 13.5925 170.337 15.1059 167.002 17.3151ZM325.094 94.6264C325.036 95.386 325.301 95.5897 325.788 96.1577C326.208 96.6483 327.117 97.9306 327.724 98.0901L328.011 97.6819C327.728 96.744 326.478 95.2618 325.62 94.7431C325.456 94.6439 325.281 94.6212 325.094 94.6264ZM329.177 100.29C329.147 101.284 330.371 103.046 330.879 103.913L331.141 104.064L331.245 104.027L331.541 103.711C331.503 102.71 330.636 101.176 329.929 100.488C329.657 100.223 329.522 100.283 329.177 100.29ZM47.9345 104.736C47.2775 105.129 45.542 105.95 45.3367 106.702C45.2757 106.927 45.4542 107.152 45.566 107.349C45.5743 107.363 45.5846 107.377 45.5939 107.39C46.4015 106.897 47.9714 106.188 48.2696 105.27C48.1654 105.084 48.0742 104.898 47.9345 104.736ZM332.064 106.582C332.143 107.658 332.635 109.312 333.187 110.24C333.277 110.267 333.385 110.331 333.47 110.292C333.593 110.164 333.813 110.018 333.811 109.838C333.8 108.926 333.479 107.452 332.861 106.753C332.628 106.488 332.385 106.575 332.064 106.582ZM42.7069 108.339C42.1185 108.803 40.4055 109.909 40.2752 110.636C40.2656 110.689 40.2635 110.743 40.2577 110.797C40.4621 111.027 40.487 111.043 40.7841 111.12C41.4921 110.553 43.1158 109.542 43.2307 108.632C43.047 108.458 42.9613 108.374 42.7069 108.339ZM37.6734 112.558C36.9434 113.277 35.6158 114.274 35.543 115.328C35.7227 115.511 35.8047 115.609 36.048 115.705C36.6591 115.013 38.2051 113.797 38.2065 112.868C38.0132 112.716 37.9111 112.637 37.6734 112.558ZM333.468 113.032C333.69 114.189 333.641 115.497 334 116.603L334.238 116.74L334.393 116.653C334.878 116.046 334.81 115.21 334.721 114.438C334.662 113.939 334.485 113.253 334.099 112.937L333.468 113.032ZM33.4882 117.285C32.7415 118.089 31.2747 119.458 31.2926 120.62C31.4478 120.797 31.5482 120.923 31.7448 121.054C32.4234 120.177 33.7572 118.802 33.9115 117.712C33.7705 117.535 33.6773 117.413 33.4882 117.285ZM334.096 119.64C333.78 120.701 333.699 122.083 333.766 123.186L333.944 123.452L334.247 123.465C334.784 122.948 334.826 121.784 334.842 121.035C334.849 120.59 334.873 120.07 334.575 119.717L334.096 119.64ZM29.543 122.791C28.9632 123.729 27.8294 125.142 27.8796 126.275C28.0433 126.465 28.1404 126.583 28.3499 126.726C28.829 125.997 30.2106 124.17 30.0589 123.3C30.0153 123.05 29.7407 122.936 29.543 122.791ZM333.182 126.405C333.182 126.478 333.18 126.552 333.178 126.626C333.147 127.583 332.334 129.333 332.837 130.147C332.924 130.128 333.072 130.114 333.149 130.068C333.688 129.56 334.054 128.055 334.076 127.285C334.085 126.954 334.069 126.757 333.906 126.471C333.632 126.375 333.47 126.372 333.182 126.405ZM26.4093 128.863C25.9295 129.912 25.2248 131.119 25.2825 132.294C25.5168 132.655 25.5917 132.633 25.9868 132.759C26.3236 131.832 27.2948 129.947 26.9456 129.06L26.4093 128.863ZM331.575 133.012C331.521 133.982 330.261 135.64 330.834 136.439L331.085 136.475C331.674 136.094 332.177 134.783 332.331 134.094C332.412 133.741 332.415 133.45 332.334 133.099C332.051 132.928 331.898 132.988 331.575 133.012ZM24.449 135.021C24.0221 135.892 23.3821 137.652 23.7165 138.605C23.8061 138.86 24.0017 138.912 24.2364 139.025C24.2575 139.035 24.2798 139.043 24.3015 139.052C24.535 138.228 25.3231 136.21 24.9996 135.395C24.9234 135.203 24.6256 135.112 24.449 135.021ZM329.244 139.305C329.237 139.335 329.23 139.365 329.221 139.394C328.963 140.293 327.713 141.808 328.054 142.674L328.337 142.767C329.017 142.336 329.767 140.828 329.94 140.036C329.989 139.813 329.994 139.66 329.96 139.436C329.677 139.247 329.579 139.291 329.244 139.305ZM23.2258 141.291C23.0657 142.218 22.6108 144.334 23.1366 145.152C23.2631 145.349 23.4695 145.371 23.6904 145.406C23.7363 145.414 23.783 145.416 23.8292 145.421C23.9354 144.432 24.3551 142.271 23.7929 141.432C23.607 141.383 23.4156 141.319 23.2258 141.291ZM326.089 145.44C325.972 146.512 324.706 147.428 324.789 148.488L325.074 148.742L325.231 148.588C325.831 148.115 326.826 146.709 326.947 145.946C326.969 145.803 326.951 145.697 326.924 145.557C326.635 145.318 326.455 145.412 326.089 145.44ZM23.1562 147.775C22.9872 148.673 23.0455 150.84 23.6245 151.598C23.7729 151.792 23.8816 151.768 24.1073 151.826C24.439 150.972 24.2971 149.209 23.9664 148.358C23.9044 148.199 23.8192 148.091 23.7131 147.959L23.1562 147.775ZM322.494 151.419C322.283 152.367 320.864 153.39 321.102 154.322C321.264 154.366 321.333 154.422 321.493 154.36C322.261 153.955 323.105 152.64 323.365 151.825L323.318 151.464C322.966 151.324 322.86 151.362 322.494 151.419ZM24.2745 154.08C24.0799 155.064 24.4121 156.603 24.9374 157.464C25.0214 157.601 25.1165 157.687 25.2357 157.793L25.8105 157.882C25.8058 157.089 25.3779 154.812 24.7336 154.303C24.5863 154.186 24.4515 154.131 24.2745 154.08ZM318.71 156.768C318.385 157.651 316.564 159.019 316.923 159.889L317.235 160.016C317.972 159.657 319.198 158.21 319.447 157.42C319.492 157.282 319.487 157.174 319.483 157.031C319.175 156.752 319.11 156.791 318.71 156.768ZM26.1107 160.227C25.991 161.229 26.7176 162.715 27.3049 163.514C27.4975 163.776 27.766 163.848 28.0633 163.924C28.1835 162.954 27.4725 161.316 26.861 160.557C26.6529 160.299 26.4332 160.251 26.1107 160.227ZM314.285 162.274C313.858 163.133 312.259 164.114 312.443 165.062L312.697 165.299C313.393 165.009 314.662 163.696 314.907 162.969C314.956 162.819 314.954 162.703 314.947 162.546C314.693 162.339 314.612 162.331 314.285 162.274ZM29.0939 165.883C28.9215 166.741 29.3809 167.559 29.8546 168.254C30.2377 168.817 30.567 169.278 31.24 169.481C31.3854 168.466 30.4723 167.271 29.8801 166.466C29.6295 166.125 29.4972 166.021 29.0939 165.883ZM309.437 167.308C309.416 167.334 309.394 167.361 309.374 167.387C308.783 168.111 307.887 168.68 307.474 169.518L307.537 169.876C307.649 169.931 307.705 169.999 307.829 169.961C308.718 169.536 309.659 168.641 310.184 167.807L310.22 167.442C309.89 167.24 309.812 167.281 309.437 167.308ZM32.7199 171.282C32.5748 171.598 32.4715 171.694 32.6015 172.052C32.9064 172.891 34.0491 174.283 34.8698 174.607C34.9273 174.63 34.9857 174.65 35.0437 174.672C35.1667 174.283 35.2291 174.21 35.0383 173.826C34.6452 173.035 33.5414 171.596 32.7199 171.282ZM304.703 171.87C304.218 172.593 302.294 173.643 302.408 174.463L302.694 174.69C303.417 174.32 305.235 173.105 305.458 172.309C305.469 172.263 305.469 172.214 305.476 172.167C305.229 171.866 305.08 171.919 304.703 171.87ZM36.9235 176.273C36.8222 176.641 36.7389 176.726 36.9496 177.086C37.4397 177.923 38.6038 179.184 39.5318 179.456C39.6214 179.127 39.7251 178.967 39.5562 178.638C39.2247 177.991 37.8122 176.484 37.1195 176.313C37.0547 176.297 36.9888 176.286 36.9235 176.273ZM299.411 176.432C299.386 176.458 299.361 176.484 299.339 176.509C298.598 177.282 297.5 177.779 296.885 178.647C296.945 178.826 296.959 178.911 297.102 179.041C298.009 178.904 299.323 177.91 299.887 177.18C299.977 177.065 300.017 176.955 300.066 176.82L299.934 176.523L299.411 176.432ZM41.3299 180.568C41.3167 181.139 41.3899 181.278 41.8075 181.712C42.4343 182.364 43.5125 183.338 44.4527 183.355C44.3505 182.479 43.7398 181.987 43.0657 181.459C42.5468 181.052 42.0069 180.627 41.3299 180.568ZM293.465 180.837C292.762 181.623 290.096 182.735 290.079 183.733L290.343 184.029C290.494 184.01 290.543 184.032 290.656 183.927C291.545 183.582 293.992 182.104 294.374 181.262C294.397 181.212 294.414 181.159 294.435 181.108C294.334 180.925 294.354 180.847 294.134 180.797C293.873 180.738 293.718 180.783 293.465 180.837ZM46.375 184.487C46.4076 185.016 46.4395 185.199 46.8576 185.575C47.5243 186.174 48.5691 186.968 49.4886 187C49.4962 186.578 49.5371 186.503 49.234 186.182C48.6686 185.584 47.3069 184.499 46.4725 184.483C46.4399 184.483 46.4074 184.485 46.375 184.487ZM286.778 185.399C286.728 185.446 286.679 185.492 286.627 185.538C285.873 186.224 284.335 186.758 284.005 187.742C284.173 188 284.159 187.998 284.456 188.075C285.204 187.8 287.303 186.528 287.595 185.789C287.613 185.745 287.617 185.697 287.626 185.651L287.474 185.414C287.229 185.383 287.025 185.366 286.778 185.399ZM51.7808 187.808C51.6984 188.043 51.5369 188.283 51.655 188.514C52.0417 189.273 53.8592 190.09 54.661 190.322C54.6983 190.022 54.7994 189.811 54.615 189.553C54.0716 188.795 52.632 188.107 51.7808 187.808ZM56.9871 190.755C56.9925 191.156 56.9171 191.356 57.2303 191.657C57.9349 192.332 59.5003 192.784 60.4474 192.95C60.4193 192.534 60.475 192.257 60.109 191.981C59.3878 191.438 57.8894 190.82 56.9871 190.755ZM62.8375 193.11C62.8177 193.448 62.7189 193.717 62.9682 193.985C63.6312 194.696 65.2098 194.939 66.139 194.943C66.1044 194.647 66.1531 194.449 65.9149 194.245C65.2477 193.674 63.6919 193.192 62.8375 193.11Z" fill="#FEFEFE"/>
<path d="M167.002 17.3151C170.338 15.1059 174.526 13.5925 178.289 12.2205C196.158 5.68156 215.499 4.27797 234.123 8.16863C241.727 9.71819 249.121 12.1607 256.154 15.4455C257.183 15.9219 258.584 16.3933 259.43 17.114L259.468 17.3022C256.565 17.6297 253.17 17.358 250.215 17.3572L230.784 17.3601L167.002 17.3151Z" fill="#F8F7FE"/>
<path d="M67.0679 77.2093L67.0684 39.9713L67.0657 28.2327C67.0666 26.1724 66.9289 23.9928 67.1546 21.9489C67.2918 20.7074 67.488 19.859 68.3882 18.947C69.1685 18.1566 70.128 17.6021 71.2402 17.4663C74.1627 17.1096 77.4559 17.4034 80.4134 17.4117L98.9598 17.4174C121.632 17.3966 144.333 17.664 167.002 17.3151L230.784 17.3601L250.215 17.3572C253.17 17.358 256.565 17.6297 259.469 17.3023C263.919 17.4312 268.392 17.3243 272.845 17.308C274.704 17.3012 276.983 17.0336 278.793 17.4182C279.741 17.6195 280.569 18.1122 281.234 18.8141C283.055 20.7375 282.525 23.6069 282.511 26.0219C282.503 27.6117 282.586 29.2053 282.52 30.7944C282.509 31.0341 282.482 31.2218 282.406 31.4491C282.801 32.5607 282.494 55.7016 282.491 58.6067L282.455 156.387C282.453 159.552 282.48 185.5 282.48 185.5C282.691 190.547 282.476 195.663 282.48 200.719C282.485 203.1 282.77 207.401 282.384 209.553C282.238 210.368 281.779 211.174 281.196 211.758C280.443 212.513 279.336 212.813 278.301 212.825C257.969 213.058 237.608 212.858 217.271 212.853L142.82 213.004L94.7907 213.007L78.9705 213.014C76.2501 213.014 73.4632 213.141 70.7514 212.979C69.8806 212.927 69.0199 212.413 68.4123 211.803C67.7018 211.09 67.3008 210.171 67.1512 209.185C66.7235 206.361 67.0735 202.928 67.0661 200.032L67.0598 177.866L67.0679 77.2093ZM236.867 105.066C237.893 106.479 238.644 107.942 239.165 109.614C240.672 114.456 240.642 121.361 238.245 125.89C237.652 127.01 236.673 128.544 235.361 128.89C234.953 128.997 234.577 128.959 234.223 128.722C232.487 127.562 231.642 119.62 231.064 117.342C230.024 113.245 228.327 108.217 224.483 105.971C223.651 105.485 222.782 105.297 221.825 105.257C219.181 105.144 211.038 106.381 208.389 107.074C211.724 109.969 213.056 113.627 213.363 117.957C213.625 121.659 212.938 128.318 210.465 131.139C210.048 131.616 209.371 132.14 208.716 132.181C208.264 132.21 207.885 132.018 207.569 131.706C206.365 130.517 206.235 128.035 205.956 126.434C204.929 120.553 203.613 112.032 196.78 110.4C192.792 110.967 185.855 115.27 182.756 117.957C179.295 120.958 176.339 124.696 176.028 129.458C175.841 132.323 176.804 135.45 178.727 137.605C180.63 139.738 182.978 140.606 185.773 140.759C190.673 141.028 195.693 140.779 200.609 140.771L229.748 140.752L249.229 140.766C252.377 140.767 255.858 141.061 258.961 140.649C260.883 140.395 262.509 139.621 263.946 138.311C266.31 136.156 267.424 132.983 267.554 129.841C267.779 124.349 265.48 119.224 261.797 115.255C255.314 108.27 246.18 105.431 236.867 105.066ZM207.126 107.716C206.006 107.146 201.028 108.75 199.63 109.201L199.628 109.201C199.302 109.307 198.858 109.41 198.681 109.724C198.676 109.732 198.675 109.742 198.672 109.751C204.613 112.248 206.086 120.09 207.034 125.793C207.247 127.075 207.323 129.169 207.993 130.284C208.223 130.666 208.337 130.715 208.761 130.806C209.295 130.639 209.578 130.371 209.899 129.914C212.29 126.51 212.669 119.671 211.944 115.683C211.335 112.339 209.936 109.666 207.126 107.716ZM173.148 143.343L173.111 59.1403L173.112 34.8248C173.111 30.5786 173.329 26.1555 173.006 21.9296C172.932 20.9631 172.76 20.1996 172.06 19.4864C170.705 18.1064 168.425 18.3911 166.667 18.4267C168.446 20.1818 168.455 21.5871 168.472 23.9627L168.348 145.877L168.323 188.308L168.314 201.84C168.312 204.165 168.439 206.569 168.262 208.883C168.167 210.127 167.545 210.967 166.764 211.881C168.402 211.931 170.838 212.323 172.171 211.148C173.145 210.289 173.111 208.926 173.14 207.726C173.308 200.902 173.15 194.039 173.151 187.211L173.171 150.554L173.148 143.343ZM71.3637 18.4266C70.2778 18.831 69.6015 19.1751 68.889 20.1206C68.8497 20.173 68.8066 20.2227 68.7682 20.2759C68.4478 20.7202 68.4094 21.2048 68.371 21.7352C68.0577 26.0655 68.2883 30.555 68.2888 34.9043L68.2926 59.6756L68.2481 171.433L68.2353 197.815C68.236 200.914 67.8819 206.658 68.4394 209.433C68.622 210.341 68.8052 210.889 69.6107 211.419C70.1738 211.789 70.7298 211.998 71.4059 212.038C75.2955 212.271 79.3003 212.079 83.2003 212.077L105.884 212.084L143.586 212.08C150.336 212.075 157.101 212.156 163.849 212.035C164.989 211.745 166.07 211.24 166.703 210.186C167.047 209.612 167.098 208.885 167.143 208.231C167.365 204.991 167.183 201.613 167.18 198.36L167.172 179.206L167.244 58.9892L167.266 32.4659C167.265 30.2129 167.587 22.4758 167.057 20.9116C166.722 19.9259 165.812 19.0871 164.88 18.6839C164.086 18.3404 163.127 18.3977 162.273 18.3861C155.951 18.3 149.616 18.3879 143.291 18.3856L103.198 18.3872L81.9895 18.3869C78.5025 18.3861 74.833 18.1545 71.3637 18.4266ZM172.703 18.4414C173.782 19.5844 174.086 20.6289 174.34 22.155L277.302 22.1519C277.522 22.5283 277.547 22.8491 277.556 23.2756C277.675 28.6914 277.562 34.1348 277.56 39.5528L277.554 72.0567L277.576 175.439L277.574 201.76C277.574 203.897 277.857 209.853 277.466 211.409C277.432 211.535 277.403 211.595 277.354 211.722C278.198 211.685 279.449 211.731 280.107 211.104C280.208 211.007 280.297 210.859 280.34 210.729C280.924 210.27 281.171 209.782 281.265 209.045C281.519 207.052 281.344 204.841 281.339 202.825L281.319 190.778L281.342 150.596L281.328 70.0739C281.342 54.1715 281.58 38.2296 281.333 22.3304C281.317 21.3164 281.144 20.5526 280.475 19.7555C279.916 19.0902 279.175 18.5908 278.292 18.5182C274.423 18.1997 270.339 18.4531 266.443 18.4547L243.382 18.4772L172.703 18.4414ZM174.405 89.1398L174.404 92.0939C182.096 92.0809 275.458 92.248 275.908 91.954C276.265 91.3163 276.296 90.2835 276.089 89.5908C276.045 89.4406 275.973 89.3204 275.892 89.1872L174.405 89.1398ZM224.734 104.789C229.93 108.2 231.62 113.89 232.822 119.677C233.112 121.076 233.756 126.797 234.862 127.475C235.098 127.619 235.243 127.555 235.505 127.53C236.23 127.108 236.668 126.345 237.055 125.624C239.333 120.595 239.651 114.114 237.672 108.914C237.081 107.359 236.255 106.056 235.037 104.927C231.604 104.805 228.168 104.63 224.734 104.789ZM174.418 142.035L174.418 152.123L249.86 152.111L268.742 152.121C270.561 152.121 274.41 152.399 276.045 152.034C276.487 151.292 276.514 143.616 276.287 142.536C276.244 142.337 276.177 142.216 276.078 142.041L174.418 142.035Z" fill="#080717"/>
<path d="M174.405 89.1398L174.404 92.0939C182.096 92.0809 275.458 92.248 275.908 91.954C276.265 91.3163 276.296 90.2835 276.089 89.5908C276.045 89.4406 275.973 89.3204 275.892 89.1872L174.405 89.1398Z" fill="#080717"/>
<path d="M207.126 107.716C206.006 107.146 201.028 108.75 199.63 109.201L199.628 109.201C199.302 109.307 198.858 109.41 198.681 109.724C198.676 109.732 198.675 109.742 198.672 109.751C204.613 112.248 206.086 120.09 207.034 125.793C207.247 127.075 207.323 129.169 207.993 130.284C208.223 130.666 208.337 130.715 208.761 130.806C209.295 130.639 209.578 130.371 209.899 129.914C212.29 126.51 212.669 119.671 211.944 115.683C211.335 112.339 209.936 109.666 207.126 107.716Z" fill="#080717"/>
<path d="M224.734 104.789C229.93 108.2 231.62 113.89 232.822 119.677C233.112 121.076 233.756 126.797 234.862 127.475C235.098 127.619 235.243 127.555 235.505 127.53C236.23 127.108 236.668 126.345 237.055 125.624C239.333 120.595 239.651 114.114 237.672 108.914C237.081 107.359 236.255 106.056 235.037 104.927C231.604 104.805 228.168 104.63 224.734 104.789Z" fill="#080717"/>
<path d="M236.867 105.066C237.893 106.479 238.644 107.942 239.165 109.614C240.672 114.456 240.642 121.361 238.245 125.89C237.652 127.01 236.673 128.544 235.361 128.89C234.953 128.997 234.577 128.959 234.223 128.722C232.487 127.562 231.642 119.62 231.064 117.342C230.024 113.245 228.327 108.217 224.483 105.971C223.651 105.485 222.782 105.297 221.825 105.257C219.181 105.144 211.038 106.381 208.389 107.074C211.724 109.969 213.056 113.627 213.363 117.957C213.625 121.659 212.938 128.318 210.465 131.139C210.048 131.616 209.371 132.14 208.716 132.181C208.264 132.21 207.885 132.018 207.569 131.706C206.365 130.517 206.235 128.035 205.956 126.434C204.929 120.553 203.613 112.032 196.78 110.4C192.792 110.967 185.855 115.27 182.756 117.957C179.295 120.958 176.339 124.696 176.028 129.458C175.841 132.323 176.804 135.45 178.727 137.605C180.63 139.738 182.978 140.606 185.773 140.759C190.673 141.028 195.693 140.779 200.609 140.771L229.748 140.752L249.229 140.766C252.377 140.767 255.858 141.061 258.961 140.649C260.883 140.395 262.509 139.621 263.946 138.311C266.31 136.156 267.424 132.983 267.554 129.841C267.779 124.349 265.48 119.224 261.797 115.255C255.314 108.27 246.18 105.431 236.867 105.066Z" fill="#080717"/>
<path d="M174.418 142.035L174.418 152.123L249.86 152.111L268.742 152.121C270.561 152.121 274.41 152.399 276.045 152.034C276.487 151.292 276.514 143.616 276.287 142.536C276.244 142.337 276.177 142.216 276.078 142.041L174.418 142.035Z" fill="#080717"/>
<path d="M163.849 212.035C157.101 212.156 150.336 212.075 143.586 212.08L105.884 212.084L83.2002 212.077C79.3002 212.079 75.2954 212.271 71.4058 212.038C70.7297 211.998 70.1738 211.789 69.6106 211.419C68.8051 210.889 68.6219 210.341 68.4394 209.433C67.8818 206.658 68.2359 200.914 68.2352 197.815L68.248 171.433L68.2925 59.6756L68.2887 34.9043C68.2882 30.555 68.0576 26.0655 68.3709 21.7352C68.4093 21.2048 68.4477 20.7202 68.7681 20.2759C68.8065 20.2227 68.8496 20.173 68.8889 20.1206C69.6014 19.1751 70.2777 18.831 71.3636 18.4267C74.8329 18.1545 78.5024 18.3862 81.9894 18.3869L103.198 18.3872L143.291 18.3856C149.616 18.3879 155.951 18.3 162.273 18.3861C163.127 18.3977 164.086 18.3404 164.88 18.6839C165.812 19.0871 166.722 19.9259 167.056 20.9116C167.587 22.4758 167.265 30.2129 167.266 32.466L167.244 58.9892L167.172 179.206L167.18 198.36C167.183 201.613 167.365 204.991 167.143 208.231C167.098 208.885 167.047 209.612 166.703 210.186C166.07 211.24 164.989 211.745 163.849 212.035ZM138.968 60.38C138.947 60.9386 139.022 61.364 138.705 61.8372L138.592 61.8525C138.27 61.8983 138.045 61.9522 137.758 62.1047C137.137 63.0991 137.322 66.7229 137.594 67.8844C137.655 68.1445 137.701 68.3336 137.942 68.4751C138.589 68.854 139.765 68.6934 140.509 68.6817L146.298 68.5906C148.997 68.5571 153.41 67.9935 154.552 71.3038C155.11 72.9219 154.797 85.6683 154.796 88.2389L154.796 125.507C154.802 135.656 155.102 145.949 154.885 156.079C154.863 157.094 154.868 158.105 154.377 159.023C153.81 160.083 152.746 160.85 151.74 161.452C149.79 161.403 139.94 161.141 138.748 161.52C138.47 162.644 138.24 162.19 137.89 162.8C137.501 163.478 137.78 168.343 137.783 169.279L147.264 169.321C149.631 169.33 152.217 169.548 154.534 169.028C156.194 168.654 157.846 167.89 159.055 166.67C159.462 166.259 159.851 165.744 160.107 165.225C162.309 162.748 162.791 160.297 162.803 157.076L162.8 95.7364L162.802 77.9368C162.802 74.9701 163.069 71.7319 162.674 68.8062C162.394 66.7344 161.317 64.7668 159.842 63.3053C158.589 62.0639 157.046 61.1207 155.335 60.6724C152.46 59.9193 142.56 60.3602 138.968 60.38ZM76.6129 25.0918C76.3553 25.4963 76.3385 25.8703 76.3232 26.333C76.1525 31.5251 76.3122 36.7746 76.3144 41.9716L76.3129 72.4226L76.3005 167.059L76.2906 193.673C76.2861 196.037 75.9576 202.433 76.373 204.312C76.4375 204.603 76.495 204.598 76.7408 204.773L77.262 204.711C77.4136 200.221 77.3249 195.704 77.3222 191.212L77.3316 169.422L77.3301 95.0684L77.3658 40.0218C77.3633 38.1594 77.6116 26.5457 77.2353 25.5015C77.0253 25.3218 76.8742 25.1935 76.6129 25.0918ZM150.476 72.4347C150.127 74.671 150.346 77.2385 150.346 79.5066L150.346 93.329L150.335 141.56C150.334 143.834 150.028 155.894 150.569 156.897L150.915 157.041C151.109 156.952 151.321 156.873 151.5 156.757L151.554 96.5288L151.538 79.93C151.538 78.0138 151.669 76.0829 151.614 74.169C151.599 73.6458 151.587 73.1479 151.362 72.6663C151.052 72.492 150.82 72.463 150.476 72.4347Z" fill="#FEFEFE"/>
<path d="M166.667 18.4267C168.425 18.3911 170.705 18.1064 172.06 19.4864C172.76 20.1996 172.932 20.9631 173.006 21.9296C173.329 26.1555 173.111 30.5786 173.112 34.8248L173.111 59.1403L173.148 143.343L173.171 150.554L173.151 187.211C173.15 194.039 173.308 200.902 173.14 207.726C173.111 208.926 173.145 210.289 172.171 211.148C170.838 212.323 168.402 211.931 166.764 211.881C167.545 210.967 168.167 210.127 168.262 208.883C168.439 206.569 168.312 204.165 168.314 201.841L168.323 188.308L168.348 145.877L168.472 23.9627C168.455 21.5871 168.447 20.1818 166.667 18.4267Z" fill="#FEFEFE"/>
<path d="M174.34 22.155C174.086 20.6289 173.782 19.5844 172.703 18.4414L243.382 18.4772L266.443 18.4547C270.339 18.4531 274.423 18.1997 278.292 18.5182C279.175 18.5908 279.916 19.0902 280.475 19.7555C281.144 20.5526 281.317 21.3164 281.333 22.3305C281.58 38.2297 281.342 54.1715 281.328 70.0739L281.342 150.596L281.319 190.778L281.339 202.825C281.344 204.841 281.519 207.052 281.265 209.045C281.171 209.782 281.084 210.041 280.5 210.5C280.457 210.63 280.208 211.008 280.107 211.104C279.449 211.731 278.198 211.685 277.354 211.722C277.403 211.595 277.432 211.535 277.466 211.409C277.857 209.853 277.574 203.897 277.574 201.76L277.576 175.439L277.553 72.0567L277.56 39.5528C277.562 34.1348 277.675 28.6914 277.556 23.2756C277.547 22.8491 277.522 22.5283 277.302 22.1519L174.34 22.155Z" fill="#0AB69C"/>
<path d="M77.262 204.711L76.7408 204.773C76.495 204.598 76.4375 204.603 76.373 204.312C75.9576 202.433 76.2861 196.037 76.2906 193.673L76.3005 167.059L76.3128 72.4226L76.3144 41.9716C76.3122 36.7746 76.1525 31.5251 76.3232 26.333C76.3385 25.8703 76.3553 25.4963 76.6128 25.0918C76.8742 25.1935 77.0253 25.3218 77.2353 25.5015C77.6116 26.5457 77.3633 38.1593 77.3658 40.0218L77.33 95.0684L77.3316 169.422L77.3222 191.212C77.3249 195.704 77.4136 200.221 77.262 204.711Z" fill="#080717"/>
<path d="M138.968 60.38C142.559 60.3602 152.46 59.9193 155.335 60.6724C157.046 61.1207 158.589 62.0639 159.842 63.3053C161.317 64.7668 162.394 66.7344 162.673 68.8062C163.069 71.7319 162.802 74.9701 162.802 77.9368L162.799 95.7364L162.803 157.076C162.791 160.297 162.309 162.748 160.107 165.225C158.816 166.087 157.811 167.071 156.286 167.57C153.359 168.529 142.451 168.046 138.706 168.03C138.691 165.86 138.655 163.688 138.748 161.52C139.94 161.141 149.79 161.403 151.74 161.452C152.665 161.413 153.549 161.056 154.242 160.441C155.254 159.557 155.751 158.381 155.832 157.055C156.136 152.094 155.869 146.943 155.872 141.966L155.877 111.411L155.883 85.3213C155.889 80.8407 156.173 76.1491 155.83 71.6902C155.751 70.6563 155.379 69.6368 154.666 68.8682C154.04 68.1943 153.187 67.7352 152.297 67.5207C149.706 66.8959 142.348 67.4547 139.077 67.3157C138.954 65.0083 139.138 62.6889 138.968 60.38ZM140.159 61.5026L140.16 66.2694C143.133 66.2578 150.189 65.8717 152.719 66.4949C153.721 66.7335 154.638 67.2433 155.369 67.9686C156.212 68.7979 156.687 69.7799 156.822 70.9534C157.171 73.9872 156.944 77.2845 156.942 80.3446L156.928 98.2073L156.941 154.803C156.936 157.037 157.1 159.146 155.392 160.851C154.647 161.582 153.72 162.1 152.707 162.35C150.318 162.942 142.616 162.533 139.809 162.519L139.811 166.978L144.528 167.012C149.133 167.044 155.634 167.96 159.154 164.542C160.905 162.842 161.628 160.733 161.645 158.34L161.638 95.1582L161.585 78.8089C161.596 75.5579 161.893 72.1001 161.48 68.8866C161.252 67.1084 160.298 65.3312 159.041 64.0689C155.73 60.742 151.01 61.4296 146.732 61.4599L140.159 61.5026Z" fill="#080717"/>
<path d="M151.74 161.452C152.746 160.85 153.811 160.083 154.377 159.023C154.868 158.105 154.863 157.094 154.885 156.079C155.103 145.949 154.802 135.656 154.797 125.507L154.796 88.2389C154.797 85.6683 155.11 72.9219 154.552 71.3038C153.41 67.9935 148.997 68.5571 146.299 68.5905L140.51 68.6817C139.765 68.6934 138.589 68.854 137.943 68.4751C137.701 68.3336 137.655 68.1445 137.594 67.8844C137.322 66.7229 137.137 63.0991 137.758 62.1047C138.045 61.9522 138.27 61.8983 138.592 61.8525L138.705 61.8372C139.022 61.364 138.947 60.9385 138.968 60.3799C139.138 62.6889 138.954 65.0082 139.077 67.3157C142.348 67.4547 149.706 66.8959 152.297 67.5207C153.187 67.7352 154.04 68.1943 154.666 68.8682C155.38 69.6368 155.751 70.6563 155.831 71.6902C156.173 76.1491 155.889 80.8407 155.883 85.3212L155.877 111.411L155.872 141.966C155.869 146.943 156.136 152.094 155.833 157.055C155.752 158.381 155.255 159.557 154.242 160.441C153.549 161.056 152.665 161.413 151.74 161.452Z" fill="#0AB69C"/>
<path d="M140.16 66.2694L140.16 61.5026L146.732 61.4599C151.011 61.4296 155.731 60.742 159.041 64.0689C160.298 65.3312 161.252 67.1084 161.481 68.8866C161.893 72.1001 161.596 75.5579 161.585 78.8089L161.638 95.1582L161.646 158.34C161.628 160.733 160.905 162.842 159.154 164.542C155.634 167.96 149.133 167.044 144.528 167.012L139.811 166.978L139.809 162.519C142.616 162.533 150.318 162.942 152.707 162.35C153.72 162.1 154.647 161.582 155.392 160.851C157.1 159.146 156.937 157.037 156.941 154.803L156.928 98.2073L156.942 80.3446C156.944 77.2845 157.171 73.9872 156.822 70.9534C156.687 69.7799 156.212 68.7979 155.369 67.9686C154.638 67.2433 153.721 66.7335 152.72 66.4949C150.189 65.8717 143.133 66.2578 140.16 66.2694Z" fill="#0AB69C"/>
<path d="M173.688 212.076C173.688 212.076 175 211 175 210C175 209 175 202 175 202H278.107C278.206 202.175 277.957 202.302 278 202.5C278.227 203.581 279.442 210.758 279 211.5C277 212.5 271.143 212.086 269.324 212.086L250.442 212.076H173.688Z" fill="#0AB69C"/>
<path d="M137.783 169.279C137.78 168.343 137.501 163.478 137.89 162.8C138.24 162.19 138.47 162.644 138.748 161.52C138.655 163.688 138.691 165.86 138.706 168.03C142.451 168.046 153.359 168.529 156.286 167.57C157.811 167.071 158.816 166.087 160.107 165.225C159.851 165.744 159.462 166.259 159.055 166.67C157.846 167.89 156.194 168.654 154.534 169.028C152.217 169.548 149.631 169.33 147.264 169.321L137.783 169.279Z" fill="#0AB69C"/>
</g>
<path d="M304.523 79.4073C305.239 80.0873 306.647 81.9904 307.626 82.0303C307.811 81.8007 307.949 81.5568 308.061 81.2843C308.622 79.9148 310.625 74.0143 310.165 72.8804C308.577 73.1033 302.583 75.0976 301.633 76.1322C301.754 77.1819 303.74 78.6498 304.523 79.4073ZM309.049 74.2259C308.495 76.3564 307.889 78.5218 307.171 80.6038C306.478 79.8662 305.798 79.1106 305.085 78.3931C304.366 77.6944 303.646 77.008 302.886 76.3526C305.019 75.8207 306.959 74.8199 309.049 74.2259Z" fill="#080717"/>
<path d="M307.171 80.6038C307.889 78.5218 308.495 76.3564 309.049 74.2259C306.959 74.8199 305.019 75.8207 302.886 76.3526C303.646 77.008 304.366 77.6944 305.085 78.3931C305.798 79.1106 306.478 79.8662 307.171 80.6038Z" fill="#0AB69C"/>
<path d="M315.095 80.728C315.105 80.614 315.138 80.415 315.112 80.297C315.016 79.867 314.731 79.7402 314.406 79.4853C313.797 79.195 313.201 78.8269 312.512 78.8444L312.262 79.0361C312.358 79.4279 312.662 79.6977 312.988 79.9173C313.551 80.2962 314.439 80.5489 315.095 80.728Z" fill="#080717"/>
<path d="M320.174 83.6444C320.183 83.6299 320.192 83.6161 320.2 83.601C320.3 83.3983 320.465 83.1629 320.391 82.9425C320.142 82.2036 318.361 81.4852 317.682 81.1322C317.552 81.3016 317.472 81.4926 317.379 81.6842C317.731 82.5833 319.339 83.1989 320.174 83.6444Z" fill="#080717"/>
<path d="M325.194 87.0853C325.487 86.9914 325.51 86.9734 325.701 86.7324C325.692 86.679 325.687 86.6248 325.674 86.572C325.501 85.8539 323.726 84.8502 323.112 84.4219C322.86 84.4716 322.779 84.5607 322.606 84.7448C322.774 85.6469 324.454 86.5604 325.194 87.0853Z" fill="#080717"/>
<path d="M330.191 91.3844C330.429 91.2751 330.505 91.1721 330.673 90.9788C330.539 89.931 329.155 89.0133 328.384 88.3384C328.152 88.431 328.054 88.5159 327.87 88.6791C327.926 89.6061 329.541 90.7297 330.191 91.3844Z" fill="#080717"/>
<path d="M334.801 96.4721C334.989 96.3294 335.082 96.1984 335.227 96.0122C335.177 94.8512 333.632 93.5708 332.839 92.8121C332.658 92.9513 332.572 93.078 332.442 93.263C332.66 94.3423 334.072 95.6366 334.801 96.4721Z" fill="#080717"/>
<path d="M338.522 101.935C338.723 101.78 338.813 101.657 338.965 101.457C338.949 100.324 337.734 98.979 337.101 98.0767C336.912 98.2331 336.644 98.3636 336.615 98.6159C336.515 99.4926 338.001 101.235 338.522 101.935Z" fill="#080717"/>
<path d="M341.235 107.82C341.623 107.67 341.699 107.688 341.911 107.314C341.9 106.137 341.126 104.974 340.585 103.955L340.061 104.183C339.765 105.089 340.845 106.914 341.235 107.82Z" fill="#080717"/>
<path d="M343.287 114.002C343.308 113.992 343.33 113.983 343.35 113.972C343.578 113.846 343.77 113.782 343.845 113.522C344.123 112.551 343.38 110.832 342.903 109.987C342.732 110.089 342.44 110.197 342.376 110.393C342.1 111.226 343.005 113.194 343.287 114.002Z" fill="#080717"/>
<path d="M344.132 120.333C344.178 120.325 344.224 120.32 344.269 120.31C344.488 120.262 344.693 120.228 344.807 120.024C345.284 119.176 344.706 117.091 344.492 116.175C344.304 116.214 344.117 116.289 343.934 116.349C343.422 117.22 343.968 119.352 344.132 120.333Z" fill="#080717"/>
<path d="M344.23 126.743C344.452 126.673 344.562 126.69 344.698 126.487C345.232 125.697 345.163 123.531 344.942 122.644L344.397 122.86C344.298 122.998 344.22 123.111 344.167 123.273C343.887 124.142 343.849 125.91 344.23 126.743Z" fill="#080717"/>
<path d="M342.885 132.889L343.453 132.767C343.566 132.654 343.656 132.562 343.732 132.42C344.205 131.53 344.447 129.974 344.195 129.003C344.021 129.065 343.89 129.128 343.75 129.253C343.136 129.799 342.843 132.097 342.885 132.889Z" fill="#080717"/>
<path d="M340.99 139.053C341.282 138.959 341.546 138.871 341.723 138.599C342.263 137.767 342.901 136.24 342.723 135.248C342.402 135.29 342.185 135.351 341.993 135.621C341.427 136.414 340.813 138.091 340.99 139.053Z" fill="#080717"/>
<path d="M338.145 144.786C338.805 144.544 339.106 144.065 339.456 143.481C339.888 142.758 340.299 141.915 340.076 141.069C339.682 141.23 339.556 141.342 339.326 141.696C338.782 142.535 337.94 143.781 338.145 144.786Z" fill="#080717"/>
<path d="M334.652 150.191C334.709 150.166 334.766 150.142 334.822 150.116C335.622 149.744 336.681 148.288 336.936 147.432C337.045 147.067 336.936 146.978 336.773 146.671C335.971 147.033 334.954 148.533 334.608 149.347C334.44 149.741 334.506 149.81 334.652 150.191Z" fill="#080717"/>
<path d="M330.452 155.231C331.362 154.904 332.451 153.577 332.891 152.713C333.08 152.342 332.992 152.262 332.869 151.899C332.805 151.916 332.74 151.931 332.676 151.951C331.994 152.163 330.673 153.749 330.38 154.415C330.23 154.754 330.343 154.907 330.452 155.231Z" fill="#080717"/>
<path d="M325.768 159.411C326.706 159.339 327.725 158.304 328.313 157.616C328.704 157.158 328.769 157.016 328.722 156.445C328.05 156.545 327.536 157 327.042 157.437C326.4 158.004 325.819 158.531 325.768 159.411Z" fill="#080717"/>
<path d="M320.955 163.345C321.871 163.259 322.867 162.406 323.498 161.768C323.893 161.369 323.914 161.184 323.916 160.654C323.883 160.654 323.851 160.654 323.818 160.656C322.986 160.72 321.691 161.884 321.161 162.514C320.877 162.852 320.923 162.924 320.955 163.345Z" fill="#080717"/>
<path d="M315.986 166.965C316.773 166.686 318.539 165.764 318.881 164.984C318.985 164.746 318.81 164.516 318.714 164.286C317.882 164.635 316.485 165.405 315.987 166.195C315.818 166.463 315.931 166.667 315.986 166.965Z" fill="#080717"/>
<path d="M310.364 169.928C311.3 169.707 312.836 169.164 313.5 168.448C313.795 168.13 313.708 167.934 313.69 167.533C312.793 167.651 311.333 168.356 310.645 168.941C310.296 169.238 310.368 169.511 310.364 169.928Z" fill="#080717"/>
<path d="M304.799 172.251C305.726 172.193 307.288 171.857 307.908 171.108C308.141 170.827 308.027 170.563 307.987 170.228C307.139 170.359 305.614 170.932 304.982 171.541C304.756 171.759 304.816 171.953 304.799 172.251Z" fill="#080717"/>
<path d="M43.4503 163.593C42.7346 162.913 41.3266 161.01 40.3478 160.97C40.1626 161.199 40.024 161.443 39.912 161.716C39.351 163.085 37.3486 168.986 37.8086 170.12C39.3964 169.897 45.3907 167.902 46.3408 166.868C46.2193 165.818 44.233 164.35 43.4503 163.593ZM38.924 168.774C39.4786 166.644 40.0844 164.478 40.8023 162.396C41.495 163.134 42.1752 163.889 42.8884 164.607C43.6076 165.306 44.3277 165.992 45.0873 166.647C42.954 167.179 41.0143 168.18 38.924 168.774Z" fill="#080717"/>
<path d="M40.8023 162.396C40.0845 164.478 39.4787 166.644 38.9241 168.774C41.0144 168.18 42.9541 167.179 45.0874 166.647C44.3278 165.992 43.6077 165.306 42.8885 164.607C42.1753 163.889 41.4951 163.134 40.8023 162.396Z" fill="#0AB69C"/>
<path d="M32.8786 162.272C32.8684 162.386 32.8358 162.585 32.8619 162.703C32.9571 163.133 33.2423 163.26 33.5675 163.515C34.1761 163.805 34.7727 164.173 35.4617 164.156L35.711 163.964C35.6153 163.572 35.3111 163.302 34.9851 163.083C34.4225 162.704 33.5342 162.451 32.8786 162.272Z" fill="#080717"/>
<path d="M27.799 159.356C27.7906 159.37 27.781 159.384 27.7736 159.399C27.6735 159.602 27.5085 159.837 27.5826 160.057C27.8316 160.796 29.6123 161.515 30.2912 161.868C30.4212 161.698 30.5013 161.507 30.5944 161.316C30.2429 160.417 28.6342 159.801 27.799 159.356Z" fill="#080717"/>
<path d="M22.7789 155.915C22.4868 156.009 22.4629 156.027 22.2723 156.268C22.2813 156.321 22.2866 156.375 22.2993 156.428C22.472 157.146 24.247 158.15 24.8615 158.578C25.1134 158.528 25.1941 158.439 25.3673 158.255C25.1991 157.353 23.5189 156.44 22.7789 155.915Z" fill="#080717"/>
<path d="M17.782 151.616C17.5447 151.725 17.4686 151.828 17.3 152.021C17.4344 153.069 18.8182 153.987 19.5892 154.662C19.8218 154.569 19.919 154.484 20.1032 154.321C20.0472 153.394 18.4326 152.27 17.782 151.616Z" fill="#080717"/>
<path d="M13.1725 146.528C12.9839 146.671 12.8911 146.802 12.7465 146.988C12.7968 148.149 14.3413 149.429 15.1339 150.188C15.3152 150.049 15.4011 149.922 15.5314 149.737C15.3135 148.658 13.9013 147.363 13.1725 146.528Z" fill="#080717"/>
<path d="M9.45097 141.065C9.25028 141.22 9.16017 141.343 9.00798 141.543C9.02431 142.676 10.2391 144.021 10.8728 144.923C11.0616 144.767 11.3291 144.636 11.3579 144.384C11.4584 143.507 9.97199 141.765 9.45097 141.065Z" fill="#080717"/>
<path d="M6.73794 135.18C6.35088 135.33 6.27484 135.312 6.06211 135.686C6.07348 136.863 6.84766 138.026 7.38815 139.045L7.91205 138.817C8.20858 137.911 7.12856 136.086 6.73794 135.18Z" fill="#080717"/>
<path d="M4.68654 128.998C4.6654 129.008 4.64365 129.017 4.62312 129.028C4.39542 129.154 4.20322 129.218 4.12879 129.478C3.85083 130.449 4.59294 132.168 5.07015 133.013C5.24108 132.911 5.53313 132.803 5.59787 132.607C5.87304 131.774 4.96792 129.806 4.68654 128.998Z" fill="#080717"/>
<path d="M3.84171 122.667C3.79581 122.675 3.74941 122.68 3.704 122.69C3.48559 122.738 3.28075 122.772 3.16598 122.976C2.68912 123.824 3.26735 125.909 3.48149 126.825C3.6694 126.786 3.85669 126.711 4.03932 126.651C4.55137 125.78 4.00576 123.648 3.84171 122.667Z" fill="#080717"/>
<path d="M3.7436 116.257C3.52165 116.327 3.41181 116.31 3.27506 116.513C2.74149 117.303 2.81034 119.469 3.0317 120.356L3.57682 120.14C3.67503 120.002 3.75375 119.889 3.80633 119.727C4.08661 118.858 4.12487 117.09 3.7436 116.257Z" fill="#080717"/>
<path d="M5.08886 110.111L4.52025 110.233C4.40747 110.346 4.31763 110.438 4.24188 110.58C3.76797 111.47 3.5266 113.026 3.77853 113.997C3.95214 113.935 4.08356 113.872 4.22379 113.747C4.8371 113.201 5.13072 110.903 5.08886 110.111Z" fill="#080717"/>
<path d="M6.98331 103.947C6.69101 104.041 6.42712 104.129 6.25024 104.401C5.71082 105.233 5.07262 106.76 5.25084 107.752C5.57138 107.71 5.78791 107.649 5.98051 107.379C6.54647 106.586 7.16019 104.909 6.98331 103.947Z" fill="#080717"/>
<path d="M9.82854 98.2141C9.16858 98.4561 8.86689 98.9353 8.51745 99.5194C8.08535 100.242 7.67465 101.085 7.89709 101.931C8.29158 101.77 8.41756 101.658 8.64781 101.304C9.19171 100.465 10.0332 99.2189 9.82854 98.2141Z" fill="#080717"/>
<path d="M13.3215 92.8088C13.2649 92.8338 13.2078 92.8576 13.1517 92.8836C12.3514 93.2555 11.2923 94.712 11.0371 95.5676C10.9283 95.9326 11.0371 96.0221 11.2005 96.3291C12.0021 95.967 13.0197 94.4666 13.3657 93.6534C13.5336 93.259 13.4671 93.1902 13.3215 92.8088Z" fill="#080717"/>
<path d="M17.5213 87.7693C16.6109 88.0957 15.5228 89.4229 15.0826 90.2869C14.8933 90.6585 14.9815 90.7383 15.1043 91.1006C15.1687 91.0835 15.2338 91.0689 15.2975 91.049C15.979 90.8375 17.3007 89.2505 17.5937 88.5851C17.7429 88.2463 17.6301 88.0927 17.5213 87.7693Z" fill="#080717"/>
<path d="M22.2051 83.5886C21.2676 83.661 20.2482 84.696 19.6608 85.3839C19.2694 85.8423 19.2044 85.9845 19.2512 86.5546C19.9235 86.4552 20.4375 85.9998 20.9317 85.5633C21.5736 84.9962 22.1545 84.4693 22.2051 83.5886Z" fill="#080717"/>
<path d="M27.0185 79.6546C26.1024 79.741 25.1059 80.594 24.4756 81.2316C24.0802 81.6312 24.0591 81.8156 24.0577 82.3465C24.09 82.3457 24.1227 82.3465 24.1551 82.3441C24.9872 82.2797 26.2829 81.1162 26.8122 80.4862C27.0961 80.1484 27.0508 80.0757 27.0185 79.6546Z" fill="#080717"/>
<path d="M31.9874 76.035C31.2005 76.3137 29.4341 77.236 29.0925 78.0161C28.9882 78.254 29.1634 78.4835 29.2595 78.7141C30.0917 78.3651 31.4885 77.5945 31.9865 76.805C32.1554 76.537 32.0422 76.3326 31.9874 76.035Z" fill="#080717"/>
<path d="M37.6094 73.0721C36.6736 73.2931 35.1375 73.8362 34.4737 74.552C34.1786 74.8704 34.2657 75.0662 34.2838 75.4668C35.1807 75.349 36.6403 74.6441 37.3284 74.0592C37.6776 73.7624 37.6058 73.4892 37.6094 73.0721Z" fill="#080717"/>
<path d="M43.1744 70.7485C42.247 70.807 40.6855 71.1429 40.0652 71.8917C39.8321 72.1729 39.9465 72.4366 39.986 72.772C40.8342 72.6405 42.3591 72.0676 42.9916 71.4588C43.2175 71.2414 43.1572 71.0465 43.1744 70.7485Z" fill="#080717"/>
<defs>
<clipPath id="clip0_385_481">
<rect width="322" height="230" fill="white" transform="translate(18)"/>
</clipPath>
</defs>
</svg>
