<svg width="30" height="30" viewBox="0 0 30 30" fill="none" xmlns="http://www.w3.org/2000/svg">
<path d="M12.7885 0.0959873C7.64959 0.769167 3.23389 4.16121 1.17323 9.0238C0.302884 11.0891 -0.0618916 13.0694 0.00850372 15.4419C0.0660999 17.5464 0.443675 19.2261 1.26282 21.1084C3.16349 25.435 7.13123 28.6898 11.6685 29.631C13.0316 29.912 14.8811 30.0035 16.2314 29.8532C21.4791 29.278 26.0548 25.801 28.1474 20.8208C29.7025 17.1085 29.6897 12.7492 28.1154 9.03687C26.0164 4.08278 21.4599 0.638453 16.2314 0.0633087C15.3995 -0.034729 13.6204 -0.0151215 12.7885 0.0959873ZM16.1162 2.14821C19.0344 2.52074 21.6263 3.83443 23.6741 5.97815C24.7173 7.07615 25.3444 7.97808 25.9716 9.30484C28.1282 13.821 27.5395 19.1607 24.4549 23.0626C23.9941 23.6442 22.8998 24.7422 22.3558 25.1605C20.5511 26.5723 18.3753 27.4807 16.1162 27.7683C15.4187 27.8533 13.87 27.8533 13.1724 27.7683C10.9198 27.4807 8.73752 26.5723 6.93284 25.1605C6.35688 24.7161 5.21136 23.5527 4.75699 22.9645C3.27229 21.0234 2.37635 18.8078 2.09476 16.37C1.99877 15.5465 2.05637 13.5531 2.19076 12.8015C2.43394 11.4812 2.70912 10.612 3.25949 9.41595C4.04023 7.73626 5.12816 6.30494 6.61286 5.02393C8.27035 3.59914 10.5998 2.52728 12.7245 2.2201C12.9868 2.18089 13.2748 2.13514 13.3644 2.12206C13.7292 2.06978 15.6171 2.08939 16.1162 2.14821Z" fill="#0BB89E"/>
<path d="M14.1324 7.17415C13.39 7.4225 12.9549 8.05647 12.9613 8.87997C12.9613 9.11526 13.1148 11.1283 13.294 13.357C13.5436 16.4026 13.6524 17.4745 13.7292 17.664C14.062 18.4418 15.2267 18.4418 15.5595 17.664C15.6363 17.4745 15.7451 16.4026 15.9946 13.357C16.1738 11.1283 16.3274 9.11526 16.3274 8.87997C16.3338 8.18065 16.0074 7.59243 15.4443 7.29832C15.1691 7.148 14.414 7.07611 14.1324 7.17415Z" fill="#0BB89E"/>
<path d="M14.3242 20.0495C13.6523 20.2718 13.3003 20.7423 13.3003 21.4286C13.3003 22.6181 14.7082 23.239 15.5657 22.422C16.0841 21.9253 16.1289 20.9842 15.6489 20.4613C15.3482 20.128 14.6954 19.9254 14.3242 20.0495Z" fill="#0BB89E"/>
</svg>
