<svg width="235" height="235" viewBox="0 0 235 235" fill="none" xmlns="http://www.w3.org/2000/svg">
<path d="M39.3517 221.337C39.3125 221.306 39.2737 221.275 39.2338 221.244C38.5113 220.697 37.3751 220.446 36.559 220C33.6328 218.399 31.501 214.946 30.9647 211.704C30.5984 209.491 30.7949 207.105 30.8362 204.867L31.0579 194.331L31.913 152.842L33.0909 94.9324L33.4391 79.3421C33.4852 77.3054 33.322 74.71 33.5779 72.7814C33.7969 71.1313 38.3957 59.254 39.284 57.4596L38.3975 47.8218C38.1815 45.4881 37.6617 42.8467 38.0113 40.5196C38.1937 39.3054 38.6752 38.2017 39.4708 37.2597C40.8627 35.6115 42.6901 34.8092 44.8194 34.6501C47.403 34.4569 50.0908 34.5976 52.6822 34.6083L66.0903 34.6125L115.557 34.6104L166.907 34.6334L182.351 34.6315C185.142 34.6279 188.025 34.4828 190.806 34.6744C192.298 34.7773 193.721 35.4412 194.842 36.4239C196.158 37.5773 196.805 39.4449 196.883 41.1585C197.006 43.8431 196.513 46.5139 196.285 49.1786C196.149 50.7674 196.19 52.4004 196.176 53.9954C196.166 55.1247 196.067 56.3426 196.309 57.4506C196.621 58.879 197.308 60.3239 197.827 61.6903L200.297 68.318C200.884 69.8684 201.6 71.4386 201.718 73.1096C201.943 76.3007 201.829 79.5613 201.907 82.7604C202.121 91.2658 202.254 99.7729 202.307 108.281L203.127 163.731L203.71 197.923L203.838 206.036C203.864 207.617 203.975 209.246 203.826 210.818C203.611 213.074 202.262 215.561 200.732 217.212C199.426 218.621 197.738 219.81 195.932 220.473C195.287 220.71 194.426 220.907 193.857 221.282L193.456 221.596L193.508 221.736L193.878 221.858L87.372 221.887C71.4898 221.885 55.5881 222.032 39.7077 221.803C39.743 221.691 39.7244 221.771 39.7058 221.556L39.3517 221.337ZM110.527 101.543C110.823 99.7582 112.24 92.1251 111.192 90.7935C111.047 90.6097 110.944 90.5503 110.734 90.464C110.363 90.4844 110.179 90.5452 109.919 90.8204C107.86 93.007 105.39 102.202 104.684 102.841L104.556 102.777C104.069 100.839 103.811 96.1157 102.18 95.0118C101.846 94.976 101.769 94.9579 101.487 95.1775C100.059 96.2899 99.1133 107.799 99.1298 109.953C99.9739 109.865 100.806 109.788 101.655 109.782C101.71 107.517 101.729 105.252 101.712 102.987C101.703 101.901 101.603 100.782 101.644 99.6999C101.656 99.3596 101.683 99.0693 101.836 98.7615L102.028 98.7381C102.09 98.8161 102.174 98.8809 102.215 98.972C102.556 99.7311 102.28 108.415 102.258 109.765C104.553 110.083 106.57 110.645 108.695 111.552C109.426 110.131 113.819 102.085 114.755 101.55L114.974 101.604C115.066 101.987 114.792 102.381 114.599 102.695C113.583 104.352 112.559 105.996 111.577 107.675C110.812 108.983 110.068 110.579 109.073 111.723C109.749 112.126 110.424 112.518 111.048 112.999C112.28 110.892 117.407 101.052 116.871 98.9692C116.816 98.7585 116.741 98.7108 116.601 98.5547C116.209 98.4384 115.953 98.4974 115.597 98.6835C114.104 99.4663 113.113 101.184 111.882 102.291C111.739 102.304 111.609 102.321 111.468 102.354C111.425 102.364 111.382 102.376 111.339 102.387C110.917 102.218 110.781 101.904 110.527 101.543ZM172.084 175.427C171.57 173.131 172.365 170.985 173.466 169.013C166.243 169.253 159.416 172.37 154.503 177.67C151.309 181.049 149.025 185.553 148.042 190.093C150.176 195.127 151.051 199.853 150.451 205.323C153.449 211.745 158.527 217.413 165.329 219.882C168.501 221.034 171.417 221.258 174.743 221.273C179.15 221.294 182.479 221.062 186.569 219.145C192.94 216.16 197.157 210.548 199.486 204.018C201.788 197.562 201.817 189.58 198.797 183.341C195.752 177.203 190.392 172.528 183.898 170.345C182.35 169.817 180.818 169.462 179.21 169.188C179.157 169.24 179.106 169.293 179.053 169.345C178.599 169.783 177.868 170.106 177.317 170.425C175.069 171.725 174.421 173.104 173.601 175.467C173.409 176.065 173.262 176.629 173.217 177.257C173.176 177.816 173.331 179.882 173.199 180.223C173.164 180.313 173.07 180.365 173.006 180.436L172.752 180.435C171.998 179.461 172.518 176.886 172.14 175.605C172.123 175.545 172.103 175.486 172.084 175.427ZM112.11 221.146C113.445 221.406 114.946 221.287 116.303 221.279L122.22 221.254L129.752 221.245C131.253 221.255 132.78 221.333 134.278 221.276C134.743 221.258 135.153 221.181 135.6 221.057C139.53 220.611 143.404 217.745 145.823 214.73C149.362 210.319 150.435 204.683 149.81 199.14C149.083 192.686 146.179 185.969 141.016 181.847C138.427 179.78 135.251 178.704 131.93 179.1C129.2 179.425 125.731 180.875 123.979 183.051C124.075 183.539 124.228 184.035 124.103 184.527L123.927 184.689C123.173 184.37 122.917 183.068 122.322 182.49C121.461 181.653 120.328 180.981 119.268 180.432C115.725 178.602 111.725 177.842 107.927 179.376C103.885 181.008 100.935 185.356 99.3056 189.23C96.7886 195.215 95.7898 203.241 98.3404 209.362C100.316 214.102 103.841 218.274 108.679 220.223C109.729 220.646 110.975 221.068 112.11 221.146ZM86.3432 48.136L51.2353 48.1635L42.8983 48.1642C41.8064 48.1642 40.3695 47.9884 39.3175 48.2241C39.2299 48.5101 39.2273 48.3669 39.3313 48.6535C40.669 49.0989 46.0139 48.847 47.6871 48.8458L61.1647 48.8511L132.301 48.8437C135.799 48.8463 178.672 48.9906 179.073 48.7951C179.139 48.763 179.179 48.6934 179.231 48.6427C179.207 48.3554 179.202 48.3726 178.983 48.1817C177.916 47.8819 175.095 48.1059 173.826 48.1011L158.069 48.0832L86.3432 48.136ZM191.626 48.1332C190.502 48.1316 189.022 47.9721 187.986 48.4295L187.98 48.5791C189.026 49.0783 190.652 48.8589 191.798 48.8577C192.941 48.8738 194.366 49.0434 195.426 48.5762L195.5 48.4612C194.852 47.853 192.802 48.0961 191.91 48.1241L191.626 48.1332ZM40.5455 58.3477L40.1077 58.4065C39.7933 59.0288 41.0098 70.223 41.2251 72.0016L81.6129 71.9706C81.9719 71.9451 82.0017 71.9869 82.2388 71.7243C82.9509 68.8103 81.6664 64.4208 80.1426 61.9184C79.3332 60.5889 78.3078 59.4672 77.2517 58.3353C71.9548 58.3032 66.6576 58.302 61.3607 58.3321C54.4239 58.3303 47.4817 58.2662 40.5455 58.3477ZM84.7173 58.3479C82.6346 58.3759 80.552 58.3931 78.4691 58.3998C81.8631 62.7416 83.6387 66.1787 82.9465 71.8588L82.9325 71.9722C89.0556 72.081 95.1895 71.9825 101.314 71.9639L125.801 71.9463L131.977 71.9375C131.112 67.4117 128.72 63.5012 124.886 60.887C123.326 59.8227 121.44 59.3616 119.91 58.3252C108.183 58.3502 96.4425 58.196 84.7173 58.3479ZM121.805 58.3199C126.511 60.6048 130.255 63.9668 131.984 69.0276C132.315 69.9951 132.513 70.9468 132.612 71.963C139.255 71.9761 145.907 72.0759 152.548 72.0183C152.307 70.6113 152.233 69.2743 152.265 67.8489C152.731 64.2509 154.132 61.1305 156.54 58.4003C148.715 58.2991 140.889 58.2708 133.064 58.3158L125.754 58.3222C124.454 58.3183 123.098 58.2311 121.805 58.3199ZM160.444 58.3475L157.733 58.395C154.926 60.9848 153.114 64.6783 152.952 68.5135C152.903 69.6851 152.988 70.8585 153.204 72.011L188.126 71.9571L193.889 71.9598C194.256 67.4301 195.129 62.9463 195.507 58.4106C183.827 58.2263 172.126 58.3537 160.444 58.3475ZM39.301 59.0559C37.4157 63.238 36.2035 67.7209 34.4052 71.9369L36.1735 71.9876C37.6266 72.0119 39.0802 72.0158 40.5336 71.9993L39.7368 63.2382C39.6159 61.8963 39.6186 60.361 39.301 59.0559ZM196.138 59.1759C195.594 63.4215 195.221 67.7736 194.458 71.9834C196.148 72.0773 197.844 72.0528 199.536 72.0528L200.902 72.0137C200.453 70.4924 196.636 59.9105 196.138 59.1759ZM195.511 89.3723C195.17 91.1656 195.409 94.1329 195.414 96.0687L195.414 109.644L195.394 163.284L195.385 171.878C195.373 173.372 195.224 174.991 195.386 176.469C195.414 176.734 195.501 176.98 195.652 177.199C195.773 177.373 195.927 177.521 196.076 177.67C196.152 168.588 196.165 159.505 196.115 150.423L196.133 121.691L196.144 98.8593C196.129 95.8814 196.214 92.8643 196.095 89.8907C196.089 89.7445 196.054 89.6571 195.975 89.5352L195.511 89.3723ZM62.2023 90.3935C60.8168 92.229 61.5895 97.4984 61.8376 99.7543C61.9046 100.363 62.1492 101.381 62.0233 101.976C61.9585 102.282 61.923 102.3 61.6625 102.415C60.4758 101.855 58.0608 96.7411 56.1588 97.0782C55.8729 97.3584 55.8111 97.6384 55.7971 98.0287C55.7115 100.416 57.9312 105.743 58.915 108.106C59.212 108.819 59.5406 110.004 60.0967 110.531C60.3535 110.775 60.6793 110.873 61.0275 110.872C61.4612 110.872 62.0682 110.555 62.4758 110.396C61.7389 108.702 60.9522 107.03 60.1173 105.382C59.2928 103.746 58.0459 101.84 57.6292 100.074L57.7476 99.9505C59.0936 100.854 62.0965 108.111 63.1216 110.13L64.2854 109.864C65.6862 109.626 67.0505 109.502 68.4713 109.502C68.8688 106.82 69.2899 104.142 69.7349 101.468C69.8772 100.626 69.9169 99.6864 70.1537 98.8726C70.2136 98.6665 70.2873 98.5373 70.4509 98.3923C70.7417 98.4655 70.6744 98.4494 70.816 98.6764C70.5312 102.307 69.4395 105.887 69.1377 109.524C70.013 109.695 70.9014 109.842 71.7684 110.05C71.921 107.907 72.59 96.0905 71.4843 94.949C71.2966 94.7553 71.1681 94.8064 70.9312 94.8374C69.3009 95.9346 68.4456 99.1145 67.8898 100.922C67.7486 101.381 67.6534 101.998 67.4507 102.425C67.3248 102.691 67.3091 102.711 67.0294 102.7C66.4853 101.872 66.4341 100.356 66.2115 99.3605C65.8331 97.6673 64.2222 90.8429 62.6518 90.4328C62.5146 90.397 62.3411 90.3995 62.2023 90.3935ZM128.276 110.081C127.257 110.209 126.452 110.426 125.798 111.294C125.387 111.83 125.221 112.516 125.343 113.181C125.714 115.171 129.031 116.579 130.52 117.909C133.375 120.509 135.675 123.66 137.28 127.172C137.65 127.981 138.596 131.021 139.056 131.491L139.299 131.55L139.475 131.431C139.473 130.759 139.211 130.045 139.009 129.409C137.743 125.431 135.085 121.309 132.117 118.36C131.457 117.705 130.75 117.033 129.998 116.482C128.714 115.541 125.996 114.427 126.056 112.522C126.068 112.145 126.205 111.841 126.482 111.589C127.314 110.829 128.707 110.812 129.767 110.899C130.452 110.958 131.13 111.083 131.791 111.273C136.69 113.172 139.859 117.68 141.916 122.359C143.001 124.816 143.763 127.403 144.181 130.056C144.307 130.808 144.546 134.222 144.67 134.488L144.899 134.535C145.172 134.341 145.249 134.273 145.303 133.935C145.451 133.011 145.199 131.861 145.071 130.929C144.335 125.584 142.466 120.325 139.096 116.059C136.703 113.029 133.862 110.565 129.893 110.136C129.357 110.073 128.816 110.055 128.276 110.081ZM67.0269 110.203C62.7466 110.546 58.9967 112.086 56.1726 115.407C54.4546 117.428 53.4857 119.767 52.95 122.343C54.2304 122.29 62.4848 121.71 62.9607 122.046C62.988 122.066 63.0092 122.093 63.0332 122.116C62.9802 122.377 62.9874 122.364 62.7673 122.515C59.4848 122.723 56.193 122.827 52.9083 123.017C52.7878 127.684 53.8889 131.457 54.8874 135.949C55.4185 138.337 55.8722 140.787 56.5308 143.142C58.2676 143.097 66.6746 142.492 67.5905 142.992C67.188 143.453 66.0754 143.399 65.4737 143.439C62.5396 143.634 59.5897 143.694 56.6518 143.83C57.2397 147.152 57.9957 150.452 58.6965 153.753C59.452 157.311 60.1618 160.883 61.0585 164.409C62.2399 164.371 68.5115 164.009 69.0134 164.23C69.0868 164.262 69.1327 164.337 69.1924 164.39L69.2027 164.607C68.5133 165.132 62.4568 165.062 61.1801 165.124C61.6643 167.381 62.0793 169.665 62.6027 171.912L63.912 171.172C69.2316 168.258 74.6942 167.795 80.513 169.502C81.2251 169.712 81.9388 169.929 82.6372 170.18C82.7726 165.449 82.8444 160.717 82.8524 155.984C81.0741 155.968 72.7293 156.57 71.8829 156.255L71.7081 156.06C71.8125 155.828 71.8008 155.819 72.0323 155.747C72.979 155.456 81.2182 155.314 82.8554 155.212C82.8529 146.779 82.7322 138.327 82.8116 129.896C81.0275 129.929 72.2047 130.432 71.1995 130.166L71.0854 130.032L71.1628 129.743C71.8099 129.404 81.6758 129.226 83.1955 129.23C83.2561 123.584 83.6029 119.275 79.2668 114.887C76.5102 112.097 72.1152 110.172 68.1801 110.161C67.7945 110.16 67.4108 110.167 67.0269 110.203ZM99.8594 110.543C95.9954 111.016 92.4606 112.63 90.0213 115.739C88.8105 117.282 88.0731 119.019 87.5809 120.908C88.9982 121.182 96.7915 122.696 97.3664 123.271L97.413 123.582C97.2397 123.75 97.2081 123.776 96.9513 123.764C96.33 123.735 95.6664 123.402 95.0522 123.258C92.5473 122.673 89.9855 122.158 87.5185 121.431C86.3646 131.929 85.6825 142.476 84.5587 152.976C86.4883 153.563 88.4663 153.983 90.4252 154.459C91.2727 154.665 92.3169 154.82 93.0947 155.196L93.0793 155.452C92.624 155.556 92.2228 155.566 91.7583 155.498C90.9696 155.383 90.1645 155.085 89.3884 154.891C87.7537 154.483 86.1018 154.135 84.4942 153.628C84.0137 159.209 83.4144 164.804 83.2074 170.403C84.5243 171.019 85.8891 171.603 87.1423 172.342C90.7947 174.494 93.8632 177.766 96.1545 181.308C97.0275 179.483 97.7639 177.595 98.3576 175.661C98.5729 175.022 98.902 174.316 99.033 173.663C99.29 172.382 98.6869 168.759 98.5596 167.249C97.2177 167.01 94.9478 166.771 93.838 165.98L93.774 165.79C94.0094 165.586 94.042 165.583 94.3681 165.611C95.7347 165.728 97.1562 166.317 98.521 166.579C98.3929 159.13 99.5326 151.995 102.681 145.197C101.044 144.773 98.06 144.417 96.7007 143.596L96.5685 143.368L96.7479 143.172C98.0744 143.135 101.498 144.223 103.034 144.53C106.256 139.045 109.257 135.515 114.931 132.295C114.9 132.282 114.869 132.268 114.837 132.255C113.216 131.587 105.009 130.201 104.43 129.591L104.524 129.395C104.813 129.327 105.068 129.278 105.365 129.318C106.535 129.476 107.729 129.843 108.884 130.109C110.962 130.587 113.053 131.032 115.115 131.575C116.478 126.832 117.208 122.896 114.705 118.328C112.71 114.767 109.376 112.151 105.443 111.06C103.693 110.564 101.672 110.318 99.8594 110.543ZM125.364 129.824C118.653 130.392 111.983 133.726 107.641 138.897C100.066 147.917 98.4237 159.654 99.4534 171.03C99.8546 175.461 100.591 179.901 101.269 184.298C104.053 180.736 105.96 178.98 110.46 177.942C108.897 167.944 108.913 156.772 115.182 148.229C118.126 144.217 122.183 141.055 127.21 140.281C129.155 139.982 132.262 139.913 133.974 141.005L134 141.179C133.177 141.478 130.894 140.742 129.758 140.718C122.063 140.559 116.232 146.457 113.164 152.984C109.541 160.691 109.717 169.634 111.058 177.855C115.112 177.447 119.477 179.223 122.625 181.705L122.479 178.701C122.511 176.817 122.58 174.371 124.041 172.954C124.433 172.574 124.919 172.346 125.471 172.37C126.257 172.405 127.097 172.913 127.611 173.489C127.842 173.748 127.961 173.973 128.01 174.321C127.849 174.588 127.705 174.619 127.409 174.701C127.239 174.748 127.061 174.778 126.887 174.809C125.29 176.891 124.651 178.891 124.413 181.49C128.069 179.099 131.636 177.628 136.067 178.581C140.499 179.534 144.049 183.24 146.386 186.935C146.816 187.614 147.233 188.328 147.6 189.042C149.984 181.108 154.044 175.481 161.461 171.508C168.041 167.97 175.764 167.215 182.904 169.412C184.802 169.975 186.649 170.697 188.426 171.571C190.081 160.941 188.768 149.871 182.251 140.999C178.081 135.321 172.026 131.255 164.997 130.18C157.251 128.995 150.665 131.086 144.458 135.669C139.05 131.383 132.415 129.166 125.484 129.808C125.444 129.812 125.404 129.819 125.364 129.824ZM174.859 168.826C174.221 169.042 173.682 169.887 173.406 170.475C172.648 172.094 172.656 173.892 172.865 175.627C173.156 174.802 173.467 174.008 173.84 173.217C175.137 170.781 175.86 170.374 178.163 169.075C177.065 168.938 175.967 168.825 174.859 168.826ZM72.7295 169.184C70.9785 169.312 69.2883 169.585 67.6242 170.162C62.7221 171.861 56.2951 176.549 52.8982 180.485C49.0133 184.987 47.0124 191.364 47.4948 197.275C48.0653 204.268 51.8065 210.605 57.116 215.081C62.2874 219.441 67.4273 221.05 74.0941 221.185C76.0959 221.111 78.1242 221.026 80.0666 220.493C84.6833 219.225 89.4607 215.065 92.6873 211.596C94.179 209.993 95.5814 208.315 96.7854 206.484C95.3405 199.631 96.5779 195.221 98.7055 188.817C96.4866 181.728 92.4245 175.801 85.6951 172.296C81.8564 170.296 77.0814 168.879 72.7295 169.184ZM124.992 173.043C124.017 173.752 123.497 174.976 123.311 176.139C122.981 178.199 123.22 181.276 123.597 183.337C123.674 182.592 123.712 181.86 123.724 181.112C123.942 178.73 124.629 176.019 126.538 174.408C126.712 174.261 126.893 174.128 127.08 173.998C126.386 173.317 125.97 173.044 124.992 173.043ZM150.269 206.635C149.082 212.176 146.129 216.5 141.378 219.578C141.173 219.712 140.967 219.843 140.76 219.972C144.683 221.162 148.469 221.515 152.553 221.211C155.775 220.796 158.909 220.291 161.917 218.988C157.985 216.736 154.779 214.11 152.348 210.229C151.76 209.29 150.92 207.36 150.269 206.635Z" fill="#080717"/>
<path d="M132.301 48.8437L61.1652 48.851L47.6875 48.8457C46.0143 48.8469 40.6694 49.0989 39.3317 48.6534C39.2278 48.3668 39.2303 48.51 39.318 48.2241C40.37 47.9884 41.8068 48.1642 42.8987 48.1642L51.2357 48.1635L86.3437 48.1359L158.069 48.0831L173.826 48.101C175.096 48.1059 177.916 47.8819 178.983 48.1816C179.202 48.3725 179.207 48.3553 179.232 48.6426C179.179 48.6934 179.14 48.7629 179.074 48.795C178.673 48.9906 135.8 48.8462 132.301 48.8437Z" fill="#FEFEFF"/>
<path d="M191.798 48.8578C190.652 48.8589 189.026 49.0783 187.98 48.5792L187.986 48.4295C189.022 47.9722 190.502 48.1317 191.626 48.1333L191.91 48.1241C192.803 48.0961 194.853 47.8531 195.5 48.4612L195.427 48.5762C194.367 49.0434 192.941 48.8738 191.798 48.8578Z" fill="#FEFEFF"/>
<path d="M41.2251 72.0015C41.0099 70.223 39.7933 59.0288 40.1077 58.4064L40.5456 58.3476C47.4818 58.2662 54.4239 58.3302 61.3608 58.332C66.6577 58.302 71.9548 58.3031 77.2517 58.3353C78.3079 59.4671 79.3332 60.5889 80.1427 61.9183C81.6665 64.4207 82.951 68.8102 82.2388 71.7243C82.0018 71.9868 81.9719 71.9451 81.613 71.9705L41.2251 72.0015Z" fill="#F8F7FE"/>
<path d="M78.4692 58.3998C80.5521 58.3931 82.6348 58.3759 84.7174 58.3479C96.4426 58.196 108.183 58.3502 119.91 58.3252C121.441 59.3616 123.326 59.8226 124.887 60.887C128.72 63.5011 131.112 67.4117 131.977 71.9375L125.801 71.9462L101.314 71.9639C95.1896 71.9825 89.0557 72.0809 82.9326 71.9722L82.9466 71.8588C83.6388 66.1786 81.8632 62.7415 78.4692 58.3998Z" fill="#F8F7FE"/>
<path d="M132.612 71.963C132.513 70.9468 132.315 69.9951 131.985 69.0275C130.256 63.9668 126.511 60.6047 121.805 58.3199C123.098 58.2311 124.454 58.3183 125.754 58.3222L133.064 58.3158C140.889 58.2708 148.715 58.299 156.54 58.4002C154.132 61.1305 152.731 64.2509 152.265 67.8489C152.234 69.2742 152.307 70.6113 152.548 72.0183C145.907 72.0759 139.255 71.9761 132.612 71.963Z" fill="#F8F7FE"/>
<path d="M157.733 58.395L160.444 58.3475C172.126 58.3537 183.827 58.2263 195.507 58.4106C195.129 62.9462 194.256 67.4301 193.89 71.9598L188.126 71.957L153.204 72.011C152.988 70.8584 152.903 69.6851 152.952 68.5135C153.114 64.6782 154.927 60.9848 157.733 58.395Z" fill="#F8F7FE"/>
<path d="M34.4053 71.9368C36.2036 67.7208 37.4158 63.2379 39.301 59.0559C39.6186 60.361 39.6159 61.8963 39.7368 63.2382L40.5336 71.9993C39.0803 72.0158 37.6267 72.0119 36.1735 71.9876L34.4053 71.9368Z" fill="#F8F7FE"/>
<path d="M194.458 71.9834C195.221 67.7736 195.594 63.4215 196.138 59.1759C196.637 59.9105 200.453 70.4924 200.902 72.0137L199.536 72.0527C197.844 72.0527 196.148 72.0773 194.458 71.9834Z" fill="#F8F7FE"/>
<path d="M196.076 177.67C195.927 177.521 195.773 177.373 195.653 177.199C195.501 176.98 195.415 176.734 195.386 176.469C195.225 174.991 195.374 173.372 195.385 171.878L195.394 163.284L195.414 109.644L195.415 96.0687C195.409 94.1329 195.17 91.1656 195.511 89.3723L195.976 89.5353C196.054 89.6571 196.089 89.7446 196.095 89.8907C196.214 92.8643 196.129 95.8814 196.144 98.8593L196.134 121.691L196.116 150.423C196.165 159.505 196.152 168.588 196.076 177.67Z" fill="#FEFEFF"/>
<path d="M62.476 110.396C62.0684 110.555 61.4614 110.872 61.0277 110.872C60.6795 110.873 60.3537 110.775 60.0969 110.531C59.5408 110.004 59.2122 108.819 58.9152 108.106C57.9314 105.743 55.7117 100.416 55.7973 98.0288C55.8113 97.6384 55.8731 97.3584 56.159 97.0782C58.061 96.7411 60.476 101.855 61.6627 102.415C61.9232 102.3 61.9587 102.282 62.0235 101.976C62.1494 101.381 61.9048 100.363 61.8378 99.7543C61.5897 97.4984 60.817 92.229 62.2025 90.3936C62.3413 90.3995 62.5148 90.397 62.652 90.4328C64.2224 90.8429 65.8333 97.6673 66.2117 99.3605C66.4343 100.356 66.4855 101.872 67.0296 102.7C67.3093 102.711 67.325 102.691 67.4509 102.425C67.6536 101.998 67.7488 101.381 67.89 100.922C68.4458 99.1145 69.3011 95.9346 70.9314 94.8374C71.1683 94.8065 71.2968 94.7553 71.4845 94.949C72.5902 96.0905 71.9212 107.907 71.7686 110.05C70.9016 109.842 70.0132 109.695 69.1379 109.524C69.4397 105.887 70.5314 102.307 70.8162 98.6764C70.6746 98.4494 70.7419 98.4655 70.4511 98.3923C70.2875 98.5373 70.2138 98.6665 70.1539 98.8726C69.9171 99.6864 69.8774 100.626 69.7351 101.468C69.2901 104.142 68.869 106.82 68.4715 109.502C67.0507 109.502 65.6864 109.626 64.2856 109.864L63.1218 110.13C62.0967 108.111 59.0938 100.854 57.7478 99.9505L57.6294 100.074C58.0461 101.84 59.293 103.746 60.1175 105.382C60.9524 107.03 61.7391 108.702 62.476 110.396ZM62.826 93.124C62.6229 94.1724 64.4104 104.427 64.9417 105.215C65.0349 105.354 65.1585 105.348 65.3091 105.393C65.4241 103.968 64.7202 101.816 64.4719 100.362C64.0813 98.0765 63.8576 95.7051 63.2953 93.4557C63.1397 93.2897 63.0376 93.2085 62.826 93.124Z" fill="#FEFEFF"/>
<path d="M99.1301 109.953C99.1136 107.799 100.059 96.2899 101.487 95.1775C101.77 94.9579 101.846 94.976 102.18 95.0118C103.811 96.1157 104.069 100.839 104.557 102.777L104.685 102.841C105.39 102.202 107.861 93.007 109.92 90.8204C110.179 90.5452 110.364 90.4844 110.734 90.464C110.944 90.5503 111.047 90.6097 111.192 90.7935C112.24 92.1251 110.823 99.7582 110.527 101.542C110.366 102.44 110.223 103.321 110.152 104.23C110.798 103.639 111.389 103.017 111.882 102.291C113.114 101.184 114.104 99.4663 115.598 98.6835C115.953 98.4974 116.209 98.4384 116.601 98.5547C116.742 98.7108 116.817 98.7585 116.871 98.9692C117.407 101.052 112.28 110.892 111.048 112.999C110.424 112.517 109.749 112.126 109.073 111.723C110.068 110.579 110.812 108.983 111.578 107.675C112.56 105.996 113.583 104.352 114.6 102.695C114.792 102.381 115.066 101.987 114.974 101.604L114.755 101.55C113.819 102.085 109.426 110.131 108.695 111.552C106.57 110.645 104.553 110.083 102.258 109.765C102.28 108.415 102.556 99.7311 102.215 98.972C102.174 98.8809 102.09 98.8161 102.028 98.7381L101.836 98.7615C101.683 99.0693 101.657 99.3596 101.644 99.6999C101.603 100.782 101.704 101.901 101.712 102.987C101.729 105.252 101.71 107.517 101.655 109.782C100.806 109.788 99.9742 109.865 99.1301 109.953ZM109.847 93.882C109.279 95.2124 106.615 105.372 106.895 106.151L107.239 106.27C107.576 105.408 110.247 94.5643 110.21 94.1122C110.087 94.0213 109.987 93.9452 109.847 93.882Z" fill="#FEFEFF"/>
<path d="M65.3092 105.393C65.1586 105.348 65.0349 105.354 64.9418 105.215C64.4105 104.427 62.623 94.1723 62.8261 93.124C63.0377 93.2085 63.1398 93.2897 63.2954 93.4556C63.8576 95.7051 64.0814 98.0765 64.472 100.362C64.7203 101.816 65.4241 103.968 65.3092 105.393Z" fill="#080717"/>
<path d="M107.239 106.27L106.895 106.151C106.615 105.373 109.279 95.2124 109.847 93.8821C109.987 93.9452 110.087 94.0214 110.21 94.1123C110.247 94.5644 107.576 105.408 107.239 106.27Z" fill="#080717"/>
<path d="M110.527 101.542C110.782 101.904 110.918 102.218 111.34 102.387C111.383 102.376 111.426 102.364 111.469 102.354C111.609 102.321 111.739 102.303 111.882 102.291C111.389 103.017 110.798 103.639 110.152 104.23C110.223 103.321 110.366 102.44 110.527 101.542Z" fill="#080717"/>
<path d="M131.792 111.273C131.13 111.083 130.453 110.958 129.768 110.899C128.708 110.812 127.314 110.829 126.482 111.588C126.205 111.841 126.068 112.145 126.056 112.522C125.996 114.427 128.714 115.541 129.999 116.482C130.75 117.033 131.457 117.705 132.117 118.36C135.085 121.309 137.743 125.431 139.009 129.409C139.211 130.044 139.474 130.759 139.475 131.431L139.299 131.549L139.056 131.491C138.597 131.021 137.65 127.981 137.281 127.172C135.676 123.66 133.376 120.509 130.52 117.909C129.031 116.579 125.714 115.171 125.343 113.18C125.222 112.516 125.387 111.83 125.798 111.294C126.453 110.426 127.257 110.209 128.277 110.081C128.816 110.055 129.357 110.073 129.894 110.136C133.863 110.565 136.704 113.029 139.097 116.059C142.466 120.325 144.335 125.584 145.072 130.928C145.2 131.861 145.451 133.011 145.304 133.935C145.25 134.273 145.172 134.341 144.899 134.535L144.67 134.488C144.547 134.222 144.307 130.808 144.181 130.056C143.763 127.403 143.002 124.816 141.916 122.359C139.86 117.68 136.69 113.172 131.792 111.273Z" fill="#FEFEFF"/>
<path d="M52.9503 122.343C53.4859 119.767 54.4548 117.428 56.1728 115.407C58.9969 112.086 62.7468 110.546 67.0271 110.203C67.411 110.167 67.7947 110.16 68.1803 110.161C72.1154 110.172 76.5104 112.097 79.267 114.887C83.6031 119.275 83.2563 123.584 83.1957 129.23C81.676 129.226 71.8102 129.404 71.163 129.743L71.0857 130.032L71.1997 130.166C72.2049 130.432 81.0277 129.929 82.8118 129.896C82.7324 138.327 82.8531 146.779 82.8556 155.212C81.2184 155.314 72.9792 155.456 72.0325 155.747C71.801 155.819 71.8127 155.828 71.7083 156.059L71.8831 156.255C72.7295 156.57 81.0743 155.968 82.8526 155.984C82.8446 160.717 82.7728 165.449 82.6374 170.18C81.939 169.929 81.2253 169.712 80.5132 169.502C74.6944 167.795 69.2318 168.258 63.9122 171.172L62.6029 171.912C62.0795 169.665 61.6645 167.381 61.1803 165.124C62.457 165.062 68.5135 165.132 69.2029 164.607L69.1926 164.39C69.1329 164.337 69.087 164.262 69.0136 164.23C68.5117 164.009 62.2401 164.371 61.0587 164.409C60.162 160.883 59.4522 157.311 58.6967 153.753C57.9959 150.452 57.2399 147.152 56.652 143.83C59.5899 143.694 62.5398 143.634 65.4739 143.439C66.0756 143.399 67.1882 143.453 67.5907 142.992C66.6748 142.492 58.2678 143.097 56.531 143.142C55.8724 140.787 55.4187 138.337 54.8876 135.949C53.8891 131.457 52.788 127.683 52.9085 123.017C56.1932 122.827 59.4851 122.723 62.7675 122.515C62.9876 122.364 62.9804 122.377 63.0335 122.116C63.0094 122.093 62.9882 122.066 62.9609 122.046C62.485 121.71 54.2306 122.289 52.9503 122.343Z" fill="#FEFEFF"/>
<path d="M87.581 120.908C88.0732 119.019 88.8106 117.281 90.0214 115.739C92.4606 112.63 95.9955 111.016 99.8595 110.543C101.672 110.318 103.693 110.564 105.443 111.06C109.376 112.151 112.71 114.767 114.705 118.328C117.208 122.896 116.478 126.832 115.115 131.575C113.053 131.032 110.962 130.587 108.884 130.108C107.729 129.843 106.535 129.476 105.365 129.318C105.068 129.278 104.813 129.327 104.524 129.395L104.43 129.591C105.009 130.201 113.216 131.587 114.838 132.255C114.869 132.268 114.9 132.282 114.931 132.295C109.257 135.515 106.256 139.045 103.034 144.53C101.498 144.223 98.0745 143.135 96.748 143.172L96.5686 143.368L96.7007 143.596C98.06 144.417 101.044 144.773 102.682 145.197C99.5327 151.995 98.393 159.13 98.5211 166.579C97.1563 166.317 95.7348 165.728 94.3682 165.61C94.0421 165.582 94.0095 165.586 93.774 165.79L93.8381 165.98C94.9479 166.771 97.2178 167.01 98.5596 167.249C98.687 168.759 99.2901 172.382 99.0331 173.663C98.902 174.316 98.5729 175.022 98.3577 175.661C97.764 177.595 97.0275 179.483 96.1546 181.308C93.8633 177.766 90.7948 174.494 87.1424 172.342C85.8891 171.603 84.5243 171.019 83.2075 170.403C83.4145 164.804 84.0137 159.209 84.4943 153.628C86.1019 154.135 87.7538 154.483 89.3884 154.891C90.1646 155.085 90.9696 155.383 91.7584 155.498C92.2229 155.566 92.624 155.556 93.0794 155.452L93.0947 155.196C92.317 154.82 91.2728 154.665 90.4253 154.459C88.4663 153.983 86.4883 153.563 84.5588 152.976C85.6826 142.476 86.3646 131.929 87.5185 121.431C89.9856 122.158 92.5474 122.673 95.0523 123.258C95.6664 123.402 96.3301 123.735 96.9513 123.764C97.2082 123.776 97.2398 123.75 97.4131 123.582L97.3665 123.271C96.7916 122.696 88.9983 121.181 87.581 120.908Z" fill="#FEFEFF"/>
<path d="M101.269 184.298C100.591 179.901 99.8546 175.461 99.4534 171.03C98.4237 159.654 100.066 147.917 107.641 138.897C111.983 133.726 118.653 130.391 125.364 129.824C125.404 129.819 125.444 129.812 125.484 129.808C132.415 129.166 139.05 131.383 144.458 135.669C150.665 131.086 157.251 128.995 164.997 130.18C172.026 131.255 178.081 135.321 182.251 140.999C188.768 149.871 190.081 160.941 188.426 171.571C186.649 170.697 184.802 169.975 182.904 169.412C175.764 167.215 168.041 167.97 161.461 171.508C154.044 175.481 149.984 181.108 147.6 189.042C147.233 188.328 146.816 187.614 146.386 186.935C144.049 183.24 140.499 179.534 136.067 178.581C131.636 177.628 128.069 179.099 124.413 181.49C124.651 178.891 125.29 176.89 126.887 174.809C127.061 174.778 127.239 174.748 127.409 174.701C127.705 174.619 127.849 174.588 128.01 174.321C127.961 173.973 127.842 173.748 127.611 173.488C127.097 172.912 126.257 172.405 125.471 172.37C124.919 172.346 124.433 172.574 124.041 172.954C122.58 174.371 122.511 176.817 122.479 178.7L122.625 181.705C119.477 179.223 115.112 177.447 111.058 177.855C109.717 169.634 109.541 160.691 113.164 152.984C116.232 146.457 122.063 140.559 129.758 140.718C130.894 140.742 133.177 141.478 134 141.179L133.974 141.005C132.262 139.913 129.155 139.982 127.21 140.281C122.183 141.055 118.126 144.217 115.182 148.229C108.913 156.772 108.897 167.944 110.46 177.942C105.96 178.98 104.053 180.736 101.269 184.298ZM127.362 133.268C121.295 133.949 115.552 137.575 111.783 142.299C110.931 143.367 108.126 147.587 108.151 148.883C108.156 149.143 108.329 149.22 108.51 149.369C108.545 149.331 108.581 149.295 108.615 149.257C109.143 148.666 109.597 147.044 109.984 146.253C111.522 143.112 114.266 140.208 117.065 138.151C119.04 136.673 121.247 135.535 123.596 134.783C124.251 134.571 127.37 134.024 127.623 133.625C127.569 133.351 127.571 133.411 127.362 133.268Z" fill="#FEFEFF"/>
<path d="M108.51 149.369C108.33 149.22 108.157 149.143 108.152 148.883C108.126 147.587 110.931 143.367 111.784 142.299C115.552 137.576 121.295 133.949 127.362 133.268C127.571 133.411 127.569 133.351 127.623 133.625C127.37 134.024 124.251 134.571 123.596 134.783C121.248 135.535 119.041 136.673 117.066 138.151C114.266 140.208 111.522 143.112 109.985 146.253C109.598 147.044 109.143 148.666 108.616 149.257C108.581 149.295 108.545 149.331 108.51 149.369Z" fill="#080717"/>
<path d="M172.865 175.627C172.656 173.892 172.648 172.094 173.406 170.475C173.682 169.887 174.221 169.042 174.859 168.826C175.967 168.825 177.065 168.938 178.163 169.075C175.86 170.374 175.137 170.781 173.84 173.217C173.467 174.008 173.156 174.802 172.865 175.627Z" fill="#FEFEFF"/>
<path d="M172.084 175.427C169.566 175.542 165.009 176.099 163.22 178.122C162.754 178.649 162.54 179.311 162.607 180.011C162.691 180.893 163.234 181.61 163.927 182.126C167.24 184.595 174.331 184.796 178.253 184.122C180.091 183.805 183.131 183.113 184.25 181.462C184.576 180.982 184.702 180.44 184.565 179.871C184.295 178.759 183.307 177.924 182.353 177.382C179.83 175.949 176.465 175.441 173.601 175.467C174.421 173.104 175.069 171.725 177.317 170.425C177.868 170.106 178.599 169.783 179.053 169.345C179.106 169.293 179.157 169.24 179.21 169.188C180.818 169.462 182.35 169.817 183.898 170.345C190.392 172.528 195.752 177.203 198.797 183.341C201.817 189.58 201.788 197.562 199.486 204.018C197.157 210.548 192.94 216.16 186.569 219.145C182.479 221.062 179.15 221.294 174.743 221.273C171.417 221.258 168.501 221.034 165.329 219.882C158.527 217.413 153.449 211.745 150.451 205.323C151.051 199.853 150.177 195.127 148.042 190.092C149.025 185.553 151.309 181.049 154.503 177.67C159.416 172.37 166.244 169.253 173.466 169.013C172.365 170.985 171.57 173.131 172.084 175.427ZM158.555 179.412C155.585 182.588 153.803 186.106 153.193 190.439C153.103 191.078 152.919 191.81 152.916 192.449C152.915 192.733 152.979 192.852 153.175 193.045L153.612 193.12C153.62 193.086 153.628 193.052 153.635 193.018C153.836 192.078 153.86 191.099 153.99 190.146C154.255 188.215 154.881 186.284 155.745 184.538C156.121 183.777 156.557 183.047 157.049 182.355C157.46 181.778 159.007 180.361 159.022 179.76C158.857 179.543 158.808 179.519 158.555 179.412ZM197.384 199.237C197.37 199.268 197.356 199.3 197.342 199.332C196.892 200.4 196.704 201.581 196.334 202.68C195.473 205.236 194.05 207.693 192.39 209.81C191.079 211.483 189.562 213.046 187.87 214.34C187.336 214.748 185.931 215.36 185.831 216.021L186.039 216.26C190.575 214.281 194.895 208.225 196.649 203.74C196.983 202.886 198.001 200.239 197.645 199.412L197.384 199.237Z" fill="#0AB69C"/>
<path d="M74.0944 221.185C67.4277 221.05 62.2878 219.441 57.1164 215.081C51.8069 210.605 48.0657 204.268 47.4952 197.275C47.0128 191.364 49.0137 184.987 52.8985 180.485C56.2955 176.549 62.7224 171.861 67.6246 170.162C69.2887 169.585 70.9789 169.312 72.7299 169.184C77.0817 168.879 81.8568 170.296 85.6955 172.296C92.4249 175.801 96.4869 181.728 98.7059 188.817C96.5783 195.221 95.3408 199.631 96.7857 206.484C95.5818 208.315 94.1794 209.993 92.6877 211.596C89.461 215.065 84.6837 219.225 80.067 220.493C78.1246 221.026 76.0963 221.111 74.0944 221.185ZM63.6232 179.066C62.9244 180.509 62.6389 182.097 62.285 183.65C60.5946 183.362 59.0687 183.246 57.3654 183.477C58.696 184.684 60.2028 185.84 61.384 187.191C60.4456 187.921 59.4705 188.618 58.5906 189.419C60.1418 189.697 61.3728 189.755 62.864 189.147C66.4627 187.26 68.6699 183.699 70.703 180.293C69.2698 180.873 67.8591 181.507 66.4746 182.194C65.5365 181.255 64.6391 180.318 63.8231 179.268C63.712 179.125 63.7634 179.18 63.6232 179.066ZM53.5101 204.405C54.2861 207.669 59.7007 212.445 62.4916 214.165C64.3945 215.337 70.1426 218.016 72.3209 217.567C72.2714 217.381 72.2803 217.202 72.1064 217.09C71.677 216.816 69.6026 216.533 68.9589 216.353C65.6767 215.439 62.459 213.68 59.8411 211.499C58.0862 210.037 56.5215 208.239 55.2049 206.375C54.8277 205.841 54.58 205.165 54.1477 204.682C53.9512 204.463 53.7984 204.423 53.5101 204.405Z" fill="#FEFEFF"/>
<path d="M123.597 183.337C123.22 181.276 122.981 178.199 123.311 176.139C123.497 174.976 124.017 173.752 124.992 173.043C125.97 173.044 126.386 173.317 127.08 173.998C126.893 174.128 126.712 174.261 126.538 174.408C124.629 176.019 123.942 178.73 123.725 181.112C123.713 181.86 123.675 182.592 123.597 183.337Z" fill="#FEFEFF"/>
<path d="M173.601 175.467C176.465 175.441 179.83 175.949 182.353 177.382C183.307 177.924 184.295 178.759 184.565 179.871C184.702 180.44 184.576 180.982 184.25 181.462C183.131 183.113 180.091 183.805 178.253 184.122C174.331 184.796 167.24 184.595 163.927 182.126C163.234 181.61 162.691 180.893 162.607 180.011C162.54 179.311 162.754 178.649 163.22 178.122C165.009 176.099 169.566 175.542 172.084 175.427C172.103 175.486 172.123 175.545 172.14 175.605C172.518 176.886 171.998 179.461 172.752 180.435L173.006 180.436C173.07 180.365 173.164 180.313 173.199 180.223C173.331 179.882 173.176 177.816 173.217 177.257C173.262 176.629 173.409 176.065 173.601 175.467Z" fill="#FEFEFF"/>
<path d="M135.6 221.056C136.381 220.454 137.186 219.903 137.904 219.223C140.307 216.948 141.856 213.722 142.288 210.454C142.899 205.726 141.601 200.95 138.683 197.18C135.657 193.27 130.968 190.714 126.076 190.111C120.892 189.472 115.749 190.783 111.63 194.038C108.252 196.707 105.349 201.28 104.885 205.614C104.441 209.752 105.093 214.064 107.775 217.368C109.012 218.892 110.473 220.077 112.11 221.146C110.975 221.068 109.729 220.646 108.679 220.223C103.841 218.274 100.316 214.102 98.3404 209.362C95.7898 203.241 96.7886 195.215 99.3056 189.23C100.935 185.356 103.885 181.008 107.927 179.376C111.725 177.842 115.725 178.602 119.268 180.432C120.328 180.981 121.461 181.653 122.322 182.49C122.917 183.068 123.173 184.37 123.927 184.689L124.103 184.527C124.228 184.035 124.074 183.539 123.979 183.051C125.731 180.875 129.2 179.425 131.93 179.1C135.251 178.704 138.427 179.78 141.016 181.847C146.179 185.969 149.083 192.686 149.81 199.14C150.435 204.683 149.362 210.319 145.823 214.73C143.404 217.745 139.53 220.611 135.6 221.056ZM122.952 185.134C121.503 185.203 115.281 185.593 114.466 186.496C114.369 186.603 114.373 186.613 114.323 186.725C114.414 186.785 114.491 186.879 114.597 186.904C115.023 187.004 117.958 186.312 118.59 186.207C120.605 185.872 122.773 185.796 124.815 185.865C126.405 185.883 127.989 186.054 129.547 186.376C130.569 186.588 131.624 186.91 132.657 187.036C132.924 187.069 132.997 187.064 133.227 186.944L133.256 186.764C131.919 185.445 125.202 185.118 123.238 185.128C123.142 185.129 123.047 185.13 122.952 185.134Z" fill="#0AB69C"/>
<path d="M62.2849 183.65C62.6387 182.097 62.9242 180.509 63.623 179.066C63.7632 179.18 63.7118 179.125 63.8229 179.268C64.639 180.318 65.5363 181.255 66.4745 182.194C67.859 181.507 69.2697 180.873 70.7029 180.293C68.6698 183.699 66.4625 187.26 62.8639 189.147C61.3726 189.755 60.1416 189.697 58.5905 189.419C59.4704 188.618 60.4455 187.921 61.3839 187.191C60.2027 185.84 58.6958 184.684 57.3652 183.477C59.0685 183.246 60.5944 183.362 62.2849 183.65Z" fill="#080717"/>
<path d="M153.612 193.12L153.175 193.045C152.979 192.852 152.915 192.733 152.916 192.449C152.919 191.81 153.103 191.078 153.193 190.439C153.803 186.106 155.585 182.588 158.555 179.412C158.808 179.519 158.857 179.543 159.022 179.76C159.007 180.361 157.46 181.778 157.049 182.355C156.557 183.047 156.121 183.777 155.745 184.538C154.881 186.284 154.255 188.215 153.991 190.146C153.86 191.099 153.837 192.078 153.635 193.018C153.628 193.052 153.62 193.086 153.612 193.12Z" fill="#080717"/>
<path d="M124.815 185.865C122.773 185.796 120.605 185.872 118.59 186.207C117.958 186.312 115.023 187.004 114.597 186.904C114.491 186.879 114.414 186.785 114.323 186.725C114.373 186.613 114.369 186.603 114.466 186.496C115.281 185.593 121.504 185.203 122.952 185.134C123.047 185.13 123.142 185.129 123.238 185.128C125.202 185.118 131.919 185.445 133.256 186.764L133.227 186.944C132.997 187.064 132.924 187.069 132.657 187.036C131.624 186.91 130.569 186.588 129.547 186.376C127.989 186.054 126.405 185.883 124.815 185.865Z" fill="#080717"/>
<path d="M135.6 221.057C135.154 221.181 134.743 221.258 134.279 221.276C132.78 221.333 131.253 221.255 129.752 221.245L122.221 221.254L116.303 221.279C114.946 221.287 113.445 221.406 112.111 221.146C110.474 220.077 109.012 218.892 107.775 217.368C105.094 214.064 104.442 209.752 104.885 205.614C105.35 201.28 108.253 196.707 111.631 194.038C115.749 190.783 120.893 189.472 126.077 190.111C130.969 190.714 135.658 193.27 138.684 197.18C141.602 200.95 142.899 205.726 142.289 210.454C141.857 213.722 140.307 216.948 137.905 219.223C137.187 219.903 136.381 220.454 135.6 221.057Z" fill="#FEFEFF"/>
<path d="M186.039 216.26L185.831 216.021C185.931 215.36 187.337 214.748 187.87 214.34C189.562 213.046 191.079 211.483 192.39 209.81C194.05 207.693 195.473 205.236 196.334 202.68C196.704 201.581 196.892 200.4 197.343 199.332C197.356 199.3 197.37 199.268 197.384 199.237L197.645 199.412C198.001 200.239 196.983 202.886 196.649 203.74C194.896 208.225 190.576 214.281 186.039 216.26Z" fill="#080717"/>
<path d="M72.3206 217.567C70.1422 218.016 64.3941 215.337 62.4912 214.165C59.7003 212.445 54.2857 207.669 53.5098 204.405C53.798 204.423 53.9508 204.463 54.1473 204.682C54.5797 205.165 54.8273 205.841 55.2046 206.375C56.5212 208.238 58.0858 210.037 59.8408 211.499C62.4586 213.68 65.6763 215.439 68.9585 216.353C69.6022 216.533 71.6766 216.815 72.106 217.09C72.2799 217.202 72.271 217.381 72.3206 217.567Z" fill="#080717"/>
<path d="M140.76 219.972C140.967 219.843 141.173 219.712 141.378 219.578C146.129 216.5 149.082 212.176 150.269 206.635C150.921 207.36 151.76 209.29 152.348 210.229C154.78 214.11 157.985 216.736 161.918 218.988C158.91 220.291 155.775 220.796 152.553 221.211C148.469 221.515 144.683 221.162 140.76 219.972Z" fill="#FEFEFF"/>
<path d="M39.7081 221.803C37.2488 221.858 18.2652 222.02 17.566 221.708L17.5576 221.495C17.7911 221.287 17.9841 221.256 18.2974 221.243C20.3714 221.155 22.5128 221.287 24.5965 221.297L39.3521 221.337L39.7063 221.556C39.7248 221.771 39.7434 221.691 39.7081 221.803Z" fill="#080717"/>
<path d="M230.945 221.817C229.378 221.815 224.333 222.063 223.158 221.75C223.043 221.503 223.098 221.513 223.184 221.271C224.352 221.316 230.282 221.068 230.906 221.501L230.945 221.817Z" fill="#080717"/>
<path d="M11.9142 221.826C10.6043 221.838 4.81216 222.15 4.07097 221.715L3.99756 221.378C4.96808 221.289 11.471 221.141 11.9335 221.457L11.9142 221.826Z" fill="#080717"/>
<path d="M193.878 221.858L193.509 221.736L193.456 221.596L193.857 221.282C199.475 221.501 205.149 221.34 210.773 221.328C212.929 221.324 215.184 221.18 217.33 221.338C217.646 221.361 217.762 221.316 217.988 221.544L217.904 221.741C217.188 222.022 196.494 221.786 193.878 221.858Z" fill="#080717"/>
</svg>
