<svg width="300" height="239" viewBox="0 0 300 239" fill="none" xmlns="http://www.w3.org/2000/svg">
<path d="M219 134C219 135.108 219 168.462 219 186" stroke="black"/>
<path fill-rule="evenodd" clip-rule="evenodd" d="M136.389 95.2822C136.592 95.2047 136.78 95.1196 136.9 95.0041C136.727 95.088 136.531 95.5467 136.363 95.6382L136.389 95.2822Z" fill="#080717"/>
<path fill-rule="evenodd" clip-rule="evenodd" d="M153.241 18.9309L175.014 13.5101C175.622 13.4678 199.974 25.6611 211.588 31.4763C211.59 31.4775 211.592 31.4786 211.595 31.4798C214.574 32.9714 216.713 34.0428 217.397 34.3794C214.406 35.2144 211.361 35.9256 208.323 36.6349C207.06 36.9301 205.797 37.2249 204.541 37.5282C196.581 39.4264 188.634 41.3741 180.699 43.3713C180.271 43.4705 180.007 43.4722 179.595 43.3029C178.233 42.7434 176.897 42.05 175.574 41.3627C175.049 41.0905 174.527 40.8193 174.005 40.5577L163.902 35.5142L147.732 27.4452C146.839 26.9978 145.938 26.5569 145.037 26.1155C142.774 25.0077 140.506 23.8968 138.317 22.6731C141.853 21.8886 145.365 20.9734 148.875 20.0589C150.33 19.6796 151.785 19.3005 153.241 18.9309ZM111.456 29.2822L136.53 23.1551C136.728 23.1158 136.924 23.0948 137.118 23.166C137.818 23.4222 138.525 23.8204 139.22 24.2121C139.619 24.4367 140.014 24.6592 140.402 24.8516L149.6 29.4482C159.239 34.3117 168.911 39.1092 178.616 43.84C166.179 47.0845 153.714 50.2197 141.222 53.2457C137.861 51.4738 134.427 49.8293 130.995 48.1858C129.316 47.3818 127.637 46.578 125.968 45.7597C116.968 41.3492 108.005 36.8632 99.0812 32.3024C101.925 31.7569 104.768 31.0133 107.597 30.273C108.887 29.9357 110.173 29.5991 111.456 29.2822ZM59.7648 42.0099L97.3883 32.7741C97.7457 32.7511 97.9085 32.8309 98.1945 32.9709C98.2311 32.9889 98.2697 33.0078 98.311 33.0276C102.659 35.1115 106.965 37.2969 111.271 39.4819C114.105 40.9204 116.939 42.3587 119.785 43.7679C122.399 45.0622 125.027 46.3285 127.656 47.5949L127.657 47.5955C131.7 49.5428 135.742 51.4902 139.73 53.5393C127.231 56.7159 114.707 59.7953 102.159 62.7777C101.831 62.8312 101.633 62.8153 101.322 62.6834C100.05 62.1423 98.7991 61.4919 97.5547 60.8449C96.9087 60.5091 96.2646 60.1742 95.6201 59.856L82.8629 53.5097C80.2294 52.1952 77.5726 50.909 74.9137 49.6219C69.8216 47.1569 64.722 44.6882 59.7648 42.0099ZM180.354 44.4109L217.8 35.2535L218.124 35.2582C218.651 35.8986 218.42 66.0972 218.359 74.0305C218.359 74.0366 218.359 74.0427 218.359 74.0488C218.354 74.7168 218.35 75.2253 218.348 75.543L206.992 78.2541C206.675 78.3276 206.491 78.4322 206.326 78.7233C206.218 78.9146 206.226 78.9372 206.266 79.0619C206.277 79.0928 206.289 79.13 206.302 79.1777C206.993 79.4503 212.378 78.0665 215.82 77.182C216.963 76.8881 217.892 76.6493 218.364 76.5447L218.364 88.9244L197.777 85.3758C197.543 85.3234 198.019 85.4377 197.777 85.3758L182.526 83.6283C182.551 82.7571 188.468 83.8675 188.32 83.0432C188.22 82.4835 188.041 81.8653 187.524 81.5481C186.789 81.0968 183.501 82.0908 181.541 82.6835C181.044 82.8336 180.633 82.958 180.369 83.0267L180.354 44.4109ZM41.9269 46.3721C47.3302 44.9953 52.748 43.6754 58.1792 42.413C58.6032 42.4559 98.3579 62.0742 100.262 63.3327L75.5405 69.2692C74.1625 69.596 72.777 69.9048 71.3908 70.2138C68.5974 70.8366 65.8008 71.46 63.0552 72.232C62.5058 72.3251 62.3377 72.3372 61.8071 72.1183C60.0767 71.4041 58.3708 70.4957 56.6809 69.5958C55.8961 69.1779 55.1147 68.7618 54.3359 68.3678L40.0255 61.1337L28.2671 55.1876C27.696 54.8995 27.1185 54.616 26.5395 54.3318C24.7513 53.4538 22.9487 52.5688 21.2746 51.5214C28.1412 49.7363 35.0258 48.0199 41.9269 46.3721ZM142.224 53.9324C148.728 52.234 155.261 50.6368 161.795 49.0395C167.571 47.6273 173.348 46.215 179.105 44.7327C179.178 44.7368 179.202 44.7352 179.222 44.7431C179.248 44.7538 179.268 44.782 179.397 44.8653C179.552 45.7688 179.522 46.7663 179.492 47.7299C179.481 48.0902 179.47 48.4458 179.469 48.7899L179.467 55.9762L179.479 83.2701C173.497 84.6628 167.541 86.1732 161.586 87.6834C155.266 89.2861 148.947 90.8886 142.597 92.3505C142.517 92.357 142.443 92.3264 142.369 92.2959C142.348 92.2873 142.327 92.2786 142.306 92.2709C142.035 91.2687 142.129 87.2193 142.193 84.4675C142.214 83.5631 142.232 82.7989 142.232 82.329L142.224 53.9324ZM138.423 54.8823C139.113 54.7463 139.795 54.5564 140.475 54.3672C140.654 54.3172 140.834 54.2672 141.013 54.2183L141.162 54.2694C141.434 55.0858 141.376 58.0336 141.337 60.0626C141.324 60.7147 141.313 61.2718 141.316 61.6329L141.316 92.6385L138.594 93.2402V93.2126C138.576 93.192 138.615 93.2315 138.594 93.2126C138.552 93.1747 138.511 93.1368 138.491 93.0854C138.302 92.5797 138.361 90.0156 138.4 88.3663C138.412 87.8199 138.423 87.3738 138.421 87.1363C138.318 76.3853 138.319 65.6333 138.423 54.8823ZM115.4 60.5483L136.939 55.2422L137.315 55.2317C137.508 55.5008 137.516 55.8536 137.524 56.183C137.525 56.2312 137.527 56.279 137.528 56.3259C137.608 58.4964 137.58 60.6983 137.552 62.8944C137.536 64.1864 137.519 65.4763 137.525 66.7567L137.531 93.6633C137.24 93.7901 137.203 94.0528 137.163 94.3317C137.129 94.5687 137.094 94.8173 136.9 95.0041C137.322 94.7993 137.731 94.9854 138.164 94.8017C138.188 94.7914 138.212 94.7811 138.237 94.7708C138.425 94.6908 138.614 94.6109 138.8 94.5298L139.026 94.5574C139.043 94.5795 139.064 94.6 139.085 94.6206C139.126 94.662 139.167 94.7035 139.182 94.7581C139.343 95.3578 139.29 98.7244 139.257 100.785C139.247 101.421 139.239 101.932 139.239 102.199C139.295 111.447 139.283 120.694 139.205 129.941L139.263 205.383L136.857 205.995L136.49 205.991C136.285 205.731 136.28 205.386 136.275 205.061C136.275 205.015 136.274 204.971 136.273 204.926C136.207 202.47 136.234 199.997 136.262 197.529V197.528C136.276 196.239 136.29 194.952 136.291 193.668L136.289 170.582L136.389 95.2822C136.355 95.2951 136.321 95.3077 136.286 95.3203C136.256 95.3314 136.226 95.3424 136.195 95.3534C135.797 95.497 135.405 95.6385 135.392 95.9386L135.39 95.9775C135.325 97.4272 135.357 98.9049 135.39 100.375C135.407 101.141 135.423 101.905 135.426 102.662L135.44 115.148C135.513 127.46 135.513 139.772 135.442 152.083C129.532 153.723 123.579 155.203 117.626 156.682C112.74 157.896 107.853 159.111 102.99 160.414L103.015 127.226L103.002 107.679C103.956 107.413 107.554 106.507 111.844 105.426L111.847 105.425L111.848 105.425C119.817 103.417 130.17 100.807 130.401 100.585C130.533 100.458 130.532 100.386 130.532 100.256C130.531 100.22 130.531 100.179 130.534 100.131L130.285 99.9693C129.805 99.9098 129.373 99.9581 128.902 100.052C128.05 100.222 127.201 100.465 126.356 100.706C125.896 100.837 125.438 100.968 124.98 101.087C123.941 101.357 122.898 101.612 121.853 101.866C120.961 102.084 120.069 102.301 119.18 102.528C113.773 103.87 108.378 105.257 102.995 106.688L103.008 63.5108C105.964 62.9828 108.92 62.215 111.857 61.4525C113.042 61.1449 114.223 60.8381 115.4 60.5483ZM99.474 64.4811C100.038 64.3746 100.605 64.2101 101.166 64.0472C101.394 63.9811 101.621 63.9153 101.846 63.8537L102.035 64.0245C102.208 66.235 102.155 68.5433 102.103 70.8224C102.079 71.874 102.055 72.9194 102.054 73.9461L102.057 93.6657L102.107 160.633C101.582 160.736 101.058 160.854 100.535 160.971C100.3 161.024 100.064 161.077 99.8288 161.128L99.6645 161.132C99.4404 160.885 99.4362 160.68 99.4299 160.38C99.429 160.334 99.428 160.286 99.4262 160.235C99.3556 158.263 99.3933 156.26 99.4309 154.263C99.4523 153.122 99.4737 151.984 99.4749 150.855L99.4857 129.865L99.474 64.4811ZM66.069 72.481L98.327 64.7411C98.6419 65.1836 98.6177 92.4027 98.6079 103.417C98.6079 103.42 98.6079 103.422 98.6079 103.425C98.6061 105.424 98.6048 106.888 98.6061 107.56C87.8712 110.392 77.105 113.106 66.3092 115.699C66.2631 115.702 66.2464 115.704 66.2339 115.698C66.2127 115.687 66.2039 115.652 66.083 115.55C65.9594 114.47 65.9899 113.345 66.0199 112.234C66.0321 111.787 66.0441 111.341 66.046 110.902L66.0612 102.298L66.069 72.481ZM62.4167 73.3724L64.8938 72.7616L65.1366 72.9462L65.1207 169.921L62.6054 170.47L62.3616 170.291C62.2566 164.81 62.3016 159.315 62.3467 153.822C62.3739 150.503 62.4011 147.185 62.3951 143.872L62.4167 73.3724ZM188.102 87.4897L191.047 86.7671C191.056 86.7714 191.066 86.7745 191.075 86.7784C191.083 86.7817 191.09 86.7855 191.096 86.7911C191.1 86.7951 191.292 87.0147 191.296 87.0238C191.471 87.4145 191.362 114.549 191.327 123.437V123.44C191.327 123.458 191.327 123.477 191.327 123.495C191.321 124.802 191.318 125.705 191.317 126.057C190.765 125.809 190.198 125.59 189.632 125.372L189.63 125.372C189.478 125.313 189.325 125.254 189.173 125.195L188.105 124.78L188.102 87.4897ZM66.0751 116.729C76.8214 114.11 87.5485 111.414 98.2557 108.64L98.4866 108.7C98.7187 109.311 98.6216 114.759 98.5658 117.89C98.5492 118.82 98.5363 119.546 98.5367 119.88L98.5927 161.463L66.5621 169.447L66.1834 169.465C66.1667 169.435 66.1477 169.406 66.1287 169.376C66.091 169.318 66.0532 169.261 66.0336 169.195C65.8726 168.66 65.9587 161.346 66.0027 157.61C66.0137 156.674 66.0221 155.962 66.0233 155.639L66.0751 116.729ZM140.213 126.269C143.977 124.671 147.797 123.207 151.618 121.743C155.665 120.192 159.712 118.641 163.693 116.931L163.88 116.994C164.107 118.243 164.042 120.044 163.984 121.664C163.96 122.337 163.937 122.979 163.937 123.538L163.936 139.047C162.526 138.532 161.14 137.909 159.759 137.288C159.122 137.002 158.487 136.716 157.85 136.442L147.792 132.187C145.261 131.131 142.737 130.054 140.223 128.958L140.213 126.269ZM164.867 138.611L164.824 116.82C171.101 119.284 177.393 121.712 183.699 124.104C184.775 124.519 185.847 124.959 186.92 125.398C188.909 126.213 190.901 127.03 192.934 127.698C191.078 128.542 189.142 129.268 187.216 129.991C186.449 130.278 185.683 130.565 184.925 130.859L164.867 138.611ZM177.245 134.772C182.62 132.751 187.98 130.693 193.325 128.597L193.534 128.61C193.815 129.009 186.561 146.43 186.525 152.128C186.518 153.327 186.525 151.734 186.525 152.128C184.142 152.89 188.951 151.709 186.618 152.711L186.616 152.712C185.575 153.158 184.538 153.603 183.503 154.024C177.184 156.59 170.83 159.073 164.445 161.474L164.356 161.504L164.146 161.36C163.959 159.832 164.007 158.173 164.054 156.552C164.075 155.826 164.096 155.106 164.095 154.41L164.08 139.855C166.999 138.811 169.889 137.668 172.778 136.525C174.266 135.936 175.754 135.347 177.245 134.772ZM140.209 151.096L140.208 129.975L163.209 139.692L163.253 161.725C162.077 161.254 160.915 160.696 159.756 160.138C158.976 159.763 158.197 159.388 157.416 159.041C151.644 156.47 145.908 153.821 140.209 151.096ZM111.139 159.257C119.055 157.316 126.958 155.326 134.85 153.29L135.236 153.231L135.422 153.403C135.509 154.872 135.484 156.364 135.46 157.849C135.449 158.474 135.439 159.098 135.437 159.719L135.399 171.579L135.399 206.011L103.633 214.078C103.489 214.105 103.347 214.105 103.202 214.106C103.168 214.106 103.134 214.106 103.1 214.106C102.873 213.696 102.952 181.716 102.987 167.606C102.995 164.455 103 162.196 103 161.378C104.483 161.018 105.96 160.622 107.437 160.227C108.67 159.897 109.902 159.567 111.139 159.257ZM99.4702 162.206L101.979 161.629C102.234 161.999 102.111 195.486 102.061 209.228C102.051 211.739 102.045 213.591 102.043 214.461L99.6615 215.069C99.5265 214.905 99.481 214.739 99.4719 214.529C99.3055 210.734 99.3635 206.891 99.4213 203.06C99.4503 201.138 99.4793 199.219 99.4798 197.311L99.4702 162.206ZM66.0751 170.6C76.6885 167.878 87.3188 165.22 97.9651 162.627L98.3694 162.618C98.5819 162.918 98.5903 163.227 98.6 163.581L98.6 163.583C98.6009 163.615 98.6018 163.647 98.6028 163.68C98.6333 164.654 98.6055 165.632 98.5777 166.61C98.5606 167.21 98.5436 167.809 98.54 168.407L98.5473 178.545V215.347C89.3605 217.849 80.0719 220.084 70.8046 222.314C70.7995 222.315 70.7945 222.316 70.7895 222.317C69.3797 222.657 67.9705 222.996 66.5621 223.336L66.2429 223.388C65.9822 223.057 65.9763 222.713 65.9694 222.309C65.9689 222.283 65.9685 222.256 65.968 222.23C65.9098 219.299 65.953 216.351 65.9961 213.405C66.0244 211.472 66.0527 209.54 66.0523 207.614L66.0751 170.6ZM62.3862 171.522L64.8577 170.953C64.9553 170.964 65.0007 171.014 65.0569 171.075C65.0739 171.094 65.0918 171.114 65.1125 171.134C65.215 172.525 65.1868 173.946 65.1588 175.358C65.1466 175.976 65.1343 176.593 65.1331 177.204L65.1298 188.249L65.1219 223.752L63.0927 224.286C62.8627 224.316 62.7434 224.308 62.5255 224.229C62.3643 223.85 62.3527 223.463 62.3406 223.058L62.3391 223.008C62.3112 222.094 62.3383 221.173 62.3655 220.254C62.3829 219.662 62.4004 219.071 62.4031 218.482L62.4104 207.489L62.3862 171.522Z" fill="#080717"/>
<path fill-rule="evenodd" clip-rule="evenodd" d="M153.241 18.9309L175.014 13.5101C175.622 13.4678 199.974 25.6611 211.588 31.4763C211.59 31.4775 211.592 31.4786 211.595 31.4798C214.574 32.9714 216.713 34.0428 217.397 34.3794C214.406 35.2144 211.361 35.9256 208.323 36.6349C207.06 36.9301 205.797 37.2249 204.541 37.5282C196.581 39.4264 188.634 41.3741 180.699 43.3713C180.271 43.4705 180.007 43.4722 179.595 43.3029C178.233 42.7434 176.897 42.05 175.574 41.3627C175.049 41.0905 174.527 40.8193 174.005 40.5577L163.902 35.5142L147.732 27.4452C146.839 26.9978 145.938 26.5569 145.037 26.1155C142.774 25.0077 140.506 23.8968 138.317 22.6731C141.853 21.8886 145.365 20.9734 148.875 20.0589C150.33 19.6796 151.785 19.3005 153.241 18.9309ZM111.456 29.2822L136.53 23.1551C136.728 23.1158 136.924 23.0948 137.118 23.166C137.818 23.4222 138.525 23.8204 139.22 24.2121C139.619 24.4367 140.014 24.6592 140.402 24.8516L149.6 29.4482C159.239 34.3117 168.911 39.1092 178.616 43.84C166.179 47.0845 153.714 50.2197 141.222 53.2457C137.861 51.4738 134.427 49.8293 130.995 48.1858C129.316 47.3818 127.637 46.578 125.968 45.7597C116.968 41.3492 108.005 36.8632 99.0812 32.3024C101.925 31.7569 104.768 31.0133 107.597 30.273C108.887 29.9357 110.173 29.5991 111.456 29.2822ZM59.7648 42.0099L97.3883 32.7741C97.7457 32.7511 97.9085 32.8309 98.1945 32.9709C98.2311 32.9889 98.2697 33.0078 98.311 33.0276C102.659 35.1115 106.965 37.2969 111.271 39.4819C114.105 40.9204 116.939 42.3587 119.785 43.7679C122.399 45.0622 125.027 46.3285 127.656 47.5949L127.657 47.5955C131.7 49.5428 135.742 51.4902 139.73 53.5393C127.231 56.7159 114.707 59.7953 102.159 62.7777C101.831 62.8312 101.633 62.8153 101.322 62.6834C100.05 62.1423 98.7991 61.4919 97.5547 60.8449C96.9087 60.5091 96.2646 60.1742 95.6201 59.856L82.8629 53.5097C80.2294 52.1952 77.5726 50.909 74.9137 49.6219C69.8216 47.1569 64.722 44.6882 59.7648 42.0099ZM180.354 44.4109L217.8 35.2535L218.124 35.2582C218.651 35.8986 218.42 66.0972 218.359 74.0305C218.359 74.0366 218.359 74.0427 218.359 74.0488C218.354 74.7168 218.35 75.2253 218.348 75.543L206.992 78.2541C206.675 78.3276 206.491 78.4322 206.326 78.7233C206.218 78.9146 206.226 78.9372 206.266 79.0619C206.277 79.0928 206.289 79.13 206.302 79.1777C206.993 79.4503 212.378 78.0665 215.82 77.182C216.963 76.8881 217.892 76.6493 218.364 76.5447L218.364 88.9244L197.777 85.3758C197.543 85.3234 198.019 85.4377 197.777 85.3758L182.526 83.6283C182.551 82.7571 188.468 83.8675 188.32 83.0432C188.22 82.4835 188.041 81.8653 187.524 81.5481C186.789 81.0968 183.501 82.0908 181.541 82.6835C181.044 82.8336 180.633 82.958 180.369 83.0267L180.354 44.4109ZM41.9269 46.3721C47.3302 44.9953 52.748 43.6754 58.1792 42.413C58.6032 42.4559 98.3579 62.0742 100.262 63.3327L75.5405 69.2692C74.1625 69.596 72.777 69.9048 71.3908 70.2138C68.5974 70.8366 65.8008 71.46 63.0552 72.232C62.5058 72.3251 62.3377 72.3372 61.8071 72.1183C60.0767 71.4041 58.3708 70.4957 56.6809 69.5958C55.8961 69.1779 55.1147 68.7618 54.3359 68.3678L40.0255 61.1337L28.2671 55.1876C27.696 54.8995 27.1185 54.616 26.5395 54.3318C24.7513 53.4538 22.9487 52.5688 21.2746 51.5214C28.1412 49.7363 35.0258 48.0199 41.9269 46.3721ZM161.795 49.0395C167.571 47.6273 173.348 46.215 179.105 44.7327C179.178 44.7368 179.202 44.7352 179.222 44.7431C179.248 44.7538 179.268 44.782 179.397 44.8653C179.552 45.7688 179.522 46.7663 179.492 47.7299C179.481 48.0902 179.47 48.4458 179.469 48.7899L179.467 55.9762L179.479 83.2701C173.497 84.6628 167.541 86.1732 161.586 87.6834C155.266 89.2861 148.947 90.8886 142.597 92.3505C142.517 92.357 142.443 92.3264 142.369 92.2959C142.348 92.2873 142.327 92.2786 142.306 92.2709C142.035 91.2687 142.129 87.2193 142.193 84.4675C142.214 83.5631 142.232 82.7989 142.232 82.329L142.224 53.9324C148.728 52.234 155.261 50.6368 161.795 49.0395ZM140.475 54.3672C140.654 54.3172 140.834 54.2672 141.013 54.2183L141.162 54.2694C141.434 55.0858 141.376 58.0336 141.337 60.0626C141.324 60.7147 141.313 61.2718 141.316 61.6329L141.316 92.6385L138.594 93.2402V93.2126C138.576 93.192 138.615 93.2315 138.594 93.2126C138.552 93.1747 138.511 93.1368 138.491 93.0854C138.302 92.5797 138.361 90.0156 138.4 88.3663C138.412 87.8199 138.423 87.3738 138.421 87.1363C138.318 76.3853 138.319 65.6333 138.423 54.8823C139.113 54.7463 139.795 54.5564 140.475 54.3672ZM115.4 60.5483L136.939 55.2422L137.315 55.2317C137.508 55.5008 137.516 55.8536 137.524 56.183C137.525 56.2312 137.527 56.279 137.528 56.3259C137.608 58.4964 137.58 60.6983 137.552 62.8944C137.536 64.1864 137.519 65.4763 137.525 66.7567L137.531 93.6633C137.24 93.7901 137.203 94.0528 137.163 94.3317C137.129 94.5687 137.094 94.8173 136.9 95.0041C137.322 94.7993 137.731 94.9854 138.164 94.8017C138.188 94.7914 138.212 94.7811 138.237 94.7708C138.425 94.6908 138.614 94.6109 138.8 94.5298L139.026 94.5574C139.043 94.5795 139.064 94.6 139.085 94.6206C139.126 94.662 139.167 94.7035 139.182 94.7581C139.343 95.3578 139.29 98.7244 139.257 100.785C139.247 101.421 139.239 101.932 139.239 102.199C139.295 111.447 139.283 120.694 139.205 129.941L139.263 205.383L136.857 205.995L136.49 205.991C136.285 205.731 136.28 205.386 136.275 205.061C136.275 205.015 136.274 204.971 136.273 204.926C136.207 202.47 136.234 199.997 136.262 197.529V197.528C136.276 196.239 136.29 194.952 136.291 193.668L136.289 170.582L136.389 95.2822C136.355 95.2951 136.321 95.3077 136.286 95.3203C136.256 95.3314 136.226 95.3424 136.195 95.3534C135.797 95.497 135.405 95.6385 135.392 95.9386L135.39 95.9775C135.325 97.4272 135.357 98.9049 135.39 100.375C135.407 101.141 135.423 101.905 135.426 102.662L135.44 115.148C135.513 127.46 135.513 139.772 135.442 152.083C129.532 153.723 123.579 155.203 117.626 156.682C112.74 157.896 107.853 159.111 102.99 160.414L103.015 127.226L103.002 107.679C103.956 107.413 107.554 106.507 111.844 105.426L111.847 105.425L111.848 105.425C119.817 103.417 130.17 100.807 130.401 100.585C130.533 100.458 130.532 100.386 130.532 100.256C130.531 100.22 130.531 100.179 130.534 100.131L130.285 99.9693C129.805 99.9098 129.373 99.9581 128.902 100.052C128.05 100.222 127.201 100.465 126.356 100.706C125.896 100.837 125.438 100.968 124.98 101.087C123.941 101.357 122.898 101.612 121.853 101.866C120.961 102.084 120.069 102.301 119.18 102.528C113.773 103.87 108.378 105.257 102.995 106.688L103.008 63.5108C105.964 62.9828 108.92 62.215 111.857 61.4525C113.042 61.1449 114.223 60.8381 115.4 60.5483ZM101.166 64.0472C101.394 63.9811 101.621 63.9153 101.846 63.8537L102.035 64.0245C102.208 66.235 102.155 68.5433 102.103 70.8224C102.079 71.874 102.055 72.9194 102.054 73.9461L102.057 93.6657L102.107 160.633C101.582 160.736 101.058 160.854 100.535 160.971C100.3 161.024 100.064 161.077 99.8288 161.128L99.6645 161.132C99.4404 160.885 99.4362 160.68 99.4299 160.38C99.429 160.334 99.428 160.286 99.4262 160.235C99.3556 158.263 99.3933 156.26 99.4309 154.263C99.4523 153.122 99.4737 151.984 99.4749 150.855L99.4857 129.865L99.474 64.4811C100.038 64.3746 100.605 64.2101 101.166 64.0472ZM66.069 72.481L98.327 64.7411C98.6419 65.1836 98.6177 92.4027 98.6079 103.417C98.6079 103.42 98.6079 103.422 98.6079 103.425C98.6061 105.424 98.6048 106.888 98.6061 107.56C87.8712 110.392 77.105 113.106 66.3092 115.699C66.2631 115.702 66.2464 115.704 66.2339 115.698C66.2127 115.687 66.2039 115.652 66.083 115.55C65.9594 114.47 65.9899 113.345 66.0199 112.234C66.0321 111.787 66.0441 111.341 66.046 110.902L66.0612 102.298L66.069 72.481ZM62.4167 73.3724L64.8938 72.7616L65.1366 72.9462L65.1207 169.921L62.6054 170.47L62.3616 170.291C62.2566 164.81 62.3016 159.315 62.3467 153.822C62.3739 150.503 62.4011 147.185 62.3951 143.872L62.4167 73.3724ZM188.102 87.4897L191.047 86.7671C191.056 86.7714 191.066 86.7745 191.075 86.7784C191.083 86.7817 191.09 86.7855 191.096 86.7911C191.1 86.7951 191.292 87.0147 191.296 87.0238C191.471 87.4145 191.362 114.549 191.327 123.437V123.44C191.327 123.458 191.327 123.477 191.327 123.495C191.321 124.802 191.318 125.705 191.317 126.057C190.765 125.809 190.198 125.59 189.632 125.372L189.63 125.372C189.478 125.313 189.325 125.254 189.173 125.195L188.105 124.78L188.102 87.4897ZM66.0751 116.729C76.8214 114.11 87.5485 111.414 98.2557 108.64L98.4866 108.7C98.7187 109.311 98.6216 114.759 98.5658 117.89C98.5492 118.82 98.5363 119.546 98.5367 119.88L98.5927 161.463L66.5621 169.447L66.1834 169.465C66.1667 169.435 66.1477 169.406 66.1287 169.376C66.091 169.318 66.0532 169.261 66.0336 169.195C65.8726 168.66 65.9587 161.346 66.0027 157.61C66.0137 156.674 66.0221 155.962 66.0233 155.639L66.0751 116.729ZM151.618 121.743C155.665 120.192 159.712 118.641 163.693 116.931L163.88 116.994C164.107 118.243 164.042 120.044 163.984 121.664C163.96 122.337 163.937 122.979 163.937 123.538L163.936 139.047C162.526 138.532 161.14 137.909 159.759 137.288C159.122 137.002 158.487 136.716 157.85 136.442L147.792 132.187C145.261 131.131 142.737 130.054 140.223 128.958L140.213 126.269C143.977 124.671 147.797 123.207 151.618 121.743ZM164.867 138.611L164.824 116.82C171.101 119.284 177.393 121.712 183.699 124.104C184.775 124.519 185.847 124.959 186.92 125.398C188.909 126.213 190.901 127.03 192.934 127.698C191.078 128.542 189.142 129.268 187.216 129.991C186.449 130.278 185.683 130.565 184.925 130.859L164.867 138.611ZM177.245 134.772C182.62 132.751 187.98 130.693 193.325 128.597L193.534 128.61C193.815 129.009 186.561 146.43 186.525 152.128C186.518 153.327 186.525 151.734 186.525 152.128C184.142 152.89 188.951 151.709 186.618 152.711L186.616 152.712C185.575 153.158 184.538 153.603 183.503 154.024C177.184 156.59 170.83 159.073 164.445 161.474L164.356 161.504L164.146 161.36C163.959 159.832 164.007 158.173 164.054 156.552C164.075 155.826 164.096 155.106 164.095 154.41L164.08 139.855C166.999 138.811 169.889 137.668 172.778 136.525C174.266 135.936 175.754 135.347 177.245 134.772ZM140.209 151.096L140.208 129.975L163.209 139.692L163.253 161.725C162.077 161.254 160.915 160.696 159.756 160.138C158.976 159.763 158.197 159.388 157.416 159.041C151.644 156.47 145.908 153.821 140.209 151.096ZM111.139 159.257C119.055 157.316 126.958 155.326 134.85 153.29L135.236 153.231L135.422 153.403C135.509 154.872 135.484 156.364 135.46 157.849C135.449 158.474 135.439 159.098 135.437 159.719L135.399 171.579L135.399 206.011L103.633 214.078C103.489 214.105 103.347 214.105 103.202 214.106C103.168 214.106 103.134 214.106 103.1 214.106C102.873 213.696 102.952 181.716 102.987 167.606C102.995 164.455 103 162.196 103 161.378C104.483 161.018 105.96 160.622 107.437 160.227C108.67 159.897 109.902 159.567 111.139 159.257ZM99.4702 162.206L101.979 161.629C102.234 161.999 102.111 195.486 102.061 209.228C102.051 211.739 102.045 213.591 102.043 214.461L99.6615 215.069C99.5265 214.905 99.481 214.739 99.4719 214.529C99.3055 210.734 99.3635 206.891 99.4213 203.06C99.4503 201.138 99.4793 199.219 99.4798 197.311L99.4702 162.206ZM66.0751 170.6C76.6885 167.878 87.3188 165.22 97.9651 162.627L98.3694 162.618C98.5819 162.918 98.5903 163.227 98.6 163.581L98.6 163.583C98.6009 163.615 98.6018 163.647 98.6028 163.68C98.6333 164.654 98.6055 165.632 98.5777 166.61C98.5606 167.21 98.5436 167.809 98.54 168.407L98.5473 178.545V215.347C89.3605 217.849 80.0719 220.084 70.8046 222.314C70.7995 222.315 70.7945 222.316 70.7895 222.317C69.3797 222.657 67.9705 222.996 66.5621 223.336L66.2429 223.388C65.9822 223.057 65.9763 222.713 65.9694 222.309C65.9689 222.283 65.9685 222.256 65.968 222.23C65.9098 219.299 65.953 216.351 65.9961 213.405C66.0244 211.472 66.0527 209.54 66.0523 207.614L66.0751 170.6ZM62.3862 171.522L64.8577 170.953C64.9553 170.964 65.0007 171.014 65.0569 171.075C65.0739 171.094 65.0918 171.114 65.1125 171.134C65.215 172.525 65.1868 173.946 65.1588 175.358C65.1466 175.976 65.1343 176.593 65.1331 177.204L65.1298 188.249L65.1219 223.752L63.0927 224.286C62.8627 224.316 62.7434 224.308 62.5255 224.229C62.3643 223.85 62.3527 223.463 62.3406 223.058L62.3391 223.008C62.3112 222.094 62.3383 221.173 62.3655 220.254C62.3829 219.662 62.4004 219.071 62.4031 218.482L62.4104 207.489L62.3862 171.522Z" fill="#080717"/>
<path fill-rule="evenodd" clip-rule="evenodd" d="M18.9349 203.442C18.8114 201.114 18.9028 198.741 18.9036 196.407L18.91 183.352L18.9292 143.877L18.929 82.5155C18.9324 72.8015 18.777 63.0615 18.9508 53.3505C18.9626 52.6905 18.9954 52.107 19.3785 51.5368C19.7389 51.0004 20.3254 50.7719 20.9246 50.6074C24.7698 49.5501 28.6733 48.6594 32.5454 47.7013L55.8889 42.0069L102.342 30.603L144.08 20.3222C151.303 18.4511 158.539 16.6324 165.789 14.8661C168.972 14.0763 172.145 13.208 175.347 12.5C176.707 12.934 178.152 13.79 179.441 14.4292L187.606 18.5068L219.185 34.2004C219.337 36.5568 219.272 38.9487 219.279 41.3104L219.287 53.5113L219.287 88.9244C221.614 89.4694 228.831 90.1959 230.525 91.1283C231.156 94.8792 230.53 110.314 230.525 114.128V143.128V146.628L195.525 141.128L211.249 143.599L219.287 154.41L219.525 186.128L187.081 194.153L90.2583 218.403C80.8032 220.728 71.3623 223.109 61.936 225.546C59.4214 224.742 56.723 222.99 54.3491 221.754L39.3826 214.013L25.5969 206.961C23.4375 205.86 20.891 204.862 18.9349 203.442ZM153.241 18.9309L175.014 13.5101C175.622 13.4678 199.974 25.6611 211.588 31.4763L211.595 31.4798C214.574 32.9714 216.713 34.0428 217.397 34.3794C214.406 35.2144 211.361 35.9256 208.323 36.6349C207.06 36.9301 205.797 37.2249 204.541 37.5282C196.581 39.4264 188.634 41.3741 180.699 43.3713C180.271 43.4705 180.007 43.4722 179.595 43.3029C178.233 42.7434 176.897 42.05 175.574 41.3627C175.049 41.0905 174.527 40.8193 174.005 40.5577L163.902 35.5142L147.732 27.4452C146.839 26.9978 145.938 26.5569 145.037 26.1155C142.774 25.0077 140.506 23.8968 138.317 22.6731C141.853 21.8886 145.365 20.9734 148.875 20.0589C150.33 19.6796 151.785 19.3005 153.241 18.9309ZM111.456 29.2822L136.53 23.1551C136.728 23.1158 136.924 23.0948 137.118 23.166C137.818 23.4222 138.525 23.8204 139.22 24.2121C139.619 24.4367 140.014 24.6592 140.402 24.8516L149.6 29.4482C159.239 34.3117 168.911 39.1092 178.616 43.84C166.179 47.0845 153.714 50.2197 141.222 53.2457C137.861 51.4738 134.427 49.8293 130.995 48.1858C129.316 47.3818 127.637 46.578 125.968 45.7597C116.968 41.3492 108.005 36.8632 99.0812 32.3024C101.925 31.7569 104.768 31.0133 107.597 30.273C108.887 29.9357 110.173 29.5991 111.456 29.2822ZM59.7648 42.0099L97.3883 32.7741C97.7457 32.7511 97.9085 32.8309 98.1945 32.9709C98.2311 32.9889 98.2697 33.0078 98.311 33.0276C102.659 35.1115 106.965 37.2969 111.271 39.4819C114.105 40.9204 116.939 42.3587 119.785 43.7679C122.399 45.0622 125.027 46.3285 127.656 47.5949L127.657 47.5955C131.7 49.5428 135.742 51.4902 139.73 53.5393C127.231 56.7159 114.707 59.7953 102.159 62.7777C101.831 62.8312 101.633 62.8153 101.322 62.6834C100.05 62.1423 98.7991 61.4919 97.5547 60.8449C96.9087 60.5091 96.2646 60.1742 95.6201 59.856L82.8629 53.5097C80.2294 52.1952 77.5726 50.909 74.9137 49.6219C69.8216 47.1569 64.722 44.6882 59.7648 42.0099ZM180.354 44.4109L217.8 35.2535L218.124 35.2582C218.651 35.8986 218.42 66.0972 218.359 74.0305L218.359 74.0488C218.354 74.7168 218.35 75.2253 218.348 75.543L206.992 78.2541C206.675 78.3276 206.491 78.4322 206.326 78.7233C206.218 78.9146 206.226 78.9372 206.266 79.0619C206.277 79.0928 206.289 79.13 206.302 79.1777C206.993 79.4503 212.378 78.0665 215.82 77.182C216.963 76.8881 217.892 76.6493 218.364 76.5447L218.364 88.9244L197.777 85.3758C197.543 85.3234 198.019 85.4377 197.777 85.3758L182.526 83.6283C182.551 82.7571 188.468 83.8675 188.32 83.0432C188.22 82.4835 188.041 81.8653 187.524 81.5481C186.789 81.0968 183.501 82.0908 181.541 82.6835C181.044 82.8336 180.633 82.958 180.369 83.0267L180.354 44.4109ZM41.9269 46.3721C47.3302 44.9953 52.748 43.6754 58.1792 42.413C58.6032 42.4559 98.3579 62.0742 100.262 63.3327L75.5405 69.2692C74.1625 69.596 72.777 69.9048 71.3908 70.2138C68.5974 70.8366 65.8008 71.46 63.0552 72.232C62.5058 72.3251 62.3377 72.3372 61.8071 72.1183C60.0767 71.4041 58.3708 70.4957 56.6809 69.5958C55.8961 69.1779 55.1147 68.7618 54.3359 68.3678L40.0255 61.1337L28.2671 55.1876C27.696 54.8995 27.1185 54.616 26.5395 54.3318C24.7513 53.4538 22.9487 52.5688 21.2746 51.5214C28.1412 49.7363 35.0258 48.0199 41.9269 46.3721ZM142.232 82.329L142.224 53.9324C148.728 52.234 155.261 50.6368 161.795 49.0395C167.571 47.6273 173.348 46.215 179.105 44.7327C179.178 44.7368 179.202 44.7352 179.222 44.7431C179.248 44.7538 179.268 44.782 179.397 44.8653C179.552 45.7688 179.522 46.7663 179.492 47.7299C179.481 48.0902 179.47 48.4458 179.469 48.7899L179.467 55.9762L179.479 83.2701C173.497 84.6628 167.541 86.1732 161.586 87.6834C155.266 89.2861 148.947 90.8886 142.597 92.3505C142.517 92.357 142.443 92.3264 142.369 92.2959C142.348 92.2873 142.327 92.2786 142.306 92.2709C142.035 91.2687 142.129 87.2193 142.193 84.4675C142.214 83.5631 142.232 82.7989 142.232 82.329ZM138.421 87.1363C138.318 76.3853 138.319 65.6333 138.423 54.8823C139.113 54.7463 139.795 54.5564 140.475 54.3672C140.654 54.3172 140.834 54.2672 141.013 54.2183L141.162 54.2694C141.434 55.0858 141.376 58.0336 141.337 60.0626C141.324 60.7147 141.313 61.2718 141.316 61.6329L141.316 92.6385L138.594 93.2402V93.2126C138.576 93.192 138.615 93.2315 138.594 93.2126C138.552 93.1747 138.511 93.1368 138.491 93.0854C138.302 92.5797 138.361 90.0156 138.4 88.3663C138.412 87.8199 138.423 87.3738 138.421 87.1363ZM115.4 60.5483L136.939 55.2422L137.315 55.2317C137.508 55.5008 137.516 55.8536 137.524 56.183C137.525 56.2312 137.527 56.279 137.528 56.3259C137.608 58.4964 137.58 60.6983 137.552 62.8944C137.536 64.1864 137.519 65.4763 137.525 66.7567L137.531 93.6633C137.24 93.7901 137.203 94.0528 137.163 94.3317C137.129 94.5687 137.094 94.8173 136.9 95.0041C136.78 95.1196 136.592 95.2047 136.389 95.2822C136.355 95.2951 136.321 95.3077 136.286 95.3203L136.195 95.3534C135.797 95.497 135.405 95.6385 135.392 95.9386L135.39 95.9775C135.325 97.4272 135.357 98.9049 135.39 100.375C135.407 101.141 135.423 101.905 135.426 102.662L135.44 115.148C135.513 127.46 135.513 139.772 135.442 152.083C129.532 153.723 123.579 155.203 117.626 156.682C112.74 157.896 107.853 159.111 102.99 160.414L103.015 127.226L103.002 107.679C103.956 107.413 107.554 106.507 111.844 105.426L111.847 105.425L111.848 105.425C119.817 103.417 130.17 100.807 130.401 100.585C130.533 100.458 130.532 100.386 130.532 100.256C130.531 100.22 130.531 100.179 130.534 100.131L130.285 99.9693C129.805 99.9098 129.373 99.9581 128.902 100.052C128.05 100.222 127.201 100.465 126.356 100.706C125.896 100.837 125.438 100.968 124.98 101.087C123.941 101.357 122.898 101.612 121.853 101.866C120.961 102.084 120.069 102.301 119.18 102.528C113.773 103.87 108.378 105.257 102.995 106.688L103.008 63.5108C105.964 62.9828 108.92 62.215 111.857 61.4525C113.042 61.1449 114.223 60.8381 115.4 60.5483ZM99.4857 129.865L99.474 64.4811C100.038 64.3746 100.605 64.2101 101.166 64.0472C101.394 63.9811 101.621 63.9153 101.846 63.8537L102.035 64.0245C102.208 66.235 102.155 68.5433 102.103 70.8224C102.079 71.874 102.055 72.9194 102.054 73.9461L102.057 93.6657L102.107 160.633C101.582 160.736 101.058 160.854 100.535 160.971C100.3 161.024 100.064 161.077 99.8288 161.128L99.6645 161.132C99.4404 160.885 99.4362 160.68 99.4299 160.38C99.429 160.334 99.428 160.286 99.4262 160.235C99.3556 158.263 99.3933 156.26 99.4309 154.263C99.4523 153.122 99.4737 151.984 99.4749 150.855L99.4857 129.865ZM66.069 72.481L98.327 64.7411C98.6419 65.1836 98.6177 92.4027 98.6079 103.417V103.425C98.6061 105.424 98.6048 106.888 98.6061 107.56C87.8712 110.392 77.105 113.106 66.3092 115.699C66.2631 115.702 66.2464 115.704 66.2339 115.698C66.2127 115.687 66.2039 115.652 66.083 115.55C65.9594 114.47 65.9899 113.345 66.0199 112.234C66.0321 111.787 66.0441 111.341 66.046 110.902L66.0612 102.298L66.069 72.481ZM62.4167 73.3724L64.8938 72.7616L65.1366 72.9462L65.1207 169.921L62.6054 170.47L62.3616 170.291C62.2566 164.81 62.3016 159.315 62.3467 153.822C62.3739 150.503 62.4011 147.185 62.3951 143.872L62.4167 73.3724ZM188.102 87.4897L191.047 86.7671C191.056 86.7714 191.066 86.7745 191.075 86.7784C191.083 86.7817 191.09 86.7855 191.096 86.7911C191.1 86.7951 191.292 87.0147 191.296 87.0238C191.471 87.4145 191.362 114.549 191.327 123.437V123.44L191.327 123.495C191.321 124.802 191.318 125.705 191.317 126.057C190.765 125.809 190.198 125.59 189.632 125.372L189.63 125.372C189.478 125.313 189.325 125.254 189.173 125.195L188.105 124.78L188.102 87.4897ZM66.0751 116.729C76.8214 114.11 87.5485 111.414 98.2557 108.64L98.4866 108.7C98.7187 109.311 98.6216 114.759 98.5658 117.89C98.5492 118.82 98.5363 119.546 98.5367 119.88L98.5927 161.463L66.5621 169.447L66.1834 169.465C66.1667 169.435 66.1477 169.406 66.1287 169.376C66.091 169.318 66.0532 169.261 66.0336 169.195C65.8726 168.66 65.9587 161.346 66.0027 157.61C66.0137 156.674 66.0221 155.962 66.0233 155.639L66.0751 116.729ZM140.223 128.958L140.213 126.269C143.977 124.671 147.797 123.207 151.618 121.743C155.665 120.192 159.712 118.641 163.693 116.931L163.88 116.994C164.107 118.243 164.042 120.044 163.984 121.664C163.96 122.337 163.937 122.979 163.937 123.538L163.936 139.047C162.526 138.532 161.14 137.909 159.759 137.288C159.122 137.002 158.487 136.716 157.85 136.442L147.792 132.187C145.261 131.131 142.737 130.054 140.223 128.958ZM164.867 138.611L164.824 116.82C171.101 119.284 177.393 121.712 183.699 124.104C184.775 124.519 185.847 124.959 186.92 125.398C188.909 126.213 190.901 127.03 192.934 127.698C191.078 128.542 189.142 129.268 187.216 129.991C186.449 130.278 185.683 130.565 184.925 130.859L164.867 138.611ZM177.245 134.772C182.62 132.751 187.98 130.693 193.325 128.597L193.534 128.61C193.815 129.009 186.561 146.43 186.525 152.128C186.518 153.327 186.525 151.734 186.525 152.128C184.142 152.89 188.951 151.709 186.618 152.711L186.616 152.712C185.575 153.158 184.538 153.603 183.503 154.024C177.184 156.59 170.83 159.073 164.445 161.474L164.356 161.504L164.146 161.36C163.959 159.832 164.007 158.173 164.054 156.552C164.075 155.826 164.096 155.106 164.095 154.41L164.08 139.855C166.999 138.811 169.889 137.668 172.778 136.525C174.266 135.936 175.754 135.347 177.245 134.772ZM140.209 151.096L140.208 129.975L163.209 139.692L163.253 161.725C162.077 161.254 160.915 160.696 159.756 160.138C158.976 159.763 158.197 159.388 157.416 159.041C151.644 156.47 145.908 153.821 140.209 151.096ZM111.139 159.257C119.055 157.316 126.958 155.326 134.85 153.29L135.236 153.231L135.422 153.403C135.509 154.872 135.484 156.364 135.46 157.849C135.449 158.474 135.439 159.098 135.437 159.719L135.399 171.579L135.399 206.011L103.633 214.078C103.489 214.105 103.347 214.105 103.202 214.106C103.168 214.106 103.134 214.106 103.1 214.106C102.873 213.696 102.952 181.716 102.987 167.606C102.995 164.455 103 162.196 103 161.378C104.483 161.018 105.96 160.622 107.437 160.227C108.67 159.897 109.902 159.567 111.139 159.257ZM99.4702 162.206L101.979 161.629C102.234 161.999 102.111 195.486 102.061 209.228C102.051 211.739 102.045 213.591 102.043 214.461L99.6615 215.069C99.5265 214.905 99.481 214.739 99.4719 214.529C99.3055 210.734 99.3635 206.891 99.4213 203.06C99.4503 201.138 99.4793 199.219 99.4798 197.311L99.4702 162.206ZM66.0751 170.6C76.6885 167.878 87.3188 165.22 97.9651 162.627L98.3694 162.618C98.5819 162.918 98.5903 163.227 98.6 163.581L98.6 163.583C98.6009 163.615 98.6018 163.647 98.6028 163.68C98.6333 164.654 98.6055 165.632 98.5777 166.61C98.5606 167.21 98.5436 167.809 98.54 168.407L98.5473 178.545V215.347C89.3605 217.849 80.0719 220.084 70.8046 222.314L70.7895 222.317C69.3797 222.657 67.9705 222.996 66.5621 223.336L66.2429 223.388C65.9822 223.057 65.9763 222.713 65.9694 222.309L65.968 222.23C65.9098 219.299 65.953 216.351 65.9961 213.405C66.0244 211.472 66.0527 209.54 66.0523 207.614L66.0751 170.6ZM62.3862 171.522L64.8577 170.953C64.9553 170.964 65.0007 171.014 65.0569 171.075C65.0739 171.094 65.0918 171.114 65.1125 171.134C65.215 172.525 65.1868 173.946 65.1588 175.358C65.1466 175.976 65.1343 176.593 65.1331 177.204L65.1298 188.249L65.1219 223.752L63.0927 224.286C62.8627 224.316 62.7434 224.308 62.5255 224.229C62.3643 223.85 62.3527 223.463 62.3406 223.058L62.3391 223.008C62.3112 222.094 62.3383 221.173 62.3655 220.254C62.3829 219.662 62.4004 219.071 62.4031 218.482L62.4104 207.489L62.3862 171.522Z" fill="#080717"/>
<path d="M138.292 23.0448C143.294 21.935 148.248 20.5636 153.215 19.3027L174.989 13.8818C175.752 13.8286 214.022 33.1024 217.372 34.7511C213.136 35.9335 208.792 36.8676 204.515 37.8999C196.556 39.7982 188.608 41.7459 180.673 43.7431C180.245 43.8422 179.982 43.8439 179.57 43.6747C177.668 42.8935 175.818 41.8516 173.98 40.9294L163.877 35.8859L147.707 27.8169C144.57 26.2468 141.352 24.7561 138.292 23.0448Z" fill="#FEFEFE"/>
<path d="M99.0557 32.6742C103.196 31.8802 107.332 30.6663 111.431 29.654L136.504 23.5268C136.703 23.4876 136.898 23.4666 137.093 23.5378C138.193 23.9409 139.312 24.6952 140.377 25.2234L149.575 29.82C159.213 34.6835 168.885 39.481 178.59 44.2118C166.153 47.4562 153.688 50.5915 141.196 53.6175C136.191 50.9787 131.024 48.6225 125.943 46.1315C116.943 41.721 107.98 37.235 99.0557 32.6742Z" fill="#FEFEFE"/>
<path d="M59.7393 42.3817L97.3628 33.1459C97.7659 33.12 97.9215 33.2248 98.2855 33.3994C105.496 36.8553 112.592 40.5901 119.759 44.1396C126.392 47.4243 133.123 50.5292 139.705 53.9111C127.205 57.0877 114.681 60.1671 102.134 63.1495C101.806 63.2029 101.607 63.1871 101.297 63.0552C99.3641 62.2332 97.4807 61.1591 95.5947 60.2278L82.8374 53.8815C75.1604 50.0495 67.285 46.4585 59.7393 42.3817Z" fill="#FEFEFE"/>
<path d="M180.329 44.7826L217.775 35.6252L218.098 35.6299C218.67 36.325 218.349 71.8386 218.322 75.9147L189.966 82.6259C189.649 82.6994 189.465 82.804 189.301 83.095C189.166 83.3338 189.211 83.3097 189.276 83.5494C190.197 83.9126 216.448 77.3359 218.338 76.9165V89.2683L199 86.5L183.5 84L180.344 83.3984L180.329 44.7826ZM210.084 44.2383L195.606 47.7473C193.59 48.2381 191.123 48.5467 189.253 49.3846C189.222 51.0372 188.859 54.1947 189.411 55.6564C189.665 55.8618 189.7 55.8833 190.024 55.9204C194.638 54.7707 199.26 53.6522 203.889 52.5651C206.097 52.0336 208.523 51.6242 210.659 50.8706C210.752 49.4231 211.123 45.6707 210.528 44.4629C210.385 44.3772 210.249 44.268 210.084 44.2383Z" fill="#FEFEFE"/>
<path d="M21.249 51.8932C28.1156 50.1081 35.0002 48.3917 41.9013 46.7439C47.3046 45.3671 52.7224 44.0472 58.1536 42.7848C58.5776 42.8277 98.3323 62.446 100.236 63.7045L75.5149 69.641C71.3599 70.6262 67.1377 71.4487 63.0295 72.6038C62.4802 72.6969 62.3121 72.709 61.7815 72.4901C59.2474 71.4442 56.7659 69.9818 54.3103 68.7396L39.9998 61.5054L28.2415 55.5594C25.9064 54.3817 23.4652 53.2798 21.249 51.8932Z" fill="#FEFEFE"/>
<path d="M189.253 49.3845C191.123 48.5466 193.59 48.238 195.606 47.7472L210.084 44.2383C210.25 44.2679 210.386 44.3772 210.528 44.4628C211.124 45.6706 210.753 49.423 210.659 50.8705C208.523 51.6242 206.097 52.0336 203.889 52.565C199.26 53.6522 194.639 54.7706 190.025 55.9203C189.701 55.8832 189.665 55.8618 189.411 55.6564C188.859 54.1946 189.222 51.0372 189.253 49.3845ZM209.639 45.2617C205.975 46.1909 202.304 47.0946 198.627 47.9727C195.822 48.636 192.928 49.2146 190.173 50.0597C190.161 51.008 189.854 54.2284 190.356 54.8315L190.462 54.8719L209.88 50.1694C209.894 48.6192 210 46.9971 209.856 45.4559C209.803 45.4043 209.707 45.2865 209.639 45.2617Z" fill="#080717"/>
<path d="M142.199 54.3041C154.453 51.1042 166.812 48.2633 179.079 45.1045C179.253 45.1141 179.148 45.0924 179.372 45.2371C179.585 46.4783 179.448 47.8971 179.444 49.1617L179.442 56.348L179.454 83.6418C167.123 86.5126 154.905 89.8829 142.571 92.7222C142.469 92.7306 142.376 92.6779 142.281 92.6426C141.921 91.3111 142.205 84.6004 142.207 82.7008L142.199 54.3041ZM169.245 54.1508C166.986 54.8101 148.951 58.8547 148.298 59.6429C147.927 61.2188 147.945 63.9008 148.25 65.4981C148.457 65.7614 148.608 65.8914 148.964 65.9113C149.043 65.9157 149.122 65.9071 149.201 65.905C154.008 64.6689 158.829 63.4886 163.664 62.3636C165.867 61.835 168.219 61.4265 170.357 60.6988C170.39 59.3523 170.775 55.1962 170.075 54.2773C169.742 54.1099 169.601 54.113 169.245 54.1508Z" fill="#FEFEFE"/>
<path d="M190.172 50.0598C192.928 49.2147 195.822 48.6361 198.627 47.9728C202.304 47.0947 205.974 46.191 209.639 45.2618C209.706 45.2866 209.803 45.4044 209.856 45.456C210 46.9972 209.893 48.6193 209.88 50.1695L190.462 54.872L190.356 54.8316C189.853 54.2285 190.161 51.0081 190.172 50.0598Z" fill="#66D9C8"/>
<path d="M149.201 65.9049C149.122 65.907 149.043 65.9156 148.964 65.9112C148.608 65.8914 148.457 65.7614 148.25 65.4981C147.945 63.9007 147.927 61.2187 148.298 59.6428C148.951 58.8546 166.986 54.8101 169.245 54.1507C169.601 54.1129 169.742 54.1099 170.075 54.2772C170.775 55.1961 170.39 59.3522 170.357 60.6987C168.219 61.4264 165.867 61.8349 163.664 62.3635C158.829 63.4885 154.008 64.6688 149.201 65.9049ZM169.209 55.177C162.52 56.835 155.744 58.2655 149.094 60.0597C149.084 61.0749 148.776 64.0643 149.281 64.7843L149.449 64.8194C156.139 63.2488 162.819 61.6323 169.486 59.9698C169.498 58.4651 169.652 56.7853 169.431 55.3032L169.209 55.177Z" fill="#080717"/>
<path d="M138.398 55.2541C139.271 55.0821 140.13 54.824 140.988 54.5901L141.137 54.6412C141.496 55.72 141.28 60.52 141.29 62.0047V96.2685L138.5 95.5C138.446 95.4381 138.529 95.577 138.5 95.5C138.5 95 138.403 88.4625 138.395 87.5081C138.293 76.7571 138.293 66.0051 138.398 55.2541Z" fill="#FEFEFE"/>
<path d="M149.094 60.0597C155.744 58.2656 162.52 56.8351 169.209 55.177L169.431 55.3033C169.652 56.7854 169.498 58.4651 169.486 59.9698C162.819 61.6323 156.139 63.2489 149.449 64.8194L149.281 64.7844C148.777 64.0644 149.084 61.075 149.094 60.0597Z" fill="#66D9C8"/>
<path d="M102.983 63.8825C107.13 63.1415 111.281 61.928 115.374 60.92L136.913 55.6139L137.29 55.6034C137.511 55.9119 137.489 56.3304 137.503 56.6976C137.629 60.1451 137.485 63.6717 137.5 67.1284L137.505 94.035C137.505 94.5 137.5 95.5 137.505 96.3492C137.5 97 137.529 101.981 137.505 102.5V118C137.578 130.312 137.577 139.188 137.505 151.5C126.744 154.486 113.752 157.895 102.965 160.786L102.99 127.598L102.977 103.5C106 103 133.267 96.8824 133.748 96.6317C134 96.5 134.5 96.5 134.5 96C134.5 95.5 134.471 95.4059 134 95.5C133.085 95.6828 125.651 97.3307 125 97.5C122.805 98.0708 118.796 99.0408 117 99.5C111.278 100.963 108.5 101.5 102.977 102.5L102.983 63.8825ZM129.508 63.9453C124.844 65.0523 120.186 66.1873 115.535 67.3501C113.165 67.9317 110.353 68.3173 108.133 69.3037C108.11 70.5176 107.767 74.8226 108.336 75.7314C108.455 75.7765 108.601 75.85 108.726 75.868L122.29 72.5159C124.203 72.0419 128.262 71.3349 129.803 70.4403C130.175 69.727 130.228 65.1762 130.009 64.3572C129.849 64.142 129.757 64.051 129.508 63.9453ZM128.748 108.002L114.613 111.539C112.543 112.063 110.071 112.454 108.122 113.304C108.088 114.915 107.728 117.965 108.302 119.391C108.674 119.678 108.72 119.617 109.17 119.577L121.291 116.537C123.69 115.951 126.188 115.469 128.539 114.72C128.992 114.575 129.497 114.433 129.813 114.062C130.129 112.955 130.206 109.166 129.824 108.161C129.44 107.903 129.203 107.915 128.748 108.002Z" fill="#FEFEFE"/>
<path d="M108.133 69.3037C110.353 68.3173 113.165 67.9318 115.535 67.3501C120.186 66.1873 124.844 65.0523 129.508 63.9453C129.757 64.051 129.849 64.1421 130.009 64.3573C130.228 65.1763 130.175 69.7271 129.803 70.4403C128.262 71.3349 124.204 72.0419 122.29 72.5159L108.726 75.868C108.601 75.85 108.455 75.7765 108.336 75.7315C107.767 74.8226 108.11 70.5176 108.133 69.3037ZM128.603 65.1081C122.054 66.68 115.515 68.2938 108.986 69.9497C108.973 71.2493 108.678 73.5532 109.129 74.7276L109.465 74.7759C116.054 73.154 122.632 71.4897 129.199 69.7831C129.23 68.3848 129.487 66.4728 129.091 65.1499C128.872 65.0715 128.847 65.0652 128.603 65.1081Z" fill="#080717"/>
<path d="M99.4488 64.8528C100.242 64.7032 101.04 64.4388 101.821 64.2255L102.01 64.3963C102.263 67.6268 102.033 71.0661 102.028 74.3178L102.032 94.0374L102.082 161.005C101.32 161.154 100.562 161.334 99.8037 161.5L99.6394 161.504C99.3811 161.219 99.4148 160.99 99.401 160.607C99.2901 157.509 99.4465 154.333 99.4498 151.227L99.4605 130.237L99.4488 64.8528Z" fill="#FEFEFE"/>
<path d="M66.0444 72.8528L98.3023 65.1128C98.6745 65.6358 98.4916 99.1287 98.5 103.5C88 106 76.7958 108.407 66 111L66.0366 102.67L66.0444 72.8528ZM91.939 73.2761C87.3408 74.311 82.7569 75.4078 78.1887 76.5666C76.0177 77.0985 73.5783 77.4649 71.494 78.237C71.4453 79.8736 71.0454 83.0406 71.664 84.472C71.9457 84.7038 72.0394 84.7241 72.4048 84.6665C72.5283 84.6471 72.5677 84.6321 72.6769 84.5997C77.1994 83.4418 81.735 82.3348 86.2829 81.2789C88.4846 80.7505 91.0608 80.3591 93.1388 79.4817C93.169 78.2522 93.5307 74.059 92.9391 73.2675C92.5554 73.1643 92.3246 73.1924 91.939 73.2761Z" fill="#FEFEFE"/>
<path d="M108.986 69.9497C115.514 68.2938 122.053 66.68 128.603 65.1081C128.847 65.0652 128.872 65.0715 129.091 65.1499C129.486 66.4728 129.23 68.3848 129.199 69.7831C122.632 71.4897 116.053 73.154 109.465 74.7759L109.129 74.7276C108.678 73.5532 108.972 71.2493 108.986 69.9497Z" fill="#66D9C8"/>
<path d="M62.3914 73.7441L64.8685 73.1333L65.1113 73.3179L65.0953 170.292L62.58 170.842L62.3363 170.663C62.1678 161.87 62.3855 153.041 62.3698 144.244L62.3914 73.7441Z" fill="#FEFEFE"/>
<path d="M71.4933 78.237C73.5776 77.4649 76.0169 77.0985 78.188 76.5666C82.7562 75.4078 87.3401 74.311 91.9383 73.2761C92.3238 73.1924 92.5547 73.1643 92.9384 73.2675C93.5299 74.059 93.1683 78.2522 93.138 79.4817C91.0601 80.3591 88.4838 80.7505 86.2821 81.2789C81.7343 82.3348 77.1987 83.4418 72.6762 84.5997C72.5669 84.6321 72.5276 84.6471 72.4041 84.6665C72.0387 84.7241 71.9449 84.7038 71.6632 84.472C71.0447 83.0406 71.4445 79.8736 71.4933 78.237ZM92.1084 74.1656C85.4955 75.5452 78.953 77.3893 72.3659 78.9073C72.3607 79.8006 72.1472 83.1344 72.5133 83.7177C77.1797 82.356 81.9848 81.355 86.7115 80.2057C88.5593 79.7565 90.4777 79.3793 92.2826 78.7871C92.2896 77.9282 92.5512 74.7164 92.1084 74.1656Z" fill="#080717"/>
<path d="M72.3659 78.9074C78.953 77.3893 85.4956 75.5453 92.1084 74.1656C92.5512 74.7165 92.2896 77.9283 92.2826 78.7872C90.4777 79.3793 88.5593 79.7565 86.7115 80.2058C81.9848 81.355 77.1797 82.3561 72.5133 83.7177C72.1472 83.1344 72.3607 79.8006 72.3659 78.9074Z" fill="#66D9C8"/>
<path d="M183.038 104.5L183 85C193.349 86.6684 203.724 88.2662 214.124 89.7933C217.454 90.2849 220.78 90.7907 224.102 91.3109C225.478 91.5299 227.283 91.691 228.536 92.126C228.733 92.1946 228.759 92.227 228.821 92.3729C229.151 93.14 228.925 95.8652 228.921 96.797L228.923 105.534L228.926 130.536C228.928 135.071 229.008 139.612 228.917 144.146C228.91 144.461 228.917 145.107 228.917 145.413C228.917 145.413 224.844 144.936 223.699 144.761C221.351 144.406 218.842 144.371 216.5 144L196 140.5C191.844 139.832 187.101 138.799 183 138V126L185 125V105.5L183.038 104.5ZM221.272 114.677C220.927 114.392 220.444 114.118 219.872 114.065C219.343 114.017 218.834 114.177 218.431 114.389C217.677 114.787 217.276 115.415 217.209 116.035C217.14 116.678 217.324 117.536 217.985 118.038C218.459 118.398 219.267 118.665 220 118.675C220.028 118.675 220.056 118.674 220.082 118.673C220.396 118.771 220.683 118.831 221.031 118.854C221.556 118.888 222.059 118.809 222.457 118.575C223.123 118.185 223.391 117.523 223.417 116.955C223.447 116.292 223.153 115.494 222.41 115.017C222.08 114.805 221.74 114.672 221.272 114.677Z" fill="#0AB69C"/>
<path d="M138.5 95C139.279 94.5749 140 94.5 140.801 94.5299L141.027 94.5574C141.079 94.6242 141.16 94.6764 141.182 94.7581C141.393 95.543 141.237 101.067 141.24 102.199C141.295 111.447 141.283 120.694 141.205 129.941L141.264 205.383L138.857 205.996L138.49 205.991C138.257 205.695 138.283 205.289 138.273 204.926C138.173 201.187 138.289 197.412 138.291 193.668L138.29 170.583L138.5 95Z" fill="#FEFEFE"/>
<path d="M108.122 113.304C110.071 112.454 112.543 112.063 114.613 111.539L128.748 108.002C129.203 107.915 129.44 107.903 129.824 108.161C130.206 109.166 130.129 112.955 129.813 114.062C129.497 114.433 128.992 114.575 128.539 114.72C126.188 115.469 123.69 115.951 121.291 116.537L109.17 119.577C108.72 119.617 108.674 119.678 108.302 119.391C107.728 117.965 108.088 114.915 108.122 113.304ZM128.917 108.88C122.313 110.59 115.657 112.486 108.993 113.925C108.987 115.387 108.848 117.012 109.057 118.452L109.274 118.59C115.918 117.085 122.52 115.293 129.13 113.639C129.13 112.738 129.326 109.476 128.917 108.88Z" fill="#080717"/>
<path d="M108.993 113.925C115.657 112.486 122.313 110.59 128.917 108.88C129.326 109.476 129.13 112.738 129.13 113.639C122.52 115.293 115.918 117.085 109.274 118.59L109.058 118.452C108.848 117.012 108.987 115.388 108.993 113.925Z" fill="#66D9C8"/>
<path d="M65.9979 111.843C76.7442 109.224 90 106.5 96.5 105L98.5 104.5C98.5 105.5 98.5094 118.795 98.5113 120.252L98.5673 161.835L66.5367 169.818L66.1579 169.837C66.108 169.747 66.0377 169.665 66.0082 169.567C65.8068 168.897 65.992 157.625 65.9979 156.01V111.843ZM92.0693 117.034C87.3122 118.268 82.548 119.475 77.7775 120.656C75.7481 121.165 73.443 121.528 71.4961 122.267C71.4429 123.875 71.0252 127.045 71.6667 128.438C72.0154 128.677 72.1279 128.679 72.5461 128.596C72.5941 128.586 72.6407 128.57 72.6881 128.558L87.2622 124.973C89.1668 124.492 91.3352 124.158 93.1389 123.422C93.2132 121.896 93.6572 118.467 92.9918 117.191C92.6095 116.973 92.4977 117.011 92.0693 117.034Z" fill="#FEFEFE"/>
<path d="M71.4961 122.267C73.4431 121.528 75.7481 121.165 77.7776 120.656C82.5481 119.475 87.3122 118.268 92.0693 117.034C92.4978 117.011 92.6095 116.973 92.9918 117.191C93.6572 118.467 93.2133 121.896 93.139 123.422C91.3352 124.158 89.1668 124.492 87.2623 124.973L72.6881 128.558C72.6408 128.57 72.5942 128.586 72.5461 128.596C72.128 128.679 72.0155 128.677 71.6667 128.438C71.0253 127.045 71.4429 123.875 71.4961 122.267ZM91.8975 118.06C85.432 119.711 78.9077 121.577 72.3729 122.919C72.3581 124.408 72.2606 125.966 72.4144 127.446L72.6035 127.619L72.7092 127.613C79.2427 125.966 85.786 124.356 92.3381 122.784C92.3445 121.813 92.6325 118.679 92.1 118.049L91.8975 118.06Z" fill="#080717"/>
<path d="M72.3727 122.919C78.9075 121.577 85.4318 119.711 91.8973 118.06L92.0998 118.048C92.6323 118.679 92.3442 121.813 92.3379 122.784C85.7857 124.356 79.2424 125.966 72.709 127.613L72.6033 127.619L72.4141 127.446C72.2604 125.966 72.3579 124.408 72.3727 122.919Z" fill="#66D9C8"/>
<path d="M219.643 121.926C219.61 121.927 219.575 121.93 219.54 121.929C218.614 121.909 217.594 121.394 216.997 120.697C216.162 119.728 215.93 118.068 216.017 116.825C216.101 115.626 216.608 114.413 217.559 113.644C218.068 113.233 218.71 112.923 219.378 113.017C220.1 113.118 220.709 113.648 221.145 114.2C222.113 115.261 222.563 116.581 222.505 118.01C222.458 119.192 222.033 120.37 221.136 121.179C220.688 121.582 220.208 121.752 219.643 121.926ZM218.93 114.116C218.159 114.393 217.676 114.742 217.311 115.493C216.823 116.494 216.844 117.771 217.231 118.804C217.496 119.51 217.995 120.268 218.701 120.601C218.956 120.722 219.244 120.773 219.521 120.824C220.414 120.367 220.96 119.912 221.281 118.914C221.616 117.864 221.548 116.585 221.014 115.614C220.658 114.966 220.17 114.43 219.441 114.224C219.273 114.177 219.101 114.147 218.93 114.116Z" fill="#080717"/>
<path d="M219.521 120.824C219.245 120.773 218.956 120.722 218.701 120.601C217.995 120.268 217.496 119.51 217.231 118.804C216.845 117.771 216.823 116.494 217.311 115.493C217.677 114.743 218.159 114.394 218.93 114.116C219.102 114.147 219.273 114.177 219.441 114.224C220.17 114.43 220.658 114.966 221.014 115.614C221.548 116.585 221.616 117.864 221.281 118.914C220.96 119.912 220.414 120.367 219.521 120.824Z" fill="#FEFEFE"/>
<path d="M102.974 161.749C105.696 161.09 108.395 160.309 111.113 159.629C119.029 157.687 128.933 154.698 136.825 152.662L137.211 152.602L137.397 152.775C137.521 154.862 137.217 158.691 137.211 160.785V172.219L137 206L103.608 214.45C103.43 214.483 103.255 214.476 103.075 214.478C102.797 213.976 102.977 166.232 102.974 161.749ZM128.801 161.689C126.137 162.38 108.819 166.512 108.281 167.173C107.79 168.799 107.872 171.434 108.116 173.102C108.334 173.359 108.348 173.421 108.7 173.457C108.917 173.479 109.103 173.415 109.31 173.359C111.397 172.837 129.49 168.448 129.861 167.868C130.238 167.276 130.192 162.802 129.971 161.977C129.753 161.727 129.745 161.669 129.402 161.634C129.196 161.613 129.004 161.654 128.801 161.689Z" fill="#FEFEFE"/>
<path d="M182.001 141C184.501 140.5 184.501 140.5 187.197 140C190.001 140.5 210.001 144 218.501 145C218.501 145 218.507 152.17 218.501 154.264V185.5L187 193.5L182 194.5C182 194.5 182.003 145.482 182.001 141ZM202.001 144C199.336 144.692 187.9 146.91 187.362 147.57C186.871 149.196 186.953 151.832 187.197 153.499C187.415 153.756 187.429 153.818 187.781 153.854C187.998 153.876 188.184 153.813 188.391 153.756C190.478 153.235 208.571 148.846 208.942 148.265C209.32 147.674 209.501 146 209.501 145C209.501 144.5 209.002 142.53 208.501 142.5C207.418 142.436 205.115 143.192 202.001 144Z" fill="#FEFEFE"/>
<path d="M109.31 173.359C109.103 173.415 108.917 173.479 108.7 173.457C108.348 173.421 108.334 173.359 108.116 173.102C107.872 171.434 107.79 168.799 108.281 167.173C108.819 166.513 126.137 162.38 128.801 161.689C129.004 161.654 129.196 161.613 129.402 161.634C129.745 161.669 129.754 161.727 129.972 161.977C130.193 162.802 130.238 167.276 129.861 167.868C129.49 168.448 111.397 172.837 109.31 173.359ZM128.698 162.703C122.122 164.414 115.494 165.951 108.944 167.759C108.921 169.023 108.631 171.195 109.074 172.341C109.219 172.357 109.315 172.379 109.456 172.336C116.021 170.699 122.593 168.787 129.207 167.381C129.23 166.077 129.506 163.97 129.096 162.762C128.957 162.727 128.842 162.683 128.698 162.703Z" fill="#080717"/>
<path d="M99.4446 162.577L101.953 162.001C102.256 162.438 102.028 209.208 102.017 214.833L99.6359 215.441C99.5009 215.276 99.4554 215.111 99.4463 214.901C99.1964 209.201 99.4526 203.394 99.4542 197.683L99.4446 162.577Z" fill="#FEFEFE"/>
<path d="M108.944 167.759C115.494 165.951 122.122 164.414 128.698 162.703C128.842 162.683 128.957 162.727 129.096 162.762C129.506 163.97 129.23 166.077 129.207 167.381C122.594 168.787 116.021 170.699 109.456 172.336C109.315 172.379 109.219 172.357 109.075 172.341C108.632 171.195 108.921 169.023 108.944 167.759Z" fill="#66D9C8"/>
<path d="M142 151.5C144.721 150.84 148.475 149.707 151.194 149.027C159.11 147.085 173.108 143.037 181 141C181 141 181.007 148.406 181 150.5V162.5V195L144.5 204C144.323 204.033 142.68 204.498 142.5 204.5C142.222 203.998 142.003 155.982 142 151.5ZM168.882 151.087C166.217 151.778 148.9 155.91 148.362 156.57C147.87 158.196 147.952 160.832 148.197 162.499C148.414 162.756 148.428 162.818 148.781 162.854C148.998 162.876 149.183 162.813 149.391 162.756C151.478 162.235 169.571 157.846 169.941 157.266C170.319 156.674 170.273 152.199 170.052 151.375C169.834 151.125 169.826 151.067 169.483 151.032C169.276 151.011 169.085 151.052 168.882 151.087Z" fill="#FEFEFE"/>
<path d="M149.024 157.156C155.574 155.349 162.202 153.812 168.778 152.1C168.922 152.081 169.037 152.125 169.176 152.159C169.586 153.368 169.31 155.475 169.287 156.779C162.674 158.184 156.102 160.096 149.536 161.733C149.395 161.776 149.299 161.755 149.155 161.739C148.712 160.593 149.001 158.421 149.024 157.156Z" fill="#66D9C8"/>
<path d="M188.114 148.061C194.664 146.253 201.292 144.716 207.868 143.005C208.012 142.985 208.127 143.029 208.266 143.064C208.676 144.272 208.4 146.379 208.377 147.683C201.763 149.089 195.191 151.001 188.626 152.638C188.485 152.681 188.389 152.659 188.245 152.643C187.802 151.497 188.091 149.325 188.114 148.061Z" fill="#66D9C8"/>
<path d="M66.0498 170.972C76.6633 168.249 87.2936 165.592 97.9398 162.999L98.3441 162.99C98.5762 163.317 98.5649 163.655 98.5776 164.052C98.6268 165.623 98.5241 167.206 98.5148 168.779L98.522 178.917V215.719C87.9327 218.603 77.2082 221.132 66.5369 223.707L66.2177 223.76C65.9402 223.408 65.9514 223.041 65.9427 222.601C65.8464 217.747 66.028 212.845 66.0271 207.986L66.0498 170.972ZM92.7051 170.747L78.9466 174.248C76.765 174.804 74.4543 175.243 72.3224 175.942C72.0273 176.039 71.6833 176.111 71.5272 176.4C71.2525 176.909 71.1541 181.517 71.3884 182.163C71.4998 182.47 71.6223 182.49 71.8966 182.636C75.8915 181.674 79.8541 180.578 83.8405 179.58C86.9315 178.806 90.1745 178.146 93.1949 177.153C93.2423 175.898 93.5917 171.848 93.0489 170.935L92.7051 170.747Z" fill="#FEFEFE"/>
<path d="M71.8966 182.636C71.6224 182.49 71.4998 182.47 71.3885 182.163C71.1541 181.517 71.2525 176.909 71.5272 176.4C71.6833 176.111 72.0274 176.039 72.3225 175.942C74.4543 175.243 76.7651 174.804 78.9466 174.248L92.7051 170.747L93.049 170.934C93.5918 171.848 93.2423 175.897 93.195 177.153C90.1746 178.146 86.9315 178.806 83.8406 179.58C79.8541 180.578 75.8915 181.674 71.8966 182.636ZM91.9411 171.897C85.3926 173.612 78.8339 175.287 72.265 176.921C72.2561 178.353 72.1331 179.913 72.3227 181.328C72.4368 181.418 72.4699 181.479 72.619 181.489C79.1693 179.8 85.795 178.257 92.3015 176.415C92.3097 175.509 92.6097 172.489 92.0817 171.905L91.9411 171.897Z" fill="#080717"/>
<path d="M62.3606 171.893L64.8321 171.325C64.9592 171.339 64.9978 171.419 65.0869 171.506C65.2343 173.505 65.1115 175.568 65.1075 177.576L65.1042 188.621L65.0963 224.123L63.067 224.658C62.8371 224.688 62.7178 224.68 62.4999 224.6C62.332 224.206 62.3264 223.803 62.3135 223.38C62.2676 221.877 62.3705 220.358 62.3775 218.853L62.3848 207.861L62.3606 171.893Z" fill="#FEFEFE"/>
<path d="M72.2647 176.921C78.8336 175.287 85.3923 173.612 91.9408 171.897L92.0814 171.905C92.6094 172.489 92.3094 175.509 92.3012 176.415C85.7947 178.257 79.1689 179.8 72.6186 181.489C72.4696 181.479 72.4365 181.418 72.3224 181.328C72.1328 179.913 72.2558 178.353 72.2647 176.921Z" fill="#66D9C8"/>
<path d="M175 46C175 46.8 175 72.3333 175 85" stroke="black"/>
<path d="M175 138C175 139.21 175 177.838 175 197" stroke="black"/>
<path d="M215 36C215 37.1077 215 72.4615 215 90" stroke="black"/>
<path d="M215 144C215 145.108 215 169.462 215 187" stroke="black"/>
<path d="M142 125.403V108.347L159.205 115.709L159.241 133.603C157.643 132.964 156.078 132.125 154.5 131.424C149.812 129.335 146.629 127.616 142 125.403Z" fill="#66D9C8"/>
<path d="M142 104.286C148.295 101.614 153.312 99.922 159.599 97.2222L159.751 97.273C160.011 98.7097 159.798 101.043 159.797 102.588L159.796 115.184C158.122 114.573 156.491 113.775 154.853 113.069L146.684 109.613C144.628 108.755 144.042 108.425 142 107.535V104.286Z" fill="#088F7A"/>
<path d="M160.552 114.831L160.517 97.1316C165.615 99.1334 170.725 101.105 175.847 103.048C178.344 104.011 180.806 105.131 183.348 105.967C181.24 106.926 179.004 107.697 176.843 108.534L160.552 114.831Z" fill="#088F7A"/>
<path d="M159.913 115.841C163.505 114.556 167.045 113.085 170.606 111.712C174.971 110.071 179.324 108.399 183.666 106.698L183.835 106.707C184.111 107.1 183.958 122.19 183.958 124.031C181.159 124.926 178.414 126.24 175.688 127.349C170.555 129.433 165.395 131.45 160.209 133.399L160.137 133.424L159.966 133.307C159.746 131.51 159.927 129.489 159.925 127.663L159.913 115.841Z" fill="#BEF6EE"/>
<rect x="181.255" y="138.12" width="50.0277" height="1.37498" rx="0.687489" transform="rotate(9.1072 181.255 138.12)" fill="black"/>
</svg>
