<svg width="700" height="130" viewBox="0 0 700 130" fill="none" xmlns="http://www.w3.org/2000/svg">
<rect width="700" height="130" rx="20" fill="#0AB69C"/>
<path d="M220.785 44.8691H213.345L211.508 44.1084C209.467 43.4652 207.902 42.488 206.813 41.1768C205.725 39.8656 205.181 38.2142 205.181 36.2227C205.181 34.4414 205.576 32.9385 206.368 31.7139C207.16 30.4893 208.285 29.5615 209.745 28.9307C211.217 28.2998 212.955 27.9844 214.959 27.9844H224.032V55H219.356V31.6953H214.959C213.227 31.6953 211.941 32.1159 211.1 32.957C210.258 33.7982 209.838 34.9609 209.838 36.4453C209.838 37.4596 210.023 38.3317 210.395 39.0615C210.778 39.779 211.341 40.3356 212.083 40.7314C212.838 41.1149 213.771 41.3066 214.885 41.3066H220.785V44.8691ZM215.107 42.791L208.836 55H203.826L210.172 42.791H215.107ZM245.129 34.9238V55H240.657V34.9238H245.129ZM243.236 43.8115V47.3555C242.692 47.5905 242.08 47.807 241.399 48.0049C240.731 48.1904 240.026 48.3451 239.284 48.4688C238.542 48.5801 237.794 48.6357 237.039 48.6357C235.27 48.6357 233.743 48.3636 232.456 47.8193C231.182 47.2751 230.199 46.4401 229.506 45.3145C228.826 44.1764 228.485 42.7354 228.485 40.9912V34.9053H232.938V40.9912C232.938 41.9932 233.087 42.791 233.384 43.3848C233.693 43.9785 234.151 44.4053 234.757 44.665C235.363 44.9248 236.124 45.0547 237.039 45.0547C237.806 45.0547 238.53 45.0052 239.21 44.9062C239.89 44.7949 240.564 44.6465 241.232 44.4609C241.9 44.2754 242.568 44.0589 243.236 43.8115ZM258.748 55.3711C257.264 55.3711 255.922 55.1299 254.722 54.6475C253.534 54.1527 252.52 53.4661 251.679 52.5879C250.85 51.7096 250.213 50.6768 249.768 49.4893C249.322 48.3018 249.1 47.0215 249.1 45.6484V44.9062C249.1 43.3353 249.328 41.9128 249.786 40.6387C250.244 39.3646 250.881 38.276 251.697 37.373C252.514 36.4577 253.479 35.7588 254.592 35.2764C255.705 34.7939 256.911 34.5527 258.21 34.5527C259.645 34.5527 260.9 34.7939 261.977 35.2764C263.053 35.7588 263.943 36.4391 264.648 37.3174C265.366 38.1833 265.898 39.2161 266.244 40.416C266.603 41.6159 266.782 42.9395 266.782 44.3867V46.2979H251.271V43.0879H262.366V42.7354C262.341 41.9313 262.181 41.1768 261.884 40.4717C261.599 39.7666 261.16 39.1976 260.566 38.7646C259.973 38.3317 259.181 38.1152 258.191 38.1152C257.449 38.1152 256.787 38.276 256.206 38.5977C255.637 38.9069 255.161 39.3584 254.777 39.9521C254.394 40.5459 254.097 41.2633 253.887 42.1045C253.689 42.9333 253.59 43.8672 253.59 44.9062V45.6484C253.59 46.5267 253.707 47.3431 253.942 48.0977C254.19 48.8398 254.549 49.4893 255.019 50.0459C255.489 50.6025 256.058 51.0417 256.726 51.3633C257.394 51.6725 258.154 51.8271 259.008 51.8271C260.084 51.8271 261.043 51.6107 261.884 51.1777C262.725 50.7448 263.455 50.1325 264.073 49.3408L266.43 51.623C265.997 52.2539 265.434 52.86 264.741 53.4414C264.049 54.0104 263.201 54.4743 262.199 54.833C261.21 55.1917 260.059 55.3711 258.748 55.3711ZM274.891 48.4688L282.776 34.9238H287.248V55H282.776V41.4365L274.891 55H270.419V34.9238H274.891V48.4688ZM281.589 27.2051H284.91C284.91 28.2318 284.663 29.141 284.168 29.9326C283.686 30.7119 282.993 31.3242 282.09 31.7695C281.199 32.2148 280.135 32.4375 278.898 32.4375C277.031 32.4375 275.552 31.9551 274.464 30.9902C273.388 30.013 272.85 28.7513 272.85 27.2051H276.171C276.171 27.8978 276.375 28.5101 276.783 29.042C277.204 29.5615 277.909 29.8213 278.898 29.8213C279.876 29.8213 280.568 29.5615 280.977 29.042C281.385 28.5101 281.589 27.8978 281.589 27.2051ZM296.804 34.9238V55H292.332V34.9238H296.804ZM309.903 34.9238L300.867 47.0029H295.765L295.171 42.958H298.9L304.318 34.9238H309.903ZM304.671 55L298.622 46.2422L302.147 43.7002L310.553 55H304.671ZM324.302 50.9736V41.3994C324.302 40.682 324.172 40.0635 323.912 39.5439C323.652 39.0244 323.257 38.6224 322.725 38.3379C322.205 38.0534 321.549 37.9111 320.758 37.9111C320.028 37.9111 319.397 38.0348 318.865 38.2822C318.333 38.5296 317.919 38.8636 317.622 39.2842C317.325 39.7048 317.177 40.181 317.177 40.7129H312.724C312.724 39.9212 312.915 39.1543 313.299 38.4121C313.682 37.6699 314.239 37.0081 314.969 36.4268C315.699 35.8454 316.571 35.3877 317.585 35.0537C318.599 34.7197 319.737 34.5527 320.999 34.5527C322.508 34.5527 323.844 34.8063 325.007 35.3135C326.182 35.8206 327.104 36.5876 327.771 37.6143C328.452 38.6286 328.792 39.9027 328.792 41.4365V50.3613C328.792 51.2767 328.854 52.0993 328.978 52.8291C329.114 53.5465 329.305 54.1712 329.553 54.7031V55H324.97C324.759 54.5176 324.592 53.9053 324.469 53.1631C324.357 52.4085 324.302 51.6787 324.302 50.9736ZM324.951 42.791L324.988 45.5557H321.778C320.95 45.5557 320.22 45.6361 319.589 45.7969C318.958 45.9453 318.432 46.168 318.012 46.4648C317.591 46.7617 317.276 47.1204 317.065 47.541C316.855 47.9616 316.75 48.4378 316.75 48.9697C316.75 49.5016 316.874 49.9902 317.121 50.4355C317.368 50.8685 317.727 51.2087 318.197 51.4561C318.68 51.7035 319.261 51.8271 319.941 51.8271C320.857 51.8271 321.655 51.6416 322.335 51.2705C323.028 50.887 323.572 50.4232 323.968 49.8789C324.364 49.3223 324.574 48.7965 324.599 48.3018L326.046 50.2871C325.897 50.7943 325.644 51.3385 325.285 51.9199C324.926 52.5013 324.456 53.0579 323.875 53.5898C323.306 54.1094 322.619 54.5361 321.815 54.8701C321.024 55.2041 320.108 55.3711 319.069 55.3711C317.758 55.3711 316.589 55.1113 315.562 54.5918C314.536 54.0599 313.732 53.3486 313.15 52.458C312.569 51.555 312.278 50.5345 312.278 49.3965C312.278 48.3327 312.476 47.3926 312.872 46.5762C313.28 45.7474 313.874 45.0547 314.653 44.498C315.445 43.9414 316.41 43.5208 317.548 43.2363C318.686 42.9395 319.985 42.791 321.444 42.791H324.951ZM356.29 34.9238V38.4863H347.532V55H343.061V34.9238H356.29ZM363.378 38.7832V62.7188H358.906V34.9238H363.025L363.378 38.7832ZM376.459 44.7764V45.166C376.459 46.6257 376.286 47.9801 375.939 49.2295C375.605 50.4665 375.104 51.5488 374.437 52.4766C373.781 53.3919 372.971 54.1032 372.006 54.6104C371.041 55.1175 369.928 55.3711 368.666 55.3711C367.417 55.3711 366.322 55.1423 365.382 54.6846C364.454 54.2145 363.669 53.5527 363.025 52.6992C362.382 51.8457 361.863 50.8438 361.467 49.6934C361.083 48.5306 360.811 47.2565 360.65 45.8711V44.3682C360.811 42.8962 361.083 41.5602 361.467 40.3604C361.863 39.1605 362.382 38.1276 363.025 37.2617C363.669 36.3958 364.454 35.7279 365.382 35.2578C366.31 34.7878 367.392 34.5527 368.629 34.5527C369.891 34.5527 371.01 34.8001 371.987 35.2949C372.965 35.7773 373.787 36.4701 374.455 37.373C375.123 38.2637 375.624 39.3398 375.958 40.6016C376.292 41.8509 376.459 43.2425 376.459 44.7764ZM371.987 45.166V44.7764C371.987 43.8486 371.901 42.9889 371.728 42.1973C371.554 41.3932 371.282 40.6882 370.911 40.082C370.54 39.4759 370.064 39.0059 369.482 38.6719C368.913 38.3255 368.227 38.1523 367.423 38.1523C366.631 38.1523 365.951 38.2884 365.382 38.5605C364.813 38.8203 364.337 39.1852 363.953 39.6553C363.57 40.1253 363.273 40.6758 363.062 41.3066C362.852 41.9251 362.704 42.5993 362.617 43.3291V46.9287C362.766 47.8193 363.019 48.6357 363.378 49.3779C363.737 50.1201 364.244 50.7139 364.899 51.1592C365.567 51.5921 366.421 51.8086 367.46 51.8086C368.264 51.8086 368.951 51.6354 369.52 51.2891C370.089 50.9427 370.552 50.4665 370.911 49.8604C371.282 49.2419 371.554 48.5306 371.728 47.7266C371.901 46.9225 371.987 46.069 371.987 45.166ZM384.493 45.1846H389.132L383.436 55H378.815L384.493 45.1846ZM387.759 34.9238H396.368V55H391.915V38.4492H387.759C386.918 38.4492 386.225 38.5977 385.681 38.8945C385.136 39.179 384.734 39.5563 384.475 40.0264C384.215 40.484 384.085 40.9541 384.085 41.4365C384.085 41.9189 384.202 42.3828 384.438 42.8281C384.685 43.2734 385.062 43.6383 385.569 43.9229C386.089 44.2074 386.738 44.3496 387.518 44.3496H393.418V47.6152H387.518C386.281 47.6152 385.174 47.4606 384.196 47.1514C383.219 46.8298 382.39 46.3906 381.71 45.834C381.03 45.265 380.51 44.6032 380.151 43.8486C379.793 43.0817 379.613 42.2467 379.613 41.3438C379.613 40.416 379.799 39.5625 380.17 38.7832C380.541 38.0039 381.073 37.3236 381.766 36.7422C382.471 36.1608 383.324 35.7155 384.326 35.4062C385.34 35.0846 386.485 34.9238 387.759 34.9238ZM409.653 45.4072H405.794V43.1436H408.911C409.703 43.1436 410.334 43.0384 410.804 42.8281C411.286 42.6178 411.626 42.3271 411.824 41.9561C412.035 41.5726 412.14 41.1273 412.14 40.6201C412.14 40.1748 412.035 39.7542 411.824 39.3584C411.626 38.9502 411.286 38.6162 410.804 38.3564C410.321 38.0967 409.666 37.9668 408.837 37.9668C408.157 37.9668 407.544 38.0781 407 38.3008C406.468 38.5234 406.048 38.8327 405.738 39.2285C405.429 39.6243 405.274 40.082 405.274 40.6016H400.803C400.803 39.3522 401.155 38.276 401.86 37.373C402.578 36.4701 403.536 35.7773 404.736 35.2949C405.936 34.8125 407.254 34.5713 408.688 34.5713C409.913 34.5713 411.014 34.7012 411.991 34.9609C412.968 35.2083 413.797 35.5794 414.478 36.0742C415.17 36.5566 415.696 37.1628 416.055 37.8926C416.426 38.61 416.611 39.445 416.611 40.3975C416.611 41.0778 416.451 41.721 416.129 42.3271C415.807 42.9333 415.343 43.4714 414.737 43.9414C414.131 44.3991 413.395 44.7578 412.529 45.0176C411.676 45.2773 410.717 45.4072 409.653 45.4072ZM405.794 44.1084H409.653C410.841 44.1084 411.892 44.2259 412.808 44.4609C413.723 44.6836 414.49 45.0176 415.108 45.4629C415.727 45.9082 416.191 46.4587 416.5 47.1143C416.822 47.7575 416.982 48.4997 416.982 49.3408C416.982 50.2809 416.778 51.1283 416.37 51.8828C415.974 52.625 415.405 53.2559 414.663 53.7754C413.933 54.2949 413.061 54.6908 412.047 54.9629C411.033 55.235 409.913 55.3711 408.688 55.3711C407.353 55.3711 406.054 55.1484 404.792 54.7031C403.543 54.2578 402.51 53.5713 401.693 52.6436C400.889 51.7035 400.487 50.5098 400.487 49.0625H404.959C404.959 49.5697 405.114 50.0459 405.423 50.4912C405.732 50.9365 406.177 51.3014 406.759 51.5859C407.34 51.8581 408.039 51.9941 408.855 51.9941C409.697 51.9941 410.383 51.8643 410.915 51.6045C411.447 51.3324 411.843 50.9798 412.103 50.5469C412.362 50.1016 412.492 49.6315 412.492 49.1367C412.492 48.4688 412.362 47.9307 412.103 47.5225C411.843 47.1143 411.447 46.8174 410.915 46.6318C410.383 46.4339 409.715 46.335 408.911 46.335H405.794V44.1084ZM434.498 43.3105V46.8359H424.107V43.3105H434.498ZM425.406 34.9238V55H420.935V34.9238H425.406ZM437.727 34.9238V55H433.255V34.9238H437.727ZM453.813 50.9736V41.3994C453.813 40.682 453.684 40.0635 453.424 39.5439C453.164 39.0244 452.768 38.6224 452.236 38.3379C451.717 38.0534 451.061 37.9111 450.27 37.9111C449.54 37.9111 448.909 38.0348 448.377 38.2822C447.845 38.5296 447.431 38.8636 447.134 39.2842C446.837 39.7048 446.688 40.181 446.688 40.7129H442.235C442.235 39.9212 442.427 39.1543 442.811 38.4121C443.194 37.6699 443.751 37.0081 444.48 36.4268C445.21 35.8454 446.082 35.3877 447.097 35.0537C448.111 34.7197 449.249 34.5527 450.511 34.5527C452.02 34.5527 453.356 34.8063 454.519 35.3135C455.694 35.8206 456.615 36.5876 457.283 37.6143C457.964 38.6286 458.304 39.9027 458.304 41.4365V50.3613C458.304 51.2767 458.366 52.0993 458.489 52.8291C458.625 53.5465 458.817 54.1712 459.064 54.7031V55H454.481C454.271 54.5176 454.104 53.9053 453.98 53.1631C453.869 52.4085 453.813 51.6787 453.813 50.9736ZM454.463 42.791L454.5 45.5557H451.29C450.461 45.5557 449.731 45.6361 449.101 45.7969C448.47 45.9453 447.944 46.168 447.523 46.4648C447.103 46.7617 446.787 47.1204 446.577 47.541C446.367 47.9616 446.262 48.4378 446.262 48.9697C446.262 49.5016 446.385 49.9902 446.633 50.4355C446.88 50.8685 447.239 51.2087 447.709 51.4561C448.191 51.7035 448.773 51.8271 449.453 51.8271C450.368 51.8271 451.166 51.6416 451.847 51.2705C452.539 50.887 453.084 50.4232 453.479 49.8789C453.875 49.3223 454.086 48.7965 454.11 48.3018L455.558 50.2871C455.409 50.7943 455.156 51.3385 454.797 51.9199C454.438 52.5013 453.968 53.0579 453.387 53.5898C452.818 54.1094 452.131 54.5361 451.327 54.8701C450.535 55.2041 449.62 55.3711 448.581 55.3711C447.27 55.3711 446.101 55.1113 445.074 54.5918C444.048 54.0599 443.243 53.3486 442.662 52.458C442.081 51.555 441.79 50.5345 441.79 49.3965C441.79 48.3327 441.988 47.3926 442.384 46.5762C442.792 45.7474 443.386 45.0547 444.165 44.498C444.957 43.9414 445.922 43.5208 447.06 43.2363C448.198 42.9395 449.496 42.791 450.956 42.791H454.463ZM467.21 45.1846H471.849L466.152 55H461.532L467.21 45.1846ZM470.476 34.9238H479.085V55H474.632V38.4492H470.476C469.634 38.4492 468.942 38.5977 468.397 38.8945C467.853 39.179 467.451 39.5563 467.191 40.0264C466.932 40.484 466.802 40.9541 466.802 41.4365C466.802 41.9189 466.919 42.3828 467.154 42.8281C467.402 43.2734 467.779 43.6383 468.286 43.9229C468.806 44.2074 469.455 44.3496 470.234 44.3496H476.135V47.6152H470.234C468.997 47.6152 467.89 47.4606 466.913 47.1514C465.936 46.8298 465.107 46.3906 464.427 45.834C463.746 45.265 463.227 44.6032 462.868 43.8486C462.509 43.0817 462.33 42.2467 462.33 41.3438C462.33 40.416 462.516 39.5625 462.887 38.7832C463.258 38.0039 463.79 37.3236 464.482 36.7422C465.188 36.1608 466.041 35.7155 467.043 35.4062C468.057 35.0846 469.201 34.9238 470.476 34.9238ZM495.803 27.9844L485.282 57.3193H481.775L492.314 27.9844H495.803ZM152.096 91.4092H145.676L145.639 88.2549H150.908C151.774 88.2549 152.485 88.1683 153.042 87.9951C153.611 87.8219 154.032 87.5622 154.304 87.2158C154.576 86.8571 154.712 86.4242 154.712 85.917C154.712 85.4964 154.632 85.1315 154.471 84.8223C154.31 84.5007 154.062 84.2409 153.729 84.043C153.407 83.8327 152.999 83.6842 152.504 83.5977C152.021 83.4987 151.459 83.4492 150.815 83.4492H147.16V100H142.688V79.9238H150.815C152.102 79.9238 153.258 80.0352 154.285 80.2578C155.324 80.4805 156.209 80.8206 156.938 81.2783C157.668 81.736 158.225 82.3174 158.608 83.0225C159.004 83.7152 159.202 84.5316 159.202 85.4717C159.202 86.0902 159.066 86.6715 158.794 87.2158C158.534 87.7601 158.145 88.2425 157.625 88.6631C157.105 89.0837 156.468 89.43 155.714 89.7021C154.959 89.9619 154.093 90.1227 153.116 90.1846L152.096 91.4092ZM152.096 100H144.377L146.158 96.4746H152.096C152.887 96.4746 153.543 96.3757 154.062 96.1777C154.582 95.9798 154.965 95.6953 155.213 95.3242C155.473 94.9408 155.603 94.4893 155.603 93.9697C155.603 93.4378 155.479 92.9801 155.231 92.5967C154.984 92.2132 154.601 91.9225 154.081 91.7246C153.574 91.5143 152.912 91.4092 152.096 91.4092H146.993L147.03 88.2549H153.098L154.378 89.4795C155.652 89.5661 156.71 89.8382 157.551 90.2959C158.392 90.7536 159.023 91.3288 159.443 92.0215C159.864 92.7142 160.074 93.4688 160.074 94.2852C160.074 95.2253 159.895 96.054 159.536 96.7715C159.19 97.4889 158.67 98.0889 157.978 98.5713C157.297 99.0413 156.462 99.4001 155.473 99.6475C154.483 99.8825 153.357 100 152.096 100ZM187.108 88.3105V91.8359H176.718V88.3105H187.108ZM178.017 79.9238V100H173.545V79.9238H178.017ZM190.337 79.9238V100H185.865V79.9238H190.337ZM203.956 100.371C202.472 100.371 201.13 100.13 199.93 99.6475C198.742 99.1527 197.728 98.4661 196.887 97.5879C196.058 96.7096 195.421 95.6768 194.976 94.4893C194.53 93.3018 194.308 92.0215 194.308 90.6484V89.9062C194.308 88.3353 194.536 86.9128 194.994 85.6387C195.452 84.3646 196.089 83.276 196.905 82.373C197.722 81.4577 198.687 80.7588 199.8 80.2764C200.913 79.7939 202.119 79.5527 203.418 79.5527C204.853 79.5527 206.108 79.7939 207.185 80.2764C208.261 80.7588 209.151 81.4391 209.856 82.3174C210.574 83.1833 211.106 84.2161 211.452 85.416C211.811 86.6159 211.99 87.9395 211.99 89.3867V91.2979H196.479V88.0879H207.574V87.7354C207.549 86.9313 207.389 86.1768 207.092 85.4717C206.807 84.7666 206.368 84.1976 205.774 83.7646C205.181 83.3317 204.389 83.1152 203.399 83.1152C202.657 83.1152 201.995 83.276 201.414 83.5977C200.845 83.9069 200.369 84.3584 199.985 84.9521C199.602 85.5459 199.305 86.2633 199.095 87.1045C198.897 87.9333 198.798 88.8672 198.798 89.9062V90.6484C198.798 91.5267 198.915 92.3431 199.15 93.0977C199.398 93.8398 199.757 94.4893 200.227 95.0459C200.697 95.6025 201.266 96.0417 201.934 96.3633C202.602 96.6725 203.362 96.8271 204.216 96.8271C205.292 96.8271 206.251 96.6107 207.092 96.1777C207.933 95.7448 208.663 95.1325 209.281 94.3408L211.638 96.623C211.205 97.2539 210.642 97.86 209.949 98.4414C209.257 99.0104 208.409 99.4743 207.407 99.833C206.418 100.192 205.267 100.371 203.956 100.371ZM220.099 93.4688L227.984 79.9238H232.456V100H227.984V86.4365L220.099 100H215.627V79.9238H220.099V93.4688ZM226.797 72.2051H230.118C230.118 73.2318 229.871 74.141 229.376 74.9326C228.894 75.7119 228.201 76.3242 227.298 76.7695C226.407 77.2148 225.343 77.4375 224.106 77.4375C222.239 77.4375 220.76 76.9551 219.672 75.9902C218.596 75.013 218.058 73.7513 218.058 72.2051H221.379C221.379 72.8978 221.583 73.5101 221.991 74.042C222.412 74.5615 223.117 74.8213 224.106 74.8213C225.084 74.8213 225.776 74.5615 226.185 74.042C226.593 73.5101 226.797 72.8978 226.797 72.2051ZM252.477 97.8105L257.932 79.9238H262.719L254.666 103.062C254.48 103.556 254.239 104.094 253.942 104.676C253.646 105.257 253.256 105.808 252.773 106.327C252.303 106.859 251.716 107.286 251.011 107.607C250.306 107.941 249.452 108.108 248.45 108.108C248.054 108.108 247.671 108.071 247.3 107.997C246.941 107.935 246.601 107.867 246.279 107.793L246.261 104.379C246.384 104.391 246.533 104.404 246.706 104.416C246.892 104.428 247.04 104.435 247.151 104.435C247.894 104.435 248.512 104.342 249.007 104.156C249.502 103.983 249.904 103.699 250.213 103.303C250.535 102.907 250.807 102.375 251.029 101.707L252.477 97.8105ZM249.396 79.9238L254.165 94.9531L254.963 99.666L251.864 100.464L244.572 79.9238H249.396ZM271.94 91.8916L263.925 79.9238H269.417L274.093 87.8281H278.008L277.433 91.8916H271.94ZM274.204 91.2422L269.064 100H263.572L270.846 88.7002L274.204 91.2422ZM280.698 79.9238V100H276.245V79.9238H280.698ZM293.074 79.9238L285.059 91.8916H279.548L278.954 87.8281H282.888L287.563 79.9238H293.074ZM287.916 100L282.758 91.2422L286.228 88.7002L293.464 100H287.916ZM304.782 100.371C303.298 100.371 301.956 100.13 300.756 99.6475C299.568 99.1527 298.554 98.4661 297.713 97.5879C296.884 96.7096 296.247 95.6768 295.802 94.4893C295.356 93.3018 295.134 92.0215 295.134 90.6484V89.9062C295.134 88.3353 295.363 86.9128 295.82 85.6387C296.278 84.3646 296.915 83.276 297.731 82.373C298.548 81.4577 299.513 80.7588 300.626 80.2764C301.739 79.7939 302.945 79.5527 304.244 79.5527C305.679 79.5527 306.935 79.7939 308.011 80.2764C309.087 80.7588 309.978 81.4391 310.683 82.3174C311.4 83.1833 311.932 84.2161 312.278 85.416C312.637 86.6159 312.816 87.9395 312.816 89.3867V91.2979H297.305V88.0879H308.4V87.7354C308.376 86.9313 308.215 86.1768 307.918 85.4717C307.633 84.7666 307.194 84.1976 306.601 83.7646C306.007 83.3317 305.215 83.1152 304.226 83.1152C303.483 83.1152 302.822 83.276 302.24 83.5977C301.671 83.9069 301.195 84.3584 300.812 84.9521C300.428 85.5459 300.131 86.2633 299.921 87.1045C299.723 87.9333 299.624 88.8672 299.624 89.9062V90.6484C299.624 91.5267 299.742 92.3431 299.977 93.0977C300.224 93.8398 300.583 94.4893 301.053 95.0459C301.523 95.6025 302.092 96.0417 302.76 96.3633C303.428 96.6725 304.188 96.8271 305.042 96.8271C306.118 96.8271 307.077 96.6107 307.918 96.1777C308.759 95.7448 309.489 95.1325 310.107 94.3408L312.464 96.623C312.031 97.2539 311.468 97.86 310.775 98.4414C310.083 99.0104 309.235 99.4743 308.233 99.833C307.244 100.192 306.093 100.371 304.782 100.371ZM341.892 79.9238V100H337.42V79.9238H341.892ZM339.999 88.8115V92.3555C339.455 92.5905 338.842 92.807 338.162 93.0049C337.494 93.1904 336.789 93.3451 336.047 93.4688C335.305 93.5801 334.556 93.6357 333.802 93.6357C332.033 93.6357 330.505 93.3636 329.219 92.8193C327.945 92.2751 326.961 91.4401 326.269 90.3145C325.588 89.1764 325.248 87.7354 325.248 85.9912V79.9053H329.701V85.9912C329.701 86.9932 329.85 87.791 330.146 88.3848C330.456 88.9785 330.913 89.4053 331.52 89.665C332.126 89.9248 332.886 90.0547 333.802 90.0547C334.569 90.0547 335.292 90.0052 335.973 89.9062C336.653 89.7949 337.327 89.6465 337.995 89.4609C338.663 89.2754 339.331 89.0589 339.999 88.8115ZM355.975 79.9238V100H351.484V79.9238H355.975ZM362.562 79.9238V83.4492H345.009V79.9238H362.562ZM363.99 90.1846V89.7578C363.99 88.3105 364.201 86.9684 364.621 85.7314C365.042 84.4821 365.648 83.3997 366.439 82.4844C367.243 81.5566 368.221 80.8392 369.371 80.332C370.534 79.8125 371.845 79.5527 373.305 79.5527C374.777 79.5527 376.088 79.8125 377.238 80.332C378.401 80.8392 379.384 81.5566 380.188 82.4844C380.993 83.3997 381.605 84.4821 382.025 85.7314C382.446 86.9684 382.656 88.3105 382.656 89.7578V90.1846C382.656 91.6318 382.446 92.974 382.025 94.2109C381.605 95.4479 380.993 96.5303 380.188 97.458C379.384 98.3734 378.407 99.0908 377.257 99.6104C376.106 100.118 374.801 100.371 373.342 100.371C371.87 100.371 370.552 100.118 369.39 99.6104C368.239 99.0908 367.262 98.3734 366.458 97.458C365.654 96.5303 365.042 95.4479 364.621 94.2109C364.201 92.974 363.99 91.6318 363.99 90.1846ZM368.462 89.7578V90.1846C368.462 91.0876 368.555 91.9411 368.74 92.7451C368.926 93.5492 369.216 94.2542 369.612 94.8604C370.008 95.4665 370.515 95.9427 371.134 96.2891C371.752 96.6354 372.488 96.8086 373.342 96.8086C374.171 96.8086 374.888 96.6354 375.494 96.2891C376.113 95.9427 376.62 95.4665 377.016 94.8604C377.411 94.2542 377.702 93.5492 377.888 92.7451C378.086 91.9411 378.185 91.0876 378.185 90.1846V89.7578C378.185 88.8672 378.086 88.026 377.888 87.2344C377.702 86.4303 377.405 85.7191 376.997 85.1006C376.601 84.4821 376.094 83.9997 375.476 83.6533C374.869 83.2946 374.146 83.1152 373.305 83.1152C372.464 83.1152 371.734 83.2946 371.115 83.6533C370.509 83.9997 370.008 84.4821 369.612 85.1006C369.216 85.7191 368.926 86.4303 368.74 87.2344C368.555 88.026 368.462 88.8672 368.462 89.7578ZM395.403 86.6777V90.2402H385.588V86.6777H395.403ZM408.633 79.9238V100H404.143V79.9238H408.633ZM415.22 79.9238V83.4492H397.667V79.9238H415.22ZM416.648 90.1846V89.7578C416.648 88.3105 416.859 86.9684 417.279 85.7314C417.7 84.4821 418.306 83.3997 419.098 82.4844C419.902 81.5566 420.879 80.8392 422.029 80.332C423.192 79.8125 424.503 79.5527 425.963 79.5527C427.435 79.5527 428.746 79.8125 429.896 80.332C431.059 80.8392 432.043 81.5566 432.847 82.4844C433.651 83.3997 434.263 84.4821 434.684 85.7314C435.104 86.9684 435.314 88.3105 435.314 89.7578V90.1846C435.314 91.6318 435.104 92.974 434.684 94.2109C434.263 95.4479 433.651 96.5303 432.847 97.458C432.043 98.3734 431.065 99.0908 429.915 99.6104C428.765 100.118 427.46 100.371 426 100.371C424.528 100.371 423.211 100.118 422.048 99.6104C420.897 99.0908 419.92 98.3734 419.116 97.458C418.312 96.5303 417.7 95.4479 417.279 94.2109C416.859 92.974 416.648 91.6318 416.648 90.1846ZM421.12 89.7578V90.1846C421.12 91.0876 421.213 91.9411 421.398 92.7451C421.584 93.5492 421.875 94.2542 422.271 94.8604C422.666 95.4665 423.174 95.9427 423.792 96.2891C424.41 96.6354 425.146 96.8086 426 96.8086C426.829 96.8086 427.546 96.6354 428.152 96.2891C428.771 95.9427 429.278 95.4665 429.674 94.8604C430.07 94.2542 430.36 93.5492 430.546 92.7451C430.744 91.9411 430.843 91.0876 430.843 90.1846V89.7578C430.843 88.8672 430.744 88.026 430.546 87.2344C430.36 86.4303 430.063 85.7191 429.655 85.1006C429.259 84.4821 428.752 83.9997 428.134 83.6533C427.528 83.2946 426.804 83.1152 425.963 83.1152C425.122 83.1152 424.392 83.2946 423.773 83.6533C423.167 83.9997 422.666 84.4821 422.271 85.1006C421.875 85.7191 421.584 86.4303 421.398 87.2344C421.213 88.026 421.12 88.8672 421.12 89.7578ZM462.015 79.9238V83.4863H452.218V79.9238H462.015ZM465.521 79.9238V100H461.05V79.9238H465.521ZM451.123 79.9238H455.539L455.001 89.8506C454.927 91.3226 454.778 92.6214 454.556 93.7471C454.345 94.8604 454.061 95.819 453.702 96.623C453.343 97.4147 452.904 98.0579 452.385 98.5527C451.865 99.0475 451.259 99.4124 450.566 99.6475C449.874 99.8825 449.094 100 448.229 100H446.837L446.818 96.3262L447.523 96.2705C447.981 96.2334 448.377 96.1159 448.711 95.918C449.045 95.7077 449.329 95.4108 449.564 95.0273C449.812 94.6439 450.01 94.1491 450.158 93.543C450.319 92.9368 450.443 92.2194 450.529 91.3906C450.628 90.5618 450.702 89.597 450.752 88.4961L451.123 79.9238ZM479.122 100.371C477.638 100.371 476.296 100.13 475.096 99.6475C473.908 99.1527 472.894 98.4661 472.053 97.5879C471.224 96.7096 470.587 95.6768 470.142 94.4893C469.696 93.3018 469.474 92.0215 469.474 90.6484V89.9062C469.474 88.3353 469.702 86.9128 470.16 85.6387C470.618 84.3646 471.255 83.276 472.071 82.373C472.888 81.4577 473.853 80.7588 474.966 80.2764C476.079 79.7939 477.285 79.5527 478.584 79.5527C480.019 79.5527 481.274 79.7939 482.351 80.2764C483.427 80.7588 484.317 81.4391 485.022 82.3174C485.74 83.1833 486.272 84.2161 486.618 85.416C486.977 86.6159 487.156 87.9395 487.156 89.3867V91.2979H471.645V88.0879H482.74V87.7354C482.715 86.9313 482.555 86.1768 482.258 85.4717C481.973 84.7666 481.534 84.1976 480.94 83.7646C480.347 83.3317 479.555 83.1152 478.565 83.1152C477.823 83.1152 477.161 83.276 476.58 83.5977C476.011 83.9069 475.535 84.3584 475.151 84.9521C474.768 85.5459 474.471 86.2633 474.261 87.1045C474.063 87.9333 473.964 88.8672 473.964 89.9062V90.6484C473.964 91.5267 474.081 92.3431 474.316 93.0977C474.564 93.8398 474.923 94.4893 475.393 95.0459C475.863 95.6025 476.432 96.0417 477.1 96.3633C477.768 96.6725 478.528 96.8271 479.382 96.8271C480.458 96.8271 481.417 96.6107 482.258 96.1777C483.099 95.7448 483.829 95.1325 484.447 94.3408L486.804 96.623C486.371 97.2539 485.808 97.86 485.115 98.4414C484.423 99.0104 483.575 99.4743 482.573 99.833C481.584 100.192 480.433 100.371 479.122 100.371ZM497.306 91.8916L489.29 79.9238H494.782L499.458 87.8281H503.373L502.798 91.8916H497.306ZM499.569 91.2422L494.43 100H488.938L496.211 88.7002L499.569 91.2422ZM506.063 79.9238V100H501.61V79.9238H506.063ZM518.439 79.9238L510.424 91.8916H504.913L504.319 87.8281H508.253L512.929 79.9238H518.439ZM513.281 100L508.123 91.2422L511.593 88.7002L518.829 100H513.281ZM526.288 93.4688L534.174 79.9238H538.646V100H534.174V86.4365L526.288 100H521.816V79.9238H526.288V93.4688ZM552.691 79.9238V100H548.201V79.9238H552.691ZM559.278 79.9238V83.4492H541.726V79.9238H559.278Z" fill="white"/>
</svg>
