<svg width="700" height="130" viewBox="0 0 700 130" fill="none" xmlns="http://www.w3.org/2000/svg">
<rect width="700" height="130" rx="20" fill="#0AB69C"/>
<path d="M71.5684 67.3691H64.1279L62.291 66.6084C60.25 65.9652 58.6852 64.988 57.5967 63.6768C56.5081 62.3656 55.9639 60.7142 55.9639 58.7227C55.9639 56.9414 56.3597 55.4385 57.1514 54.2139C57.943 52.9893 59.0687 52.0615 60.5283 51.4307C62.0003 50.7998 63.7383 50.4844 65.7422 50.4844H74.8154V77.5H70.1396V54.1953H65.7422C64.0104 54.1953 62.724 54.6159 61.8828 55.457C61.0417 56.2982 60.6211 57.4609 60.6211 58.9453C60.6211 59.9596 60.8066 60.8317 61.1777 61.5615C61.5612 62.279 62.124 62.8356 62.8662 63.2314C63.6208 63.6149 64.5547 63.8066 65.668 63.8066H71.5684V67.3691ZM65.8906 65.291L59.6191 77.5H54.6094L60.9551 65.291H65.8906ZM95.9121 57.4238V77.5H91.4404V57.4238H95.9121ZM94.0195 66.3115V69.8555C93.4753 70.0905 92.863 70.307 92.1826 70.5049C91.5146 70.6904 90.8096 70.8451 90.0674 70.9688C89.3252 71.0801 88.5768 71.1357 87.8223 71.1357C86.0534 71.1357 84.5257 70.8636 83.2393 70.3193C81.9652 69.7751 80.9818 68.9401 80.2891 67.8145C79.6087 66.6764 79.2686 65.2354 79.2686 63.4912V57.4053H83.7217V63.4912C83.7217 64.4932 83.8701 65.291 84.167 65.8848C84.4762 66.4785 84.9339 66.9053 85.54 67.165C86.1462 67.4248 86.9069 67.5547 87.8223 67.5547C88.5892 67.5547 89.3128 67.5052 89.9932 67.4062C90.6735 67.2949 91.3477 67.1465 92.0156 66.9609C92.6836 66.7754 93.3516 66.5589 94.0195 66.3115ZM109.531 77.8711C108.047 77.8711 106.705 77.6299 105.505 77.1475C104.317 76.6527 103.303 75.9661 102.462 75.0879C101.633 74.2096 100.996 73.1768 100.551 71.9893C100.105 70.8018 99.8828 69.5215 99.8828 68.1484V67.4062C99.8828 65.8353 100.112 64.4128 100.569 63.1387C101.027 61.8646 101.664 60.776 102.48 59.873C103.297 58.9577 104.262 58.2588 105.375 57.7764C106.488 57.2939 107.694 57.0527 108.993 57.0527C110.428 57.0527 111.684 57.2939 112.76 57.7764C113.836 58.2588 114.727 58.9391 115.432 59.8174C116.149 60.6833 116.681 61.7161 117.027 62.916C117.386 64.1159 117.565 65.4395 117.565 66.8867V68.7979H102.054V65.5879H113.149V65.2354C113.125 64.4313 112.964 63.6768 112.667 62.9717C112.382 62.2666 111.943 61.6976 111.35 61.2646C110.756 60.8317 109.964 60.6152 108.975 60.6152C108.232 60.6152 107.571 60.776 106.989 61.0977C106.42 61.4069 105.944 61.8584 105.561 62.4521C105.177 63.0459 104.88 63.7633 104.67 64.6045C104.472 65.4333 104.373 66.3672 104.373 67.4062V68.1484C104.373 69.0267 104.491 69.8431 104.726 70.5977C104.973 71.3398 105.332 71.9893 105.802 72.5459C106.272 73.1025 106.841 73.5417 107.509 73.8633C108.177 74.1725 108.938 74.3271 109.791 74.3271C110.867 74.3271 111.826 74.1107 112.667 73.6777C113.508 73.2448 114.238 72.6325 114.856 71.8408L117.213 74.123C116.78 74.7539 116.217 75.36 115.524 75.9414C114.832 76.5104 113.984 76.9743 112.982 77.333C111.993 77.6917 110.842 77.8711 109.531 77.8711ZM125.674 70.9688L133.56 57.4238H138.031V77.5H133.56V63.9365L125.674 77.5H121.202V57.4238H125.674V70.9688ZM132.372 49.7051H135.693C135.693 50.7318 135.446 51.641 134.951 52.4326C134.469 53.2119 133.776 53.8242 132.873 54.2695C131.982 54.7148 130.919 54.9375 129.682 54.9375C127.814 54.9375 126.336 54.4551 125.247 53.4902C124.171 52.513 123.633 51.2513 123.633 49.7051H126.954C126.954 50.3978 127.158 51.0101 127.566 51.542C127.987 52.0615 128.692 52.3213 129.682 52.3213C130.659 52.3213 131.352 52.0615 131.76 51.542C132.168 51.0101 132.372 50.3978 132.372 49.7051ZM147.587 57.4238V77.5H143.115V57.4238H147.587ZM160.687 57.4238L151.65 69.5029H146.548L145.954 65.458H149.684L155.102 57.4238H160.687ZM155.454 77.5L149.405 68.7422L152.931 66.2002L161.336 77.5H155.454ZM175.085 73.4736V63.8994C175.085 63.182 174.955 62.5635 174.695 62.0439C174.436 61.5244 174.04 61.1224 173.508 60.8379C172.988 60.5534 172.333 60.4111 171.541 60.4111C170.811 60.4111 170.18 60.5348 169.648 60.7822C169.117 61.0296 168.702 61.3636 168.405 61.7842C168.108 62.2048 167.96 62.681 167.96 63.2129H163.507C163.507 62.4212 163.699 61.6543 164.082 60.9121C164.465 60.1699 165.022 59.5081 165.752 58.9268C166.482 58.3454 167.354 57.8877 168.368 57.5537C169.382 57.2197 170.521 57.0527 171.782 57.0527C173.291 57.0527 174.627 57.3063 175.79 57.8135C176.965 58.3206 177.887 59.0876 178.555 60.1143C179.235 61.1286 179.575 62.4027 179.575 63.9365V72.8613C179.575 73.7767 179.637 74.5993 179.761 75.3291C179.897 76.0465 180.089 76.6712 180.336 77.2031V77.5H175.753C175.543 77.0176 175.376 76.4053 175.252 75.6631C175.141 74.9085 175.085 74.1787 175.085 73.4736ZM175.734 65.291L175.771 68.0557H172.562C171.733 68.0557 171.003 68.1361 170.372 68.2969C169.741 68.4453 169.215 68.668 168.795 68.9648C168.374 69.2617 168.059 69.6204 167.849 70.041C167.638 70.4616 167.533 70.9378 167.533 71.4697C167.533 72.0016 167.657 72.4902 167.904 72.9355C168.152 73.3685 168.51 73.7087 168.98 73.9561C169.463 74.2035 170.044 74.3271 170.725 74.3271C171.64 74.3271 172.438 74.1416 173.118 73.7705C173.811 73.387 174.355 72.9232 174.751 72.3789C175.147 71.8223 175.357 71.2965 175.382 70.8018L176.829 72.7871C176.681 73.2943 176.427 73.8385 176.068 74.4199C175.71 75.0013 175.24 75.5579 174.658 76.0898C174.089 76.6094 173.403 77.0361 172.599 77.3701C171.807 77.7041 170.892 77.8711 169.853 77.8711C168.541 77.8711 167.372 77.6113 166.346 77.0918C165.319 76.5599 164.515 75.8486 163.934 74.958C163.352 74.055 163.062 73.0345 163.062 71.8965C163.062 70.8327 163.259 69.8926 163.655 69.0762C164.063 68.2474 164.657 67.5547 165.437 66.998C166.228 66.4414 167.193 66.0208 168.331 65.7363C169.469 65.4395 170.768 65.291 172.228 65.291H175.734ZM201.915 74.3086C202.645 74.3086 203.3 74.1663 203.882 73.8818C204.476 73.585 204.952 73.1768 205.311 72.6572C205.682 72.1377 205.886 71.5378 205.923 70.8574H210.135C210.11 72.1562 209.727 73.3376 208.984 74.4014C208.242 75.4652 207.259 76.3125 206.034 76.9434C204.81 77.5618 203.455 77.8711 201.971 77.8711C200.437 77.8711 199.101 77.6113 197.963 77.0918C196.825 76.5599 195.879 75.8301 195.124 74.9023C194.369 73.9746 193.8 72.9046 193.417 71.6924C193.046 70.4801 192.86 69.1813 192.86 67.7959V67.1465C192.86 65.7611 193.046 64.4622 193.417 63.25C193.8 62.0254 194.369 60.9492 195.124 60.0215C195.879 59.0938 196.825 58.3701 197.963 57.8506C199.101 57.3187 200.431 57.0527 201.952 57.0527C203.56 57.0527 204.97 57.3743 206.183 58.0176C207.395 58.6484 208.347 59.5329 209.04 60.6709C209.745 61.7965 210.11 63.1077 210.135 64.6045H205.923C205.886 63.8623 205.7 63.1943 205.366 62.6006C205.045 61.9945 204.587 61.512 203.993 61.1533C203.412 60.7946 202.713 60.6152 201.896 60.6152C200.993 60.6152 200.245 60.8008 199.651 61.1719C199.058 61.5306 198.594 62.0254 198.26 62.6562C197.926 63.2747 197.685 63.9736 197.536 64.7529C197.4 65.5199 197.332 66.3177 197.332 67.1465V67.7959C197.332 68.6247 197.4 69.4287 197.536 70.208C197.672 70.9873 197.907 71.6862 198.241 72.3047C198.588 72.9108 199.058 73.3994 199.651 73.7705C200.245 74.1292 201 74.3086 201.915 74.3086ZM227.057 57.4238V60.9863H217.26V57.4238H227.057ZM230.563 57.4238V77.5H226.092V57.4238H230.563ZM216.165 57.4238H220.581L220.043 67.3506C219.969 68.8226 219.82 70.1214 219.598 71.2471C219.387 72.3604 219.103 73.319 218.744 74.123C218.385 74.9147 217.946 75.5579 217.427 76.0527C216.907 76.5475 216.301 76.9124 215.608 77.1475C214.916 77.3825 214.136 77.5 213.271 77.5H211.879L211.86 73.8262L212.565 73.7705C213.023 73.7334 213.419 73.6159 213.753 73.418C214.087 73.2077 214.371 72.9108 214.606 72.5273C214.854 72.1439 215.052 71.6491 215.2 71.043C215.361 70.4368 215.485 69.7194 215.571 68.8906C215.67 68.0618 215.744 67.097 215.794 65.9961L216.165 57.4238ZM234.46 67.6846V67.2578C234.46 65.8105 234.67 64.4684 235.091 63.2314C235.511 61.9821 236.118 60.8997 236.909 59.9844C237.713 59.0566 238.69 58.3392 239.841 57.832C241.004 57.3125 242.315 57.0527 243.774 57.0527C245.246 57.0527 246.558 57.3125 247.708 57.832C248.871 58.3392 249.854 59.0566 250.658 59.9844C251.462 60.8997 252.075 61.9821 252.495 63.2314C252.916 64.4684 253.126 65.8105 253.126 67.2578V67.6846C253.126 69.1318 252.916 70.474 252.495 71.7109C252.075 72.9479 251.462 74.0303 250.658 74.958C249.854 75.8734 248.877 76.5908 247.727 77.1104C246.576 77.6175 245.271 77.8711 243.812 77.8711C242.34 77.8711 241.022 77.6175 239.859 77.1104C238.709 76.5908 237.732 75.8734 236.928 74.958C236.124 74.0303 235.511 72.9479 235.091 71.7109C234.67 70.474 234.46 69.1318 234.46 67.6846ZM238.932 67.2578V67.6846C238.932 68.5876 239.024 69.4411 239.21 70.2451C239.396 71.0492 239.686 71.7542 240.082 72.3604C240.478 72.9665 240.985 73.4427 241.604 73.7891C242.222 74.1354 242.958 74.3086 243.812 74.3086C244.64 74.3086 245.358 74.1354 245.964 73.7891C246.582 73.4427 247.09 72.9665 247.485 72.3604C247.881 71.7542 248.172 71.0492 248.357 70.2451C248.555 69.4411 248.654 68.5876 248.654 67.6846V67.2578C248.654 66.3672 248.555 65.526 248.357 64.7344C248.172 63.9303 247.875 63.2191 247.467 62.6006C247.071 61.9821 246.564 61.4997 245.945 61.1533C245.339 60.7946 244.616 60.6152 243.774 60.6152C242.933 60.6152 242.203 60.7946 241.585 61.1533C240.979 61.4997 240.478 61.9821 240.082 62.6006C239.686 63.2191 239.396 63.9303 239.21 64.7344C239.024 65.526 238.932 66.3672 238.932 67.2578ZM268.805 72.082L274.779 57.4238H278.657L270.326 77.5H267.283L258.971 57.4238H262.849L268.805 72.082ZM261.698 57.4238V77.5H257.227V57.4238H261.698ZM275.911 77.5V57.4238H280.401V77.5H275.911ZM296.729 73.4736V63.8994C296.729 63.182 296.6 62.5635 296.34 62.0439C296.08 61.5244 295.684 61.1224 295.152 60.8379C294.633 60.5534 293.977 60.4111 293.186 60.4111C292.456 60.4111 291.825 60.5348 291.293 60.7822C290.761 61.0296 290.347 61.3636 290.05 61.7842C289.753 62.2048 289.604 62.681 289.604 63.2129H285.151C285.151 62.4212 285.343 61.6543 285.727 60.9121C286.11 60.1699 286.667 59.5081 287.396 58.9268C288.126 58.3454 288.998 57.8877 290.013 57.5537C291.027 57.2197 292.165 57.0527 293.427 57.0527C294.936 57.0527 296.272 57.3063 297.435 57.8135C298.61 58.3206 299.531 59.0876 300.199 60.1143C300.88 61.1286 301.22 62.4027 301.22 63.9365V72.8613C301.22 73.7767 301.282 74.5993 301.405 75.3291C301.541 76.0465 301.733 76.6712 301.98 77.2031V77.5H297.397C297.187 77.0176 297.02 76.4053 296.896 75.6631C296.785 74.9085 296.729 74.1787 296.729 73.4736ZM297.379 65.291L297.416 68.0557H294.206C293.377 68.0557 292.647 68.1361 292.017 68.2969C291.386 68.4453 290.86 68.668 290.439 68.9648C290.019 69.2617 289.703 69.6204 289.493 70.041C289.283 70.4616 289.178 70.9378 289.178 71.4697C289.178 72.0016 289.301 72.4902 289.549 72.9355C289.796 73.3685 290.155 73.7087 290.625 73.9561C291.107 74.2035 291.689 74.3271 292.369 74.3271C293.285 74.3271 294.082 74.1416 294.763 73.7705C295.455 73.387 296 72.9232 296.396 72.3789C296.791 71.8223 297.002 71.2965 297.026 70.8018L298.474 72.7871C298.325 73.2943 298.072 73.8385 297.713 74.4199C297.354 75.0013 296.884 75.5579 296.303 76.0898C295.734 76.6094 295.047 77.0361 294.243 77.3701C293.451 77.7041 292.536 77.8711 291.497 77.8711C290.186 77.8711 289.017 77.6113 287.99 77.0918C286.964 76.5599 286.16 75.8486 285.578 74.958C284.997 74.055 284.706 73.0345 284.706 71.8965C284.706 70.8327 284.904 69.8926 285.3 69.0762C285.708 68.2474 286.302 67.5547 287.081 66.998C287.873 66.4414 288.838 66.0208 289.976 65.7363C291.114 65.4395 292.412 65.291 293.872 65.291H297.379ZM319.607 65.8105V69.3359H309.217V65.8105H319.607ZM310.516 57.4238V77.5H306.044V57.4238H310.516ZM322.836 57.4238V77.5H318.364V57.4238H322.836ZM338.923 73.4736V63.8994C338.923 63.182 338.793 62.5635 338.533 62.0439C338.273 61.5244 337.878 61.1224 337.346 60.8379C336.826 60.5534 336.171 60.4111 335.379 60.4111C334.649 60.4111 334.018 60.5348 333.486 60.7822C332.954 61.0296 332.54 61.3636 332.243 61.7842C331.946 62.2048 331.798 62.681 331.798 63.2129H327.345C327.345 62.4212 327.536 61.6543 327.92 60.9121C328.303 60.1699 328.86 59.5081 329.59 58.9268C330.32 58.3454 331.192 57.8877 332.206 57.5537C333.22 57.2197 334.358 57.0527 335.62 57.0527C337.129 57.0527 338.465 57.3063 339.628 57.8135C340.803 58.3206 341.725 59.0876 342.393 60.1143C343.073 61.1286 343.413 62.4027 343.413 63.9365V72.8613C343.413 73.7767 343.475 74.5993 343.599 75.3291C343.735 76.0465 343.926 76.6712 344.174 77.2031V77.5H339.591C339.381 77.0176 339.214 76.4053 339.09 75.6631C338.979 74.9085 338.923 74.1787 338.923 73.4736ZM339.572 65.291L339.609 68.0557H336.399C335.571 68.0557 334.841 68.1361 334.21 68.2969C333.579 68.4453 333.053 68.668 332.633 68.9648C332.212 69.2617 331.897 69.6204 331.687 70.041C331.476 70.4616 331.371 70.9378 331.371 71.4697C331.371 72.0016 331.495 72.4902 331.742 72.9355C331.99 73.3685 332.348 73.7087 332.818 73.9561C333.301 74.2035 333.882 74.3271 334.562 74.3271C335.478 74.3271 336.276 74.1416 336.956 73.7705C337.649 73.387 338.193 72.9232 338.589 72.3789C338.985 71.8223 339.195 71.2965 339.22 70.8018L340.667 72.7871C340.519 73.2943 340.265 73.8385 339.906 74.4199C339.548 75.0013 339.077 75.5579 338.496 76.0898C337.927 76.6094 337.241 77.0361 336.437 77.3701C335.645 77.7041 334.729 77.8711 333.69 77.8711C332.379 77.8711 331.21 77.6113 330.184 77.0918C329.157 76.5599 328.353 75.8486 327.771 74.958C327.19 74.055 326.899 73.0345 326.899 71.8965C326.899 70.8327 327.097 69.8926 327.493 69.0762C327.901 68.2474 328.495 67.5547 329.274 66.998C330.066 66.4414 331.031 66.0208 332.169 65.7363C333.307 65.4395 334.606 65.291 336.065 65.291H339.572ZM359.834 50.4844L349.313 79.8193H345.807L356.346 50.4844H359.834ZM376.645 65.8105V69.3359H366.254V65.8105H376.645ZM367.553 57.4238V77.5H363.081V57.4238H367.553ZM379.873 57.4238V77.5H375.401V57.4238H379.873ZM393.492 77.8711C392.008 77.8711 390.666 77.6299 389.466 77.1475C388.278 76.6527 387.264 75.9661 386.423 75.0879C385.594 74.2096 384.957 73.1768 384.512 71.9893C384.066 70.8018 383.844 69.5215 383.844 68.1484V67.4062C383.844 65.8353 384.073 64.4128 384.53 63.1387C384.988 61.8646 385.625 60.776 386.441 59.873C387.258 58.9577 388.223 58.2588 389.336 57.7764C390.449 57.2939 391.655 57.0527 392.954 57.0527C394.389 57.0527 395.645 57.2939 396.721 57.7764C397.797 58.2588 398.688 58.9391 399.393 59.8174C400.11 60.6833 400.642 61.7161 400.988 62.916C401.347 64.1159 401.526 65.4395 401.526 66.8867V68.7979H386.015V65.5879H397.11V65.2354C397.086 64.4313 396.925 63.6768 396.628 62.9717C396.343 62.2666 395.904 61.6976 395.311 61.2646C394.717 60.8317 393.925 60.6152 392.936 60.6152C392.193 60.6152 391.532 60.776 390.95 61.0977C390.381 61.4069 389.905 61.8584 389.521 62.4521C389.138 63.0459 388.841 63.7633 388.631 64.6045C388.433 65.4333 388.334 66.3672 388.334 67.4062V68.1484C388.334 69.0267 388.451 69.8431 388.687 70.5977C388.934 71.3398 389.293 71.9893 389.763 72.5459C390.233 73.1025 390.802 73.5417 391.47 73.8633C392.138 74.1725 392.898 74.3271 393.752 74.3271C394.828 74.3271 395.787 74.1107 396.628 73.6777C397.469 73.2448 398.199 72.6325 398.817 71.8408L401.174 74.123C400.741 74.7539 400.178 75.36 399.485 75.9414C398.793 76.5104 397.945 76.9743 396.943 77.333C395.954 77.6917 394.803 77.8711 393.492 77.8711ZM413.624 67.6846V67.2578C413.624 65.8105 413.834 64.4684 414.255 63.2314C414.675 61.9821 415.282 60.8997 416.073 59.9844C416.877 59.0566 417.854 58.3392 419.005 57.832C420.168 57.3125 421.479 57.0527 422.938 57.0527C424.41 57.0527 425.722 57.3125 426.872 57.832C428.035 58.3392 429.018 59.0566 429.822 59.9844C430.626 60.8997 431.239 61.9821 431.659 63.2314C432.08 64.4684 432.29 65.8105 432.29 67.2578V67.6846C432.29 69.1318 432.08 70.474 431.659 71.7109C431.239 72.9479 430.626 74.0303 429.822 74.958C429.018 75.8734 428.041 76.5908 426.891 77.1104C425.74 77.6175 424.435 77.8711 422.976 77.8711C421.504 77.8711 420.186 77.6175 419.023 77.1104C417.873 76.5908 416.896 75.8734 416.092 74.958C415.288 74.0303 414.675 72.9479 414.255 71.7109C413.834 70.474 413.624 69.1318 413.624 67.6846ZM418.096 67.2578V67.6846C418.096 68.5876 418.188 69.4411 418.374 70.2451C418.56 71.0492 418.85 71.7542 419.246 72.3604C419.642 72.9665 420.149 73.4427 420.768 73.7891C421.386 74.1354 422.122 74.3086 422.976 74.3086C423.804 74.3086 424.522 74.1354 425.128 73.7891C425.746 73.4427 426.254 72.9665 426.649 72.3604C427.045 71.7542 427.336 71.0492 427.521 70.2451C427.719 69.4411 427.818 68.5876 427.818 67.6846V67.2578C427.818 66.3672 427.719 65.526 427.521 64.7344C427.336 63.9303 427.039 63.2191 426.631 62.6006C426.235 61.9821 425.728 61.4997 425.109 61.1533C424.503 60.7946 423.78 60.6152 422.938 60.6152C422.097 60.6152 421.368 60.7946 420.749 61.1533C420.143 61.4997 419.642 61.9821 419.246 62.6006C418.85 63.2191 418.56 63.9303 418.374 64.7344C418.188 65.526 418.096 66.3672 418.096 67.2578ZM444.907 57.4238V77.5H440.417V57.4238H444.907ZM451.494 57.4238V60.9492H433.941V57.4238H451.494ZM459.306 57.4238V77.5H454.834V57.4238H459.306ZM472.405 57.4238L463.369 69.5029H458.267L457.673 65.458H461.402L466.82 57.4238H472.405ZM467.173 77.5L461.124 68.7422L464.649 66.2002L473.055 77.5H467.173ZM479.976 61.2832V85.2188H475.504V57.4238H479.623L479.976 61.2832ZM493.057 67.2764V67.666C493.057 69.1257 492.883 70.4801 492.537 71.7295C492.203 72.9665 491.702 74.0488 491.034 74.9766C490.379 75.8919 489.568 76.6032 488.604 77.1104C487.639 77.6175 486.525 77.8711 485.264 77.8711C484.014 77.8711 482.92 77.6423 481.979 77.1846C481.052 76.7145 480.266 76.0527 479.623 75.1992C478.98 74.3457 478.46 73.3438 478.064 72.1934C477.681 71.0306 477.409 69.7565 477.248 68.3711V66.8682C477.409 65.3962 477.681 64.0602 478.064 62.8604C478.46 61.6605 478.98 60.6276 479.623 59.7617C480.266 58.8958 481.052 58.2279 481.979 57.7578C482.907 57.2878 483.99 57.0527 485.227 57.0527C486.488 57.0527 487.608 57.3001 488.585 57.7949C489.562 58.2773 490.385 58.9701 491.053 59.873C491.721 60.7637 492.222 61.8398 492.556 63.1016C492.89 64.3509 493.057 65.7425 493.057 67.2764ZM488.585 67.666V67.2764C488.585 66.3486 488.498 65.4889 488.325 64.6973C488.152 63.8932 487.88 63.1882 487.509 62.582C487.138 61.9759 486.661 61.5059 486.08 61.1719C485.511 60.8255 484.825 60.6523 484.021 60.6523C483.229 60.6523 482.549 60.7884 481.979 61.0605C481.41 61.3203 480.934 61.6852 480.551 62.1553C480.167 62.6253 479.87 63.1758 479.66 63.8066C479.45 64.4251 479.301 65.0993 479.215 65.8291V69.4287C479.363 70.3193 479.617 71.1357 479.976 71.8779C480.334 72.6201 480.841 73.2139 481.497 73.6592C482.165 74.0921 483.019 74.3086 484.058 74.3086C484.862 74.3086 485.548 74.1354 486.117 73.7891C486.686 73.4427 487.15 72.9665 487.509 72.3604C487.88 71.7419 488.152 71.0306 488.325 70.2266C488.498 69.4225 488.585 68.569 488.585 67.666ZM500.182 63.8066H506.101C507.832 63.8066 509.304 64.0973 510.517 64.6787C511.729 65.2601 512.65 66.0703 513.281 67.1094C513.924 68.1361 514.246 69.3112 514.246 70.6348C514.246 71.612 514.067 72.5212 513.708 73.3623C513.349 74.1911 512.817 74.9147 512.112 75.5332C511.42 76.1517 510.566 76.6341 509.552 76.9805C508.55 77.3268 507.399 77.5 506.101 77.5H497.213V57.4238H501.703V73.9561H506.101C506.991 73.9561 507.702 73.8014 508.234 73.4922C508.766 73.1829 509.15 72.7809 509.385 72.2861C509.632 71.7913 509.756 71.2656 509.756 70.709C509.756 70.14 509.632 69.6019 509.385 69.0947C509.15 68.5876 508.766 68.1732 508.234 67.8516C507.702 67.5299 506.991 67.3691 506.101 67.3691H500.182V63.8066ZM522.15 57.4238V77.5H517.679V57.4238H522.15ZM537.198 68.9092H530.778L530.741 65.7549H536.011C536.877 65.7549 537.588 65.6683 538.145 65.4951C538.714 65.3219 539.134 65.0622 539.406 64.7158C539.678 64.3571 539.814 63.9242 539.814 63.417C539.814 62.9964 539.734 62.6315 539.573 62.3223C539.412 62.0007 539.165 61.7409 538.831 61.543C538.509 61.3327 538.101 61.1842 537.606 61.0977C537.124 60.9987 536.561 60.9492 535.918 60.9492H532.263V77.5H527.791V57.4238H535.918C537.204 57.4238 538.361 57.5352 539.388 57.7578C540.427 57.9805 541.311 58.3206 542.041 58.7783C542.771 59.236 543.327 59.8174 543.711 60.5225C544.107 61.2152 544.305 62.0316 544.305 62.9717C544.305 63.5902 544.169 64.1715 543.896 64.7158C543.637 65.2601 543.247 65.7425 542.728 66.1631C542.208 66.5837 541.571 66.93 540.816 67.2021C540.062 67.4619 539.196 67.6227 538.219 67.6846L537.198 68.9092ZM537.198 77.5H529.479L531.261 73.9746H537.198C537.99 73.9746 538.646 73.8757 539.165 73.6777C539.685 73.4798 540.068 73.1953 540.315 72.8242C540.575 72.4408 540.705 71.9893 540.705 71.4697C540.705 70.9378 540.581 70.4801 540.334 70.0967C540.087 69.7132 539.703 69.4225 539.184 69.2246C538.676 69.0143 538.015 68.9092 537.198 68.9092H532.096L532.133 65.7549H538.2L539.48 66.9795C540.755 67.0661 541.812 67.3382 542.653 67.7959C543.494 68.2536 544.125 68.8288 544.546 69.5215C544.966 70.2142 545.177 70.9688 545.177 71.7852C545.177 72.7253 544.997 73.554 544.639 74.2715C544.292 74.9889 543.773 75.5889 543.08 76.0713C542.4 76.5413 541.565 76.9001 540.575 77.1475C539.586 77.3825 538.46 77.5 537.198 77.5ZM560.354 73.4736V63.8994C560.354 63.182 560.225 62.5635 559.965 62.0439C559.705 61.5244 559.309 61.1224 558.777 60.8379C558.258 60.5534 557.602 60.4111 556.811 60.4111C556.081 60.4111 555.45 60.5348 554.918 60.7822C554.386 61.0296 553.972 61.3636 553.675 61.7842C553.378 62.2048 553.229 62.681 553.229 63.2129H548.776C548.776 62.4212 548.968 61.6543 549.352 60.9121C549.735 60.1699 550.292 59.5081 551.021 58.9268C551.751 58.3454 552.623 57.8877 553.638 57.5537C554.652 57.2197 555.79 57.0527 557.052 57.0527C558.561 57.0527 559.897 57.3063 561.06 57.8135C562.235 58.3206 563.156 59.0876 563.824 60.1143C564.505 61.1286 564.845 62.4027 564.845 63.9365V72.8613C564.845 73.7767 564.907 74.5993 565.03 75.3291C565.166 76.0465 565.358 76.6712 565.605 77.2031V77.5H561.022C560.812 77.0176 560.645 76.4053 560.521 75.6631C560.41 74.9085 560.354 74.1787 560.354 73.4736ZM561.004 65.291L561.041 68.0557H557.831C557.002 68.0557 556.272 68.1361 555.642 68.2969C555.011 68.4453 554.485 68.668 554.064 68.9648C553.644 69.2617 553.328 69.6204 553.118 70.041C552.908 70.4616 552.803 70.9378 552.803 71.4697C552.803 72.0016 552.926 72.4902 553.174 72.9355C553.421 73.3685 553.78 73.7087 554.25 73.9561C554.732 74.2035 555.314 74.3271 555.994 74.3271C556.91 74.3271 557.707 74.1416 558.388 73.7705C559.08 73.387 559.625 72.9232 560.021 72.3789C560.416 71.8223 560.627 71.2965 560.651 70.8018L562.099 72.7871C561.95 73.2943 561.697 73.8385 561.338 74.4199C560.979 75.0013 560.509 75.5579 559.928 76.0898C559.359 76.6094 558.672 77.0361 557.868 77.3701C557.076 77.7041 556.161 77.8711 555.122 77.8711C553.811 77.8711 552.642 77.6113 551.615 77.0918C550.589 76.5599 549.785 75.8486 549.203 74.958C548.622 74.055 548.331 73.0345 548.331 71.8965C548.331 70.8327 548.529 69.8926 548.925 69.0762C549.333 68.2474 549.927 67.5547 550.706 66.998C551.498 66.4414 552.463 66.0208 553.601 65.7363C554.739 65.4395 556.037 65.291 557.497 65.291H561.004ZM578.371 77.8711C576.887 77.8711 575.545 77.6299 574.345 77.1475C573.157 76.6527 572.143 75.9661 571.302 75.0879C570.473 74.2096 569.836 73.1768 569.391 71.9893C568.945 70.8018 568.723 69.5215 568.723 68.1484V67.4062C568.723 65.8353 568.951 64.4128 569.409 63.1387C569.867 61.8646 570.504 60.776 571.32 59.873C572.137 58.9577 573.102 58.2588 574.215 57.7764C575.328 57.2939 576.534 57.0527 577.833 57.0527C579.268 57.0527 580.523 57.2939 581.6 57.7764C582.676 58.2588 583.566 58.9391 584.271 59.8174C584.989 60.6833 585.521 61.7161 585.867 62.916C586.226 64.1159 586.405 65.4395 586.405 66.8867V68.7979H570.894V65.5879H581.989V65.2354C581.965 64.4313 581.804 63.6768 581.507 62.9717C581.222 62.2666 580.783 61.6976 580.189 61.2646C579.596 60.8317 578.804 60.6152 577.814 60.6152C577.072 60.6152 576.41 60.776 575.829 61.0977C575.26 61.4069 574.784 61.8584 574.4 62.4521C574.017 63.0459 573.72 63.7633 573.51 64.6045C573.312 65.4333 573.213 66.3672 573.213 67.4062V68.1484C573.213 69.0267 573.33 69.8431 573.565 70.5977C573.813 71.3398 574.172 71.9893 574.642 72.5459C575.112 73.1025 575.681 73.5417 576.349 73.8633C577.017 74.1725 577.777 74.3271 578.631 74.3271C579.707 74.3271 580.666 74.1107 581.507 73.6777C582.348 73.2448 583.078 72.6325 583.696 71.8408L586.053 74.123C585.62 74.7539 585.057 75.36 584.364 75.9414C583.672 76.5104 582.824 76.9743 581.822 77.333C580.833 77.6917 579.682 77.8711 578.371 77.8711ZM598.985 57.4238V77.5H594.495V57.4238H598.985ZM605.572 57.4238V60.9492H588.02V57.4238H605.572ZM615.388 74.3086C616.118 74.3086 616.773 74.1663 617.354 73.8818C617.948 73.585 618.424 73.1768 618.783 72.6572C619.154 72.1377 619.358 71.5378 619.396 70.8574H623.607C623.583 72.1562 623.199 73.3376 622.457 74.4014C621.715 75.4652 620.731 76.3125 619.507 76.9434C618.282 77.5618 616.928 77.8711 615.443 77.8711C613.91 77.8711 612.574 77.6113 611.436 77.0918C610.298 76.5599 609.351 75.8301 608.597 74.9023C607.842 73.9746 607.273 72.9046 606.89 71.6924C606.519 70.4801 606.333 69.1813 606.333 67.7959V67.1465C606.333 65.7611 606.519 64.4622 606.89 63.25C607.273 62.0254 607.842 60.9492 608.597 60.0215C609.351 59.0938 610.298 58.3701 611.436 57.8506C612.574 57.3187 613.903 57.0527 615.425 57.0527C617.033 57.0527 618.443 57.3743 619.655 58.0176C620.868 58.6484 621.82 59.5329 622.513 60.6709C623.218 61.7965 623.583 63.1077 623.607 64.6045H619.396C619.358 63.8623 619.173 63.1943 618.839 62.6006C618.517 61.9945 618.06 61.512 617.466 61.1533C616.884 60.7946 616.186 60.6152 615.369 60.6152C614.466 60.6152 613.718 60.8008 613.124 61.1719C612.53 61.5306 612.066 62.0254 611.732 62.6562C611.398 63.2747 611.157 63.9736 611.009 64.7529C610.873 65.5199 610.805 66.3177 610.805 67.1465V67.7959C610.805 68.6247 610.873 69.4287 611.009 70.208C611.145 70.9873 611.38 71.6862 611.714 72.3047C612.06 72.9108 612.53 73.3994 613.124 73.7705C613.718 74.1292 614.472 74.3086 615.388 74.3086ZM631.271 67.6846H635.909L630.213 77.5H625.593L631.271 67.6846ZM634.536 57.4238H643.146V77.5H638.692V60.9492H634.536C633.695 60.9492 633.002 61.0977 632.458 61.3945C631.914 61.679 631.512 62.0563 631.252 62.5264C630.992 62.984 630.862 63.4541 630.862 63.9365C630.862 64.4189 630.98 64.8828 631.215 65.3281C631.462 65.7734 631.84 66.1383 632.347 66.4229C632.866 66.7074 633.516 66.8496 634.295 66.8496H640.195V70.1152H634.295C633.058 70.1152 631.951 69.9606 630.974 69.6514C629.996 69.3298 629.168 68.8906 628.487 68.334C627.807 67.765 627.287 67.1032 626.929 66.3486C626.57 65.5817 626.391 64.7467 626.391 63.8438C626.391 62.916 626.576 62.0625 626.947 61.2832C627.318 60.5039 627.85 59.8236 628.543 59.2422C629.248 58.6608 630.102 58.2155 631.104 57.9062C632.118 57.5846 633.262 57.4238 634.536 57.4238Z" fill="white"/>
</svg>
