<svg width="700" height="112" viewBox="0 0 700 112" fill="none" xmlns="http://www.w3.org/2000/svg">
<rect width="700" height="112" rx="20" fill="#0AB69C"/>
<path d="M311.202 64.8076V68.5H291.293V64.8076H311.202ZM292.443 64.8076V75.1426H287.99L287.823 64.8076H292.443ZM314.802 64.8076L314.523 75.124H310.145V64.8076H314.802ZM307.937 41.4844V45.1953H295.468V41.4844H307.937ZM311.499 41.4844V68.5H306.86V41.4844H311.499ZM294.54 41.4844H299.197L298.548 52.4316C298.449 54.1634 298.27 55.722 298.01 57.1074C297.75 58.4928 297.435 59.736 297.063 60.8369C296.705 61.9255 296.297 62.8903 295.839 63.7314C295.381 64.5602 294.893 65.2777 294.373 65.8838C293.854 66.4899 293.322 67.0094 292.777 67.4424C292.245 67.863 291.72 68.2155 291.2 68.5H288.714V64.8076H289.92C290.254 64.4984 290.625 64.0531 291.033 63.4717C291.441 62.8779 291.837 62.1048 292.221 61.1523C292.617 60.1875 292.963 58.9938 293.26 57.5713C293.557 56.1488 293.761 54.4355 293.872 52.4316L294.54 41.4844ZM322.372 52.2832V76.2188H317.9V48.4238H322.02L322.372 52.2832ZM335.453 58.2764V58.666C335.453 60.1257 335.28 61.4801 334.934 62.7295C334.6 63.9665 334.099 65.0488 333.431 65.9766C332.775 66.8919 331.965 67.6032 331 68.1104C330.035 68.6175 328.922 68.8711 327.66 68.8711C326.411 68.8711 325.316 68.6423 324.376 68.1846C323.448 67.7145 322.663 67.0527 322.02 66.1992C321.376 65.3457 320.857 64.3438 320.461 63.1934C320.077 62.0306 319.805 60.7565 319.645 59.3711V57.8682C319.805 56.3962 320.077 55.0602 320.461 53.8604C320.857 52.6605 321.376 51.6276 322.02 50.7617C322.663 49.8958 323.448 49.2279 324.376 48.7578C325.304 48.2878 326.386 48.0527 327.623 48.0527C328.885 48.0527 330.004 48.3001 330.981 48.7949C331.959 49.2773 332.781 49.9701 333.449 50.873C334.117 51.7637 334.618 52.8398 334.952 54.1016C335.286 55.3509 335.453 56.7425 335.453 58.2764ZM330.981 58.666V58.2764C330.981 57.3486 330.895 56.4889 330.722 55.6973C330.549 54.8932 330.276 54.1882 329.905 53.582C329.534 52.9759 329.058 52.5059 328.477 52.1719C327.908 51.8255 327.221 51.6523 326.417 51.6523C325.625 51.6523 324.945 51.7884 324.376 52.0605C323.807 52.3203 323.331 52.6852 322.947 53.1553C322.564 53.6253 322.267 54.1758 322.057 54.8066C321.846 55.4251 321.698 56.0993 321.611 56.8291V60.4287C321.76 61.3193 322.013 62.1357 322.372 62.8779C322.731 63.6201 323.238 64.2139 323.894 64.6592C324.562 65.0921 325.415 65.3086 326.454 65.3086C327.258 65.3086 327.945 65.1354 328.514 64.7891C329.083 64.4427 329.547 63.9665 329.905 63.3604C330.276 62.7419 330.549 62.0306 330.722 61.2266C330.895 60.4225 330.981 59.569 330.981 58.666ZM344.86 66.3105L350.315 48.4238H355.103L347.05 71.5615C346.864 72.0563 346.623 72.5944 346.326 73.1758C346.029 73.7572 345.64 74.3076 345.157 74.8271C344.687 75.359 344.1 75.7858 343.395 76.1074C342.689 76.4414 341.836 76.6084 340.834 76.6084C340.438 76.6084 340.055 76.5713 339.684 76.4971C339.325 76.4352 338.985 76.3672 338.663 76.293L338.645 72.8789C338.768 72.8913 338.917 72.9036 339.09 72.916C339.275 72.9284 339.424 72.9346 339.535 72.9346C340.277 72.9346 340.896 72.8418 341.391 72.6562C341.885 72.4831 342.287 72.1986 342.597 71.8027C342.918 71.4069 343.19 70.875 343.413 70.207L344.86 66.3105ZM341.78 48.4238L346.549 63.4531L347.347 68.166L344.248 68.9639L336.956 48.4238H341.78ZM371.022 48.4238V51.9863H362.265V68.5H357.793V48.4238H371.022ZM372.396 58.6846V58.2578C372.396 56.8105 372.606 55.4684 373.026 54.2314C373.447 52.9821 374.053 51.8997 374.845 50.9844C375.649 50.0566 376.626 49.3392 377.776 48.832C378.939 48.3125 380.25 48.0527 381.71 48.0527C383.182 48.0527 384.493 48.3125 385.644 48.832C386.806 49.3392 387.79 50.0566 388.594 50.9844C389.398 51.8997 390.01 52.9821 390.431 54.2314C390.851 55.4684 391.062 56.8105 391.062 58.2578V58.6846C391.062 60.1318 390.851 61.474 390.431 62.7109C390.01 63.9479 389.398 65.0303 388.594 65.958C387.79 66.8734 386.812 67.5908 385.662 68.1104C384.512 68.6175 383.207 68.8711 381.747 68.8711C380.275 68.8711 378.958 68.6175 377.795 68.1104C376.645 67.5908 375.667 66.8734 374.863 65.958C374.059 65.0303 373.447 63.9479 373.026 62.7109C372.606 61.474 372.396 60.1318 372.396 58.6846ZM376.867 58.2578V58.6846C376.867 59.5876 376.96 60.4411 377.146 61.2451C377.331 62.0492 377.622 62.7542 378.018 63.3604C378.413 63.9665 378.921 64.4427 379.539 64.7891C380.158 65.1354 380.894 65.3086 381.747 65.3086C382.576 65.3086 383.293 65.1354 383.899 64.7891C384.518 64.4427 385.025 63.9665 385.421 63.3604C385.817 62.7542 386.107 62.0492 386.293 61.2451C386.491 60.4411 386.59 59.5876 386.59 58.6846V58.2578C386.59 57.3672 386.491 56.526 386.293 55.7344C386.107 54.9303 385.811 54.2191 385.402 53.6006C385.007 52.9821 384.499 52.4997 383.881 52.1533C383.275 51.7946 382.551 51.6152 381.71 51.6152C380.869 51.6152 380.139 51.7946 379.521 52.1533C378.914 52.4997 378.413 52.9821 378.018 53.6006C377.622 54.2191 377.331 54.9303 377.146 55.7344C376.96 56.526 376.867 57.3672 376.867 58.2578ZM403.66 68.8711C402.176 68.8711 400.834 68.6299 399.634 68.1475C398.446 67.6527 397.432 66.9661 396.591 66.0879C395.762 65.2096 395.125 64.1768 394.68 62.9893C394.234 61.8018 394.012 60.5215 394.012 59.1484V58.4062C394.012 56.8353 394.241 55.4128 394.698 54.1387C395.156 52.8646 395.793 51.776 396.609 50.873C397.426 49.9577 398.391 49.2588 399.504 48.7764C400.617 48.2939 401.823 48.0527 403.122 48.0527C404.557 48.0527 405.812 48.2939 406.889 48.7764C407.965 49.2588 408.855 49.9391 409.561 50.8174C410.278 51.6833 410.81 52.7161 411.156 53.916C411.515 55.1159 411.694 56.4395 411.694 57.8867V59.7979H396.183V56.5879H407.278V56.2354C407.254 55.4313 407.093 54.6768 406.796 53.9717C406.511 53.2666 406.072 52.6976 405.479 52.2646C404.885 51.8317 404.093 51.6152 403.104 51.6152C402.361 51.6152 401.7 51.776 401.118 52.0977C400.549 52.4069 400.073 52.8584 399.689 53.4521C399.306 54.0459 399.009 54.7633 398.799 55.6045C398.601 56.4333 398.502 57.3672 398.502 58.4062V59.1484C398.502 60.0267 398.619 60.8431 398.854 61.5977C399.102 62.3398 399.461 62.9893 399.931 63.5459C400.401 64.1025 400.97 64.5417 401.638 64.8633C402.306 65.1725 403.066 65.3271 403.92 65.3271C404.996 65.3271 405.955 65.1107 406.796 64.6777C407.637 64.2448 408.367 63.6325 408.985 62.8408L411.342 65.123C410.909 65.7539 410.346 66.36 409.653 66.9414C408.961 67.5104 408.113 67.9743 407.111 68.333C406.122 68.6917 404.971 68.8711 403.66 68.8711Z" fill="white"/>
</svg>
