<svg width="238" height="50" viewBox="0 0 238 50" fill="none" xmlns="http://www.w3.org/2000/svg">
<path d="M47.4104 27.0586L51.7463 15.9375H54.9924L49.0627 29.9062C48.8752 30.3359 48.6604 30.7539 48.4182 31.1602C48.1838 31.5586 47.8987 31.9141 47.5627 32.2266C47.2268 32.5391 46.8206 32.7891 46.344 32.9766C45.8674 33.1562 45.2893 33.2461 44.6096 33.2461C44.4299 33.2461 44.2112 33.2383 43.9534 33.2227C43.7034 33.207 43.5198 33.1914 43.4026 33.1758L43.426 30.8672C43.5198 30.8828 43.676 30.8945 43.8948 30.9023C44.1213 30.9102 44.2854 30.9141 44.387 30.9141C44.8401 30.9141 45.1995 30.8398 45.4651 30.6914C45.7307 30.5352 45.9417 30.3281 46.0979 30.0703C46.262 29.8047 46.4065 29.5156 46.5315 29.2031L47.4104 27.0586ZM44.1526 15.9375L48.4417 25.3828L49.2854 28.4531L47.0002 28.5352L40.9417 15.9375H44.1526ZM70.4612 29.5781L74.2346 20.3203H76.6838L71.4221 33H69.5002L64.2502 20.3203H66.6995L70.4612 29.5781ZM65.9729 20.3203V33H63.1487V20.3203H65.9729ZM74.9495 33V20.3203H77.7854V33H74.9495ZM86.5393 33.2344C85.6018 33.2344 84.7542 33.082 83.9963 32.7773C83.2463 32.4648 82.6057 32.0312 82.0745 31.4766C81.551 30.9219 81.1487 30.2695 80.8674 29.5195C80.5862 28.7695 80.4456 27.9609 80.4456 27.0938V26.625C80.4456 25.6328 80.5901 24.7344 80.8792 23.9297C81.1682 23.125 81.5706 22.4375 82.0862 21.8672C82.6018 21.2891 83.2112 20.8477 83.9143 20.543C84.6174 20.2383 85.3792 20.0859 86.1995 20.0859C87.1057 20.0859 87.8987 20.2383 88.5784 20.543C89.2581 20.8477 89.8206 21.2773 90.2659 21.832C90.719 22.3789 91.0549 23.0312 91.2737 23.7891C91.5002 24.5469 91.6135 25.3828 91.6135 26.2969V27.5039H81.8167V25.4766H88.8245V25.2539C88.8088 24.7461 88.7073 24.2695 88.5198 23.8242C88.3401 23.3789 88.0627 23.0195 87.6877 22.7461C87.3127 22.4727 86.8127 22.3359 86.1877 22.3359C85.719 22.3359 85.301 22.4375 84.9338 22.6406C84.5745 22.8359 84.2737 23.1211 84.0315 23.4961C83.7893 23.8711 83.6018 24.3242 83.469 24.8555C83.344 25.3789 83.2815 25.9688 83.2815 26.625V27.0938C83.2815 27.6484 83.3557 28.1641 83.5042 28.6406C83.6604 29.1094 83.887 29.5195 84.1838 29.8711C84.4807 30.2227 84.8401 30.5 85.262 30.7031C85.6838 30.8984 86.1643 30.9961 86.7034 30.9961C87.3831 30.9961 87.9885 30.8594 88.5198 30.5859C89.051 30.3125 89.512 29.9258 89.9026 29.4258L91.3909 30.8672C91.1174 31.2656 90.762 31.6484 90.3245 32.0156C89.887 32.375 89.3518 32.668 88.719 32.8945C88.094 33.1211 87.3674 33.2344 86.5393 33.2344ZM102.477 25.6172V27.8438H95.9143V25.6172H102.477ZM96.7346 20.3203V33H93.9104V20.3203H96.7346ZM104.516 20.3203V33H101.692V20.3203H104.516ZM110.199 26.8008H113.129L109.531 33H106.614L110.199 26.8008ZM112.262 20.3203H117.699V33H114.887V22.5469H112.262C111.731 22.5469 111.293 22.6406 110.949 22.8281C110.606 23.0078 110.352 23.2461 110.188 23.543C110.024 23.832 109.942 24.1289 109.942 24.4336C109.942 24.7383 110.016 25.0312 110.164 25.3125C110.321 25.5938 110.559 25.8242 110.879 26.0039C111.207 26.1836 111.617 26.2734 112.11 26.2734H115.836V28.3359H112.11C111.328 28.3359 110.629 28.2383 110.012 28.043C109.395 27.8398 108.871 27.5625 108.442 27.2109C108.012 26.8516 107.684 26.4336 107.457 25.957C107.231 25.4727 107.117 24.9453 107.117 24.375C107.117 23.7891 107.235 23.25 107.469 22.7578C107.703 22.2656 108.039 21.8359 108.477 21.4688C108.922 21.1016 109.461 20.8203 110.094 20.625C110.735 20.4219 111.457 20.3203 112.262 20.3203ZM135.324 20.3203V22.5703H129.067V20.3203H135.324ZM129.735 20.3203V33H126.91V20.3203H129.735ZM137.539 20.3203V33H134.703V20.3203H137.539ZM143.364 22.7578V37.875H140.539V20.3203H143.141L143.364 22.7578ZM151.625 26.543V26.7891C151.625 27.7109 151.516 28.5664 151.297 29.3555C151.086 30.1367 150.77 30.8203 150.348 31.4062C149.934 31.9844 149.422 32.4336 148.813 32.7539C148.203 33.0742 147.5 33.2344 146.703 33.2344C145.914 33.2344 145.223 33.0898 144.629 32.8008C144.043 32.5039 143.547 32.0859 143.141 31.5469C142.735 31.0078 142.406 30.375 142.156 29.6484C141.914 28.9141 141.742 28.1094 141.641 27.2344V26.2852C141.742 25.3555 141.914 24.5117 142.156 23.7539C142.406 22.9961 142.735 22.3438 143.141 21.7969C143.547 21.25 144.043 20.8281 144.629 20.5312C145.215 20.2344 145.899 20.0859 146.68 20.0859C147.477 20.0859 148.184 20.2422 148.801 20.5547C149.418 20.8594 149.938 21.2969 150.36 21.8672C150.781 22.4297 151.098 23.1094 151.309 23.9062C151.52 24.6953 151.625 25.5742 151.625 26.543ZM148.801 26.7891V26.543C148.801 25.957 148.746 25.4141 148.637 24.9141C148.528 24.4062 148.356 23.9609 148.121 23.5781C147.887 23.1953 147.586 22.8984 147.219 22.6875C146.86 22.4688 146.426 22.3594 145.918 22.3594C145.418 22.3594 144.989 22.4453 144.629 22.6172C144.27 22.7812 143.969 23.0117 143.727 23.3086C143.485 23.6055 143.297 23.9531 143.164 24.3516C143.031 24.7422 142.938 25.168 142.883 25.6289V27.9023C142.977 28.4648 143.137 28.9805 143.364 29.4492C143.59 29.918 143.91 30.293 144.324 30.5742C144.746 30.8477 145.285 30.9844 145.942 30.9844C146.449 30.9844 146.883 30.875 147.242 30.6562C147.602 30.4375 147.895 30.1367 148.121 29.7539C148.356 29.3633 148.528 28.9141 148.637 28.4062C148.746 27.8984 148.801 27.3594 148.801 26.7891ZM153.489 26.8008V26.5312C153.489 25.6172 153.621 24.7695 153.887 23.9883C154.153 23.1992 154.535 22.5156 155.035 21.9375C155.543 21.3516 156.16 20.8984 156.887 20.5781C157.621 20.25 158.449 20.0859 159.371 20.0859C160.301 20.0859 161.129 20.25 161.856 20.5781C162.59 20.8984 163.211 21.3516 163.719 21.9375C164.227 22.5156 164.614 23.1992 164.879 23.9883C165.145 24.7695 165.278 25.6172 165.278 26.5312V26.8008C165.278 27.7148 165.145 28.5625 164.879 29.3438C164.614 30.125 164.227 30.8086 163.719 31.3945C163.211 31.9727 162.594 32.4258 161.867 32.7539C161.141 33.0742 160.317 33.2344 159.395 33.2344C158.465 33.2344 157.633 33.0742 156.899 32.7539C156.172 32.4258 155.555 31.9727 155.047 31.3945C154.539 30.8086 154.153 30.125 153.887 29.3438C153.621 28.5625 153.489 27.7148 153.489 26.8008ZM156.313 26.5312V26.8008C156.313 27.3711 156.371 27.9102 156.489 28.418C156.606 28.9258 156.789 29.3711 157.039 29.7539C157.289 30.1367 157.61 30.4375 158 30.6562C158.391 30.875 158.856 30.9844 159.395 30.9844C159.918 30.9844 160.371 30.875 160.754 30.6562C161.145 30.4375 161.465 30.1367 161.715 29.7539C161.965 29.3711 162.149 28.9258 162.266 28.418C162.391 27.9102 162.453 27.3711 162.453 26.8008V26.5312C162.453 25.9688 162.391 25.4375 162.266 24.9375C162.149 24.4297 161.961 23.9805 161.703 23.5898C161.453 23.1992 161.133 22.8945 160.742 22.6758C160.36 22.4492 159.903 22.3359 159.371 22.3359C158.84 22.3359 158.379 22.4492 157.989 22.6758C157.606 22.8945 157.289 23.1992 157.039 23.5898C156.789 23.9805 156.606 24.4297 156.489 24.9375C156.371 25.4375 156.313 25.9688 156.313 26.5312ZM175.602 14.7656H177.887C177.887 15.4609 177.789 16.0352 177.594 16.4883C177.406 16.9336 177.125 17.3008 176.75 17.5898C176.383 17.8711 175.926 18.0977 175.379 18.2695C174.84 18.4414 174.215 18.5977 173.504 18.7383C172.848 18.8789 172.254 19.1016 171.723 19.4062C171.199 19.7031 170.758 20.1211 170.399 20.6602C170.047 21.1914 169.793 21.875 169.637 22.7109C169.481 23.5469 169.434 24.5664 169.496 25.7695V26.5664L167.258 26.7656V25.9688C167.258 24.4766 167.395 23.1758 167.668 22.0664C167.942 20.957 168.328 20.0234 168.828 19.2656C169.336 18.5 169.938 17.8906 170.633 17.4375C171.336 16.9844 172.117 16.6719 172.977 16.5C173.563 16.375 174.051 16.25 174.442 16.125C174.832 15.9922 175.121 15.8242 175.309 15.6211C175.504 15.4102 175.602 15.125 175.602 14.7656ZM173.621 21.0352C174.465 21.0352 175.215 21.1836 175.871 21.4805C176.528 21.7695 177.082 22.1758 177.535 22.6992C177.989 23.2227 178.332 23.8398 178.567 24.5508C178.809 25.2617 178.93 26.0352 178.93 26.8711V27.1289C178.93 28.0039 178.801 28.8125 178.543 29.5547C178.285 30.2969 177.906 30.9453 177.406 31.5C176.906 32.0469 176.293 32.4766 175.567 32.7891C174.848 33.0938 174.024 33.2461 173.094 33.2461C172.172 33.2461 171.348 33.0859 170.621 32.7656C169.895 32.4453 169.281 32 168.781 31.4297C168.281 30.8516 167.903 30.1758 167.645 29.4023C167.387 28.6289 167.258 27.7852 167.258 26.8711V26.6133C167.25 26.4492 167.293 26.2891 167.387 26.1328C167.489 25.9766 167.61 25.8086 167.75 25.6289C167.891 25.4492 168.016 25.2422 168.125 25.0078C168.516 24.2188 168.977 23.5273 169.508 22.9336C170.039 22.3398 170.645 21.875 171.324 21.5391C172.012 21.2031 172.778 21.0352 173.621 21.0352ZM173.071 23.2734C172.367 23.2734 171.793 23.4414 171.348 23.7773C170.91 24.1055 170.586 24.543 170.375 25.0898C170.172 25.6367 170.071 26.2305 170.071 26.8711V27.1289C170.071 27.6523 170.129 28.1484 170.246 28.6172C170.364 29.0859 170.539 29.5 170.774 29.8594C171.016 30.2109 171.328 30.4883 171.711 30.6914C172.102 30.8945 172.563 30.9961 173.094 30.9961C173.633 30.9961 174.09 30.8945 174.465 30.6914C174.848 30.4883 175.156 30.2109 175.391 29.8594C175.633 29.5 175.809 29.0859 175.918 28.6172C176.035 28.1484 176.094 27.6523 176.094 27.1289V26.8711C176.094 26.3867 176.035 25.9297 175.918 25.5C175.809 25.0703 175.633 24.6914 175.391 24.3633C175.149 24.0273 174.836 23.7617 174.453 23.5664C174.071 23.3711 173.61 23.2734 173.071 23.2734ZM189.664 20.3203V22.5703H183.477V20.3203H189.664ZM191.879 20.3203V33H189.055V20.3203H191.879ZM182.785 20.3203H185.574L185.235 26.5898C185.188 27.5195 185.094 28.3398 184.953 29.0508C184.821 29.7539 184.641 30.3594 184.414 30.8672C184.188 31.3672 183.91 31.7734 183.582 32.0859C183.254 32.3984 182.871 32.6289 182.434 32.7773C181.996 32.9258 181.504 33 180.957 33H180.078L180.067 30.6797L180.512 30.6445C180.801 30.6211 181.051 30.5469 181.262 30.4219C181.473 30.2891 181.653 30.1016 181.801 29.8594C181.957 29.6172 182.082 29.3047 182.176 28.9219C182.278 28.5391 182.356 28.0859 182.41 27.5625C182.473 27.0391 182.52 26.4297 182.551 25.7344L182.785 20.3203ZM200.469 33.2344C199.531 33.2344 198.684 33.082 197.926 32.7773C197.176 32.4648 196.535 32.0312 196.004 31.4766C195.481 30.9219 195.078 30.2695 194.797 29.5195C194.516 28.7695 194.375 27.9609 194.375 27.0938V26.625C194.375 25.6328 194.52 24.7344 194.809 23.9297C195.098 23.125 195.5 22.4375 196.016 21.8672C196.531 21.2891 197.141 20.8477 197.844 20.543C198.547 20.2383 199.309 20.0859 200.129 20.0859C201.035 20.0859 201.828 20.2383 202.508 20.543C203.188 20.8477 203.75 21.2773 204.196 21.832C204.649 22.3789 204.985 23.0312 205.203 23.7891C205.43 24.5469 205.543 25.3828 205.543 26.2969V27.5039H195.746V25.4766H202.754V25.2539C202.739 24.7461 202.637 24.2695 202.449 23.8242C202.27 23.3789 201.992 23.0195 201.617 22.7461C201.242 22.4727 200.742 22.3359 200.117 22.3359C199.649 22.3359 199.231 22.4375 198.864 22.6406C198.504 22.8359 198.203 23.1211 197.961 23.4961C197.719 23.8711 197.531 24.3242 197.399 24.8555C197.274 25.3789 197.211 25.9688 197.211 26.625V27.0938C197.211 27.6484 197.285 28.1641 197.434 28.6406C197.59 29.1094 197.817 29.5195 198.114 29.8711C198.41 30.2227 198.77 30.5 199.192 30.7031C199.614 30.8984 200.094 30.9961 200.633 30.9961C201.313 30.9961 201.918 30.8594 202.449 30.5859C202.981 30.3125 203.442 29.9258 203.832 29.4258L205.321 30.8672C205.047 31.2656 204.692 31.6484 204.254 32.0156C203.817 32.375 203.281 32.668 202.649 32.8945C202.024 33.1211 201.297 33.2344 200.469 33.2344ZM215.281 29.5781L219.055 20.3203H221.504L216.242 33H214.321L209.071 20.3203H211.52L215.281 29.5781ZM210.793 20.3203V33H207.969V20.3203H210.793ZM219.77 33V20.3203H222.606V33H219.77ZM232.918 30.457V24.4102C232.918 23.957 232.836 23.5664 232.672 23.2383C232.508 22.9102 232.258 22.6562 231.922 22.4766C231.594 22.2969 231.18 22.207 230.68 22.207C230.219 22.207 229.821 22.2852 229.485 22.4414C229.149 22.5977 228.887 22.8086 228.699 23.0742C228.512 23.3398 228.418 23.6406 228.418 23.9766H225.606C225.606 23.4766 225.727 22.9922 225.969 22.5234C226.211 22.0547 226.563 21.6367 227.024 21.2695C227.485 20.9023 228.035 20.6133 228.676 20.4023C229.317 20.1914 230.035 20.0859 230.832 20.0859C231.785 20.0859 232.629 20.2461 233.364 20.5664C234.106 20.8867 234.688 21.3711 235.11 22.0195C235.539 22.6602 235.754 23.4648 235.754 24.4336V30.0703C235.754 30.6484 235.793 31.168 235.871 31.6289C235.957 32.082 236.078 32.4766 236.235 32.8125V33H233.34C233.207 32.6953 233.102 32.3086 233.024 31.8398C232.953 31.3633 232.918 30.9023 232.918 30.457ZM233.328 25.2891L233.352 27.0352H231.324C230.801 27.0352 230.34 27.0859 229.942 27.1875C229.543 27.2812 229.211 27.4219 228.946 27.6094C228.68 27.7969 228.481 28.0234 228.348 28.2891C228.215 28.5547 228.149 28.8555 228.149 29.1914C228.149 29.5273 228.227 29.8359 228.383 30.1172C228.539 30.3906 228.766 30.6055 229.063 30.7617C229.367 30.918 229.735 30.9961 230.164 30.9961C230.742 30.9961 231.246 30.8789 231.676 30.6445C232.114 30.4023 232.457 30.1094 232.707 29.7656C232.957 29.4141 233.09 29.082 233.106 28.7695L234.02 30.0234C233.926 30.3438 233.766 30.6875 233.539 31.0547C233.313 31.4219 233.016 31.7734 232.649 32.1094C232.289 32.4375 231.856 32.707 231.348 32.918C230.848 33.1289 230.27 33.2344 229.614 33.2344C228.785 33.2344 228.047 33.0703 227.399 32.7422C226.75 32.4062 226.242 31.957 225.875 31.3945C225.508 30.8242 225.324 30.1797 225.324 29.4609C225.324 28.7891 225.449 28.1953 225.699 27.6797C225.957 27.1562 226.332 26.7188 226.824 26.3672C227.324 26.0156 227.934 25.75 228.653 25.5703C229.371 25.3828 230.192 25.2891 231.114 25.2891H233.328Z" fill="#0AB69C"/>
<path d="M12.7885 10.096C7.64959 10.7692 3.23389 14.1612 1.17323 19.0238C0.302884 21.0891 -0.0618916 23.0694 0.00850372 25.4419C0.0660999 27.5464 0.443675 29.2261 1.26282 31.1084C3.16349 35.435 7.13123 38.6898 11.6685 39.631C13.0316 39.912 14.8811 40.0035 16.2314 39.8532C21.4791 39.278 26.0548 35.801 28.1474 30.8208C29.7025 27.1085 29.6897 22.7492 28.1154 19.0369C26.0164 14.0828 21.4599 10.6385 16.2314 10.0633C15.3995 9.96527 13.6204 9.98488 12.7885 10.096ZM16.1162 12.1482C19.0344 12.5207 21.6263 13.8344 23.6741 15.9781C24.7173 17.0762 25.3444 17.9781 25.9716 19.3048C28.1282 23.821 27.5395 29.1607 24.4549 33.0626C23.9941 33.6442 22.8998 34.7422 22.3558 35.1605C20.5511 36.5723 18.3753 37.4807 16.1162 37.7683C15.4187 37.8533 13.87 37.8533 13.1724 37.7683C10.9198 37.4807 8.73752 36.5723 6.93284 35.1605C6.35688 34.7161 5.21136 33.5527 4.75699 32.9645C3.27229 31.0234 2.37635 28.8078 2.09476 26.37C1.99877 25.5465 2.05637 23.5531 2.19076 22.8015C2.43394 21.4812 2.70912 20.612 3.25949 19.4159C4.04023 17.7363 5.12816 16.3049 6.61286 15.0239C8.27035 13.5991 10.5998 12.5273 12.7245 12.2201C12.9868 12.1809 13.2748 12.1351 13.3644 12.1221C13.7292 12.0698 15.6171 12.0894 16.1162 12.1482Z" fill="#0AB69C"/>
<path d="M14.1324 17.1741C13.39 17.4225 12.9549 18.0565 12.9613 18.88C12.9613 19.1153 13.1148 21.1283 13.294 23.357C13.5436 26.4026 13.6524 27.4745 13.7292 27.664C14.062 28.4418 15.2267 28.4418 15.5595 27.664C15.6363 27.4745 15.7451 26.4026 15.9946 23.357C16.1738 21.1283 16.3274 19.1153 16.3274 18.88C16.3338 18.1806 16.0074 17.5924 15.4443 17.2983C15.1691 17.148 14.414 17.0761 14.1324 17.1741Z" fill="#0AB69C"/>
<path d="M14.3243 30.0495C13.6524 30.2718 13.3004 30.7423 13.3004 31.4286C13.3004 32.6181 14.7083 33.239 15.5659 32.422C16.0842 31.9253 16.129 30.9842 15.6491 30.4613C15.3483 30.128 14.6955 29.9254 14.3243 30.0495Z" fill="#0AB69C"/>
</svg>
