<svg width="34" height="24" viewBox="0 0 34 24" fill="none" xmlns="http://www.w3.org/2000/svg">
<path d="M10.2493 0.176653C9.96237 0.317879 9.06656 1.25703 5.10541 5.57852C1.76712 9.22214 0.262444 10.9098 0.157466 11.1428C-0.0524888 11.5806 -0.0524888 12.0749 0.157466 12.5127C0.346426 12.9222 9.57745 23.3659 10.0464 23.7048C10.2213 23.8319 10.4873 23.9449 10.6552 23.9731C10.8162 23.9943 15.8831 24.0084 21.9088 23.9943L32.8685 23.9731L33.2114 23.7613C33.4214 23.6271 33.6313 23.4153 33.7643 23.2035L33.9742 22.8575V12.0043V1.15111L33.7643 0.805107C33.6313 0.593269 33.4214 0.38143 33.2114 0.247267L32.8685 0.035429L21.7269 0.0142441L10.5922 0.00012207L10.2493 0.176653ZM16.0231 5.30313C16.254 5.40905 16.8839 5.99514 18.3466 7.47095L20.3621 9.49047L22.4057 7.4427C24.6872 5.15485 24.7502 5.11248 25.534 5.16897C26.3739 5.23252 27.0037 5.86804 27.0667 6.71539C27.1227 7.51331 27.0877 7.5698 24.8132 9.86472L22.7766 11.9337L24.7852 13.9603C26.9337 16.1351 27.0737 16.3258 27.0807 16.9754C27.0807 17.7098 26.7448 18.2747 26.0869 18.5995C25.667 18.8113 25.1841 18.8396 24.7852 18.6772C24.6172 18.5995 23.8264 17.8581 22.4477 16.467L20.3621 14.3698L18.2836 16.467C17.1358 17.618 16.0931 18.6066 15.9741 18.6701C15.3862 18.9667 14.7913 18.8537 14.2175 18.3241C13.8255 17.9711 13.6436 17.5686 13.6436 17.046C13.6506 16.3117 13.7416 16.1846 15.9391 13.9603L17.9477 11.9337L15.9041 9.86472C14.5534 8.50189 13.8255 7.71103 13.7486 7.54156C13.5876 7.14613 13.6156 6.5318 13.8115 6.10106C14.1825 5.28901 15.1973 4.92889 16.0231 5.30313Z" fill="#4C4C4C"/>
</svg>
