<svg width="420" height="176" viewBox="0 0 420 176" fill="none" xmlns="http://www.w3.org/2000/svg">
<path d="M115.947 44.1983C117.636 41.8477 118.637 29.7799 121.255 25.4618C123.359 21.9904 126.61 20.0843 130.465 19.157C133.183 18.8722 136.069 19.0599 138.806 19.0699L153.301 19.0984L166.539 19.0697C169.177 19.061 171.987 18.8627 174.602 19.2578C176.531 19.5493 178.067 20.4514 179.639 21.5467C183.065 23.9356 186.892 26.1473 187.644 30.6376C187.838 31.7948 187.735 32.9464 187.529 34.0947C187.02 36.9356 186.072 39.7429 185.365 42.5426C184.554 45.7511 182.177 57.6073 180.648 59.7963C181.699 59.9034 182.759 60.0502 183.753 60.4199C186.058 61.2548 187.933 62.9719 188.968 65.192C189.732 66.8701 189.89 68.7233 189.218 70.4582C188.277 72.8921 185.724 74.7651 183.406 75.8072C184.608 76.499 185.769 77.8802 186.327 79.1511C186.971 80.6234 187.058 82.3454 186.472 83.8508C185.542 86.2448 182.574 88.8738 180.239 89.8975C181.808 90.5057 183.546 92.4457 184.286 93.9112C185.136 95.5887 185.395 97.6094 184.788 99.4087C183.919 101.972 181.056 104.152 178.698 105.306C179.553 105.763 180.377 106.625 180.975 107.383C181.995 108.679 182.46 110.206 182.259 111.851C181.96 114.284 180.456 116.149 178.569 117.607C175.973 119.617 173.589 120.899 170.238 120.473C170.055 120.941 169.82 121.32 169.511 121.716C167.772 123.942 165.635 125.491 163.608 127.41C158.718 132.042 159.531 133.928 151.566 134.88C150.51 136.296 147.229 139.064 145.819 140.428C142.157 143.971 138.507 147.504 134.451 150.602C129.269 154.559 123.639 157.812 118.07 161.18C112.344 164.673 106.639 168.202 100.958 171.765C101.021 172.898 100.871 173.677 100.239 174.632L152.479 174.634L169.504 174.643C172.346 174.643 175.237 174.509 178.072 174.651C178.607 174.678 179.585 174.659 179.933 175.046C179.361 175.341 178.59 175.439 177.953 175.485C175.492 175.665 172.811 175.428 170.329 175.409C165.219 175.378 160.11 175.377 155.003 175.407L23.6017 175.406C20.6025 175.4 0.972837 175.601 0.351216 175.352C0.0822045 175.244 0.112321 175.151 0 174.901C0.784149 174.34 24.194 174.646 27.3338 174.648C31.1696 169.016 35.4868 163.636 39.5479 158.161C42.8459 153.714 45.9888 148.954 49.5352 144.716C50.3116 143.788 51.2249 142.824 52.251 142.18C56.1948 139.705 63.2557 140.822 67.5372 141.766C68.9565 138.968 70.9888 134.604 71.5581 131.589C71.9075 129.74 71.5579 127.623 71.694 125.721C72.0828 120.837 72.9501 116.002 74.283 111.288C76.6329 103.038 80.3804 95.7191 84.4202 88.1962C86.6783 83.9878 88.8897 79.7283 91.3113 75.6114C94.1252 70.8274 97.1772 66.1597 100.089 61.4334C101.682 58.8489 108.3 47.9282 110.196 46.4618C111.751 45.2591 114.053 44.6478 115.947 44.1983ZM131.24 19.9872C127.411 20.6533 124.293 22.3825 122.054 25.6307C121.325 26.685 120.931 28.2936 120.594 29.5245C119.16 34.7839 118.065 40.1771 116.783 45.4799L108.613 79.0715L100.794 110.789C99.9234 114.431 98.8866 118.083 98.1417 121.747C97.8895 122.974 97.8264 124.274 98.0809 125.506C98.5036 127.556 99.865 129.381 101.607 130.521C102.513 131.115 103.382 131.315 104.449 131.411C107.473 131.682 110.597 131.551 113.635 131.556L129.531 131.57L140.688 131.61C142.799 131.617 145.121 131.784 147.201 131.48C150.842 130.99 153.737 129.43 156.005 126.472C156.89 125.316 157.443 124.074 157.864 122.69C159.143 118.465 160.01 114.053 161.102 109.771C162.924 102.63 164.878 95.5091 166.578 88.3372C167.01 86.5165 167.136 84.6236 167.589 82.8192C168.141 80.6171 169.091 78.5088 169.696 76.3067C172.568 65.8248 175.074 55.1638 177.556 44.5806C178.628 40.0109 180.062 35.3891 180.837 30.7741C181.026 29.6517 181.091 28.5879 180.926 27.4555C180.701 25.9022 179.48 22.5205 178.161 21.5661C178.093 21.5176 178.021 21.4777 177.951 21.4333C176.937 20.7889 175.865 20.2728 174.663 20.1029C172.309 19.7706 169.831 19.8987 167.456 19.8968H155.981L140.378 19.905C137.347 19.9043 134.262 19.7902 131.24 19.9872ZM180.484 23.9281C181.554 24.9336 181.811 26.8505 181.846 28.2469C181.874 29.3343 181.783 30.3762 181.577 31.4421C181.082 34.0158 174.663 61.4793 173.836 62.4087C174.985 61.7417 176.132 61.0126 177.332 60.4433C178.177 60.2598 179.104 60.1338 179.921 59.8656C180.484 58.9423 186.416 35.6433 186.834 33.1375C187.004 32.1115 186.992 31.3306 186.738 30.3106C186.103 27.7446 184.473 25.8331 182.224 24.523C181.64 24.182 181.185 23.8861 180.484 23.9281ZM115.219 45.2976C113.731 45.7425 112.335 46.2891 110.913 46.9104C111.802 47.8995 112.337 49.0548 112.251 50.4181C112.16 51.8584 111.05 53.2546 109.997 54.1539C108.346 55.5632 106.688 56.0356 104.563 56.0913C100.257 62.8169 95.7971 69.6025 91.776 76.4985C89.7864 79.9138 87.993 83.4613 86.1062 86.9359C81.6671 95.109 77.5196 102.979 74.9581 111.98C73.6876 116.457 72.8714 121.051 72.5219 125.691C72.3845 127.714 72.7194 129.91 72.3294 131.895C71.6943 135.126 69.8726 138.91 68.4194 141.878C70.8763 142.826 73.4083 143.465 75.8114 144.572C86.0081 149.267 95.0499 157.739 99.6595 168.08C100 168.847 100.622 170.046 100.428 170.892C101.682 170.451 113.028 163.53 113.421 162.892C115.704 162.032 117.839 160.289 119.924 159.015C123.457 156.855 127.046 154.823 130.449 152.449C136.34 148.338 141.464 143.518 146.547 138.47C147.374 137.65 149.385 136.172 149.842 135.205C149.889 135.107 149.922 134.92 149.94 134.827L121.068 134.772C116.965 134.766 110.936 135.132 107.05 134.611C106.137 134.488 105.378 134.121 104.724 133.471L104.612 133.359C101.675 130.422 97.0558 130.324 97.0698 124.414C97.0815 120.017 99.9 110.704 101.019 106.081C102.445 100.166 116.038 45.9707 115.81 45.3431L115.219 45.2976ZM110.004 47.7863C109.091 49.3123 105.652 53.5459 105.61 55.0088C105.869 55.0726 106.037 55.1262 106.296 55.0506C107.977 54.8165 109.14 53.9793 110.165 52.6485C110.85 51.7585 111.464 50.5969 111.342 49.4362C111.27 48.7692 110.878 48.3542 110.411 47.9161L110.004 47.7863ZM179.342 60.858C177.715 61.2368 176.578 61.6831 175.183 62.634C174.665 62.9866 174.179 63.452 173.596 63.6887C173.605 63.7228 173.612 63.7568 173.619 63.7914C174.021 66.1429 171.865 67.9251 173.182 71.8427C173.43 72.573 173.78 73.3157 174.408 73.7941C175.221 74.4145 176.134 74.3228 177.073 74.1587C178.611 73.8896 180.031 73.3003 181.474 74.2518C181.645 74.3643 181.766 74.4696 181.876 74.6409C182.439 74.911 182.815 75.2123 183.459 74.9667C185.346 74.25 187.873 71.7356 188.501 69.8495C189.024 68.2852 188.769 66.644 188.029 65.1953C187.053 63.2653 185.344 61.8068 183.284 61.1451C181.99 60.7343 180.678 60.7054 179.342 60.858ZM171.769 71.0232C171.639 73.0972 170.887 76.6738 169.605 78.3491C169.567 78.3975 169.535 78.4483 169.5 78.4981C170.287 78.0931 171.272 77.6352 171.746 76.8398C172.753 76.3212 173.726 75.7836 174.695 75.195C174.242 74.5452 173.413 74.2677 173.056 73.5561C172.701 72.8468 172.458 71.3395 171.769 71.0232ZM177.668 74.7581C174.24 76.3837 169.841 78.5139 168.472 82.3428C167.858 84.0644 167.989 85.9131 168.801 87.5469C169.654 89.2573 171.232 90.772 173.07 91.3709C173.983 91.669 174.737 91.648 175.648 91.3555C178.74 90.6672 183.368 87.3205 185.052 84.6315C185.841 83.3724 186.142 81.9871 185.799 80.5263C185.327 78.5034 183.805 76.6295 182.035 75.5799C180.554 74.7014 179.363 74.4817 177.668 74.7581ZM167.475 87.62C167.627 90.1395 163.708 102.943 162.858 106.364L160.094 117.585C159.601 119.598 159.225 121.742 158.513 123.687C157.901 125.358 156.962 126.762 155.781 128.076C153.025 131.147 149.744 132.255 145.732 132.43C140.791 132.646 135.761 132.458 130.813 132.437L104.164 132.334C104.858 132.676 105.953 133.103 106.38 133.775C107.854 133.803 109.329 133.851 110.801 133.845L140.016 133.972C144.084 133.976 149.73 134.457 153.585 133.69C156.04 133.196 158.296 131.993 160.073 130.228C164.563 125.74 164.607 118.853 165.735 112.991C166.1 111.092 166.999 108.738 166.996 106.843C166.996 106.756 166.994 106.668 166.989 106.581C166.952 106.527 166.919 106.474 166.882 106.421C166.592 106.005 166.128 105.71 165.784 105.336C164.692 104.151 164.306 102.424 164.561 100.855C165.032 97.9565 167.545 95.2565 169.546 93.2309C170.027 92.7435 170.779 92.2228 171.076 91.6141C170.742 91.138 170.273 90.9013 169.878 90.4896C169.126 89.7038 168.46 88.7564 167.921 87.816L167.475 87.62ZM179.597 90.5255C178.06 91.8538 175.837 92.5339 173.815 92.378C173.18 92.329 172.552 92.1815 171.933 92.0338C169.537 94.765 165.098 98.1381 165.338 102.203C165.404 103.339 165.974 104.39 166.819 105.139C167.709 105.927 168.923 106.128 169.827 106.804C172.215 107.24 174.142 107.563 176.274 106.107C178.913 104.303 183.644 101.617 184.281 98.3098C184.606 96.6256 184.031 95.0112 183.062 93.643C182.464 92.8019 180.83 90.7246 179.821 90.551C179.746 90.5384 179.672 90.534 179.597 90.5255ZM177.64 106.085C176.778 107.24 175.013 107.797 173.64 107.997C172.643 108.142 171.59 108.051 170.59 107.941C169.014 109.551 165.995 112.578 166.03 114.918C166.051 116.219 166.926 117.573 167.858 118.426C168.362 118.886 169.021 119.125 169.619 119.435C172.699 119.898 174.77 119.397 177.348 117.52C179.186 116.181 180.893 114.404 181.232 112.063C181.446 110.589 181.112 108.77 180.181 107.579C179.711 106.979 178.78 106.155 178.016 106.081C177.822 106.062 177.881 106.069 177.64 106.085ZM167.807 107.123C167.725 107.799 167.291 109.432 167.536 109.963C167.662 109.768 167.776 109.635 167.821 109.406C168.365 108.958 168.958 108.551 169.259 107.894L169.189 107.474C168.729 107.183 168.339 107.157 167.807 107.123ZM165.728 117.703C165.649 119.663 164.846 124.802 163.51 126.238C164.196 125.828 165.495 125.105 165.707 124.275C166.84 123.585 168.876 121.645 169.243 120.378C168.136 119.463 167.029 118.955 166.06 117.796L165.728 117.703ZM56.2726 141.722C54.5208 142.09 52.7495 142.616 51.4124 143.874C50.0132 145.191 48.882 146.992 47.7373 148.538L41.5613 156.909C37.3041 162.681 32.5964 168.349 28.6948 174.354L28.5539 174.573L72.9805 174.612L90.3235 174.625C92.9319 174.63 95.9769 174.932 98.5339 174.549C99.0687 174.469 99.3302 174.318 99.6992 173.899C100.169 173.366 100.208 172.513 100.113 171.84C99.8953 170.345 99.0897 168.89 98.4312 167.545C95.0406 160.609 89.9662 154.633 83.673 150.162C75.768 144.457 66.1083 140.961 56.2726 141.722Z" fill="black"/>
<path d="M147.201 131.48C145.12 131.784 142.799 131.617 140.688 131.61L129.531 131.57L113.635 131.556C110.597 131.551 107.473 131.682 104.449 131.411C103.382 131.315 102.513 131.115 101.607 130.521C99.865 129.381 98.5036 127.556 98.0809 125.506C97.8264 124.274 97.8894 122.974 98.1416 121.747C98.8866 118.083 99.9234 114.431 100.794 110.789L108.613 79.0715L116.783 45.4799C118.065 40.1771 119.16 34.7839 120.594 29.5245C120.931 28.2936 121.325 26.685 122.054 25.6307C124.293 22.3825 127.411 20.6533 131.24 19.9872C134.262 19.7902 137.347 19.9043 140.378 19.905L155.981 19.8968H167.456C169.831 19.8987 172.309 19.7706 174.663 20.1029C175.865 20.2728 176.937 20.7889 177.951 21.4333C178.021 21.4776 178.093 21.5176 178.161 21.5661C179.48 22.5205 180.701 25.9022 180.926 27.4554C181.091 28.5879 181.026 29.6517 180.837 30.7741C180.062 35.3891 178.628 40.0109 177.556 44.5806C175.074 55.1638 172.568 65.8248 169.696 76.3067C169.091 78.5088 168.141 80.6171 167.589 82.8192C167.136 84.6236 167.01 86.5165 166.578 88.3372C164.878 95.5091 162.924 102.63 161.102 109.771C160.01 114.053 159.143 118.465 157.864 122.69C157.443 124.074 156.89 125.316 156.005 126.472C153.737 129.43 150.842 130.99 147.201 131.48ZM129.947 22.2693C127.38 23.1119 124.942 24.5275 123.688 27.0363C122.257 29.8987 121.738 33.7423 120.98 36.8572L116.211 56.6975C112.029 73.2685 107.975 89.8713 104.047 106.504C102.812 111.772 101.278 117.04 100.222 122.341C99.9981 123.456 99.9304 124.398 100.323 125.485C100.815 126.854 101.595 127.862 102.924 128.477C103.912 128.935 104.991 129.141 106.072 129.211C111.69 129.578 117.54 129.184 123.186 129.197C130.584 129.213 138.01 129.564 145.403 129.402C146.23 129.384 147.313 129.39 148.086 129.078C148.14 129.056 148.191 129.024 148.243 128.996C151.035 128.357 153.455 126.633 154.97 124.204C156.843 121.149 158.45 112.584 159.4 108.823C161.383 101.196 163.323 93.5574 165.222 85.9087C168.33 73.8833 171.33 61.8308 174.224 49.7525C175.695 43.7798 177.439 37.7971 178.588 31.7553C178.885 30.2035 178.999 28.6497 178.614 27.1014C178.168 25.31 177.306 23.8763 175.697 22.9303C174.992 22.516 174.233 22.264 173.418 22.1988C170.667 21.9788 167.809 22.123 165.049 22.1288L150.185 22.141L137.354 22.1237C134.932 22.1214 132.342 21.9442 129.947 22.2693Z" fill="#FEFEFE"/>
<path d="M148.243 128.996C148.191 129.024 148.14 129.056 148.086 129.078C147.313 129.39 146.23 129.384 145.403 129.402C138.01 129.564 130.584 129.213 123.186 129.197C117.54 129.184 111.69 129.578 106.072 129.211C104.991 129.141 103.912 128.935 102.924 128.477C101.595 127.862 100.816 126.854 100.323 125.485C99.9305 124.398 99.9982 123.456 100.222 122.341C101.278 117.04 102.812 111.772 104.047 106.504C107.975 89.8713 112.029 73.2685 116.211 56.6975L120.98 36.8572C121.739 33.7423 122.257 29.8987 123.688 27.0363C124.942 24.5275 127.38 23.1119 129.947 22.2693C132.343 21.9442 134.932 22.1214 137.354 22.1237L150.186 22.141L165.049 22.1288C167.809 22.123 170.667 21.9788 173.418 22.1989C174.233 22.264 174.992 22.516 175.697 22.9303C177.306 23.8763 178.168 25.3101 178.614 27.1014C178.999 28.6498 178.885 30.2035 178.588 31.7554C177.439 37.7971 175.695 43.7798 174.224 49.7525C171.331 61.8308 168.33 73.8833 165.222 85.9087C163.323 93.5574 161.383 101.196 159.4 108.823C158.45 112.584 156.843 121.149 154.97 124.204C153.455 126.633 151.036 128.357 148.243 128.996ZM151.283 24.0756C150.529 24.2945 150.095 25.0816 150.312 25.8357C150.529 26.5898 151.313 27.0272 152.068 26.8138C152.827 26.5994 153.268 25.8088 153.051 25.0505C152.834 24.2924 152.04 23.8553 151.283 24.0756ZM123.621 29.3226C123.623 29.3619 123.628 29.4006 123.628 29.4398C123.717 31.5483 120.618 42.1446 119.952 44.8726L104.97 106.465C104.157 109.915 103.309 113.358 102.427 116.791C101.88 118.969 101.028 121.415 100.965 123.665C100.914 125.06 101.495 126.403 102.546 127.322C103.37 128.046 105.194 128.186 106.27 128.272C112.298 128.753 119.707 128.331 125.909 128.397C130.605 128.486 135.301 128.543 139.997 128.568C142.059 128.574 144.247 128.718 146.288 128.496C148.037 128.304 150.907 127.541 152.047 126.057C152.135 125.943 152.138 125.912 152.182 125.795C154.286 124.562 155.078 122.225 155.657 120.007L170.777 60.2029L175.226 42.1171C176.125 38.4749 177.152 34.8045 177.808 31.11C177.916 30.4992 178.072 29.8296 177.792 29.2501L140.14 29.2629L129.744 29.2398C127.735 29.2319 125.613 29.0944 123.621 29.3226Z" fill="black"/>
<path d="M173.836 62.4087C174.663 61.4793 181.082 34.0158 181.577 31.4421C181.783 30.3762 181.874 29.3343 181.846 28.2469C181.811 26.8505 181.554 24.9336 180.484 23.9281C181.185 23.8861 181.64 24.182 182.224 24.523C184.473 25.8331 186.103 27.7446 186.738 30.3106C186.993 31.3306 187.004 32.1115 186.834 33.1375C186.416 35.6433 180.484 58.9423 179.922 59.8656C179.104 60.1338 178.177 60.2598 177.332 60.4433C176.132 61.0125 174.985 61.7417 173.836 62.4087Z" fill="#66D9C8"/>
<path d="M152.068 26.8138C151.313 27.0271 150.529 26.5898 150.312 25.8357C150.094 25.0815 150.529 24.2945 151.283 24.0756C152.04 23.8553 152.834 24.2924 153.051 25.0505C153.268 25.8088 152.827 26.5993 152.068 26.8138Z" fill="#FEFEFE"/>
<path d="M152.182 125.795C152.138 125.912 152.135 125.943 152.047 126.057C150.907 127.541 148.037 128.304 146.288 128.496C144.247 128.718 142.059 128.574 139.997 128.568C135.301 128.543 130.605 128.486 125.909 128.397C119.707 128.331 112.297 128.753 106.27 128.272C105.194 128.186 103.37 128.046 102.546 127.322C101.495 126.403 100.913 125.06 100.965 123.665C101.028 121.415 101.88 118.969 102.427 116.791C103.309 113.358 104.157 109.915 104.97 106.465L119.952 44.8726C120.618 42.1446 123.716 31.5483 123.628 29.4398C123.628 29.4006 123.623 29.3618 123.621 29.3226C125.612 29.0944 127.735 29.2318 129.743 29.2398L140.14 29.2629L177.792 29.25C178.072 29.8296 177.916 30.4992 177.808 31.11C177.152 34.8045 176.124 38.4749 175.225 42.1171L170.777 60.2029L155.657 120.007C155.078 122.225 154.286 124.562 152.182 125.795ZM128.464 72.7532C129.968 73.4942 131.289 74.7018 132.873 75.455C137.699 77.7535 143.217 77.7157 148.201 75.9223C149.599 75.4195 153.539 73.9148 154.169 72.5688C156.698 71.8777 160.143 67.3766 161.432 65.1157C163.725 61.0938 164.61 56.2965 163.33 51.7889C162.319 48.2524 159.928 45.2705 156.696 43.5112C151.984 40.9027 146.437 40.8161 141.359 42.3071C135.17 44.1231 129.496 48.0274 126.364 53.7581C124.293 57.5484 123.385 62.1807 124.674 66.3877C124.973 67.3754 125.407 68.3165 125.967 69.1836C126.425 69.8994 128.405 72.1029 128.464 72.7532ZM120.888 91.7698C118.999 92.3505 117.435 93.1557 116.475 94.9732C115.87 96.1199 115.711 97.4591 116.101 98.702C116.435 99.7604 117.148 100.619 118.149 101.107C119.205 101.622 120.695 101.865 121.855 101.635C123.653 101.383 125.239 100.761 126.355 99.2607C127.147 98.2083 127.483 96.884 127.289 95.5824C127.107 94.3934 126.439 93.3329 125.449 92.6504C124.071 91.6909 122.507 91.6027 120.888 91.7698ZM134.512 91.7703C132.648 92.1563 131.065 92.9048 129.979 94.5328C129.241 95.6344 128.94 96.9624 129.213 98.2667C129.437 99.3363 130.052 100.377 131 100.956C131.815 101.453 133.624 101.938 134.561 101.719C136.518 101.476 138.222 100.901 139.458 99.27C140.266 98.2018 140.663 96.8457 140.445 95.514C140.263 94.3992 139.644 93.4036 138.724 92.7477C137.461 91.8412 136.018 91.7201 134.512 91.7703ZM148.049 91.7703C146.09 92.1101 144.457 92.7533 143.255 94.4147C142.498 95.4582 142.11 96.7972 142.321 98.0792C142.493 99.1323 143.033 100.023 143.904 100.645C144.943 101.386 146.08 101.588 147.325 101.685C149.177 101.651 150.786 101.192 152.103 99.8206C153.09 98.7939 153.702 97.4173 153.641 95.9803C153.602 94.8609 153.111 93.8053 152.278 93.0553C151.117 92.0177 149.553 91.7576 148.049 91.7703ZM126.058 121.022C125.036 121.608 124.111 122.182 123.77 123.384C123.646 123.814 123.705 124.254 123.929 124.641C124.457 125.549 125.619 126.011 126.596 126.222C128.078 126.544 130.598 126.707 132.072 126.408C133.246 126.297 133.949 125.976 134.71 125.054C135.075 124.612 135.292 124.047 135.233 123.468C135.163 122.775 134.755 122.169 134.208 121.755C132.366 120.357 128.275 120.735 126.058 121.022Z" fill="#B5FEF3"/>
<path d="M154.169 72.5688C154.106 71.9363 153.912 71.7479 153.415 71.3526C151.881 70.134 148.198 70.1606 147.902 67.7998C147.708 66.257 147.953 64.3361 148.941 63.0818C149.915 61.8425 152.848 60.2236 152.719 58.5485C152.644 57.5676 153.237 57.027 153.585 56.1667C154.863 53.0018 153.081 50.0409 150.72 47.9917C148.768 46.2975 146.463 45.2665 143.836 45.4502C141.452 45.6169 138.769 47.0028 137.235 48.8336C136.677 49.5016 136.09 50.5259 136.172 51.4276C136.336 53.1967 137.225 52.2732 136.046 54.3154C134.832 56.4169 134.965 61.2882 135.609 63.5939C136.025 65.0867 137.354 65.722 137.751 66.8081C137.655 67.7594 137.529 68.58 136.828 69.297L136.709 69.3423C134.208 70.2654 130.294 70.7371 128.464 72.7532C128.405 72.1029 126.425 69.8994 125.967 69.1836C125.407 68.3165 124.973 67.3754 124.674 66.3877C123.385 62.1807 124.293 57.5484 126.364 53.758C129.496 48.0274 135.17 44.1231 141.359 42.3071C146.437 40.8161 151.984 40.9027 156.696 43.5112C159.928 45.2705 162.319 48.2524 163.33 51.7889C164.61 56.2965 163.725 61.0938 161.432 65.1157C160.143 67.3766 156.698 71.8777 154.169 72.5688Z" fill="#66D9C8"/>
<path d="M110.913 46.9104C112.335 46.2891 113.731 45.7424 115.219 45.2976L115.81 45.3431C116.038 45.9707 102.445 100.166 101.019 106.081C99.9 110.704 97.0815 120.017 97.0698 124.414C97.0558 130.324 101.675 130.422 104.612 133.359L104.724 133.471C105.378 134.121 106.137 134.488 107.05 134.611C110.936 135.132 116.965 134.766 121.068 134.772L149.94 134.827C149.922 134.92 149.889 135.107 149.842 135.205C149.385 136.172 147.374 137.65 146.547 138.47C141.464 143.518 136.34 148.338 130.449 152.449C127.046 154.823 123.457 156.855 119.924 159.015C117.839 160.289 115.704 162.032 113.421 162.892C113.028 163.53 101.682 170.451 100.428 170.892C100.622 170.046 100 168.847 99.6595 168.08C95.0499 157.739 86.0081 149.267 75.8114 144.572C73.4083 143.465 70.8763 142.826 68.4194 141.878C69.8726 138.91 71.6943 135.126 72.3294 131.895C72.7194 129.91 72.3845 127.714 72.5219 125.691C72.8714 121.051 73.6876 116.457 74.9581 111.98C77.5196 102.979 81.6671 95.109 86.1062 86.9359C87.993 83.4613 89.7864 79.9138 91.776 76.4985C95.7971 69.6025 100.257 62.8169 104.563 56.0913C106.688 56.0355 108.346 55.5631 109.997 54.1539C111.05 53.2546 112.16 51.8584 112.251 50.4181C112.337 49.0548 111.802 47.8995 110.913 46.9104Z" fill="#FEFEFE"/>
<path d="M154.169 72.5688C153.539 73.9148 149.599 75.4195 148.201 75.9223C143.217 77.7157 137.699 77.7535 132.873 75.455C131.289 74.7018 129.968 73.4942 128.464 72.7532C130.295 70.7371 134.208 70.2654 136.709 69.3423L136.828 69.297C137.529 68.58 137.655 67.7594 137.751 66.8081C137.354 65.7221 136.025 65.0868 135.609 63.5939C134.965 61.2882 134.832 56.4169 136.046 54.3154C137.225 52.2732 136.336 53.1967 136.172 51.4276C136.091 50.526 136.677 49.5016 137.235 48.8336C138.769 47.0028 141.452 45.6169 143.836 45.4502C146.463 45.2666 148.768 46.2975 150.72 47.9917C153.081 50.041 154.863 53.0018 153.586 56.1667C153.238 57.027 152.645 57.5676 152.719 58.5486C152.848 60.2237 149.915 61.8425 148.941 63.0819C147.953 64.3361 147.708 66.257 147.902 67.7998C148.198 70.1606 151.881 70.134 153.415 71.3526C153.912 71.7479 154.106 71.9363 154.169 72.5688ZM142.412 46.5428C140.756 47.2049 138.113 48.3434 137.433 50.1014C137.008 51.2002 138.491 53.2819 137.865 53.762C136.798 54.5813 136.443 55.3727 136.28 56.697C135.96 59.2812 135.609 62.648 137.342 64.8116C137.872 65.4761 139.318 66.2519 139.39 66.9995C138.082 67.8208 138.552 68.9616 137.629 69.9697C136.228 70.4848 134.766 70.8228 133.351 71.3033C132.069 71.7379 130.776 72.3482 129.484 72.7144C133.426 74.4761 136.436 76.5681 140.987 76.3909C141.609 76.3667 142.515 76.4166 143.091 76.2108C145.48 75.9452 151.162 74.5023 152.757 72.6346C152.822 72.559 152.885 72.4346 152.929 72.3536C152.044 71.0503 148.714 70.2717 147.15 69.94C147.731 67.8292 146.529 65.7774 147.612 63.576C148.434 61.9051 151.727 60.1352 151.799 58.5248C151.491 58.138 151.176 57.9989 150.732 57.7961L150.657 57.4297C151.486 56.5691 153.296 57.1262 153.27 54.4064C153.249 52.3278 151.755 50.2214 150.305 48.8492C148.642 47.2757 146.695 46.311 144.371 46.3656C143.717 46.381 143.059 46.4651 142.412 46.5428Z" fill="black"/>
<path d="M137.629 69.9697C138.552 68.9616 138.082 67.8208 139.39 66.9995C139.318 66.2519 137.872 65.4761 137.342 64.8116C135.609 62.648 135.96 59.2812 136.279 56.697C136.443 55.3727 136.798 54.5813 137.865 53.762C138.491 53.2819 137.008 51.2002 137.433 50.1014C138.113 48.3435 140.756 47.2049 142.412 46.5428C143.058 46.4651 143.717 46.381 144.371 46.3656C146.694 46.311 148.642 47.2757 150.304 48.8492C151.755 50.2214 153.249 52.3278 153.27 54.4064C153.296 57.1262 151.486 56.5691 150.657 57.4297L150.732 57.7961C151.175 57.9989 151.491 58.138 151.799 58.5248C151.727 60.1352 148.434 61.9051 147.612 63.576C146.529 65.7774 147.731 67.8292 147.15 69.94C148.714 70.2717 152.044 71.0503 152.929 72.3536C152.885 72.4346 152.822 72.559 152.756 72.6346C151.161 74.5023 145.48 75.9452 143.091 76.2108C142.514 76.4166 141.608 76.3667 140.987 76.3909C136.436 76.5681 133.426 74.4761 129.484 72.7144C130.775 72.3482 132.069 71.7379 133.351 71.3033C134.766 70.8228 136.228 70.4848 137.629 69.9697Z" fill="#FEFEFE"/>
<path d="M106.296 55.0506C106.037 55.1262 105.869 55.0725 105.61 55.0088C105.652 53.5459 109.091 49.3123 110.004 47.7863L110.411 47.9161C110.878 48.3542 111.27 48.7692 111.342 49.4362C111.464 50.5969 110.85 51.7585 110.166 52.6485C109.14 53.9793 107.977 54.8165 106.296 55.0506Z" fill="#FEFEFE"/>
<path d="M173.596 63.6887C174.179 63.452 174.665 62.9866 175.184 62.634C176.578 61.6831 177.715 61.2368 179.342 60.858C180.678 60.7054 181.991 60.7343 183.284 61.1451C185.344 61.8068 187.053 63.2653 188.029 65.1953C188.77 66.644 189.024 68.2852 188.501 69.8495C187.873 71.7356 185.346 74.25 183.459 74.9667C182.815 75.2123 182.439 74.911 181.876 74.6409C181.766 74.4696 181.645 74.3643 181.474 74.2518C180.031 73.3003 178.612 73.8896 177.073 74.1587C176.134 74.3228 175.221 74.4145 174.408 73.7941C173.78 73.3157 173.43 72.573 173.182 71.8427C171.865 67.9251 174.021 66.1429 173.619 63.7914C173.612 63.7568 173.605 63.7228 173.596 63.6887ZM178.521 62.725C177.731 63.382 177.18 63.87 177.082 64.9621C176.893 67.093 177.937 70.0831 179.312 71.7073C179.94 72.4488 180.821 73.0776 181.832 73.0958C182.147 73.1014 182.444 73.0104 182.735 72.8974C183.674 72.5562 184.225 72.0441 184.639 71.1346C185.332 69.6093 185.061 67.7414 184.452 66.2348C183.877 64.8176 182.827 63.4614 181.393 62.8422C180.445 62.4332 179.506 62.5287 178.521 62.725Z" fill="#FEFEFE"/>
<path d="M182.735 72.8974C182.444 73.0104 182.147 73.1014 181.832 73.0958C180.821 73.0776 179.94 72.4488 179.312 71.7073C177.937 70.0831 176.893 67.093 177.082 64.9621C177.18 63.87 177.731 63.382 178.52 62.725C179.506 62.5287 180.445 62.4332 181.393 62.8422C182.827 63.4614 183.877 64.8176 184.452 66.2348C185.061 67.7414 185.332 69.6093 184.639 71.1346C184.225 72.0441 183.674 72.5562 182.735 72.8974ZM179.349 63.3475C178.829 63.6149 178.289 63.8539 178.081 64.4463C177.528 66.0182 178.467 68.5833 179.223 69.9659C179.672 70.7838 180.4 71.8124 181.332 72.1188C181.636 72.218 181.97 72.193 182.28 72.1704C183.013 71.9433 183.401 71.7013 183.768 70.9997C184.386 69.8159 184.286 68.4449 183.887 67.2079C183.443 65.8299 182.5 64.3518 181.176 63.6763C180.575 63.3715 180.003 63.3472 179.349 63.3475Z" fill="black"/>
<path d="M182.28 72.1704C181.969 72.193 181.635 72.218 181.332 72.1188C180.4 71.8123 179.672 70.7837 179.223 69.9659C178.467 68.5833 177.528 66.0182 178.081 64.4463C178.289 63.8539 178.829 63.6149 179.349 63.3474C180.003 63.3472 180.575 63.3715 181.175 63.6763C182.499 64.3518 183.443 65.8299 183.887 67.2078C184.286 68.4449 184.386 69.8158 183.767 70.9996C183.401 71.7012 183.013 71.9433 182.28 72.1704Z" fill="#FEFEFE"/>
<path d="M169.5 78.498C169.535 78.4483 169.567 78.3974 169.605 78.3491C170.887 76.6738 171.639 73.0972 171.77 71.0232C172.458 71.3395 172.701 72.8468 173.056 73.5561C173.413 74.2677 174.242 74.5452 174.695 75.195C173.726 75.7836 172.753 76.3211 171.746 76.8398C171.272 77.6352 170.287 78.0931 169.5 78.498Z" fill="#66D9C8"/>
<path d="M175.648 91.3555C174.737 91.648 173.983 91.669 173.07 91.3709C171.232 90.772 169.654 89.2573 168.801 87.5469C167.989 85.9131 167.858 84.0644 168.472 82.3428C169.841 78.5139 174.24 76.3837 177.668 74.7581C179.363 74.4817 180.554 74.7014 182.035 75.5799C183.805 76.6295 185.327 78.5034 185.799 80.5263C186.142 81.9871 185.841 83.3723 185.052 84.6315C183.368 87.3205 178.74 90.6672 175.648 91.3555ZM174.857 79.3222C174.149 79.8053 173.292 80.2922 173.091 81.1954C172.816 82.4325 173.563 83.8833 174.256 84.8521C175.015 85.9087 176.202 87.3427 177.47 87.7131L178.161 87.6216C178.99 87.4006 179.634 86.959 180.083 86.2154C180.629 85.3075 180.61 84.2245 180.337 83.2328C179.943 81.8116 178.976 80.4563 177.675 79.7278C176.732 79.1989 175.907 79.1411 174.857 79.3222Z" fill="#FEFEFE"/>
<path d="M178.161 87.6216L177.47 87.7131C176.202 87.3427 175.015 85.9087 174.256 84.8521C173.563 83.8832 172.816 82.4324 173.091 81.1954C173.292 80.2922 174.149 79.8053 174.857 79.3222C175.907 79.1411 176.732 79.1989 177.675 79.7278C178.976 80.4563 179.942 81.8116 180.337 83.2328C180.61 84.2245 180.629 85.3074 180.083 86.2154C179.634 86.959 178.99 87.4006 178.161 87.6216ZM175.232 80.1519C174.677 80.5316 174.282 80.7881 174.009 81.4344C173.88 82.5384 174.569 83.8506 175.237 84.7011C175.828 85.4533 176.461 86.3045 177.308 86.7718L177.953 86.8208C178.665 86.5897 179.125 86.2492 179.445 85.5635C179.835 84.7333 179.688 83.7353 179.335 82.9195C178.871 81.8405 177.93 80.7046 176.802 80.2917C176.267 80.0968 175.786 80.1024 175.232 80.1519Z" fill="black"/>
<path d="M177.953 86.8208L177.309 86.7718C176.461 86.3045 175.828 85.4533 175.237 84.7011C174.569 83.8506 173.881 82.5384 174.009 81.4344C174.282 80.7882 174.677 80.5317 175.233 80.1519C175.786 80.1024 176.267 80.0968 176.802 80.2917C177.93 80.7046 178.871 81.8405 179.335 82.9196C179.688 83.7353 179.835 84.7333 179.445 85.5635C179.125 86.2492 178.665 86.5897 177.953 86.8208Z" fill="#FEFEFE"/>
<path d="M104.164 132.334L130.813 132.437C135.761 132.458 140.791 132.646 145.732 132.43C149.744 132.255 153.025 131.147 155.781 128.076C156.962 126.762 157.901 125.358 158.513 123.687C159.225 121.742 159.601 119.598 160.094 117.585L162.858 106.364C163.708 102.943 167.627 90.1395 167.475 87.62L167.921 87.816C168.461 88.7564 169.126 89.7037 169.878 90.4896C170.273 90.9013 170.742 91.138 171.076 91.6141C170.779 92.2228 170.027 92.7435 169.546 93.2309C167.545 95.2565 165.032 97.9565 164.561 100.855C164.306 102.424 164.692 104.151 165.784 105.336C166.128 105.71 166.592 106.005 166.882 106.421C166.919 106.474 166.952 106.527 166.989 106.581C166.994 106.668 166.996 106.756 166.996 106.843C166.999 108.738 166.1 111.092 165.735 112.991C164.608 118.853 164.563 125.74 160.073 130.228C158.296 131.993 156.04 133.196 153.586 133.69C149.73 134.457 144.084 133.976 140.016 133.972L110.801 133.845C109.329 133.851 107.854 133.803 106.38 133.775C105.953 133.103 104.858 132.676 104.164 132.334Z" fill="#66D9C8"/>
<path d="M171.933 92.0338C172.552 92.1815 173.18 92.329 173.815 92.378C175.837 92.5339 178.06 91.8538 179.597 90.5255C179.672 90.5339 179.746 90.5384 179.821 90.551C180.83 90.7246 182.465 92.8019 183.062 93.643C184.031 95.0112 184.606 96.6256 184.281 98.3098C183.644 101.617 178.913 104.303 176.274 106.107C174.142 107.563 172.216 107.24 169.827 106.804C168.923 106.128 167.709 105.927 166.819 105.139C165.974 104.39 165.404 103.339 165.338 102.203C165.098 98.1381 169.537 94.765 171.933 92.0338ZM171.629 95.9194C171.039 97.0292 170.742 97.6878 171.118 98.937C171.622 100.613 173.019 103.151 174.663 103.934C175.149 104.166 175.506 104.151 176.001 103.966L176.143 103.804C176.778 103.463 177.217 103.141 177.458 102.417C177.825 101.309 177.351 99.9983 176.816 99.0266C176.108 97.7446 174.824 96.1455 173.327 95.7807C172.76 95.6423 172.185 95.7933 171.629 95.9194Z" fill="#FEFEFE"/>
<path d="M121.855 101.635C120.695 101.865 119.205 101.622 118.149 101.107C117.148 100.619 116.435 99.7604 116.101 98.7019C115.711 97.4591 115.87 96.1199 116.475 94.9732C117.435 93.1557 118.999 92.3505 120.888 91.7698C122.507 91.6027 124.071 91.6909 125.449 92.6504C126.439 93.3328 127.107 94.3934 127.289 95.5823C127.483 96.884 127.147 98.2083 126.355 99.2607C125.239 100.761 123.653 101.383 121.855 101.635ZM120.902 92.5997C119.287 93.1643 118.072 93.7905 117.285 95.3877C116.797 96.3838 116.687 97.5707 117.061 98.6231C117.353 99.439 117.93 100.081 118.719 100.439C119.667 100.868 120.839 100.964 121.858 100.806C123.34 100.6 124.625 100.11 125.573 98.8926C126.25 98.0213 126.591 96.8929 126.43 95.7922C126.28 94.7806 125.713 93.8781 124.868 93.3027C123.681 92.4805 122.285 92.4322 120.902 92.5997Z" fill="black"/>
<path d="M134.561 101.719C133.625 101.938 131.815 101.453 131 100.956C130.052 100.377 129.438 99.3363 129.213 98.2667C128.94 96.9624 129.241 95.6344 129.979 94.5328C131.065 92.9048 132.648 92.1563 134.512 91.7703C136.018 91.7201 137.461 91.8412 138.725 92.7477C139.645 93.4036 140.263 94.3992 140.446 95.514C140.663 96.8457 140.266 98.2018 139.458 99.27C138.222 100.901 136.518 101.476 134.561 101.719ZM134.619 92.6C132.945 92.9431 131.64 93.5102 130.682 94.9935C130.08 95.9257 129.811 97.0983 130.056 98.192C130.241 99.0219 130.713 99.7247 131.448 100.168C132.319 100.695 133.456 100.909 134.465 100.815C136.097 100.677 137.515 100.25 138.61 98.9585C139.327 98.114 139.75 96.9867 139.631 95.8727C139.535 94.9431 139.065 94.0926 138.328 93.5168C137.239 92.6565 135.957 92.5356 134.619 92.6Z" fill="black"/>
<path d="M147.325 101.685C146.08 101.588 144.943 101.386 143.904 100.645C143.033 100.023 142.493 99.1323 142.321 98.0792C142.11 96.7972 142.498 95.4582 143.255 94.4146C144.457 92.7533 146.09 92.1101 148.049 91.7702C149.553 91.7576 151.117 92.0176 152.278 93.0553C153.111 93.8052 153.602 94.8609 153.642 95.9803C153.702 97.4173 153.09 98.7939 152.103 99.8206C150.786 101.192 149.177 101.651 147.325 101.685ZM146.652 92.8075C145.041 93.693 143.808 94.543 143.29 96.3927C143.028 97.324 143.119 98.3658 143.61 99.2077C144.095 100.047 144.864 100.465 145.786 100.686C146.613 100.884 147.621 101.022 148.455 100.794C149.894 100.499 151.232 99.8388 152.075 98.5894C152.654 97.7333 152.901 96.6634 152.691 95.6461C152.49 94.6803 151.893 93.8732 151.068 93.3448C149.681 92.4583 148.212 92.5757 146.652 92.8075Z" fill="black"/>
<path d="M121.858 100.806C120.839 100.964 119.667 100.868 118.719 100.439C117.93 100.081 117.353 99.439 117.061 98.6231C116.688 97.5707 116.797 96.3839 117.285 95.3877C118.072 93.7906 119.287 93.1644 120.903 92.5998C122.285 92.4322 123.681 92.4805 124.868 93.3027C125.713 93.8781 126.28 94.7806 126.43 95.7922C126.591 96.8929 126.25 98.0214 125.573 98.8926C124.625 100.111 123.34 100.6 121.858 100.806Z" fill="#FEFEFE"/>
<path d="M134.465 100.815C133.456 100.909 132.319 100.695 131.448 100.168C130.713 99.7247 130.241 99.0219 130.056 98.192C129.811 97.0983 130.08 95.9257 130.682 94.9935C131.64 93.5102 132.945 92.9431 134.619 92.6C135.957 92.5356 137.239 92.6565 138.328 93.5168C139.066 94.0926 139.535 94.9431 139.631 95.8727C139.75 96.9867 139.327 98.114 138.61 98.9585C137.515 100.25 136.098 100.677 134.465 100.815Z" fill="#FEFEFE"/>
<path d="M148.455 100.794C147.622 101.022 146.613 100.884 145.786 100.686C144.864 100.465 144.096 100.047 143.61 99.2077C143.119 98.3659 143.028 97.324 143.29 96.3927C143.808 94.543 145.041 93.693 146.653 92.8075C148.212 92.5757 149.681 92.4583 151.068 93.3448C151.893 93.8732 152.49 94.6803 152.691 95.6461C152.901 96.6634 152.654 97.7333 152.075 98.5894C151.232 99.8388 149.894 100.499 148.455 100.794Z" fill="#FEFEFE"/>
<path d="M176.143 103.804L176.001 103.966C175.506 104.151 175.148 104.166 174.663 103.934C173.019 103.151 171.622 100.613 171.118 98.937C170.742 97.6878 171.039 97.0292 171.629 95.9193C172.185 95.7933 172.76 95.6423 173.327 95.7807C174.824 96.1455 176.108 97.7445 176.816 99.0266C177.351 99.9982 177.825 101.309 177.458 102.417C177.217 103.141 176.778 103.463 176.143 103.804ZM172.183 96.7491C171.877 97.3151 171.662 97.7513 171.861 98.4102C172.272 99.7707 173.607 102.48 174.917 103.178C175.209 103.199 175.382 103.266 175.639 103.111C176.15 102.803 176.505 102.537 176.673 101.939C176.914 101.091 176.365 99.8393 175.914 99.1218C175.426 98.3465 174.261 96.8679 173.299 96.6716C172.949 96.6004 172.531 96.6896 172.183 96.7491Z" fill="black"/>
<path d="M175.639 103.111C175.382 103.266 175.209 103.199 174.917 103.178C173.607 102.48 172.271 99.7707 171.86 98.4102C171.662 97.7513 171.877 97.3151 172.183 96.7491C172.531 96.6896 172.949 96.6004 173.299 96.6716C174.261 96.8679 175.426 98.3465 175.914 99.1218C176.365 99.8393 176.914 101.091 176.673 101.939C176.505 102.537 176.15 102.803 175.639 103.111Z" fill="#FEFEFE"/>
<path d="M170.59 107.941C171.59 108.051 172.643 108.142 173.64 107.997C175.013 107.797 176.778 107.24 177.64 106.085C177.881 106.069 177.822 106.062 178.016 106.081C178.78 106.155 179.711 106.978 180.181 107.579C181.112 108.77 181.446 110.589 181.232 112.063C180.893 114.404 179.186 116.181 177.348 117.52C174.77 119.397 172.699 119.898 169.619 119.435C169.021 119.125 168.362 118.886 167.858 118.426C166.926 117.573 166.051 116.218 166.03 114.918C165.995 112.578 169.014 109.551 170.59 107.941ZM172.591 110.649C171.949 111.544 171.683 112.143 171.854 113.257C172.045 114.5 172.598 116.345 173.691 117.105C174.17 117.438 174.611 117.417 175.165 117.34L175.459 117.149C176.094 116.828 176.531 116.469 176.79 115.775C177.131 114.851 176.837 113.701 176.395 112.858C175.935 111.977 175.006 110.884 174.042 110.557C173.563 110.395 173.063 110.537 172.591 110.649Z" fill="#FEFEFE"/>
<path d="M167.821 109.406C167.776 109.635 167.662 109.768 167.536 109.963C167.291 109.432 167.725 107.799 167.807 107.122C168.339 107.157 168.729 107.183 169.189 107.474L169.259 107.894C168.958 108.551 168.365 108.958 167.821 109.406Z" fill="#FEFEFE"/>
<path d="M175.459 117.149L175.165 117.34C174.611 117.417 174.17 117.438 173.691 117.105C172.599 116.345 172.045 114.5 171.854 113.257C171.683 112.143 171.949 111.544 172.591 110.649C173.063 110.537 173.563 110.395 174.042 110.557C175.006 110.884 175.935 111.977 176.395 112.858C176.837 113.701 177.131 114.851 176.79 115.775C176.531 116.469 176.094 116.828 175.459 117.149ZM172.874 111.479C172.468 112.942 172.757 114.194 173.505 115.525C173.722 115.912 173.948 116.226 174.331 116.465C174.639 116.487 174.761 116.559 175.022 116.368C175.52 116.022 175.856 115.848 176.005 115.214C176.199 114.391 175.711 113.274 175.226 112.63C174.798 112.064 174.226 111.448 173.495 111.35L172.874 111.479Z" fill="black"/>
<path d="M175.022 116.368C174.761 116.559 174.639 116.487 174.331 116.465C173.948 116.226 173.722 115.912 173.505 115.525C172.757 114.194 172.468 112.942 172.874 111.479L173.495 111.35C174.226 111.448 174.798 112.064 175.226 112.63C175.711 113.274 176.199 114.391 176.005 115.214C175.856 115.848 175.52 116.022 175.022 116.368Z" fill="#FEFEFE"/>
<path d="M163.51 126.238C164.846 124.802 165.649 119.663 165.728 117.703L166.06 117.796C167.029 118.955 168.136 119.463 169.243 120.378C168.876 121.645 166.84 123.585 165.707 124.275C165.495 125.105 164.197 125.828 163.51 126.238Z" fill="#FEFEFE"/>
<path d="M132.072 126.407C130.598 126.707 128.078 126.544 126.596 126.222C125.619 126.011 124.457 125.549 123.929 124.641C123.705 124.254 123.646 123.814 123.77 123.384C124.111 122.182 125.036 121.608 126.058 121.022C128.275 120.735 132.366 120.357 134.208 121.755C134.755 122.169 135.163 122.775 135.233 123.468C135.292 124.047 135.075 124.611 134.71 125.054C133.949 125.976 133.246 126.297 132.072 126.407ZM126.5 121.852C125.816 122.17 125.001 122.497 124.755 123.283C124.643 123.64 124.716 123.967 124.809 124.317C125.267 125.003 125.883 125.256 126.666 125.405C128.359 125.728 130.322 125.525 132.044 125.483C132.756 125.366 133.335 125.296 133.79 124.668C134.096 124.244 134.225 123.798 134.281 123.282C134.091 122.706 133.975 122.399 133.375 122.12C131.665 121.323 128.394 121.701 126.5 121.852Z" fill="black"/>
<path d="M132.043 125.483C130.322 125.525 128.359 125.728 126.666 125.405C125.883 125.256 125.267 125.003 124.809 124.317C124.716 123.967 124.643 123.64 124.755 123.283C125.001 122.497 125.816 122.17 126.5 121.853C128.394 121.701 131.665 121.323 133.375 122.12C133.975 122.399 134.091 122.706 134.281 123.282C134.225 123.798 134.096 124.244 133.79 124.668C133.335 125.296 132.756 125.366 132.043 125.483Z" fill="#FEFEFE"/>
<path d="M28.554 174.573L28.6948 174.354C32.5964 168.349 37.3041 162.681 41.5613 156.909L47.7373 148.538C48.882 146.992 50.0132 145.191 51.4124 143.874C52.7495 142.616 54.5208 142.09 56.2726 141.722C66.1083 140.961 75.768 144.457 83.673 150.162C89.9662 154.633 95.0406 160.609 98.4312 167.545C99.0897 168.89 99.8954 170.345 100.113 171.84C100.208 172.513 100.169 173.366 99.6992 173.899C99.3302 174.318 99.0687 174.469 98.534 174.549C95.977 174.932 92.9319 174.63 90.3235 174.625L72.9805 174.612L28.554 174.573Z" fill="#FEFEFE"/>
<path d="M191.488 175.379C190.325 175.648 185.43 175.7 184.407 175.294C184.249 175.231 184.179 174.915 184.111 174.756C185.435 174.547 190.817 174.316 191.831 174.874L191.488 175.379Z" fill="black"/>
<path d="M352.066 1.25488C345.758 0.570087 339.379 1.01425 333.227 2.56635C318.766 6.27575 306.345 15.5207 298.643 28.3058C291.53 40.1311 289.173 54.2155 292.05 67.7113C292.84 71.343 294.386 74.6552 295.279 78.2101L295.008 78.4703L294.66 78.3023C292.453 75.1519 290.633 65.5699 290.251 61.614C288.806 46.6474 293.653 31.9981 303.208 20.4801C312.877 8.9554 326.692 1.6939 341.67 0.262469C346.048 -0.297454 351.075 0.105861 355.42 0.838265C370.384 3.21193 383.764 11.5062 392.543 23.8521C401.135 35.9939 404.847 50.6037 402.272 65.34C401.8 68.0449 399.876 77.4522 397.597 79.0494C397.2 78.2635 398.199 76.4482 398.526 75.6317C400.161 71.5321 401.269 67.2418 401.824 62.8634C403.712 48.2746 399.288 33.7624 390.322 22.2052C380.92 10.0862 367.087 3.18322 352.066 1.25488Z" fill="black"/>
<path d="M352.281 66.76C352.727 69.1906 353.2 71.713 353.917 74.0787L353.76 75.2903C353.694 75.2468 353.625 75.206 353.56 75.1603C352.633 74.5109 351.687 68.4647 351.387 66.9824C351.155 67.0282 350.922 67.0725 350.689 67.1152C344.944 68.1606 339.616 65.7916 334.981 62.5903C334.997 64.7876 335.196 73.4291 334.008 74.7705L333.699 74.6851C333.323 72.8239 334.009 70.0747 334.111 68.1352C334.218 66.1011 334.143 64.075 334.045 62.0426C332.975 61.347 331.679 60.6256 330.832 59.6593C328.478 56.9748 329.238 52.7829 329.47 49.4944C329.189 49.4958 328.908 49.4881 328.627 49.4717C326.679 49.377 324.943 48.6625 323.63 47.1837C322.53 45.9672 321.975 44.3538 322.093 42.7179C322.239 40.842 323.179 39.3663 324.567 38.1535C323.692 32.7709 323.464 27.536 326.145 22.5926C327.119 20.7976 328.595 19.0529 330.636 18.4878C332.138 18.0719 333.26 18.3653 334.579 19.1176C335.316 18.0885 336.156 17.0732 337.152 16.2846C339.535 14.3966 342.512 13.822 345.492 14.1999C349.569 14.7168 352.039 16.6816 354.468 19.7984C356.679 19.5213 359.024 19.5743 361.146 20.3013C363.819 21.2172 366.277 23.2795 367.521 25.8345C369.879 30.6752 366.816 37.012 364.412 41.2848C363.389 43.1037 362.082 44.9627 361.462 46.9608C360.195 51.0451 360.273 55.52 358.774 59.7247C357.545 63.1729 355.525 65.2249 352.281 66.76ZM344.149 26.6005C342.106 26.8556 340.625 27.3981 339.32 29.0662C335.759 33.6195 336.124 43.9619 332.562 48.1738C335.076 50.93 342.49 60.1397 346.151 60.3093C347.958 60.3934 350.667 58.4055 352.151 59.1041C352.607 59.593 353.044 60.1667 353.014 60.8751C352.99 61.432 352.632 61.8981 352.207 62.2288C350.669 63.4273 347.877 63.8871 345.992 63.597C340.489 62.7502 334.575 55.1176 330.904 51.1344L330.517 50.9678C329.792 51.9033 330.185 55.3132 330.347 56.5605C330.437 57.2478 330.616 57.9088 330.818 58.5708C335.187 62.5143 342.722 66.8174 348.748 66.5096C351.408 66.3737 353.852 65.4397 355.641 63.4175C356.704 62.2167 357.421 60.7698 357.958 59.2698C359.453 55.0999 361.511 43.6949 361.209 39.2715C360.998 36.185 359.653 33.5607 357.293 31.5596C354.038 28.8001 348.426 26.6047 344.149 26.6005ZM326.87 38.1139C324.083 38.8344 322.391 41.658 323.069 44.4548C323.748 47.2516 326.547 48.9858 329.355 48.3491C331.208 47.9287 332.692 46.5423 333.236 44.7216C333.781 42.9006 333.302 40.9277 331.983 39.5591C330.665 38.1902 328.711 37.638 326.87 38.1139Z" fill="black"/>
<path d="M332.562 48.1738C336.124 43.9619 335.759 33.6195 339.32 29.0662C340.625 27.3981 342.106 26.8557 344.149 26.6006C348.426 26.6048 354.037 28.8001 357.293 31.5596C359.653 33.5607 360.998 36.1851 361.209 39.2715C361.511 43.6949 359.453 55.0999 357.958 59.2698C357.421 60.7698 356.704 62.2167 355.641 63.4175C353.852 65.4397 351.408 66.3737 348.748 66.5096C342.722 66.8174 335.187 62.5143 330.818 58.5708C330.616 57.9089 330.437 57.2479 330.347 56.5605C330.185 55.3132 329.792 51.9033 330.517 50.9678L330.904 51.1345C334.575 55.1176 340.489 62.7502 345.992 63.597C347.877 63.8871 350.669 63.4273 352.207 62.2288C352.632 61.8981 352.99 61.432 353.014 60.8751C353.044 60.1668 352.606 59.5931 352.151 59.1041C350.667 58.4055 347.958 60.3934 346.151 60.3094C342.49 60.1397 335.076 50.93 332.562 48.1738Z" fill="#FEFEFE"/>
<path d="M389.207 67.3034L388.804 66.8513C388.64 65.7015 389.19 64.1749 389.43 63.0259C391.612 52.5696 389.043 41.6272 383.826 32.4826C382.965 30.9721 381.78 29.7453 380.885 28.2931C380.559 27.7657 380.584 27.6522 380.707 27.0781C380.747 27.0972 380.79 27.1128 380.829 27.135C383.816 28.8428 388.055 38.8652 389.049 42.238C391.008 48.8901 391.456 55.8958 390.36 62.743C390.143 64.1805 389.909 66.0204 389.207 67.3034Z" fill="black"/>
<path d="M329.355 48.3491C326.547 48.9858 323.748 47.2516 323.069 44.4548C322.391 41.658 324.083 38.8344 326.87 38.1139C328.71 37.638 330.665 38.1902 331.983 39.5591C333.302 40.9277 333.781 42.9006 333.236 44.7216C332.692 46.5423 331.208 47.9287 329.355 48.3491Z" fill="#0AB69C"/>
<path d="M296.323 117.395C296.035 106.557 298.535 96.344 305.406 87.7421C311.714 79.8448 320.428 75.2529 330.418 74.1177L332.257 73.9554C334.346 80.4451 336.119 87.0153 338.077 93.5443C340.459 101.486 343.017 109.44 344.971 117.497L311.447 117.464C306.406 117.476 301.364 117.452 296.323 117.395Z" fill="#0AB69C"/>
<path d="M353.917 74.0787C363.92 74.5149 375.828 78.8463 382.698 86.3575C390.481 94.8668 390.07 106.634 390.281 117.447C382.648 117.451 374.985 117.604 367.356 117.445L359.729 92.8509C358.441 88.7447 356.779 84.5373 355.749 80.3748C355.764 80.0247 355.617 79.7232 355.494 79.4025C354.888 78.3541 354.752 75.9032 353.76 75.2902L353.917 74.0787Z" fill="#0AB69C"/>
<path d="M355.494 79.4025C355.617 79.7232 355.764 80.0247 355.749 80.3748C352.27 82.2192 348.922 83.237 344.981 83.5252C342.86 83.6805 337.109 83.7526 335.449 82.3181L335.465 81.9223C336.261 81.6151 337.361 82.1351 338.175 82.3246C343.715 83.6149 350.679 82.3599 355.494 79.4025Z" fill="black"/>
<path d="M420 117.197C420 117.641 387.093 118 346.5 118C305.907 118 273 117.641 273 117.197C273 116.754 305.907 117.197 346.5 117.197C387.093 117.197 420 116.754 420 117.197Z" fill="black"/>
</svg>
