<svg width="65" height="65" viewBox="0 0 65 65" fill="none" xmlns="http://www.w3.org/2000/svg">
<path d="M27.5488 4.15137C20.7187 4.5957 15.6406 9.43262 14.8408 16.25C14.2187 21.6328 16.9228 26.8252 21.7217 29.4531L22.3691 29.8086L21.0615 30.2148C14.4726 32.2588 9.02634 37.1084 6.20798 43.418C5.8652 44.167 5.48434 45.1953 5.332 45.7158C4.40524 49.0801 6.19528 52.4824 9.59763 53.8027L10.4736 54.1455L22.7881 54.1836L35.1152 54.2217L35.0644 54.6279C34.9756 55.4277 35.6992 56.6973 36.6133 57.3574C37.7685 58.1826 39 58.1953 40.0283 57.3701L40.5107 56.9893L41.5644 57.4336C42.1484 57.6875 42.6816 57.8906 42.7451 57.8906C42.8213 57.8906 42.9101 58.1699 42.9355 58.5127C43.0244 59.3506 43.4052 60.0361 44.04 60.4932C44.5478 60.8486 44.6748 60.874 45.9062 60.9121C47.1377 60.9629 47.2646 60.9375 47.7978 60.6328C48.4834 60.2266 48.9531 59.4648 49.0801 58.5635C49.1181 58.1953 49.2197 57.8906 49.2959 57.8906C49.3593 57.8906 49.9052 57.6875 50.4892 57.4336L51.5556 56.9766L51.8984 57.2939C52.9394 58.2969 54.4121 58.2334 55.6181 57.1543C56.9511 55.9609 57.2939 54.6279 56.5703 53.4092C56.3926 53.0791 56.1513 52.7744 56.0371 52.7109C55.872 52.6221 55.8974 52.4951 56.2148 51.8477C56.4179 51.4414 56.6592 50.8955 56.7353 50.6416C56.875 50.1973 56.9131 50.1719 57.5732 50.1211C59.0459 49.9941 59.9218 48.8643 59.9218 47.0742C59.9218 45.6016 59.5283 44.8145 58.5 44.2939C58.2334 44.167 57.7763 44.0527 57.459 44.0527C56.9131 44.0527 56.8877 44.0273 56.7353 43.5703C56.6592 43.3164 56.4306 42.7578 56.2402 42.3389L55.8974 41.5645L56.3164 41.082C56.8623 40.4473 57.0654 39.5967 56.8623 38.7969C56.6845 38.0859 55.6054 36.8164 54.831 36.4229C53.917 35.9658 52.3935 36.207 51.7461 36.9307C51.5302 37.1592 51.5049 37.1592 50.5527 36.7529C50.0195 36.5244 49.4736 36.3086 49.3593 36.2705C49.2197 36.2197 49.1308 36.0547 49.1308 35.8516C49.1308 34.7852 48.2676 33.5918 47.2773 33.2871C46.6299 33.0967 45.4238 33.0967 44.7509 33.2744C44.4717 33.3506 44.04 33.6299 43.7607 33.9092L43.2656 34.4043L42.415 33.7822C40.4726 32.3477 38.1494 31.1543 35.8642 30.4053C35.1025 30.1514 34.3916 29.9229 34.29 29.8848C34.2011 29.8594 34.6328 29.5039 35.2929 29.0977C38.9238 26.8125 41.1709 23.2197 41.6406 18.916C41.9961 15.6279 40.9931 12.0986 38.9238 9.40723C37.7177 7.8584 35.8134 6.29688 34.0869 5.45898C32.1699 4.53223 29.58 4.01172 27.5488 4.15137ZM30.3925 6.42383C32.83 6.89355 34.6836 7.8584 36.372 9.57227C39.4443 12.6826 40.4092 17.1514 38.9619 21.5186C37.7685 25.0986 34.8867 27.7266 31.04 28.7168C29.4404 29.123 26.6728 29.1357 25.2509 28.7295C21.747 27.7266 18.9795 25.2764 17.6084 21.9629C16.5166 19.3096 16.4785 16.1611 17.5322 13.4316C18.916 9.83887 22.4326 6.96973 26.165 6.36035C27.7646 6.09375 28.7168 6.10645 30.3925 6.42383ZM32.7793 31.5986C34.5058 31.9795 36.1562 32.5381 37.7051 33.2744C39.0634 33.9219 41.0693 35.1914 41.9326 35.9531L42.4277 36.3721L41.4502 36.7783L40.4853 37.1719L40.1679 36.8545C39.7363 36.4229 39.0888 36.1816 38.3398 36.1816C37.5146 36.1816 37.0576 36.4102 36.1435 37.3115C35.5722 37.8574 35.3691 38.1748 35.2168 38.6826C34.9248 39.6729 35.1533 40.5996 35.8388 41.2344L36.1562 41.5391L35.7373 42.4404C35.4961 42.9482 35.2802 43.5068 35.2295 43.6973C35.1533 43.9893 35.0771 44.0273 34.3916 44.0781C33.7949 44.1162 33.5537 44.2051 33.1728 44.5225C32.3476 45.1826 32.1191 45.7158 32.1191 47.0488C32.1191 48.0137 32.1699 48.293 32.4111 48.7627C32.8301 49.5371 33.5791 50.0449 34.4424 50.1211L35.1279 50.1719L35.5088 51.1748L35.9023 52.1777H23.6259C10.7275 52.1777 10.7529 52.1777 9.6611 51.6064C8.87399 51.2002 7.92184 50.1973 7.55368 49.3594C7.00778 48.1406 6.98239 47.1885 7.47751 45.7031C8.02341 44.0781 9.10251 41.958 10.1308 40.498C11.3496 38.7588 13.8252 36.3213 15.539 35.1787C18.5351 33.1855 21.5566 31.9922 25.0732 31.4209C26.7871 31.1416 31.1416 31.2432 32.7793 31.5986ZM46.8965 35.4453C47.0107 35.5977 47.0996 35.9531 47.0996 36.2197C47.0996 37.2607 47.6328 37.8574 48.9404 38.3018C49.2959 38.416 49.9179 38.6699 50.3369 38.873C51.4795 39.4062 52.3554 39.3047 53.0537 38.543C53.2314 38.3652 53.498 38.2129 53.6504 38.2129C53.9804 38.2129 54.5898 38.6826 54.831 39.1523C54.9961 39.457 54.9834 39.5078 54.5517 39.9775C53.9043 40.7012 53.7265 41.3613 53.9804 42.123C54.4629 43.5449 55.1611 45.0303 55.5166 45.4238C55.9228 45.8428 56.5195 46.084 57.2051 46.084C57.4082 46.084 57.6494 46.1475 57.7383 46.2363C57.9414 46.4395 57.9414 47.7598 57.7383 47.9629C57.6494 48.0518 57.3447 48.1152 57.04 48.1152C56.3926 48.1152 55.7705 48.3564 55.4404 48.7119C55.2119 48.9785 54.1709 51.3652 53.9297 52.1777C53.7392 52.7998 53.9804 53.5488 54.5263 54.1328C54.7676 54.3994 54.9707 54.666 54.9707 54.7295C54.9707 54.793 54.7295 55.1104 54.4502 55.415C53.9424 55.9736 53.5488 56.126 53.3838 55.8467C53.333 55.7705 53.0664 55.542 52.7871 55.3389C52.0381 54.8057 51.3652 54.8311 49.791 55.4785C49.1181 55.7578 48.3564 56.0879 48.1152 56.2148C47.4931 56.5195 47.0996 57.167 47.0996 57.8906C47.0996 58.7285 46.9218 58.9062 46.0586 58.9316C45.1445 58.957 44.9414 58.792 44.9414 58.0557C44.9414 57.3574 44.6494 56.6973 44.1924 56.3799C44.0146 56.2529 43.2021 55.8848 42.4023 55.5547C40.5996 54.8311 40.0156 54.793 39.2539 55.3389C38.9746 55.542 38.708 55.7705 38.6572 55.8467C38.4922 56.1133 38.124 55.9736 37.6035 55.4404C37.3115 55.1484 37.0703 54.8184 37.0703 54.7295C37.0703 54.6279 37.2734 54.3359 37.5019 54.0693C38.0986 53.4092 38.289 52.6855 38.0478 52C37.7685 51.2002 36.9941 49.4229 36.7275 48.9785C36.4228 48.458 35.75 48.1152 35.0263 48.1152C34.2519 48.1152 34.125 47.9502 34.1758 46.9473C34.2138 46.1982 34.2392 46.1475 34.5312 46.1094C36.334 45.9189 36.5498 45.7412 37.4258 43.6973C37.7812 42.8594 38.1113 42.0469 38.1494 41.8691C38.2763 41.374 38.0097 40.5996 37.5146 40.0283C37.2734 39.7363 37.0703 39.4443 37.0703 39.3682C37.0703 39.292 37.2734 39 37.5273 38.7207C38.1113 38.0859 38.4668 38.0605 39.1142 38.6572C39.9648 39.4316 40.4853 39.4062 42.7197 38.4668C44.4843 37.7432 44.9414 37.248 44.9414 36.1309C44.9414 35.3691 45.1699 35.166 46.0205 35.166C46.5791 35.166 46.7441 35.2168 46.8965 35.4453Z" fill="#0B7464"/>
<path d="M44.8145 39.6983C42.6562 40.0537 40.2949 41.7803 39.3809 43.6719C38.3271 45.8555 38.3271 48.293 39.3809 50.5147C39.9141 51.6445 41.374 53.1045 42.542 53.6631C45.5127 55.1104 49.0547 54.5645 51.3018 52.3174C53.5615 50.0576 54.082 46.5791 52.6094 43.6338C52.0254 42.4912 50.667 41.1074 49.5498 40.5234C48.166 39.7998 46.2363 39.457 44.8145 39.6983ZM47.125 41.7803C48.75 42.1231 50.1719 43.2022 50.8193 44.5859C52.4316 47.9883 50.4258 51.9111 46.833 52.419C43.4814 52.8887 40.6377 50.4512 40.625 47.0996C40.625 46.2744 40.8916 45.1572 41.2725 44.4082C42.2754 42.4277 44.8145 41.2979 47.125 41.7803Z" fill="#0B7464"/>
</svg>
